<svg xmlns="http://www.w3.org/2000/svg" width="336.77" height="321.184" viewBox="0 0 336.77 321.184">
  <g id="Grupo_55796" data-name="Grupo 55796" transform="translate(-248.021 -9115.176)">
    <g id="Grupo_55772" data-name="Grupo 55772" transform="translate(189.37 9045.43)">
      <g id="Background_Simple" data-name="Background Simple" transform="translate(65.665 69.746)">
        <g id="Grupo_55758" data-name="Grupo 55758" transform="translate(0)">
          <path id="Trazado_102325" data-name="Trazado 102325" d="M263.663,356.076s69.183,3.236,112.939-74.943-7.727-150.1-87.274-165.644S170.161,41.6,99.266,86.27,67.768,368.811,263.663,356.076Z" transform="translate(-66.485 -69.746)" fill="#edfff6"/>
          <path id="Trazado_102326" data-name="Trazado 102326" d="M263.663,356.076s69.183,3.236,112.939-74.943-7.727-150.1-87.274-165.644S170.161,41.6,99.266,86.27,67.768,368.811,263.663,356.076Z" transform="translate(-66.485 -69.746)" fill="#edfff6"/>
        </g>
      </g>
      <g id="Shadow" transform="translate(62.038 370.254)" opacity="0.339">
        <g id="Grupo_55759" data-name="Grupo 55759">
          <ellipse id="Elipse_4046" data-name="Elipse 4046" cx="166.692" cy="10.338" rx="166.692" ry="10.338" fill="#9ddfd3"/>
          <ellipse id="Elipse_4047" data-name="Elipse 4047" cx="166.692" cy="10.338" rx="166.692" ry="10.338" fill="#9ddfd3"/>
        </g>
      </g>
      <g id="Graphics" transform="translate(131.892 81.267)">
        <g id="Grupo_55766" data-name="Grupo 55766" transform="translate(0)">
          <path id="Trazado_102327" data-name="Trazado 102327" d="M291.023,111.287l-.486,4.067,2.211.788a17.545,17.545,0,0,0,.576,4.127l-1.916,1.391,1.612,3.775,2.316-.435a18,18,0,0,0,2.562,3.283l-.973,2.168,3.289,2.458,1.78-1.514a17.774,17.774,0,0,0,3.862,1.566l.248,2.352,4.068.486.788-2.212a17.6,17.6,0,0,0,4.127-.576l1.393,1.907,3.766-1.614-.423-2.31a18.014,18.014,0,0,0,3.282-2.56l2.164.967,2.454-3.28-1.518-1.787a17.6,17.6,0,0,0,1.563-3.862l2.355-.247.486-4.068-2.211-.788a17.79,17.79,0,0,0-.576-4.127l1.918-1.392-1.614-3.776-2.31.423a17.884,17.884,0,0,0-2.572-3.272l.964-2.167L320.919,98.6l-1.786,1.52a17.57,17.57,0,0,0-3.842-1.563l-.245-2.354-4.069-.486-.788,2.21a17.856,17.856,0,0,0-4.13.582L304.668,96.6l-3.776,1.612.423,2.31a17.983,17.983,0,0,0-3.282,2.56l-2.165-.964-2.455,3.29,1.518,1.785a17.789,17.789,0,0,0-1.566,3.864Zm9.444,3.26a10.179,10.179,0,1,1,8.9,11.314h0a10.178,10.178,0,0,1-8.9-11.314Z" transform="translate(-157.688 -84.163)" fill="none" stroke="#31326f" stroke-linejoin="round" stroke-width="1.571"/>
          <path id="Trazado_102328" data-name="Trazado 102328" d="M171.559,224.169l-.441,3.686,2,.714a15.921,15.921,0,0,0,.522,3.74l-1.735,1.259,1.46,3.422,2.1-.395a16.309,16.309,0,0,0,2.321,2.974l-.881,1.965,2.981,2.228,1.613-1.372a16.036,16.036,0,0,0,3.5,1.418l.225,2.132,3.686.44.714-2a15.908,15.908,0,0,0,3.739-.522l1.263,1.728,3.411-1.462-.383-2.093a16.3,16.3,0,0,0,2.974-2.32l1.961.876,2.224-2.971-1.375-1.62a15.953,15.953,0,0,0,1.417-3.5l2.133-.224.44-3.686-2-.714a16.1,16.1,0,0,0-.522-3.739l1.738-1.262-1.463-3.422-2.093.383a16.208,16.208,0,0,0-2.331-2.965l.873-1.964-2.981-2.225-1.618,1.377a15.874,15.874,0,0,0-3.481-1.416l-.222-2.133-3.687-.44-.714,2a16.132,16.132,0,0,0-3.742.527l-1.261-1.734-3.421,1.461.383,2.093a16.261,16.261,0,0,0-2.974,2.319l-1.962-.873-2.225,2.981,1.375,1.617a16.139,16.139,0,0,0-1.419,3.5Zm8.557,2.954a9.223,9.223,0,1,1,8.064,10.252h0a9.223,9.223,0,0,1-8.064-10.252Z" transform="translate(-144.376 -96.909)" fill="#31326f" stroke="#31326f" stroke-miterlimit="10" stroke-width="1"/>
          <g id="Grupo_55760" data-name="Grupo 55760" transform="translate(133.667 172.68)">
            <path id="Trazado_102329" data-name="Trazado 102329" d="M372.869,322.1v-8.362l-4.671-1.062a35.837,35.837,0,0,0-2.165-8.225l3.545-3.282-4.18-7.263-4.589,1.444a36.73,36.73,0,0,0-5.987-6.033l1.447-4.63-7.263-4.185-3.24,3.5a36.263,36.263,0,0,0-8.207-2.238l-1.072-4.707h-8.361l-1.062,4.675a35.87,35.87,0,0,0-8.225,2.164l-3.287-3.527-7.241,4.181,1.416,4.58a36.7,36.7,0,0,0-6.032,5.982l-4.621-1.434-4.181,7.24,3.509,3.255a35.966,35.966,0,0,0-2.233,8.207l-4.712,1.072v8.361l4.671,1.062a36.218,36.218,0,0,0,2.165,8.225l-3.551,3.287,4.186,7.263,4.579-1.416a36.562,36.562,0,0,0,6.006,6.01l-1.43,4.626,7.263,4.18,3.25-3.513a35.8,35.8,0,0,0,8.166,2.237l1.066,4.712H336.2l1.063-4.671a36.378,36.378,0,0,0,8.23-2.179l3.282,3.541L356.033,351l-1.416-4.58a36.7,36.7,0,0,0,6.032-5.982l4.621,1.43,4.181-7.263-3.509-3.25a36.338,36.338,0,0,0,2.238-8.211Zm-14.461-4.322a26.247,26.247,0,1,1-26.247-26.247h0a26.248,26.248,0,0,1,26.247,26.247Z" transform="translate(-291.458 -277.058)" fill="#ffc93c"/>
          </g>
          <g id="Grupo_55761" data-name="Grupo 55761">
            <rect id="Rectángulo_5403" data-name="Rectángulo 5403" width="21.538" height="4.967" transform="translate(48.265 10.164)" fill="#c6ff00"/>
            <rect id="Rectángulo_5404" data-name="Rectángulo 5404" width="14.154" height="4.967" transform="translate(48.265 17.344)" fill="#c6ff00"/>
            <rect id="Rectángulo_5405" data-name="Rectángulo 5405" width="8.148" height="4.967" transform="translate(48.265 24.523)" fill="#c6ff00"/>
            <rect id="Rectángulo_5406" data-name="Rectángulo 5406" width="21.538" height="4.967" transform="translate(48.265 10.164)" fill="#cc3d60"/>
            <rect id="Rectángulo_5407" data-name="Rectángulo 5407" width="14.154" height="4.967" transform="translate(48.265 17.344)" fill="#cc3d60"/>
            <rect id="Rectángulo_5408" data-name="Rectángulo 5408" width="8.148" height="4.967" transform="translate(48.265 24.523)" fill="#cc3d60"/>
            <rect id="Rectángulo_5409" data-name="Rectángulo 5409" width="7.304" height="14.963" transform="translate(10.867 65.182)" fill="#c6ff00"/>
            <rect id="Rectángulo_5410" data-name="Rectángulo 5410" width="7.304" height="9.827" transform="translate(21.413 70.326)" fill="#c6ff00"/>
            <rect id="Rectángulo_5411" data-name="Rectángulo 5411" width="7.304" height="5.66" transform="translate(31.969 74.494)" fill="#c6ff00"/>
            <rect id="Rectángulo_5412" data-name="Rectángulo 5412" width="7.304" height="14.963" transform="translate(10.867 65.182)" fill="#cc3d60"/>
            <rect id="Rectángulo_5413" data-name="Rectángulo 5413" width="7.304" height="9.827" transform="translate(21.413 70.326)" fill="#cc3d60"/>
            <rect id="Rectángulo_5414" data-name="Rectángulo 5414" width="7.304" height="5.66" transform="translate(31.969 74.494)" opacity="0.2" style="isolation: isolate"/>
            <path id="Trazado_102330" data-name="Trazado 102330" d="M238.688,174.187H150.253a9.241,9.241,0,0,1-9.232-9.232V91.945a9.24,9.24,0,0,1,9.232-9.232h88.435a9.241,9.241,0,0,1,9.232,9.232v73.01A9.241,9.241,0,0,1,238.688,174.187Zm-88.435-90.63a8.441,8.441,0,0,0-8.423,8.423v73.01a8.441,8.441,0,0,0,8.423,8.423h88.435a8.441,8.441,0,0,0,8.423-8.423V91.945a8.441,8.441,0,0,0-8.423-8.423Z" transform="translate(-141.021 -82.713)" fill="#31326f"/>
            <rect id="Rectángulo_5415" data-name="Rectángulo 5415" width="31.534" height="0.809" transform="translate(64.996 65.591)" fill="#31326f"/>
            <rect id="Rectángulo_5416" data-name="Rectángulo 5416" width="31.534" height="0.809" transform="translate(64.996 68.976)" fill="#31326f"/>
            <rect id="Rectángulo_5417" data-name="Rectángulo 5417" width="31.534" height="0.809" transform="translate(64.996 72.352)" fill="#31326f"/>
            <rect id="Rectángulo_5418" data-name="Rectángulo 5418" width="31.534" height="0.809" transform="translate(64.996 75.729)" fill="#31326f"/>
            <rect id="Rectángulo_5419" data-name="Rectángulo 5419" width="31.534" height="0.809" transform="translate(64.996 79.105)" fill="#31326f"/>
            <rect id="Rectángulo_5420" data-name="Rectángulo 5420" width="31.534" height="0.809" transform="translate(9.898 10.502)" fill="#31326f"/>
            <rect id="Rectángulo_5421" data-name="Rectángulo 5421" width="31.534" height="0.809" transform="translate(9.898 13.878)" fill="#31326f"/>
            <rect id="Rectángulo_5422" data-name="Rectángulo 5422" width="31.534" height="0.809" transform="translate(9.898 17.255)" fill="#31326f"/>
            <rect id="Rectángulo_5423" data-name="Rectángulo 5423" width="31.534" height="0.809" transform="translate(9.898 20.631)" fill="#31326f"/>
            <rect id="Rectángulo_5424" data-name="Rectángulo 5424" width="31.534" height="0.809" transform="translate(9.898 24.008)" fill="#31326f"/>
            <path id="Trazado_102331" data-name="Trazado 102331" d="M233.163,123.6l5.647,2.961-.642-15.935-13.482,8.526,5.648,2.962-4.255,8.092h0a3.335,3.335,0,0,0-2.069.71L216.5,127.45v-.041a3.446,3.446,0,1,0-6.883-.342h0a2.433,2.433,0,0,0,0,.342,3.525,3.525,0,0,0,.309,1.426l-9.786,10.629a3.25,3.25,0,0,0-.968-.15,2.524,2.524,0,0,0-.5.051l-14.032-17.829a3.437,3.437,0,0,0-6.29-2.77,3.345,3.345,0,0,0-.292,1.368,3.682,3.682,0,0,0,.175,1.043l-16.076,16.4a3.437,3.437,0,1,0,2.052,4.407v0a3.343,3.343,0,0,0,.208-1.176,3.12,3.12,0,0,0-.116-.834l16.218-16.543a3.557,3.557,0,0,0,.984.158,3.216,3.216,0,0,0,.626-.067l14,17.737a3.479,3.479,0,1,0,6.532,1.844,2.442,2.442,0,0,0,0-.342,3.55,3.55,0,0,0-.184-1.059l10.011-10.9a3.3,3.3,0,0,0,.576.059,3.425,3.425,0,0,0,1.919-.585l7.642,3.554a3.437,3.437,0,1,0,6.257-2.127Z" transform="translate(-142.863 -85.825)" fill="#31326f"/>
          </g>
          <g id="Grupo_55763" data-name="Grupo 55763" transform="translate(92.628 100.877)">
            <g id="chart-1--inject-2">
              <path id="Trazado_102332" data-name="Trazado 102332" d="M250.513,196.268a5.254,5.254,0,0,0-5.243,5.249v45.5a5.253,5.253,0,0,0,5.243,5.249H305.63a5.259,5.259,0,0,0,5.249-5.249V201.5a5.261,5.261,0,0,0-5.249-5.249Z" transform="translate(-245.27 -196.246)" fill="none" stroke="#31326f" stroke-linejoin="round" stroke-width="1"/>
              <rect id="Rectángulo_5425" data-name="Rectángulo 5425" width="4.185" height="0.556" transform="translate(4.344 6.219)" fill="#31326f"/>
              <rect id="Rectángulo_5426" data-name="Rectángulo 5426" width="4.185" height="0.556" transform="translate(4.344 10.789)" fill="#263238"/>
              <rect id="Rectángulo_5427" data-name="Rectángulo 5427" width="4.185" height="0.556" transform="translate(4.344 15.359)" fill="#31326f"/>
              <rect id="Rectángulo_5428" data-name="Rectángulo 5428" width="4.185" height="0.556" transform="translate(4.344 19.93)" fill="#31326f"/>
              <line id="Línea_460" data-name="Línea 460" x2="4.185" transform="translate(4.184 6.219)" fill="#31326f"/>
              <rect id="Rectángulo_5429" data-name="Rectángulo 5429" width="4.185" height="0.556" transform="translate(4.184 10.789)" fill="#31326f"/>
              <rect id="Rectángulo_5430" data-name="Rectángulo 5430" width="4.185" height="0.556" transform="translate(4.344 24.5)" fill="#31326f"/>
            </g>
            <g id="Grupo_55762" data-name="Grupo 55762" transform="translate(15.909 8.672)">
              <path id="Trazado_102333" data-name="Trazado 102333" d="M283.3,246.607a20.072,20.072,0,1,0-19.66-20.476,20.071,20.071,0,0,0,19.66,20.476Zm.7-34.246a14.216,14.216,0,1,1-14.5,13.924A14.216,14.216,0,0,1,283.995,212.362Z" transform="translate(-263.226 -206.058)" fill="#cc3d60"/>
              <path id="Trazado_102334" data-name="Trazado 102334" d="M269.247,240.85a20.436,20.436,0,0,0,28.9.125.418.418,0,0,0,.012-.569l-4.164-4.164a.454.454,0,0,0-.291-.122.491.491,0,0,0-.287.119,13.681,13.681,0,0,1-10.026,4.008l-.986-.02a13.753,13.753,0,0,1-8.18-3.295c-.21-.191-.419-.373-.619-.573a14.037,14.037,0,0,1-1.553-18.01.371.371,0,0,0,.045-.079c.092-.123.192-.236.292-.359a13.751,13.751,0,0,1,11.561-5.2.4.4,0,0,0,.408-.392h0l.12-5.89a.409.409,0,0,0-.391-.417h0a20.436,20.436,0,0,0-14.839,34.838Z" transform="translate(-263.19 -206.006)" fill="#31326f"/>
              <path id="Trazado_102335" data-name="Trazado 102335" d="M284.071,206.011a20.467,20.467,0,1,1-.044,0Zm-.817,40.136a19.672,19.672,0,1,0-19.268-20.068h0A19.69,19.69,0,0,0,283.255,246.147Zm.7-34.246a14.589,14.589,0,1,1-14.884,14.29,14.59,14.59,0,0,1,14.884-14.29Zm-.577,28.355a13.781,13.781,0,1,0-13.5-14.058h0a13.79,13.79,0,0,0,13.5,14.049Z" transform="translate(-263.175 -206.006)" fill="#31326f"/>
            </g>
          </g>
          <g id="Grupo_55765" data-name="Grupo 55765" transform="translate(11.123 166.124)">
            <g id="Grupo_55764" data-name="Grupo 55764" transform="translate(9.421 7.512)">
              <line id="Línea_461" data-name="Línea 461" y2="53.895" transform="translate(4.911)" fill="none" stroke="#31326f" stroke-linecap="round" stroke-linejoin="round" stroke-width="0.879"/>
              <rect id="Rectángulo_5431" data-name="Rectángulo 5431" width="4.58" height="30.856" transform="translate(8.996 20.334)" fill="#31326f" stroke="#31326f" stroke-miterlimit="10" stroke-width="1"/>
              <rect id="Rectángulo_5432" data-name="Rectángulo 5432" width="4.58" height="18.262" transform="translate(15.539 32.929)" fill="#c6ff00"/>
              <rect id="Rectángulo_5433" data-name="Rectángulo 5433" width="4.58" height="40.834" transform="translate(23.226 10.356)" fill="#ffc93c" stroke="#31326f" stroke-linejoin="round" stroke-width="0.879"/>
              <rect id="Rectángulo_5434" data-name="Rectángulo 5434" width="4.58" height="46.722" transform="translate(35.985 4.468)" fill="#31326f" stroke="#31326f" stroke-miterlimit="10" stroke-width="1"/>
              <rect id="Rectángulo_5435" data-name="Rectángulo 5435" width="4.58" height="11.556" transform="translate(42.527 39.635)" fill="#c6ff00"/>
              <rect id="Rectángulo_5436" data-name="Rectángulo 5436" width="4.58" height="27.585" transform="translate(50.215 23.605)" fill="#ffc93c" stroke="#31326f" stroke-linejoin="round" stroke-width="0.879"/>
              <rect id="Rectángulo_5437" data-name="Rectángulo 5437" width="4.58" height="23.361" transform="translate(68.862 27.829)" fill="#31326f" stroke="#31326f" stroke-miterlimit="10" stroke-width="1"/>
              <rect id="Rectángulo_5438" data-name="Rectángulo 5438" width="4.58" height="41.488" transform="translate(75.404 9.702)" fill="#c6ff00"/>
              <rect id="Rectángulo_5439" data-name="Rectángulo 5439" width="4.58" height="32.329" transform="translate(83.092 18.862)" fill="#ffc93c" stroke="#31326f" stroke-linejoin="round" stroke-width="0.879"/>
              <line id="Línea_462" data-name="Línea 462" x2="2.555" transform="translate(0 44.051)" fill="none" stroke="#31326f" stroke-linecap="round" stroke-linejoin="round" stroke-width="0.879"/>
              <line id="Línea_463" data-name="Línea 463" x2="2.555" transform="translate(0 37.398)" fill="none" stroke="#31326f" stroke-linecap="round" stroke-linejoin="round" stroke-width="0.879"/>
              <line id="Línea_464" data-name="Línea 464" x2="2.555" transform="translate(0 30.745)" fill="none" stroke="#31326f" stroke-linecap="round" stroke-linejoin="round" stroke-width="0.879"/>
              <line id="Línea_465" data-name="Línea 465" x2="2.555" transform="translate(0 24.091)" fill="none" stroke="#31326f" stroke-linecap="round" stroke-linejoin="round" stroke-width="0.879"/>
              <line id="Línea_466" data-name="Línea 466" x2="2.555" transform="translate(0 17.438)" fill="none" stroke="#31326f" stroke-linecap="round" stroke-linejoin="round" stroke-width="0.879"/>
              <line id="Línea_467" data-name="Línea 467" x2="2.555" transform="translate(0 10.785)" fill="none" stroke="#31326f" stroke-linecap="round" stroke-linejoin="round" stroke-width="0.879"/>
              <line id="Línea_468" data-name="Línea 468" x2="2.555" transform="translate(0 4.131)" fill="none" stroke="#31326f" stroke-linecap="round" stroke-linejoin="round" stroke-width="0.879"/>
              <line id="Línea_469" data-name="Línea 469" x2="88.993" transform="translate(1.879 51.191)" fill="none" stroke="#31326f" stroke-linecap="round" stroke-linejoin="round" stroke-width="0.879"/>
              <rect id="Rectángulo_5440" data-name="Rectángulo 5440" width="4.58" height="18.262" transform="translate(15.539 32.929)" fill="#cc3d60"/>
              <rect id="Rectángulo_5441" data-name="Rectángulo 5441" width="4.58" height="11.556" transform="translate(42.527 39.635)" fill="#cc3d60"/>
              <rect id="Rectángulo_5442" data-name="Rectángulo 5442" width="4.58" height="41.488" transform="translate(75.404 9.702)" fill="#cc3d60"/>
            </g>
            <path id="Trazado_102336" data-name="Trazado 102336" d="M159.325,269.7a5.8,5.8,0,0,0-5.785,5.792v52.869a5.8,5.8,0,0,0,5.785,5.791h98.137a5.8,5.8,0,0,0,5.791-5.791V275.47a5.8,5.8,0,0,0-5.791-5.791Z" transform="translate(-153.54 -269.679)" fill="none" stroke="#31326f" stroke-linejoin="round" stroke-width="1"/>
          </g>
        </g>
      </g>
      <g id="Character_1" data-name="Character 1" transform="translate(59.13 80.834)">
        <g id="Grupo_55768" data-name="Grupo 55768">
          <path id="Trazado_102337" data-name="Trazado 102337" d="M71.14,402.228s2.055,13.7-2.913,15.1-8.414-.449-9.036-2.5,3.774-16.707,3.774-16.707Z" transform="translate(-59.13 -117.44)" fill="#fff"/>
          <path id="Trazado_102338" data-name="Trazado 102338" d="M168.459,405.685,190.05,410.8s1.635.937,1.453,2.355-10.029,5.226-12.789,5.7-18.713,2.545-20.981.6,2.52-17.48,2.52-17.48Z" transform="translate(-70.054 -117.869)" fill="#fff"/>
          <path id="Trazado_102339" data-name="Trazado 102339" d="M123.587,124.879s3.036,4.589,3.079,6.908-.235,4.96,1.18,6.331,2.515,2.861,1.932,3.541-1.717,2.038-1.717,2.038,1.468,7.815-.429,9.227-7.618,0-7.618,0v5.043s-8.124-2.655-13.729-2.168l-.993-10.812S117.483,121.582,123.587,124.879Z" transform="translate(-64.276 -86.944)" fill="#fff"/>
          <path id="Trazado_102340" data-name="Trazado 102340" d="M181.974,158s-.728-5.539,1.973-8.882c0,0-3.242-.549-2.85-1.724s5.321.366,5.321.366l-1.341-2.711s-4.66-1.546-4.08-2.99,7.42,2.115,7.42,2.115-4.065-3.4-3.495-4.813,4.7-1.384,6.9,5.941l1.116-1.395s.4-8.334,1.546-8.794c0,0,1.754.982,1.769,5.769,0,0,1.746,2.14.65,3.954s-3.79,5.892-6.046,7.419-2.243,7.488-2.243,7.488Z" transform="translate(-72.71 -88.121)" fill="#fff"/>
          <path id="Trazado_102341" data-name="Trazado 102341" d="M100.694,106.543l1.029-1.374s11.434-5.1,11.145-6.69-6.762.61-7.961-.242c0,0,1.186-15.047.025-15.54s-2.491,7.063-2.491,7.063-1.661-7.743-2.945-7.524-.745,8.026-.745,8.026-2.443-4.982-3.4-4.52.476,6.54.476,6.54-1.743-2.089-2.493-1.461a23.515,23.515,0,0,0,2.477,8.949l-2.477,4.175Z" transform="translate(-62.943 -82.226)" fill="#fff"/>
          <path id="Trazado_102342" data-name="Trazado 102342" d="M167.973,154.687l7.885,1.1s-5.772,48.844-7.464,54.906-3.232,10.366-9.023,10.652-26.429-17.057-26.429-17.057l-.958,23.959,1.34,9.952s-25.242,13.264-50.912,1.723l.574-11.675-9.25-53.367-7.274-25.358,23.481-44.489,8.512,4.445L83.437,150.008l4.2,13.535,4.7-1.886,5.2-6.627s8.809-4.581,19.962,1.8l1.754,5.564s13.076.982,35.156,31.591Z" transform="translate(-59.948 -84.768)" fill="#9ddfd3"/>
          <path id="Trazado_102343" data-name="Trazado 102343" d="M117.3,160.916l1,6.849s7.341,4.865,10.256,6.507c0,0,7.21,45.564,1.87,54.527l-5.619,8.81s5.75,0,8.394-4.024c0,0-3.295,11-11.844,13.961,0,0,13.124-1.372,17.64-3.113l-1.34-9.952,2.15-55.488s2.038-3.713-14.877-10.364l-2.5-6Z" transform="translate(-65.615 -90.997)" opacity="0.2"/>
          <path id="Trazado_102344" data-name="Trazado 102344" d="M125.434,125.623s2.757,4.03,3.079,6.283-.644,4.722,1.18,6.331,2.682,2.682,1.932,3.541-1.717,2.038-1.717,2.038.751,7.618-.429,9.227-7.618,0-7.618,0v5.043" transform="translate(-66.123 -87.063)" fill="none" stroke="#31326f" stroke-linecap="round" stroke-linejoin="round" stroke-width="1"/>
          <path id="Trazado_102345" data-name="Trazado 102345" d="M121.2,145.072s-2.575-6.652-4.507-5.042-.214,10.407,4.507,8.476" transform="translate(-65.46 -88.641)" fill="none" stroke="#31326f" stroke-linecap="round" stroke-linejoin="round" stroke-width="1"/>
          <path id="Trazado_102346" data-name="Trazado 102346" d="M117.76,140.308s3.06-.243,1.128-7.432,2.253-6.223,6.76-8.262,5.579-5.793,4.613-8.046-2.575-3.433-8.262-2.361c0,0-6.223-7.188-12.231.752,0,0-13.519-.215-17.167,6.223s1.181,22.853,8.262,28.325,14,1.092,15.451-4.053c0,0-4.828-2.6-2.361-8.607C113.953,136.846,116.2,136.045,117.76,140.308Z" transform="translate(-62.722 -85.457)" fill="#31326f" stroke="#31326f" stroke-miterlimit="10" stroke-width="1"/>
          <path id="Trazado_102347" data-name="Trazado 102347" d="M73.859,177.763s32.729-23.733,61.247,0l-2.3,57.419,1.34,9.952s-24.116,11.292-50.912,1.723l.574-11.675Z" transform="translate(-60.772 -91.699)" fill="none" stroke="#31326f" stroke-linecap="round" stroke-linejoin="round" stroke-width="1"/>
          <path id="Trazado_102348" data-name="Trazado 102348" d="M95.1,168.325l5.639-7.182s11.043-3.822,19.962,1.8l1.754,5.564" transform="translate(-63.139 -90.881)" fill="none" stroke="#31326f" stroke-linecap="round" stroke-linejoin="round" stroke-width="1"/>
          <line id="Línea_470" data-name="Línea 470" x2="28.496" y2="32.776" transform="translate(74.334 86.064)" fill="none" stroke="#31326f" stroke-linecap="round" stroke-linejoin="round" stroke-width="1"/>
          <path id="Trazado_102349" data-name="Trazado 102349" d="M141.314,209.837s18.876,17.561,26.4,17.74,8.781-8.87,8.781-8.87L184.2,162.02l-7.885-1.1-13.559,39.3" transform="translate(-68.292 -90.997)" fill="none" stroke="#31326f" stroke-linecap="round" stroke-linejoin="round" stroke-width="1"/>
          <g id="Grupo_55767" data-name="Grupo 55767" transform="translate(108.288 46.984)">
            <path id="Trazado_102350" data-name="Trazado 102350" d="M188.971,159.833s.986-6.405,3.6-7.863,5.619-7.142,4.637-8.737-3.961,3.655-6.649,4.671-4.885,5.992-5.252,8.15" transform="translate(-181.483 -135.977)" fill="none" stroke="#31326f" stroke-linecap="round" stroke-linejoin="round" stroke-width="1"/>
            <path id="Trazado_102351" data-name="Trazado 102351" d="M197.353,142.174s-.026-7.4-1.359-7.058-1.546,9.723-1.546,9.723" transform="translate(-182.503 -135.104)" fill="none" stroke="#31326f" stroke-linecap="round" stroke-linejoin="round" stroke-width="1"/>
            <path id="Trazado_102352" data-name="Trazado 102352" d="M192.441,146.207s-.851-4.149-3.331-6.169-3.973-.932-3.692-.254,4.465,6.2,4.343,8.1" transform="translate(-181.492 -135.524)" fill="none" stroke="#31326f" stroke-linecap="round" stroke-linejoin="round" stroke-width="1"/>
            <path id="Trazado_102353" data-name="Trazado 102353" d="M187.731,144.6s-6.71-3.073-6.727-1.24,4.08,2.552,4.08,2.552l1.341,2.711s-5.658-1.807-5.321-.366,2.85,1.724,2.85,1.724-2.75,2.719-1.973,8.882" transform="translate(-181.004 -135.959)" fill="none" stroke="#31326f" stroke-linecap="round" stroke-linejoin="round" stroke-width="1"/>
          </g>
          <path id="Trazado_102354" data-name="Trazado 102354" d="M128.811,255.5l1.716,12.013s15.788,47.363,18.191,56.629,3.774,30.2,4.461,39.812,6.178,25.741,6.178,25.741-.687,6.521-12.356,5.491c0,0-4.805-19.22-9.953-30.546s-5.834-28.486-5.834-28.486l-25.055-45.99s-5.128,26.777-8.58,36.723C94.023,337.135,69.8,394.031,71.5,390.041c0,0-3.432,2.06-10.64-3.089,0,0,5.149-17.161,6.522-26.427s8.58-30.546,8.58-30.546,1.717-40.156,4.462-52.512c0,0-1.758-13.615,2.018-23.225A81.7,81.7,0,0,0,128.811,255.5Z" transform="translate(-59.322 -101.4)" fill="#31326f" stroke="#31326f" stroke-miterlimit="10" stroke-width="1"/>
          <path id="Trazado_102355" data-name="Trazado 102355" d="M96.352,285.591l11.246,3.265,1.633,3.991" transform="translate(-63.28 -104.895)" fill="none" stroke="#31326f" stroke-linecap="round" stroke-linejoin="round" stroke-width="1"/>
          <path id="Trazado_102356" data-name="Trazado 102356" d="M158.02,410.8s-1.518,7.616-.273,9.176c.654.819,2.615.667,3.516.687,2.172.049,4.35-.1,6.516-.24,4.339-.285,8.782-.243,12.965-1.583a41.166,41.166,0,0,0,10.017-4.536c1.7-1.135,0-2.978,0-2.978L170.1,406.692" transform="translate(-70.069 -118.395)" fill="none" stroke="#31326f" stroke-linecap="round" stroke-linejoin="round" stroke-width="1"/>
          <path id="Trazado_102357" data-name="Trazado 102357" d="M157.976,417.881s23.222,3.814,32.866-5.971" transform="translate(-70.149 -118.977)" fill="none" stroke="#31326f" stroke-linecap="round" stroke-linejoin="round" stroke-width="1"/>
          <path id="Trazado_102358" data-name="Trazado 102358" d="M61.507,402.743s-2.666,9.138-2.269,12.016,3.275,3.574,6.65,3.474,4.763-1.588,5.26-3.87,0-9.665,0-9.665" transform="translate(-59.138 -117.955)" fill="none" stroke="#31326f" stroke-linecap="round" stroke-linejoin="round" stroke-width="1"/>
          <line id="Línea_471" data-name="Línea 471" x2="11.949" y2="0.992" transform="translate(0.061 295.415)" fill="none" stroke="#31326f" stroke-linecap="round" stroke-linejoin="round" stroke-width="1"/>
          <path id="Trazado_102359" data-name="Trazado 102359" d="M94.187,102.746c1.01-1.848,1.61-2.976,1.61-2.976s-3.3-7.935-2.477-8.949,2.74,1.8,2.74,1.8-1.951-6.342-.723-6.878S98.78,91.08,98.78,91.08s-.581-8.491.7-8.844S102.3,90.3,102.3,90.3s1.65-7.536,2.614-7.606-.025,15.54-.025,15.54c2.048,1.006,8.055-1.443,8.014.535s-11.561,6.542-11.561,6.542a5.864,5.864,0,0,0-.519.834" transform="translate(-62.927 -82.225)" fill="none" stroke="#31326f" stroke-linecap="round" stroke-linejoin="round" stroke-width="1"/>
          <path id="Trazado_102360" data-name="Trazado 102360" d="M73.035,170.831l-6.572-21.307,23.481-44.489,8.513,4.446L83.437,150.008l4.2,13.535" transform="translate(-59.948 -84.768)" fill="none" stroke="#31326f" stroke-linecap="round" stroke-linejoin="round" stroke-width="1"/>
          <path id="Trazado_102361" data-name="Trazado 102361" d="M74.62,151.323s8.426-.074,9.642,3.845a16.938,16.938,0,0,0-10.4,2.877" transform="translate(-60.772 -89.928)" fill="none" stroke="#31326f" stroke-linecap="round" stroke-linejoin="round" stroke-width="1"/>
          <line id="Línea_472" data-name="Línea 472" y1="6.172" transform="translate(41.678 63.16)" fill="none" stroke="#31326f" stroke-linecap="round" stroke-linejoin="round" stroke-width="1"/>
          <path id="Trazado_102362" data-name="Trazado 102362" d="M142.479,198.43l2.149,14.009s1.722-9.137,2.8-9.137,0,10.716,0,10.716,17.659,15.953,25.3,16.075c0,0-4.244,2.99-8.506.765s-22.908-16.84-22.908-16.84Z" transform="translate(-68.292 -95.179)" opacity="0.2"/>
          <path id="Trazado_102363" data-name="Trazado 102363" d="M97.77,109.15,81.618,148.386s-5.624-.088-7.759,4.957L82.5,151.8l2.9,13.36L88.465,164l-4.2-13.535,15.019-40.527Z" transform="translate(-60.772 -85.226)" opacity="0.2"/>
        </g>
      </g>
      <g id="Character_2" data-name="Character 2" transform="translate(287.371 102.514)">
        <g id="Grupo_55771" data-name="Grupo 55771">
          <path id="Trazado_102364" data-name="Trazado 102364" d="M347.375,185.1l-6.358-13.579-25.011,16.513,20.637,36.554,16.088-9.13Z" transform="translate(-316.006 -113.859)" fill="#fff" stroke="#31326f" stroke-miterlimit="10" stroke-width="1"/>
          <g id="Grupo_55769" data-name="Grupo 55769" transform="translate(35.703 183.415)">
            <path id="Trazado_102365" data-name="Trazado 102365" d="M372.679,318.445s4.037,11.217,4.634,16.68-1.222,28.484-.834,34.824,3.824,25.278,3.824,25.278-16.826,12.231-22.165,8.3c0,0,11.855-9.6,13.059-13.418l-3.845-25.936-3.806-30.66a57.227,57.227,0,0,0-2.32-9.7c-1.344-3.3-1.151-10.29-1.151-10.29Z" transform="translate(-356.405 -313.103)" fill="#fff" stroke="#31326f" stroke-miterlimit="10" stroke-width="1"/>
            <path id="Trazado_102366" data-name="Trazado 102366" d="M372.122,317.393s4.369,11.821,5.4,20.3-2.056,27.753-1.028,37,2.056,14.39,3.854,19.272l-.9,14.317h-2.3l-.907-8.123s-3.606-1.5-5.793,3.692-10.257,5.881-14.086,2.873c0,0,0-2.325,2.872-4.377s10.4-8.468,11.77-12.3c0,0-4.112-26.677-5.069-35.293s-2.462-24.342-4.377-29.4-1.914-12.308-1.914-12.308" transform="translate(-356.207 -313.051)" fill="none" stroke="#31326f" stroke-linecap="round" stroke-linejoin="round" stroke-width="1"/>
            <path id="Trazado_102367" data-name="Trazado 102367" d="M379.735,401.1s-11.276,12.26-20.771,12.187" transform="translate(-356.497 -322.866)" fill="none" stroke="#31326f" stroke-linecap="round" stroke-linejoin="round" stroke-width="1"/>
            <path id="Trazado_102368" data-name="Trazado 102368" d="M357.92,413.37a10.119,10.119,0,0,0,4.627-.582c2.545-.921,11.723-5.326,16.239-10.938l1.383,1.576-.721,14.426-2.324.332-.907-8.123s-2.966-1.36-4.875,1.981-3.29,5.631-6.628,6.369-8.375-1.786-8.375-1.786S355.471,415.325,357.92,413.37Z" transform="translate(-356.188 -322.95)" fill="#31326f" stroke="#31326f" stroke-miterlimit="10" stroke-width="1"/>
          </g>
          <g id="Grupo_55770" data-name="Grupo 55770" transform="translate(58.299 182.618)">
            <path id="Trazado_102369" data-name="Trazado 102369" d="M383.355,319.179a101.625,101.625,0,0,0,3.854,11.472c2.013,4.627,19.435,51.447,19.435,51.447s1.325,25.343,8.748,25.261-.3-17.707-.3-17.707l-4.5-9.664s-1.727-28.364-3.854-38.8l-9.087-24.46Z" transform="translate(-381.813 -312.664)" fill="#fff" stroke="#31326f" stroke-miterlimit="10" stroke-width="1"/>
            <path id="Trazado_102370" data-name="Trazado 102370" d="M397.551,317.036S405,334,406.546,340.677s3.083,36.746,3.854,38.8,13.1,23.9,5.653,28.266-9.25-25.183-9.25-25.183-17.217-47.8-19.787-52.421-5.4-17.987-5.4-17.987Z" transform="translate(-381.62 -312.154)" fill="none" stroke="#31326f" stroke-linecap="round" stroke-linejoin="round" stroke-width="1"/>
            <path id="Trazado_102371" data-name="Trazado 102371" d="M420.921,407.129s-.517,5.918-2.472,6.756-6.268-5.838-6.268-5.838" transform="translate(-385.027 -322.741)" fill="none" stroke="#31326f" stroke-linecap="round" stroke-linejoin="round" stroke-width="1"/>
            <path id="Trazado_102372" data-name="Trazado 102372" d="M412.181,409.225s2.7,10.095,6.224,9.666,4.195-6.038,2.515-10.365c0,0-.594,4.438-2.472,5.514C416.551,414.065,412.181,409.225,412.181,409.225Z" transform="translate(-385.027 -322.897)" fill="#31326f" stroke="#31326f" stroke-miterlimit="10" stroke-width="1"/>
          </g>
          <path id="Trazado_102373" data-name="Trazado 102373" d="M373.649,218.352s8.987,12.263,15.213,32.022,5.594,57.5,5.594,57.5-23.188,7.461-45.654-2.012l4.114-85.17S367.367,220.974,373.649,218.352Z" transform="translate(-319.662 -119.08)" fill="#31326f" stroke="#31326f" stroke-miterlimit="10" stroke-width="1"/>
          <path id="Trazado_102374" data-name="Trazado 102374" d="M362.329,118.271s-6.984,6.542-7.8,10.821a33.628,33.628,0,0,1-3.216,8.588,6.239,6.239,0,0,0,3.139,2.454s.452,8.775,3,9.449l6.092-1.6.656,3.752,8.735-3.32v-5.065l6.663-4.356-2.365-11.376-10.84-5.068Z" transform="translate(-319.942 -107.923)" fill="#fff" stroke="#31326f" stroke-miterlimit="10" stroke-width="1"/>
          <path id="Trazado_102375" data-name="Trazado 102375" d="M352.755,212.376l-.778-12.3s-5.685-10.693-3.884-14.533c2-4.256,13.951-20.021,13.951-20.021l-1.172-8.6,16.76-7.183.8,7.183-2.021,1.493,2.25,4.819s.143-1.427,4.037,5.829,18.554,33.094,19.7,38.048S379.6,229.538,371.52,233.659c0,0-.933-2-10.536,5.37-2.443-.426-5.822-2.624-6.544-3.983s2.764-4.588,2.764-4.588,2.1-3.966,5.8-.8h3.949l22.561-21.023-11.443-16.744L373.53,210.7S358.845,215.138,352.755,212.376Z" transform="translate(-319.544 -111.431)" fill="#fff" stroke="#31326f" stroke-miterlimit="10" stroke-width="1"/>
          <path id="Trazado_102376" data-name="Trazado 102376" d="M362.519,156.924l1.2,8.779,16.361-8.779-.8-7.183Z" transform="translate(-321.191 -111.431)" fill="none" stroke="#31326f" stroke-linecap="round" stroke-linejoin="round" stroke-width="1"/>
          <path id="Trazado_102377" data-name="Trazado 102377" d="M362.048,167.706s-14.88,18.209-14.481,21.8,4.389,12.57,4.389,12.57l.821,12.971s12.038.334,20.733-2.34l4.54-18.809" transform="translate(-319.524 -113.434)" fill="none" stroke="#31326f" stroke-linecap="round" stroke-linejoin="round" stroke-width="1"/>
          <path id="Trazado_102378" data-name="Trazado 102378" d="M391.8,210.172l-23.056-34.755s-2.26-7.968,3.192-10.851,10.2.761,11.9,2.67,20,37.171,20.852,41.409-18.479,21.192-29.668,25.77c0,0-5.086,3.051-5.086-3.221Z" transform="translate(-321.834 -112.965)" fill="none" stroke="#31326f" stroke-linecap="round" stroke-linejoin="round" stroke-width="1"/>
          <line id="Línea_473" data-name="Línea 473" x1="2.161" y1="5.153" transform="translate(56.725 46.652)" fill="none" stroke="#31326f" stroke-linecap="round" stroke-linejoin="round" stroke-width="1"/>
          <path id="Trazado_102379" data-name="Trazado 102379" d="M368.471,239.508h-4.64s-3.613-3.232-5.336,0-3.876,3.877-3.23,5.384,4.366,4.522,6.544,3.983,8.3-5.582,8.3-5.582" transform="translate(-320.37 -121.278)" fill="none" stroke="#31326f" stroke-linecap="round" stroke-linejoin="round" stroke-width="1"/>
          <path id="Trazado_102380" data-name="Trazado 102380" d="M360.657,120.856s-5.448,4.769-6.052,7.4-.347,7.079-3.295,9.712c0,0,.148,2.135,3.139,2.454,0,0,1.525,8.421,3,9.449s10.5-3.623,14.037-5.546a4.687,4.687,0,0,0,1.859-2.582" transform="translate(-319.942 -108.211)" fill="none" stroke="#31326f" stroke-linecap="round" stroke-linejoin="round" stroke-width="1"/>
          <path id="Trazado_102381" data-name="Trazado 102381" d="M357.07,145.456a6.866,6.866,0,0,0,4.229-2.5" transform="translate(-320.584 -110.675)" fill="none" stroke="#31326f" stroke-linecap="round" stroke-linejoin="round" stroke-width="1"/>
          <path id="Trazado_102382" data-name="Trazado 102382" d="M357.07,132.026a2.38,2.38,0,0,1,3.333.826" transform="translate(-320.584 -109.415)" fill="none" stroke="#31326f" stroke-linecap="round" stroke-linejoin="round" stroke-width="1"/>
          <path id="Trazado_102383" data-name="Trazado 102383" d="M358.583,136.94c.036.716-.2,1.311-.536,1.327s-.632-.55-.668-1.266.2-1.311.536-1.327S358.546,136.224,358.583,136.94Z" transform="translate(-320.618 -109.863)" fill="#31326f" stroke="#31326f" stroke-miterlimit="10" stroke-width="1"/>
          <line id="Línea_474" data-name="Línea 474" x2="0.724" y2="4.146" transform="translate(43.6 40.062)" fill="none" stroke="#31326f" stroke-linecap="round" stroke-linejoin="round" stroke-width="1"/>
          <path id="Trazado_102384" data-name="Trazado 102384" d="M369.9,133.155s1.338-2.584,2.822-1.077,4.3,8.491-3.3,6.829c0,0-.5,4.27,3.3,5.337s11.025-4.823,11.261-14.847-9.436-16.807-14.559-14.869c0,0-7.417-11.628-14.775-6.675s-2.4,12.6-3.962,14.319-4.9.108-5.011,4.738,7.629,4.154,7.629,4.154l.934-5.1,6.407-6.7a12.065,12.065,0,0,0,1.059,9.04C364.016,132.093,369.9,133.155,369.9,133.155Z" transform="translate(-319.313 -106.625)" fill="#31326f" stroke="#31326f" stroke-miterlimit="10" stroke-width="1"/>
          <path id="Trazado_102385" data-name="Trazado 102385" d="M386.62,131.326s3.567.8,3.167,5.6-8.41,16.63-7.808,23.431l20.714,38.595s9.318-1.76,8.918-11.37S399.8,169.9,402,162.826s10.812-25.08-1.4-35.4-31.234,5.5-31.234,5.5l9.315-3Z" transform="translate(-321.954 -108.554)" fill="#31326f" stroke="#31326f" stroke-miterlimit="10" stroke-width="1"/>
          <path id="Trazado_102386" data-name="Trazado 102386" d="M346.575,184.312l-5.558-12.791-25.011,16.513,20.637,36.554,12.508-6.884" transform="translate(-316.006 -113.859)" fill="none" stroke="#31326f" stroke-linecap="round" stroke-linejoin="round" stroke-width="1"/>
          <path id="Trazado_102387" data-name="Trazado 102387" d="M324.711,209.268s-1.351-2.792.45-4.324,7.951-6.094,8.033-4.98a1.978,1.978,0,0,1-.427,1.541c-1.748,2.382-6.029,6.257-5.755,6.532,0,0,7.759-5.153,8.51-4.665.187.123.079.787-.57,1.438a67.531,67.531,0,0,1-6.723,5.259s8.194-3.167,9.245-2.659c.307.148.242.605-.709,1.185a73.97,73.97,0,0,1-7.332,3.485l2.051,3.424S327.564,216.176,324.711,209.268Z" transform="translate(-316.922 -117.011)" fill="#fff" stroke="#31326f" stroke-linecap="round" stroke-linejoin="round" stroke-width="1"/>
          <line id="Línea_475" data-name="Línea 475" x2="0.564" y2="5.713" transform="translate(52.427 34.78)" fill="none" stroke="#31326f" stroke-linejoin="round" stroke-width="1"/>
        </g>
      </g>
    </g>
  </g>
</svg>
