<svg xmlns="http://www.w3.org/2000/svg" width="464.228" height="321" viewBox="0 0 464.228 321">
  <g id="Grupo_55733" data-name="Grupo 55733" transform="translate(141.683 471.164)">
    <g id="Grupo_55732" data-name="Grupo 55732" transform="translate(-141.683 -470.664)">
      <g id="Grupo_55701" data-name="Grupo 55701" transform="translate(96.011 154.908)">
        <path id="Trazado_102142" data-name="Trazado 102142" d="M-26.516-263.93l18.011-.163a3.636,3.636,0,0,0,3.6-3.668l-.167-18.364a3.636,3.636,0,0,0-3.668-3.6l-15.591.142.026,2.805.183,20.139A2.6,2.6,0,0,1-26.516-263.93Z" transform="translate(29.067 289.727)" fill="#31326f" stroke="#31326f" stroke-miterlimit="10" stroke-width="1"/>
        <path id="Trazado_102143" data-name="Trazado 102143" d="M-24.569-262.585a2.6,2.6,0,0,1-2.4,2.71s-2.524.3-2.551-2.665l3.224-.03A11.314,11.314,0,0,1-24.569-262.585Z" transform="translate(29.516 285.672)" fill="#31326f" stroke="#31326f" stroke-miterlimit="10" stroke-width="1"/>
        <line id="Línea_334" data-name="Línea 334" x1="12.689" y2="0.115" transform="translate(8.504 21.425)" fill="none" stroke="#31326f" stroke-linecap="round" stroke-linejoin="round" stroke-width="1"/>
        <line id="Línea_335" data-name="Línea 335" x1="12.689" y2="0.115" transform="translate(8.478 18.567)" fill="none" stroke="#31326f" stroke-linecap="round" stroke-linejoin="round" stroke-width="1"/>
        <line id="Línea_336" data-name="Línea 336" x1="12.689" y2="0.115" transform="translate(8.412 11.287)" fill="none" stroke="#31326f" stroke-linecap="round" stroke-linejoin="round" stroke-width="1"/>
        <line id="Línea_337" data-name="Línea 337" x1="12.689" y2="0.115" transform="translate(8.386 8.435)" fill="none" stroke="#31326f" stroke-linecap="round" stroke-linejoin="round" stroke-width="1"/>
        <line id="Línea_338" data-name="Línea 338" x1="12.689" y2="0.115" transform="translate(8.445 14.93)" fill="none" stroke="#31326f" stroke-linecap="round" stroke-linejoin="round" stroke-width="1"/>
        <rect id="Rectángulo_5368" data-name="Rectángulo 5368" width="8.899" height="2.322" rx="1.161" transform="translate(16.931 5.439) rotate(179.479)" fill="#9ddfd3"/>
      </g>
      <g id="Grupo_55702" data-name="Grupo 55702" transform="translate(304.291 211.353)">
        <rect id="Rectángulo_5369" data-name="Rectángulo 5369" width="30.861" height="26.861" rx="3.808" transform="translate(0)" fill="#9ddfd3"/>
        <line id="Línea_339" data-name="Línea 339" y2="9.11" transform="translate(6.781 13.609)" fill="none" stroke="#31326f" stroke-miterlimit="10" stroke-width="1"/>
        <line id="Línea_340" data-name="Línea 340" y2="9.11" transform="translate(10.175 13.609)" fill="none" stroke="#31326f" stroke-miterlimit="10" stroke-width="1"/>
        <line id="Línea_341" data-name="Línea 341" y2="7.503" transform="translate(13.212 15.217)" fill="none" stroke="#31326f" stroke-miterlimit="10" stroke-width="1"/>
        <line id="Línea_342" data-name="Línea 342" y2="1.786" transform="translate(16.07 20.933)" fill="none" stroke="#31326f" stroke-miterlimit="10" stroke-width="1"/>
        <line id="Línea_343" data-name="Línea 343" y2="6.788" transform="translate(19.464 15.931)" fill="none" stroke="#31326f" stroke-miterlimit="10" stroke-width="1"/>
        <line id="Línea_344" data-name="Línea 344" y2="17.327" transform="translate(22.322 5.392)" fill="none" stroke="#31326f" stroke-miterlimit="10" stroke-width="1"/>
        <line id="Línea_345" data-name="Línea 345" y2="17.327" transform="translate(25.359 5.392)" fill="none" stroke="#31326f" stroke-miterlimit="10" stroke-width="1"/>
        <path id="Trazado_102144" data-name="Trazado 102144" d="M219.183-206.839c1.683-3.365,3.661-4.808,5.219-4.141,3.751,1.607,5,8.038,7.145,7.859,4.619-.384.893-14.469,8.575-15.184" transform="translate(-214.584 222.981)" fill="none" stroke="#31326f" stroke-miterlimit="10" stroke-width="1"/>
      </g>
      <g id="Grupo_55704" data-name="Grupo 55704" transform="translate(155.361 221.761)">
        <line id="Línea_346" data-name="Línea 346" y1="5.671" x2="0.022" transform="translate(15.619 33.83)" fill="none" stroke="#31326f" stroke-miterlimit="10" stroke-width="1"/>
        <line id="Línea_347" data-name="Línea 347" y1="12.153" x2="0.048" transform="translate(22.911 27.378)" fill="none" stroke="#31326f" stroke-miterlimit="10" stroke-width="1"/>
        <line id="Línea_348" data-name="Línea 348" y1="12.963" x2="0.051" transform="translate(29.122 26.592)" fill="none" stroke="#31326f" stroke-miterlimit="10" stroke-width="1"/>
        <line id="Línea_349" data-name="Línea 349" y1="17.554" x2="0.069" transform="translate(36.144 22.029)" fill="none" stroke="#31326f" stroke-miterlimit="10" stroke-width="1"/>
        <line id="Línea_350" data-name="Línea 350" y1="24.063" x2="0.095" transform="translate(42.355 15.544)" fill="none" stroke="#31326f" stroke-miterlimit="10" stroke-width="1"/>
        <line id="Línea_351" data-name="Línea 351" y1="30.256" x2="0.119" transform="translate(47.756 9.372)" fill="none" stroke="#31326f" stroke-miterlimit="10" stroke-width="1"/>
        <rect id="Rectángulo_5370" data-name="Rectángulo 5370" width="60.141" height="47.324" rx="3.988" transform="matrix(1, 0.004, -0.004, 1, 0.187, 0)" fill="none" stroke="#31326f" stroke-miterlimit="10" stroke-width="1"/>
        <g id="Grupo_55703" data-name="Grupo 55703" transform="translate(7.187 4.897)">
          <path id="Trazado_102145" data-name="Trazado 102145" d="M52.362-172.057l14.472-13.032a1.584,1.584,0,0,1,2.178.054l2,1.988A1.585,1.585,0,0,0,73.3-183.1l15.732-17.243" transform="translate(-48.793 205.173)" fill="none" stroke="#31326f" stroke-miterlimit="10" stroke-width="1"/>
          <path id="Trazado_102146" data-name="Trazado 102146" d="M48.3-206.022l-.134,34.064a2.932,2.932,0,0,0,2.921,2.945l41.563.164" transform="translate(-48.165 206.022)" fill="none" stroke="#31326f" stroke-miterlimit="10" stroke-width="1"/>
          <path id="Trazado_102147" data-name="Trazado 102147" d="M96.228-200.122l-2.245-1.742a.35.35,0,0,1,.063-.593l2.864-1.374a.35.35,0,0,1,.5.384l-.619,3.117A.351.351,0,0,1,96.228-200.122Z" transform="translate(-54.999 205.699)" fill="#dbf6e9"/>
        </g>
      </g>
      <g id="Grupo_55705" data-name="Grupo 55705" transform="translate(319.065 82.387)">
        <path id="Trazado_102148" data-name="Trazado 102148" d="M303.684-354.138H254.131l-7.7,5.962-.481-5.962H233.523a3.377,3.377,0,0,1-3.377-3.377v-13.543a3.377,3.377,0,0,1,3.377-3.377h70.161a3.376,3.376,0,0,1,3.376,3.377v13.543A3.376,3.376,0,0,1,303.684-354.138Z" transform="translate(-230.146 374.435)" fill="#9ddfd3"/>
        <line id="Línea_352" data-name="Línea 352" x2="41.404" transform="translate(30.725 13.501)" fill="none" stroke="#31326f" stroke-miterlimit="10" stroke-width="1"/>
        <line id="Línea_353" data-name="Línea 353" x2="41.404" transform="translate(30.725 9.65)" fill="none" stroke="#31326f" stroke-miterlimit="10" stroke-width="1"/>
        <line id="Línea_354" data-name="Línea 354" x2="41.404" transform="translate(30.725 5.557)" fill="none" stroke="#31326f" stroke-miterlimit="10" stroke-width="1"/>
        <rect id="Rectángulo_5371" data-name="Rectángulo 5371" width="21.733" height="14.444" rx="1.781" transform="translate(4.343 2.927)" fill="#31326f" stroke="#31326f" stroke-miterlimit="10" stroke-width="1"/>
      </g>
      <g id="Grupo_55706" data-name="Grupo 55706" transform="translate(100.976 62.847)">
        <path id="Trazado_102149" data-name="Trazado 102149" d="M-21.62-193.545c-2.569.864-2.683,4.171-1.572,8.086s9.049,19.02,12.538,18.46-1.71-18.552-1.71-18.552Z" transform="translate(23.86 367.397)" fill="#31326f" stroke="#31326f" stroke-miterlimit="10" stroke-width="1"/>
        <path id="Trazado_102150" data-name="Trazado 102150" d="M42.333-215.652c-2.217,1.56-1.384,4.762.8,8.2S57.22-191.8,60.405-193.328s-6.922-17.3-6.922-17.3Z" transform="translate(14.153 370.704)" fill="#31326f" stroke="#31326f" stroke-miterlimit="10" stroke-width="1"/>
        <g id="Trazado_102151" data-name="Trazado 102151" transform="translate(16.031 379.915)" fill="#45499b" stroke-miterlimit="10">
          <path d="M 55.30665588378906 -212.9720764160156 C 55.3064079284668 -212.9720764160156 55.30615997314453 -212.9720764160156 55.305908203125 -212.9720764160156 C 54.98540878295898 -212.9723968505859 54.38884735107422 -212.9729766845703 46.99284744262695 -218.8800964355469 C 43.40073776245117 -221.7490997314453 39.90887832641602 -224.6553802490234 39.87402725219727 -224.6844024658203 L 39.54179763793945 -224.9610595703125 L 39.7675895690918 -225.3297576904297 C 39.84830856323242 -225.4615936279297 47.82842636108398 -238.5807952880859 46.82733917236328 -244.4976654052734 C 46.22172927856445 -248.0751342773438 41.28090667724609 -250.7907562255859 37.24271774291992 -252.4389038085938 C 32.78073883056641 -254.260009765625 28.41723823547363 -255.200927734375 28.37367820739746 -255.2102203369141 L 27.76224708557129 -255.3406677246094 L 28.02388763427734 -255.9084777832031 L 37.94126892089844 -277.4312438964844 L 38.087646484375 -277.7489013671875 L 38.43623733520508 -277.7203063964844 C 38.67780685424805 -277.7005004882813 44.42983627319336 -277.1967468261719 51.15360641479492 -273.8541870117188 C 55.10583877563477 -271.8894348144531 58.56107711791992 -269.3470153808594 61.42334747314453 -266.2975769042969 C 65.00222015380859 -262.4847106933594 67.656005859375 -257.8675537109375 69.31098937988281 -252.5743865966797 C 72.54592132568359 -242.2258911132813 69.07386779785156 -232.2953491210938 65.59153747558594 -225.7868957519531 C 63.51902770996094 -221.9133148193359 61.2966194152832 -218.9561920166016 59.79718780517578 -217.1575775146484 C 58.13645935058594 -215.1654815673828 56.47481918334961 -213.5478973388672 55.56394958496094 -213.0365600585938 L 55.46835708618164 -212.9828948974609 L 55.35907745361328 -212.9741516113281 C 55.34210586547852 -212.9727935791016 55.32510757446289 -212.9720764160156 55.30665588378906 -212.9720764160156 Z" stroke="none"/>
          <path d="M 38.39537811279297 -277.2219848632813 L 28.47799682617188 -255.69921875 C 28.47799682617188 -255.69921875 46.07364273071289 -251.9455413818359 47.32033157348633 -244.5810852050781 C 48.36462020874023 -238.4088592529297 40.19397735595703 -225.0686340332031 40.19397735595703 -225.0686340332031 C 40.19397735595703 -225.0686340332031 54.11893463134766 -213.4720764160156 55.30640029907227 -213.4720764160156 C 55.31090927124023 -213.4720764160156 55.31505966186523 -213.4722290039063 55.31919860839844 -213.4725646972656 C 56.81591033935547 -214.3127746582031 61.46249771118164 -219.1294250488281 65.15068054199219 -226.0227966308594 C 69.02595520019531 -233.2656555175781 71.84249114990234 -242.8003387451172 68.83377075195313 -252.4251708984375 C 61.67764282226563 -275.3128356933594 38.39537811279297 -277.2219848632813 38.39537811279297 -277.2219848632813 M 37.77991104125977 -278.2758178710938 L 38.47710037231445 -278.2186279296875 C 38.72257614135742 -278.198486328125 44.56738662719727 -277.6867370605469 51.37617874145508 -274.3019104003906 C 55.38180923461914 -272.3106079101563 58.88482284545898 -269.7326965332031 61.78791046142578 -266.6397705078125 C 65.41883850097656 -262.7714233398438 68.11051940917969 -258.08935546875 69.78820037841797 -252.7235870361328 C 73.07485961914063 -242.2096557617188 69.55986785888672 -232.1438293457031 66.03239440917969 -225.551025390625 C 63.93997573852539 -221.6401977539063 61.69558715820313 -218.6539306640625 60.18123245239258 -216.83740234375 C 58.45858764648438 -214.7710266113281 56.78313446044922 -213.1475830078125 55.80871200561523 -212.6005859375 L 55.61771011352539 -212.4933471679688 L 55.39936447143555 -212.4757995605469 C 55.36877822875977 -212.4733276367188 55.33749771118164 -212.4720764160156 55.30640029907227 -212.4720764160156 C 54.81965637207031 -212.4720764160156 54.21389007568359 -212.4720764160156 46.68080139160156 -218.489013671875 C 43.08473205566406 -221.3612976074219 39.58893203735352 -224.2711486816406 39.55404281616211 -224.3002014160156 L 38.88970947265625 -224.8534545898438 L 39.34116744995117 -225.5908508300781 C 39.36137771606445 -225.6238708496094 41.38405609130859 -228.9388122558594 43.25016784667969 -232.949462890625 C 45.6604118347168 -238.1295776367188 46.72690963745117 -242.0940399169922 46.33434295654297 -244.4142608642578 C 45.8853759765625 -247.06640625 42.67621231079102 -249.6812286376953 37.05377578735352 -251.9759674072266 C 32.63247680664063 -253.7804718017578 28.31248474121094 -254.7120208740234 28.26936340332031 -254.7212219238281 L 27.04650115966797 -254.9820861816406 L 27.56977844238281 -256.1177062988281 L 37.48715591430664 -277.6404724121094 L 37.77991104125977 -278.2758178710938 Z" stroke="none" fill="#31326f"/>
        </g>
        <path id="Trazado_102152" data-name="Trazado 102152" d="M57.064-213.473c1.5-.84,6.143-5.657,9.831-12.55,3.875-7.243,6.692-16.778,3.683-26.4-7.156-22.888-30.438-24.8-30.438-24.8" transform="translate(14.286 379.915)" fill="none" stroke="#31326f" stroke-linecap="round" stroke-linejoin="round" stroke-width="1"/>
        <path id="Trazado_102153" data-name="Trazado 102153" d="M28.478-251.913s17.6,3.754,18.842,11.118c1.044,6.172-7.126,19.512-7.126,19.512" transform="translate(16.031 376.129)" fill="none" stroke="#31326f" stroke-linecap="round" stroke-linejoin="round" stroke-width="1"/>
        <g id="Trazado_102154" data-name="Trazado 102154" transform="translate(23.404 379.299)" fill="#45499b" stroke-miterlimit="10">
          <path d="M -7.761030197143555 -190.7689971923828 L -7.864852428436279 -190.7849273681641 C -7.935896873474121 -190.7958221435547 -9.629974365234375 -191.0628814697266 -11.8325080871582 -192.0402069091797 C -13.86751937866211 -192.9432067871094 -16.73484230041504 -194.6508331298828 -18.83817481994629 -197.6580047607422 C -20.95268630981445 -200.6813354492188 -21.34958648681641 -203.4251556396484 -21.3101978302002 -205.1945190429688 C -21.26701927185059 -207.1341094970703 -20.71196365356445 -208.3529205322266 -20.68835258483887 -208.4038543701172 L -20.64496421813965 -208.4974822998047 L -20.56804084777832 -208.5662841796875 C -17.73526382446289 -211.1000366210938 -10.18509674072266 -218.0289916992188 -9.279552459716797 -219.6416015625 C -7.695330142974854 -222.4611358642578 -6.713386058807373 -231.7179870605469 -6.439807891845703 -246.4115447998047 C -6.232163429260254 -257.5640258789063 -6.512963771820068 -267.9866333007813 -6.515819072723389 -268.0906066894531 L -6.530908107757568 -268.6390991210938 L -5.98337459564209 -268.6033020019531 C -5.944730281829834 -268.6007690429688 -2.061485767364502 -268.3505859375 2.845236301422119 -268.3505859375 C 7.987002849578857 -268.3505859375 12.31159210205078 -268.6139831542969 15.6988697052002 -269.1334838867188 C 24.49882507324219 -270.4822387695313 32.44961547851563 -273.5385131835938 32.52890396118164 -273.5692138671875 L 33.20766830444336 -273.8321838378906 L 33.20954895019531 -273.104248046875 C 33.21494674682617 -270.9792785644531 31.10139274597168 -266.5837707519531 29.12163543701172 -263.1788024902344 C 27.22287178039551 -259.9131469726563 24.50798988342285 -255.9252319335938 22.45582580566406 -254.2902221679688 C 22.47870063781738 -253.0928344726563 22.53653526306152 -247.8474273681641 21.98361396789551 -241.1748657226563 C 21.61465835571289 -236.7223358154297 21.04992485046387 -232.5117492675781 20.30510330200195 -228.6600494384766 C 19.37212562561035 -223.8353118896484 18.15179252624512 -219.5609436035156 16.67799186706543 -215.9556732177734 C 13.21451377868652 -207.483154296875 7.471791744232178 -201.3833618164063 3.264125347137451 -197.7581939697266 C -1.423241376876831 -193.7197418212891 -5.94551944732666 -191.2558746337891 -7.65957498550415 -190.7962188720703 L -7.761030197143555 -190.7689971923828 Z" stroke="none"/>
          <path d="M 32.70954513549805 -273.1029968261719 C 32.70954513549805 -273.1029968261719 24.73534393310547 -270.0126342773438 15.7746696472168 -268.6392517089844 C 11.74061584472656 -268.0205688476563 6.923951625823975 -267.8505859375 2.845168590545654 -267.8505859375 C -2.136077880859375 -267.8505859375 -6.01600456237793 -268.1043701171875 -6.01600456237793 -268.1043701171875 C -6.01600456237793 -268.1043701171875 -4.870517730712891 -226.4678955078125 -8.843593597412109 -219.3967895507813 C -9.988229751586914 -217.3583984375 -20.23470497131348 -208.193603515625 -20.23470497131348 -208.193603515625 C -20.23470497131348 -208.193603515625 -22.37176704406738 -203.5827331542969 -18.4284553527832 -197.944580078125 C -14.48429298400879 -192.3055725097656 -7.789093017578125 -191.2791442871094 -7.789093017578125 -191.2791442871094 C -4.782917976379395 -192.0853271484375 9.808257102966309 -200.4719848632813 16.21516990661621 -216.1448669433594 C 22.62209510803223 -231.8177490234375 21.95026969909668 -254.5328063964844 21.95026969909668 -254.5328063964844 C 25.56618118286133 -257.1826477050781 32.71890640258789 -269.4190673828125 32.70954513549805 -273.1029968261719 M 33.70584487915039 -274.5615844726563 L 33.70954513549805 -273.1055297851563 C 33.71665954589844 -270.3055419921875 30.53054428100586 -264.6072387695313 29.55388259887695 -262.927490234375 C 27.69142532348633 -259.7242736816406 25.04277801513672 -255.8269805908203 22.95980072021484 -254.0579986572266 C 22.98328018188477 -252.4932250976563 23.00510025024414 -247.4475250244141 22.48189544677734 -241.1335754394531 C 22.11145782470703 -236.6631164550781 21.54424476623535 -232.4344787597656 20.79600715637207 -228.5651245117188 C 19.85680770874023 -223.7081909179688 18.62701988220215 -219.4021148681641 17.14081954956055 -215.7664642333984 C 13.63976955413818 -207.2020568847656 7.839669704437256 -201.0403442382813 3.590482234954834 -197.37939453125 C -1.423330307006836 -193.0596923828125 -5.891443252563477 -190.7527160644531 -7.530067443847656 -190.3132629394531 L -7.732980728149414 -190.2588500976563 L -7.940629959106445 -190.2907104492188 C -8.014368057250977 -190.302001953125 -9.772443771362305 -190.5790710449219 -12.03530502319336 -191.5831909179688 C -15.03680610656738 -192.9150390625 -17.53087997436523 -194.9165954589844 -19.24790573120117 -197.3714294433594 C -21.43994331359863 -200.505615234375 -21.85112953186035 -203.3616333007813 -21.81007957458496 -205.2056579589844 C -21.76459312438965 -207.2484436035156 -21.16739273071289 -208.559326171875 -21.14199256896973 -208.6141204833984 L -21.05520439147949 -208.8013763427734 L -20.90138053894043 -208.93896484375 C -16.98764228820801 -212.4395904541016 -10.48998069763184 -218.5072479248047 -9.715530395507813 -219.8864135742188 C -9.140092849731445 -220.9105529785156 -8.327205657958984 -223.5100250244141 -7.72169303894043 -230.0793151855469 C -7.324605941772461 -234.3872833251953 -7.061555862426758 -239.8831024169922 -6.939842224121094 -246.4140930175781 C -6.732217788696289 -257.5555114746094 -7.012767791748047 -267.9729614257813 -7.015630722045898 -268.0768737792969 L -7.045793533325195 -269.1737670898438 L -5.950780868530273 -269.1022338867188 C -5.912256240844727 -269.0997314453125 -2.04242992401123 -268.8505859375 2.845169544219971 -268.8505859375 C 7.961694717407227 -268.8505859375 12.26080703735352 -269.112060546875 15.62308216094971 -269.627685546875 C 24.37461853027344 -270.9690246582031 32.26947021484375 -274.0049133300781 32.34818267822266 -274.035400390625 L 33.70584487915039 -274.5615844726563 Z" stroke="none" fill="#31326f"/>
        </g>
        <path id="Trazado_102155" data-name="Trazado 102155" d="M-20.133-207.314s10.246-9.165,11.391-11.2c3.973-7.071,2.828-48.708,2.828-48.708" transform="translate(23.303 378.42)" fill="none" stroke="#31326f" stroke-linecap="round" stroke-linejoin="round" stroke-width="1"/>
        <path id="Trazado_102156" data-name="Trazado 102156" d="M29.886-346.693c5.547-2.1,14.828-4.436,20.9-13.123,5.383-7.708,8.7-19.67,12.024-29.217,2.984-8.576,4.167-9.1,4.986-8.921s.772,4.8.23,6.345c0,0,2.089-5.306,3-5.308s1.142,3.585.286,6.449c0,0,2.248-4.368,3.522-4.19.758.106-.434,5.3-.434,5.3s2.469-4.667,3.13-3.042c.5,1.238-1.407,8.449-1.407,8.449s-4.207,22.71-11.77,34.013c-5.794,8.659-12.446,14.044-23.33,17.516C40.523-332.261,29.886-346.693,29.886-346.693Z" transform="translate(15.82 397.981)" fill="#f29554"/>
        <path id="Trazado_102157" data-name="Trazado 102157" d="M27.455-338.97a47.285,47.285,0,0,0,7.2-2.748c4.5-2.282,9.232-5.189,9.232-5.189s7.605,13.19,8.832,19.245c0,0-9.541,6.159-13.515,5.206Z" transform="translate(16.184 390.34)" fill="#cc3d60"/>
        <path id="Trazado_102158" data-name="Trazado 102158" d="M21.813-337.335c2.02-1.017,3.083-.372,3.083-.372s9.483,10.15,12.686,17.17,8.66,25.261,8.683,33.858c0,0-20.892,12.027-49.734,9.127,0,0,.335-51.516,4.269-54.093C2.384-332.683,21.813-337.335,21.813-337.335Z" transform="translate(20.81 388.994)" fill="#cc3d60"/>
        <path id="Trazado_102159" data-name="Trazado 102159" d="M-.915-296.688c-.32,3.2,12.48,15.68,19.519,16s24-4.159,25.919-8.96c0,0-22.718,4.48-32.638-.32S-.915-296.688-.915-296.688Z" transform="translate(20.429 382.827)" fill="#31326f" stroke="#31326f" stroke-miterlimit="10" stroke-width="1"/>
        <path id="Trazado_102160" data-name="Trazado 102160" d="M-11.29-315.313c.231,5.013,6.182,18.7,20.143,24.3,8.518,3.416,20.28,4.086,36.394-2.514.522-.214,6.531-2.3,8.113-4.543,1.5-2.127-3.837-.3-3.183-.605a27.554,27.554,0,0,0,3.084-1.547c1.277-.845,2.6-2.36,1.241-2.811s-4.365.947-4.365.947,4.926-2.486,4.015-3.846-5.9.8-5.9.8,5.728-2.993,3.978-4.048c-1-.6-3.144.277-4.582.779-2.151.75-4.371,1.934-5.939,2.6,0,0,3.628-4.289,2.128-4.694s-6.621,4.652-7.664,5.608-19.075,2.32-25.046-5.07S5.016-319.7,2.832-320.79-11.626-322.627-11.29-315.313Z" transform="translate(21.981 386.536)" fill="#f29554"/>
        <path id="Trazado_102161" data-name="Trazado 102161" d="M-5.613-301.122s9.913-7.12,16.67-10.3c0,0-7.2-11.505-7.4-20.67,0,0-9.153,1.914-12.63,6.964C-12.1-320.585-15.851-313.12-5.613-301.122Z" transform="translate(22.132 388.123)" fill="#cc3d60"/>
        <path id="Trazado_102162" data-name="Trazado 102162" d="M25.766-349.043c1.754-4.163-6.085-14.978-8.171-17.43s-9.263-.669-12.657,2.363S.431-353.137.431-353.137l1.818,2.322a2.236,2.236,0,0,0-.441,1.61c.128,1.364,2.461,3.459,4.74,3.879L8.87-342.36,8.8-338.055s1.52,8.05,10.843,5.37c7.457-2.143,3.63-7.58,3.411-8.234l-.334-4.721A9.016,9.016,0,0,0,25.766-349.043Z" transform="translate(20.226 393.439)" fill="#f29554"/>
        <path id="Trazado_102163" data-name="Trazado 102163" d="M4.052-353.162s1.863,1.889,2.848,1.578a1.942,1.942,0,0,0,1.132-2.279c-.207-1.624-4.547-6.266-4.547-6.266s.162-5.237,7.108-7.938c4.393-1.708,5.365-.443,5.365-.443s4.829-7.373,2.4-10.484-7.035-2.717-11.249,1.241c-3.3,3.1-7.08,7.462-6.862,11.2,0,0-4.328.184-5.046,3.544s2.642,4.425,2.642,4.425-2.632-.27-2.488,1.876,2.96,6.745,6.837,6.25Z" transform="translate(21.024 395.449)" fill="#31326f" stroke="#31326f" stroke-miterlimit="10" stroke-width="1"/>
      </g>
      <g id="Grupo_55707" data-name="Grupo 55707" transform="translate(198.246 14.611)">
        <path id="Trazado_102164" data-name="Trazado 102164" d="M117.835-287.032c-7.784,2.511-25.689,16.016-11.863,54.779a1.918,1.918,0,0,0,3.263.6c3.412-4.027,8.583-15.407,23.04-21.08Z" transform="translate(-91.27 428.582)" fill="#31326f" stroke="#31326f" stroke-miterlimit="10" stroke-width="1"/>
        <path id="Trazado_102165" data-name="Trazado 102165" d="M170.893-302.65c8.132-.878,33.236,2.71,36.4,43.744a1.917,1.917,0,0,1-2.735,1.878c-4.756-2.288-15.19-6.119-30.7-5.409Z" transform="translate(-101.742 430.935)" fill="#31326f" stroke="#31326f" stroke-miterlimit="10" stroke-width="1"/>
        <g id="Trazado_102166" data-name="Trazado 102166" transform="translate(-89.578 453.483)" fill="#ffc93c" stroke-miterlimit="10">
          <path d="M 131.6962280273438 -271.2640075683594 L 131.5035705566406 -271.5433349609375 C 125.1869964599609 -280.7024536132813 119.322135925293 -290.44775390625 114.0718841552734 -300.5085144042969 C 108.4038848876953 -311.3697204589844 103.5836563110352 -322.3599548339844 99.74507141113281 -333.1739196777344 C 95.56459045410156 -344.9510192871094 92.57063293457031 -356.4724426269531 90.84638977050781 -367.4180603027344 C 88.96729278564453 -379.3464050292969 88.58559417724609 -390.6861267089844 89.71183776855469 -401.1222229003906 C 90.72457122802734 -410.50634765625 92.15676879882813 -419.0571899414063 93.96870422363281 -426.5372314453125 C 95.46454620361328 -432.7123413085938 97.21511077880859 -438.1548461914063 99.17183685302734 -442.7135620117188 C 101.0752487182617 -447.1481323242188 102.7822723388672 -449.8215637207031 103.8791122436523 -451.283447265625 C 104.4573440551758 -452.0541076660156 105.8699951171875 -453.8089599609375 106.8298645019531 -453.9373168945313 C 106.9296569824219 -453.9680786132813 107.0417785644531 -453.983154296875 107.1696395874023 -453.983154296875 C 108.5984344482422 -453.983154296875 113.0715255737305 -451.8813171386719 119.5384979248047 -446.0908203125 C 123.2045669555664 -442.8082580566406 127.0098876953125 -438.7913513183594 130.8488159179688 -434.1516723632813 C 135.450927734375 -428.5895690917969 140.1009063720703 -422.126953125 144.6695861816406 -414.9432983398438 C 155.4165191650391 -398.045654296875 161.4142303466797 -380.8298645019531 164.1167297363281 -359.1224670410156 C 166.8076171875 -337.50830078125 166.1827697753906 -311.5167846679688 164.4167022705078 -279.1406860351563 L 164.3962097167969 -278.7647399902344 L 164.0292510986328 -278.6805725097656 L 132.0269775390625 -271.3398742675781 L 131.6962280273438 -271.2640075683594 Z" stroke="none"/>
          <path d="M 107.1696319580078 -453.4831848144531 C 107.0709533691406 -453.4831848144531 106.99365234375 -453.4700317382813 106.9380645751953 -453.4447631835938 C 105.3673553466797 -453.4447631835938 94.60043334960938 -441.7611083984375 90.20895385742188 -401.0685729980469 C 85.52241516113281 -357.6420288085938 107.6795806884766 -306.9691772460938 131.9151916503906 -271.8272094726563 L 163.9174499511719 -279.1679077148438 C 167.5529174804688 -345.8146362304688 166.0468444824219 -380.3995971679688 144.2476806640625 -414.6749877929688 C 124.5080718994141 -445.7129821777344 109.5661010742188 -453.4829406738281 107.1696319580078 -453.4831848144531 M 107.1693572998047 -454.4831848144531 L 107.1695404052734 -454.4831848144531 L 107.1698760986328 -454.4831848144531 C 108.9738311767578 -454.4829711914063 113.7183380126953 -451.9732055664063 119.8720550537109 -446.4632263183594 C 123.5566101074219 -443.1641235351563 127.3793334960938 -439.129150390625 131.2340698242188 -434.4703674316406 C 135.8493804931641 -428.892333984375 140.51171875 -422.4127807617188 145.0914916992188 -415.2116394042969 C 155.8801574707031 -398.2483215332031 161.9007873535156 -380.9688415527344 164.6128845214844 -359.1842346191406 C 165.8753814697266 -349.0434265136719 166.4741058349609 -337.415283203125 166.4432678222656 -323.6352844238281 C 166.4166107177734 -311.7193908691406 165.945556640625 -297.9883728027344 164.9159851074219 -279.1134338378906 L 164.8749694824219 -278.361572265625 L 164.1410369873047 -278.1932373046875 L 132.1387634277344 -270.8525390625 L 131.4772644042969 -270.7008056640625 L 131.0919494628906 -271.2594909667969 C 124.7638092041016 -280.4353942871094 118.8882904052734 -290.1983337402344 113.6286010742188 -300.2771911621094 C 107.9498596191406 -311.1590270996094 103.1202392578125 -322.1708068847656 99.27388000488281 -333.0066528320313 C 95.08311462402344 -344.812744140625 92.08151245117188 -356.3642578125 90.35246276855469 -367.3402709960938 C 88.466552734375 -379.3121032714844 88.08375549316406 -390.6960144042969 89.21473693847656 -401.1758728027344 C 90.22978210449219 -410.5815124511719 91.66574096679688 -419.1539001464844 93.48275756835938 -426.6549377441406 C 94.98515319824219 -432.8572082519531 96.74465942382813 -438.3264465332031 98.71238708496094 -442.9107971191406 C 100.6353149414063 -447.3908081054688 102.3659515380859 -450.099853515625 103.4791564941406 -451.5835571289063 C 104.7854309082031 -453.3245239257813 105.8724365234375 -454.2785034179688 106.7152252197266 -454.4248962402344 C 106.853759765625 -454.4639892578125 107.0038909912109 -454.4831848144531 107.1693572998047 -454.4831848144531 Z" stroke="none" fill="#31326f"/>
        </g>
        <path id="Trazado_102167" data-name="Trazado 102167" d="M134.793-247.024s22.223-8.173,36.782-8.684" transform="translate(-96.342 423.896)" fill="none" stroke="#31326f" stroke-miterlimit="10" stroke-width="1"/>
        <path id="Trazado_102168" data-name="Trazado 102168" d="M144.359-414.675c-20.453-32.379-35.9-39.408-37.31-38.77-1.367,0-10.319,8.785-14.972,37.928-.695,4.35-1.293,9.153-1.757,14.448a74.858,74.858,0,0,0,12.06-.246A98.29,98.29,0,0,0,117.951-404C136.455-408.76,144.359-414.675,144.359-414.675Z" transform="translate(-89.689 453.484)" fill="#31326f" stroke="#31326f" stroke-miterlimit="10" stroke-width="1"/>
        <path id="Trazado_102169" data-name="Trazado 102169" d="M147.292-304.231c-2.839-3.686,1.253,28.948,5.477,47.32,2.02,8.784,6.267,13.922,7.036,14.006s1.821-5.832.342-15.017C158.445-268.491,152.749-297.146,147.292-304.231Z" transform="translate(-98.071 431.198)" fill="#31326f" stroke="#31326f" stroke-miterlimit="10" stroke-width="1"/>
        <g id="Elipse_4019" data-name="Elipse 4019" transform="translate(16.572 62.592)" fill="#45499b" stroke="#31326f" stroke-miterlimit="10" stroke-width="1">
          <circle cx="18.654" cy="18.654" r="18.654" stroke="none"/>
          <circle cx="18.654" cy="18.654" r="19.154" fill="none"/>
        </g>
        <path id="Trazado_102170" data-name="Trazado 102170" d="M124.453-373.092s13.276-3.835,18.881,6.2" transform="translate(-94.795 441.565)" fill="none" stroke="#dbf6e9" stroke-miterlimit="10" stroke-width="1"/>
      </g>
      <path id="Trazado_102171" data-name="Trazado 102171" d="M69.4-383.028s1.258-5.281,2.515-5.533,2.226,6.279.717,8.291" transform="translate(111.228 458.827)" fill="none" stroke="#31326f" stroke-linecap="round" stroke-linejoin="round" stroke-width="1"/>
      <path id="Trazado_102172" data-name="Trazado 102172" d="M46.776-346.908s8.251,14.556,8.832,19.245" transform="translate(114.503 452.845)" fill="none" stroke="#31326f" stroke-linecap="round" stroke-linejoin="round" stroke-width="1"/>
      <path id="Trazado_102173" data-name="Trazado 102173" d="M4.938-319.48c2.034,3.051,5.594,6.865,7.3,9.947l-16.67,10.3" transform="translate(121.902 448.899)" fill="none" stroke="#31326f" stroke-linecap="round" stroke-linejoin="round" stroke-width="1"/>
      <path id="Trazado_102174" data-name="Trazado 102174" d="M27.455-337.574c2.8,2.019,10.676,8.264,14.394,16" transform="translate(117.301 451.493)" fill="none" stroke="#31326f" stroke-linecap="round" stroke-linejoin="round" stroke-width="1"/>
      <path id="Trazado_102175" data-name="Trazado 102175" d="M-3.469-268.54s23.894,4.187,49.734-9.127" transform="translate(121.823 442.842)" fill="none" stroke="#31326f" stroke-linecap="round" stroke-linejoin="round" stroke-width="1"/>
      <path id="Trazado_102176" data-name="Trazado 102176" d="M8.082-330.84s3.814,11.44,17.289,3.813" transform="translate(120.099 450.5)" fill="none" stroke="#31326f" stroke-linecap="round" stroke-linejoin="round" stroke-width="1"/>
      <path id="Trazado_102177" data-name="Trazado 102177" d="M60.043-314.373" transform="translate(112.569 448.108)" fill="#ffb8a0"/>
      <path id="Trazado_102178" data-name="Trazado 102178" d="M29.472-254.178c-.12.082,3.539-5.207,3.539-5.207a12.927,12.927,0,0,0,4.954-11.345" transform="translate(116.998 441.867)" fill="none" stroke="#31326f" stroke-linecap="round" stroke-linejoin="round" stroke-width="1"/>
      <path id="Trazado_102179" data-name="Trazado 102179" d="M-5.5-186.9s18.687-7.648,24-24.866a140.227,140.227,0,0,0,5.912-32.069" transform="translate(122.078 438.188)" fill="none" stroke="#31326f" stroke-linecap="round" stroke-linejoin="round" stroke-width="1"/>
      <path id="Trazado_102180" data-name="Trazado 102180" d="M144.921-241.48S165.406-169.12,166-157.024" transform="translate(100.391 438.351)" fill="#31326f" stroke="#31326f" stroke-miterlimit="10" stroke-width="1"/>
      <path id="Trazado_102181" data-name="Trazado 102181" d="M171.982-247.031s11.229,38.8,15.654,46.475" transform="translate(96.472 438.591)" fill="#31326f" stroke="#31326f" stroke-miterlimit="10" stroke-width="1"/>
      <path id="Trazado_102182" data-name="Trazado 102182" d="M162.125-124.468c-11.491-7.387-.673-23.925,11.1-16.07" transform="translate(98.599 423.56)" fill="none" stroke="#31326f" stroke-miterlimit="10" stroke-width="1"/>
      <path id="Trazado_102183" data-name="Trazado 102183" d="M166.265-224.5s18.933,63.571,28.15,77.581" transform="translate(97.344 435.812)" fill="none" stroke="#31326f" stroke-miterlimit="10" stroke-width="1"/>
      <path id="Trazado_102184" data-name="Trazado 102184" d="M389.005-158.486" transform="translate(65.154 425.935)" fill="none" stroke="#31326f" stroke-linecap="round" stroke-linejoin="round" stroke-width="1"/>
      <g id="Grupo_55709" data-name="Grupo 55709" transform="translate(270.108 108.205)">
        <g id="Grupo_55708" data-name="Grupo 55708" transform="translate(0)">
          <path id="Trazado_102185" data-name="Trazado 102185" d="M294.8-249.512l11.5,16.275a27.736,27.736,0,0,0,21.654,11.883,15.43,15.43,0,0,0,5.468-.583c1.654-.614,1.778,1.828,3.732,3.192,0,0,9.854,8.419,4.108,11.462-7.45,3.946-27.027,5.358-34.7,2.43-13.434-5.128-18.722-15.5-21.135-20.052a29.267,29.267,0,0,0-3.451-5.17Z" transform="translate(-188.943 330.652)" fill="#31326f" stroke="#31326f" stroke-miterlimit="10" stroke-width="1"/>
          <path id="Trazado_102186" data-name="Trazado 102186" d="M245.518-235.867s14.938,33.422,26.283,42.174c9.73,7.506,26.323,10.566,32.829,8.953l-2.881-13.846,4.007-3.935s-3.057-.553-6.841-1.452A28.091,28.091,0,0,1,281.3-216.956l-4.236-7.115s18.932-13.1,11.628-26.544l-25.053,10.667Z" transform="translate(-183.488 330.817)" fill="#31326f" stroke="#31326f" stroke-miterlimit="10" stroke-width="1"/>
          <path id="Trazado_102187" data-name="Trazado 102187" d="M280.383-329.714l-1.462-2.218s-7.581-1.348-7.076-2.864,4.886-1.348,4.886-1.348-4.212-5.728-4.212-7.75,3.538-.674,4.38.674c0,0,5.634-2.99,9.316-1.052,3.2,1.685,6.922,9.8,6.922,9.8Z" transform="translate(-187.423 344.925)" fill="#f29554"/>
          <path id="Trazado_102188" data-name="Trazado 102188" d="M176.061-306.639c-2.359-3.875-4.31-9.866-3.13-12.73s9.548-6.272,9.548-6.272-.843-3.369.337-5.222,5.34,10.729,7.218,16.567Z" transform="translate(-172.576 342.849)" fill="#f29554"/>
          <path id="Trazado_102189" data-name="Trazado 102189" d="M248.854-308.508l.337-5.7s-5.127-5.562-9.388-6.091-10.784,1.94-11.086,4.961-.036,13.1,3.558,15.387a14.9,14.9,0,0,0,4.636,1.677c.429.931,1.886,4.026,2.781,4.772,1.194.995,13.671-5.118,13.87-5.714S251.413-301.866,248.854-308.508Z" transform="translate(-180.961 341.252)" fill="#f29554"/>
          <path id="Trazado_102190" data-name="Trazado 102190" d="M231.2-315.982c-2.143-.745-8.664-1.77-7.639-4.192s3.2-7.753,9.439-6.356,15.154,4.12,15.061,7.939c0,0,.559-1.677,2.236-.186s2.475,13.928,1.451,16.164-8.747,4.384-10.978,3.779-4.073-1.219-5.1-3.92l-.746-6.148s-2.328-.094-2.887-1.584A30.054,30.054,0,0,1,231.2-315.982Z" transform="translate(-180.187 342.208)" fill="#31326f" stroke="#31326f" stroke-miterlimit="10" stroke-width="1"/>
          <path id="Trazado_102191" data-name="Trazado 102191" d="M265.538-289.743l-.657-1.074c4.147-2.394,12.284-7.509,15.3-12.359,4.772-7.675.093-32.276-1.819-32.105-2.622.234-13.9,5.172-13.9,5.172.486.972,2.766,15.283,2.328,15.865-1.519,2.025-11.693,7.453-11.693,7.453s-20.209,9.3-27.511,11.748c-10.07,3.376-13.319,3.44-20.489-.935-5.941-3.624-16.159-19.078-16.159-19.078-5.728,1.965-13.53,6.2-14.259,7.784,0,0,2.285,7.768,11.879,19.672,14.618,18.14,35.728,15.719,35.728,15.719,3.524,7.778,15.638,34.747,15.638,34.747,12.052.446,41.679-21.07,41.679-21.07Z" transform="translate(-173.189 343.483)" fill="#9ddfd3"/>
          <path id="Trazado_102192" data-name="Trazado 102192" d="M177.784-298.734s11.2,23.724,28.868,30.034c8.164,2.916,17.8,2.287,17.8,2.287" transform="translate(-173.355 338.015)" fill="none" stroke="#31326f" stroke-linecap="round" stroke-linejoin="round" stroke-width="1"/>
          <path id="Trazado_102193" data-name="Trazado 102193" d="M236.943-306.026c1.526-2.889,3.325-1.089,3.145.89s-1.259,5.759-2.7,5.039" transform="translate(-182.206 339.332)" fill="#f29554"/>
          <path id="Trazado_102194" data-name="Trazado 102194" d="M312.258-194.368c-2.286.822-6.185,3.859-5.077,7.419s5,11.281,6.835,12.9,4.852,4.881,8.413,3.773,4.11-5.868,3.949-7.118c-.632-4.9-5.55-13.1-8.717-15.952A4.59,4.59,0,0,0,312.258-194.368Z" transform="translate(-192.684 322.472)" fill="#ffe873"/>
          <path id="Trazado_102195" data-name="Trazado 102195" d="M340.711-216.8c-2.925,1.618,13.089,23.151,17.431,19.4,5.91-5.113-2.489-16.6-7.187-22.147a4.273,4.273,0,0,0-6.1-.6Z" transform="translate(-197.676 326.411)" fill="#ffe873"/>
        </g>
        <path id="Trazado_102196" data-name="Trazado 102196" d="M176.674-303.9s9.03-7.261,17.4-8.83" transform="translate(-173.189 340.109)" fill="none" stroke="#31326f" stroke-linecap="round" stroke-linejoin="round" stroke-width="1"/>
        <path id="Trazado_102197" data-name="Trazado 102197" d="M278.919-329.175a114.162,114.162,0,0,1,14.738-6.106" transform="translate(-188.485 343.483)" fill="none" stroke="#31326f" stroke-linecap="round" stroke-linejoin="round" stroke-width="1"/>
        <path id="Trazado_102198" data-name="Trazado 102198" d="M278.859-308.714s7.111-4.338,10.51-1.984" transform="translate(-188.476 339.91)" fill="none" stroke="#31326f" stroke-linecap="round" stroke-linejoin="round" stroke-width="1"/>
        <path id="Trazado_102199" data-name="Trazado 102199" d="M274.614-293.972c.523.785,21.636,41.948,21.636,41.948" transform="translate(-187.841 337.303)" fill="none" stroke="#31326f" stroke-linecap="round" stroke-linejoin="round" stroke-width="1"/>
        <path id="Trazado_102200" data-name="Trazado 102200" d="M193.749-276.545s2.876-1.568,7.059.523c6.1,3.05,4.445,8.367,4.445,8.367" transform="translate(-175.744 334.78)" fill="none" stroke="#31326f" stroke-linecap="round" stroke-linejoin="round" stroke-width="1"/>
        <path id="Trazado_102201" data-name="Trazado 102201" d="M295.355-296.688s-3.922-8.629,4.184-10.2" transform="translate(-190.802 339.235)" fill="none" stroke="#31326f" stroke-linecap="round" stroke-linejoin="round" stroke-width="1"/>
        <path id="Trazado_102202" data-name="Trazado 102202" d="M318.377-193.089c-2.9-.556-7.872,3.889-6.3,6.765s6.454,15.613,11.071,16.3" transform="translate(-193.4 322.218)" fill="none" stroke="#31326f" stroke-linecap="round" stroke-linejoin="round" stroke-width="1"/>
        <line id="Línea_355" data-name="Línea 355" y1="3.922" x2="6.275" transform="translate(122.334 132.233)" fill="none" stroke="#31326f" stroke-linecap="round" stroke-linejoin="round" stroke-width="1"/>
        <line id="Línea_356" data-name="Línea 356" y1="3.922" x2="6.275" transform="translate(123.903 135.109)" fill="none" stroke="#31326f" stroke-linecap="round" stroke-linejoin="round" stroke-width="1"/>
        <line id="Línea_357" data-name="Línea 357" y1="3.922" x2="6.275" transform="translate(125.994 138.247)" fill="none" stroke="#31326f" stroke-linecap="round" stroke-linejoin="round" stroke-width="1"/>
        <line id="Línea_358" data-name="Línea 358" y1="3.922" x2="6.275" transform="translate(127.302 141.646)" fill="none" stroke="#31326f" stroke-linecap="round" stroke-linejoin="round" stroke-width="1"/>
        <path id="Trazado_102203" data-name="Trazado 102203" d="M312.447-173.442s-6.013,8.106-2.091,6.8,2.614-6.537,2.614-6.537" transform="translate(-192.989 319.272)" fill="none" stroke="#31326f" stroke-linecap="round" stroke-linejoin="round" stroke-width="1"/>
        <path id="Trazado_102204" data-name="Trazado 102204" d="M345.637-219.977c-1.053.614,10.626,22.392,13.284,22.747" transform="translate(-198.456 326.233)" fill="none" stroke="#31326f" stroke-linecap="round" stroke-linejoin="round" stroke-width="1"/>
        <line id="Línea_359" data-name="Línea 359" y1="2.353" x2="2.876" transform="translate(151.619 106.87)" fill="none" stroke="#31326f" stroke-linecap="round" stroke-linejoin="round" stroke-width="1"/>
        <line id="Línea_360" data-name="Línea 360" y1="2.353" x2="2.876" transform="translate(153.449 110.008)" fill="none" stroke="#31326f" stroke-linecap="round" stroke-linejoin="round" stroke-width="1"/>
        <line id="Línea_361" data-name="Línea 361" y1="2.353" x2="2.876" transform="translate(155.018 113.145)" fill="none" stroke="#31326f" stroke-linecap="round" stroke-linejoin="round" stroke-width="1"/>
        <line id="Línea_362" data-name="Línea 362" y1="2.353" x2="2.876" transform="translate(156.587 116.283)" fill="none" stroke="#31326f" stroke-linecap="round" stroke-linejoin="round" stroke-width="1"/>
        <line id="Línea_363" data-name="Línea 363" y1="2.353" x2="2.876" transform="translate(158.417 119.421)" fill="none" stroke="#31326f" stroke-linecap="round" stroke-linejoin="round" stroke-width="1"/>
        <path id="Trazado_102205" data-name="Trazado 102205" d="M349.638-198.347c0,5.491,1.046,6.275,2.092,5.491s-.262-4.968-.262-4.968" transform="translate(-199.065 322.997)" fill="none" stroke="#31326f" stroke-linecap="round" stroke-linejoin="round" stroke-width="1"/>
        <path id="Trazado_102206" data-name="Trazado 102206" d="M236.073-292.237s.962,1.924,8.178-.16,11.386-5.453,11.707-7.858" transform="translate(-182.076 338.243)" fill="none" stroke="#31326f" stroke-linecap="round" stroke-linejoin="round" stroke-width="1"/>
      </g>
      <g id="Grupo_55710" data-name="Grupo 55710" transform="translate(271.345 43.792)">
        <rect id="Rectángulo_5372" data-name="Rectángulo 5372" width="22.706" height="31.779" rx="2.382" transform="translate(31.779 0) rotate(90)" fill="none" stroke="#31326f" stroke-miterlimit="10" stroke-width="1"/>
        <path id="Trazado_102207" data-name="Trazado 102207" d="M207.064-417.142a2.026,2.026,0,0,0-2.027-2.026H177.311a2.026,2.026,0,0,0-2.026,2.026v1.483h31.71Z" transform="translate(-175.285 419.168)" fill="#9ddfd3"/>
        <rect id="Rectángulo_5373" data-name="Rectángulo 5373" width="11.643" height="10.184" rx="1.446" transform="translate(3.486 6.026)" fill="#9ddfd3"/>
        <line id="Línea_364" data-name="Línea 364" x2="11.42" transform="translate(17.301 6.757)" fill="none" stroke="#31326f" stroke-linecap="round" stroke-linejoin="round" stroke-width="1"/>
        <line id="Línea_365" data-name="Línea 365" x2="11.42" transform="translate(17.301 9.723)" fill="none" stroke="#31326f" stroke-linecap="round" stroke-linejoin="round" stroke-width="1"/>
        <line id="Línea_366" data-name="Línea 366" x2="11.42" transform="translate(17.301 13.008)" fill="none" stroke="#31326f" stroke-linecap="round" stroke-linejoin="round" stroke-width="1"/>
        <line id="Línea_367" data-name="Línea 367" x2="11.42" transform="translate(17.301 15.974)" fill="none" stroke="#31326f" stroke-linecap="round" stroke-linejoin="round" stroke-width="1"/>
        <line id="Línea_368" data-name="Línea 368" x2="24.7" transform="translate(4.021 18.941)" fill="none" stroke="#31326f" stroke-linecap="round" stroke-linejoin="round" stroke-width="1"/>
      </g>
      <g id="Grupo_55711" data-name="Grupo 55711" transform="translate(63.483 207.531)">
        <rect id="Rectángulo_5374" data-name="Rectángulo 5374" width="14.514" height="29.548" rx="1.523" transform="translate(29.548 0) rotate(90)" fill="none" stroke="#31326f" stroke-miterlimit="10" stroke-width="1"/>
        <path id="Trazado_102208" data-name="Trazado 102208" d="M-37.485-226.906a1.3,1.3,0,0,0-1.294-1.3H-65.737a1.3,1.3,0,0,0-1.3,1.3v.948h29.5Z" transform="translate(67.032 228.201)" fill="#9ddfd3"/>
        <rect id="Rectángulo_5375" data-name="Rectángulo 5375" width="7.442" height="6.51" rx="0.924" transform="translate(2.228 3.852)" fill="#9ddfd3"/>
        <line id="Línea_369" data-name="Línea 369" x2="16.534" transform="translate(11.059 4.319)" fill="none" stroke="#31326f" stroke-linecap="round" stroke-linejoin="round" stroke-width="1"/>
        <line id="Línea_370" data-name="Línea 370" x2="16.534" transform="translate(11.059 6.216)" fill="none" stroke="#31326f" stroke-linecap="round" stroke-linejoin="round" stroke-width="1"/>
        <line id="Línea_371" data-name="Línea 371" x2="16.534" transform="translate(11.059 8.315)" fill="none" stroke="#31326f" stroke-linecap="round" stroke-linejoin="round" stroke-width="1"/>
        <line id="Línea_372" data-name="Línea 372" x2="16.534" transform="translate(11.059 10.211)" fill="none" stroke="#31326f" stroke-linecap="round" stroke-linejoin="round" stroke-width="1"/>
        <line id="Línea_373" data-name="Línea 373" x2="25.023" transform="translate(2.57 12.108)" fill="none" stroke="#31326f" stroke-linecap="round" stroke-linejoin="round" stroke-width="1"/>
      </g>
      <g id="Grupo_55712" data-name="Grupo 55712" transform="translate(58.751 33.131)">
        <rect id="Rectángulo_5376" data-name="Rectángulo 5376" width="15.214" height="21.294" rx="1.596" transform="translate(21.294) rotate(90)" fill="none" stroke="#31326f" stroke-miterlimit="10" stroke-width="1"/>
        <path id="Trazado_102209" data-name="Trazado 102209" d="M-51.3-430.348A1.357,1.357,0,0,0-52.66-431.7H-71.239a1.357,1.357,0,0,0-1.357,1.357v.993h21.247Z" transform="translate(72.596 431.705)" fill="#9ddfd3"/>
        <rect id="Rectángulo_5377" data-name="Rectángulo 5377" width="7.801" height="6.824" rx="0.969" transform="translate(2.336 4.038)" fill="#9ddfd3"/>
        <line id="Línea_374" data-name="Línea 374" x2="7.652" transform="translate(11.593 4.528)" fill="none" stroke="#31326f" stroke-linecap="round" stroke-linejoin="round" stroke-width="1"/>
        <line id="Línea_375" data-name="Línea 375" x2="7.652" transform="translate(11.593 6.515)" fill="none" stroke="#31326f" stroke-linecap="round" stroke-linejoin="round" stroke-width="1"/>
        <line id="Línea_376" data-name="Línea 376" x2="7.652" transform="translate(11.593 8.716)" fill="none" stroke="#31326f" stroke-linecap="round" stroke-linejoin="round" stroke-width="1"/>
        <line id="Línea_377" data-name="Línea 377" x2="7.652" transform="translate(11.593 10.704)" fill="none" stroke="#31326f" stroke-linecap="round" stroke-linejoin="round" stroke-width="1"/>
        <line id="Línea_378" data-name="Línea 378" x2="16.551" transform="translate(2.694 12.692)" fill="none" stroke="#31326f" stroke-linecap="round" stroke-linejoin="round" stroke-width="1"/>
      </g>
      <circle id="Elipse_4020" data-name="Elipse 4020" cx="1.108" cy="1.108" r="1.108" transform="translate(255.552 30.809)" fill="#dbf6e9"/>
      <circle id="Elipse_4021" data-name="Elipse 4021" cx="1.108" cy="1.108" r="1.108" transform="translate(36.398 168.932)" fill="#dbf6e9"/>
      <circle id="Elipse_4022" data-name="Elipse 4022" cx="1.108" cy="1.108" r="1.108" transform="translate(393.985 300.578)" fill="#dbf6e9"/>
      <circle id="Elipse_4023" data-name="Elipse 4023" cx="1.108" cy="1.108" r="1.108" transform="translate(240.031 250.139)" fill="#dbf6e9"/>
      <circle id="Elipse_4024" data-name="Elipse 4024" cx="1.108" cy="1.108" r="1.108" transform="translate(311.179 6.488)" fill="#dbf6e9"/>
      <circle id="Elipse_4025" data-name="Elipse 4025" cx="1.108" cy="1.108" r="1.108" transform="translate(0 234.062)" fill="#dbf6e9"/>
      <circle id="Elipse_4026" data-name="Elipse 4026" cx="1.108" cy="1.108" r="1.108" transform="translate(156.165 69.824)" fill="#dbf6e9"/>
      <circle id="Elipse_4027" data-name="Elipse 4027" cx="1.108" cy="1.108" r="1.108" transform="translate(437.114 80.165)" fill="#dbf6e9"/>
      <circle id="Elipse_4028" data-name="Elipse 4028" cx="1.108" cy="1.108" r="1.108" transform="translate(445.093 179.182)" fill="#dbf6e9"/>
      <g id="Grupo_55713" data-name="Grupo 55713" transform="translate(437.176)">
        <line id="Línea_379" data-name="Línea 379" y1="5.159" transform="translate(2.58)" fill="#31326f" stroke="#31326f" stroke-linecap="round" stroke-linejoin="round" stroke-width="1"/>
        <line id="Línea_380" data-name="Línea 380" x2="5.159" transform="translate(0 2.58)" fill="#31326f" stroke="#31326f" stroke-linecap="round" stroke-linejoin="round" stroke-width="1"/>
      </g>
      <g id="Grupo_55714" data-name="Grupo 55714" transform="translate(76.276 111.619)">
        <line id="Línea_381" data-name="Línea 381" y1="5.159" transform="translate(2.58)" fill="#31326f" stroke="#31326f" stroke-linecap="round" stroke-linejoin="round" stroke-width="1"/>
        <line id="Línea_382" data-name="Línea 382" x2="5.159" transform="translate(0 2.58)" fill="#31326f" stroke="#31326f" stroke-linecap="round" stroke-linejoin="round" stroke-width="1"/>
      </g>
      <g id="Grupo_55715" data-name="Grupo 55715" transform="translate(28.327 28.823)">
        <line id="Línea_383" data-name="Línea 383" y1="5.159" transform="translate(2.58)" fill="#31326f" stroke="#31326f" stroke-linecap="round" stroke-linejoin="round" stroke-width="1"/>
        <line id="Línea_384" data-name="Línea 384" x2="5.159" transform="translate(0 2.58)" fill="#31326f" stroke="#31326f" stroke-linecap="round" stroke-linejoin="round" stroke-width="1"/>
      </g>
      <g id="Grupo_55716" data-name="Grupo 55716" transform="translate(123.466 278.167)">
        <circle id="Elipse_4029" data-name="Elipse 4029" cx="4.807" cy="4.807" r="4.807" transform="translate(0 0)" fill="none" stroke="#31326f" stroke-linecap="round" stroke-linejoin="round" stroke-width="2"/>
        <line id="Línea_385" data-name="Línea 385" x2="4.127" y2="5.29" transform="translate(7.999 9.099)" fill="none" stroke="#31326f" stroke-linecap="round" stroke-linejoin="round" stroke-width="2"/>
      </g>
      <path id="Trazado_102210" data-name="Trazado 102210" d="M156.544-126.226c-2.855-2.855-10.6-.408-10.2,4.893" transform="translate(100.15 421.29)" fill="none" stroke="#31326f" stroke-miterlimit="10" stroke-width="1"/>
      <line id="Línea_386" data-name="Línea 386" x2="4.774" transform="translate(459.453 213.251)" fill="none" stroke="#31326f" stroke-miterlimit="10" stroke-width="1"/>
      <line id="Línea_387" data-name="Línea 387" x2="4.774" transform="translate(332.543 257.723)" fill="none" stroke="#31326f" stroke-miterlimit="10" stroke-width="1"/>
      <line id="Línea_388" data-name="Línea 388" x2="4.774" transform="translate(96.551 70.737)" fill="none" stroke="#31326f" stroke-miterlimit="10" stroke-width="1"/>
      <line id="Línea_389" data-name="Línea 389" x2="4.774" transform="translate(434.534 124.028)" fill="none" stroke="#31326f" stroke-miterlimit="10" stroke-width="1"/>
      <line id="Línea_390" data-name="Línea 390" x2="7.873" transform="translate(408.73 37.46)" fill="none" stroke="#31326f" stroke-linecap="round" stroke-linejoin="round" stroke-width="1"/>
      <line id="Línea_391" data-name="Línea 391" y2="4.419" transform="translate(55.844 81.248)" fill="none" stroke="#31326f" stroke-linecap="round" stroke-linejoin="round" stroke-width="1"/>
      <line id="Línea_392" data-name="Línea 392" y2="4.419" transform="translate(36.632 264.933)" fill="none" stroke="#31326f" stroke-linecap="round" stroke-linejoin="round" stroke-width="1"/>
      <line id="Línea_393" data-name="Línea 393" x2="7.873" transform="translate(349.008 279.566)" fill="none" stroke="#31326f" stroke-linecap="round" stroke-linejoin="round" stroke-width="1"/>
      <path id="Trazado_102211" data-name="Trazado 102211" d="M-34.524-150.739" transform="translate(125.652 424.777)" fill="#dbf6e9"/>
      <line id="Línea_394" data-name="Línea 394" y1="3.163" transform="translate(392.152 74.236)" fill="#31326f" stroke="#31326f" stroke-linecap="round" stroke-linejoin="round" stroke-width="1"/>
      <line id="Línea_395" data-name="Línea 395" x2="3.558" transform="translate(398.873 82.983)" fill="#31326f" stroke="#31326f" stroke-linecap="round" stroke-linejoin="round" stroke-width="1"/>
      <line id="Línea_396" data-name="Línea 396" y1="3.163" x2="3.163" transform="translate(396.501 76.225)" fill="#31326f" stroke="#31326f" stroke-linecap="round" stroke-linejoin="round" stroke-width="1"/>
      <g id="Grupo_55718" data-name="Grupo 55718" transform="translate(347.132 6.089)">
        <g id="Grupo_55717" data-name="Grupo 55717" transform="translate(23.128 5.935)">
          <path id="Trazado_102212" data-name="Trazado 102212" d="M310.6-442.457a10.126,10.126,0,0,1-10.126,10.127,10.126,10.126,0,0,1-10.127-10.127,10.126,10.126,0,0,1,10.127-10.126v10.126Z" transform="translate(-290.346 455.935)" fill="#dbf6e9"/>
          <path id="Trazado_102213" data-name="Trazado 102213" d="M316.463-446.4a10.127,10.127,0,0,0-10.127-10.127V-446.4S316.463-446.132,316.463-446.4Z" transform="translate(-292.738 456.525)" fill="#9ddfd3"/>
        </g>
        <path id="Trazado_102214" data-name="Trazado 102214" d="M294.522-435.461l-7.247,7.247H273.633" transform="translate(-264.718 459.309)" fill="none" stroke="#31326f" stroke-linecap="round" stroke-linejoin="round" stroke-width="1"/>
        <rect id="Rectángulo_5378" data-name="Rectángulo 5378" width="6.431" height="5.389" rx="0.904" transform="translate(57.444)" fill="#9ddfd3"/>
        <rect id="Rectángulo_5379" data-name="Rectángulo 5379" width="6.431" height="5.389" rx="0.904" transform="translate(0 28.342)" fill="#9ddfd3"/>
        <path id="Trazado_102215" data-name="Trazado 102215" d="M318.276-455.992l3.958-3.958h3.958" transform="translate(-271.397 462.972)" fill="none" stroke="#31326f" stroke-linecap="round" stroke-linejoin="round" stroke-width="1"/>
      </g>
      <g id="Grupo_55719" data-name="Grupo 55719" transform="translate(387.841 160.11)">
        <path id="Trazado_102216" data-name="Trazado 102216" d="M331.822-259.012H314.513a3.493,3.493,0,0,1-3.493-3.493v-17.648a3.493,3.493,0,0,1,3.493-3.493H329.5v22.05A2.5,2.5,0,0,0,331.822-259.012Z" transform="translate(-311.02 283.646)" fill="none" stroke="#31326f" stroke-miterlimit="10" stroke-width="1"/>
        <path id="Trazado_102217" data-name="Trazado 102217" d="M332.746-257.724a2.5,2.5,0,0,0,2.326,2.584s2.428.263,2.428-2.584h-3.1A10.869,10.869,0,0,0,332.746-257.724Z" transform="translate(-314.27 279.774)" fill="none" stroke="#31326f" stroke-miterlimit="10" stroke-width="1"/>
        <line id="Línea_397" data-name="Línea 397" x2="12.195" transform="translate(2.849 20.595)" fill="none" stroke="#31326f" stroke-linecap="round" stroke-linejoin="round" stroke-width="1"/>
        <line id="Línea_398" data-name="Línea 398" x2="12.195" transform="translate(2.849 17.848)" fill="none" stroke="#31326f" stroke-linecap="round" stroke-linejoin="round" stroke-width="1"/>
        <line id="Línea_399" data-name="Línea 399" x2="12.195" transform="translate(2.849 10.852)" fill="none" stroke="#31326f" stroke-linecap="round" stroke-linejoin="round" stroke-width="1"/>
        <line id="Línea_400" data-name="Línea 400" x2="12.195" transform="translate(2.849 8.111)" fill="none" stroke="#31326f" stroke-linecap="round" stroke-linejoin="round" stroke-width="1"/>
        <line id="Línea_401" data-name="Línea 401" x2="12.195" transform="translate(2.849 14.353)" fill="none" stroke="#31326f" stroke-linecap="round" stroke-linejoin="round" stroke-width="1"/>
        <rect id="Rectángulo_5380" data-name="Rectángulo 5380" width="8.552" height="2.231" rx="1.115" transform="translate(6.806 2.965)" fill="#9ddfd3"/>
      </g>
      <g id="Grupo_55720" data-name="Grupo 55720" transform="translate(403.383 170.135)">
        <circle id="Elipse_4030" data-name="Elipse 4030" cx="2.612" cy="2.612" r="2.612" fill="#31326f" stroke="#31326f" stroke-linecap="round" stroke-linejoin="round" stroke-width="1"/>
        <line id="Línea_402" data-name="Línea 402" x2="2.242" y2="2.874" transform="translate(4.346 4.944)" fill="none" stroke="#31326f" stroke-linecap="round" stroke-linejoin="round" stroke-width="1"/>
      </g>
      <path id="Trazado_102218" data-name="Trazado 102218" d="M229.051-120.031c.9-4.512,7.241-10.9,14.89-8.573,10.377,3.158,7.219,13.987,7.219,13.987" transform="translate(88.278 421.539)" fill="none" stroke="#31326f" stroke-miterlimit="10" stroke-width="1"/>
      <path id="Trazado_102219" data-name="Trazado 102219" d="M248.152-108.731s4.963-6.317,11.28-4.964" transform="translate(85.472 419.263)" fill="none" stroke="#31326f" stroke-miterlimit="10" stroke-width="1"/>
      <g id="Grupo_55721" data-name="Grupo 55721" transform="translate(305.584 271.327)">
        <line id="Línea_403" data-name="Línea 403" y1="5.159" transform="translate(2.58)" fill="#31326f" stroke="#31326f" stroke-linecap="round" stroke-linejoin="round" stroke-width="1"/>
        <line id="Línea_404" data-name="Línea 404" x2="5.159" transform="translate(0 2.58)" fill="#31326f" stroke="#31326f" stroke-linecap="round" stroke-linejoin="round" stroke-width="1"/>
      </g>
      <path id="Trazado_102220" data-name="Trazado 102220" d="M112.6-449.37a101.536,101.536,0,0,1,15.778,14.4" transform="translate(105.032 467.479)" fill="none" stroke="#dbf6e9" stroke-miterlimit="10" stroke-width="1"/>
      <path id="Trazado_102221" data-name="Trazado 102221" d="M134.628-427.8s4.34,4.931,6.509,7.692" transform="translate(101.825 464.252)" fill="none" stroke="#31326f" stroke-linecap="round" stroke-linejoin="round" stroke-width="1"/>
      <g id="Grupo_55723" data-name="Grupo 55723" transform="translate(169.244 37.151)">
        <circle id="Elipse_4031" data-name="Elipse 4031" cx="12.256" cy="12.256" r="12.256" fill="#9ddfd3"/>
        <g id="Grupo_55722" data-name="Grupo 55722" transform="translate(6.273 4.775)">
          <path id="Trazado_102222" data-name="Trazado 102222" d="M68.774-408.35l3.989-1.411a.566.566,0,0,0,.36-.691,4.549,4.549,0,0,1,.148-2.732c.84-2.463.908-5.488-1.162-7.1a5.448,5.448,0,0,0-8.675,4.811,5.659,5.659,0,0,0,3.482,4.575A6.069,6.069,0,0,1,68.774-408.35Z" transform="translate(-63.415 421.362)" fill="none" stroke="#31326f" stroke-miterlimit="10" stroke-width="1"/>
          <path id="Trazado_102223" data-name="Trazado 102223" d="M70.52-407.84l-1.8-5,.415.105a1.667,1.667,0,0,0,1.669-.525l.332-.383,1.792,4.972" transform="translate(-64.208 420.207)" fill="none" stroke="#31326f" stroke-miterlimit="10" stroke-width="1"/>
          <path id="Trazado_102224" data-name="Trazado 102224" d="M69.717-406.345l.526,1.538c.193.567,1.041.781,1.885.477l1.525-.549c.839-.3,1.354-1,1.152-1.56l-.549-1.521Z" transform="translate(-64.358 419.357)" fill="none" stroke="#31326f" stroke-miterlimit="10" stroke-width="1"/>
        </g>
      </g>
      <g id="Grupo_55725" data-name="Grupo 55725" transform="translate(277.395 95.496)">
        <circle id="Elipse_4032" data-name="Elipse 4032" cx="12.256" cy="12.256" r="12.256" fill="#9ddfd3"/>
        <g id="Grupo_55724" data-name="Grupo 55724" transform="translate(6.853 5.235)">
          <path id="Trazado_102225" data-name="Trazado 102225" d="M195.8-339.951l3.989-1.411a.565.565,0,0,0,.36-.69,4.549,4.549,0,0,1,.148-2.732c.84-2.463.908-5.488-1.161-7.1a5.448,5.448,0,0,0-8.676,4.811,5.66,5.66,0,0,0,3.482,4.575A6.068,6.068,0,0,1,195.8-339.951Z" transform="translate(-190.445 352.963)" fill="none" stroke="#31326f" stroke-miterlimit="10" stroke-width="1"/>
          <path id="Trazado_102226" data-name="Trazado 102226" d="M197.55-339.441l-1.8-5,.415.105a1.668,1.668,0,0,0,1.67-.525l.331-.383,1.792,4.972" transform="translate(-191.238 351.808)" fill="none" stroke="#31326f" stroke-miterlimit="10" stroke-width="1"/>
          <path id="Trazado_102227" data-name="Trazado 102227" d="M196.747-337.946l.526,1.538c.194.567,1.042.782,1.886.477l1.525-.549c.838-.3,1.354-1,1.152-1.56l-.549-1.521Z" transform="translate(-191.388 350.958)" fill="none" stroke="#31326f" stroke-miterlimit="10" stroke-width="1"/>
        </g>
      </g>
      <path id="Trazado_102228" data-name="Trazado 102228" d="M175.192-98.4a12.132,12.132,0,0,1,9.046-9.046c7.688-1.809,14.021,9.046,14.021,9.046" transform="translate(96.038 418.33)" fill="none" stroke="#31326f" stroke-miterlimit="10" stroke-width="1"/>
      <path id="Trazado_102229" data-name="Trazado 102229" d="M12.6-412.054H2.989a1.3,1.3,0,0,1-1.3-1.3v-9.611a1.3,1.3,0,0,1,1.3-1.3H4.933s-.671,4.152,2.794,4.152c2.908,0,2.348-4.152,2.348-4.152H12.6a1.3,1.3,0,0,1,1.3,1.3v2.626s3.887-.671,3.887,2.572c0,2.907-3.887,2.683-3.887,2.683v1.731A1.3,1.3,0,0,1,12.6-412.054Z" transform="translate(121.019 463.724)" fill="none" stroke="#31326f" stroke-miterlimit="10" stroke-width="1"/>
      <path id="Trazado_102230" data-name="Trazado 102230" d="M91.234-98.84H81.623a1.3,1.3,0,0,1-1.3-1.3v-9.611a1.3,1.3,0,0,1,1.3-1.3h1.944s-.671,4.153,2.8,4.153c2.907,0,2.348-4.153,2.348-4.153h2.524a1.3,1.3,0,0,1,1.3,1.3v2.626s3.887-.671,3.887,2.572c0,2.907-3.887,2.683-3.887,2.683v1.731A1.3,1.3,0,0,1,91.234-98.84Z" transform="translate(109.685 418.84)" fill="none" stroke="#31326f" stroke-miterlimit="10" stroke-width="1"/>
      <path id="Trazado_102231" data-name="Trazado 102231" d="M369.228-177.473h9.611a1.3,1.3,0,0,1,1.3,1.3v9.611a1.3,1.3,0,0,1-1.3,1.3H376.9s.67-4.153-2.8-4.153c-2.907,0-2.348,4.153-2.348,4.153h-2.525a1.3,1.3,0,0,1-1.3-1.3v-2.626s-3.887.671-3.887-2.572c0-2.907,3.887-2.683,3.887-2.683v-1.731A1.3,1.3,0,0,1,369.228-177.473Z" transform="translate(68.889 428.412)" fill="none" stroke="#31326f" stroke-miterlimit="10" stroke-width="1"/>
      <g id="Grupo_55727" data-name="Grupo 55727" transform="translate(320.035 49.999)">
        <g id="Grupo_55726" data-name="Grupo 55726" transform="translate(0)">
          <path id="Trazado_102232" data-name="Trazado 102232" d="M246.282-403.1l1.471-.023a.308.308,0,0,0,.3-.312l-.033-2.136a.307.307,0,0,0-.312-.3l-1.521.023a6.1,6.1,0,0,0-.885-1.915l1.085-1.141a.308.308,0,0,0-.011-.435l-1.549-1.471a.306.306,0,0,0-.434.011l-1.123,1.182a6.089,6.089,0,0,0-1.725-.655v-1.665a.307.307,0,0,0-.307-.307H239.1a.308.308,0,0,0-.308.307v1.706a6.1,6.1,0,0,0-1.9.827l-1.265-1.214a.308.308,0,0,0-.435.009l-1.478,1.543a.307.307,0,0,0,.009.434l1.264,1.212a6.1,6.1,0,0,0-.708,1.757l-1.732.026a.307.307,0,0,0-.3.312l.033,2.136a.306.306,0,0,0,.311.3l1.683-.025a6.1,6.1,0,0,0,.8,1.92l-1.123,1.182a.307.307,0,0,0,.011.435l1.549,1.471a.306.306,0,0,0,.434-.011l1.084-1.14a6.115,6.115,0,0,0,1.765.741v1.538a.307.307,0,0,0,.308.307h2.136a.307.307,0,0,0,.307-.307v-1.5a6.1,6.1,0,0,0,2.079-.87l1.047,1a.308.308,0,0,0,.435-.009l1.478-1.542a.308.308,0,0,0-.009-.435l-1.047-1A6.1,6.1,0,0,0,246.282-403.1Zm-2.464.327a3.877,3.877,0,0,1-1.9,1.987,3.768,3.768,0,0,1-.368.151,3.844,3.844,0,0,1-1.287.221,3.846,3.846,0,0,1-1.464-.288c-.048-.02-.1-.041-.143-.062a3.873,3.873,0,0,1-1.93-1.963c-.032-.073-.064-.148-.091-.224a3.861,3.861,0,0,1-.233-1.324,3.851,3.851,0,0,1,.274-1.428c.01-.026.02-.053.031-.079a3.873,3.873,0,0,1,1.9-1.984q.092-.043.186-.082a3.846,3.846,0,0,1,1.464-.288,3.863,3.863,0,0,1,1.287.22l.079.029a3.87,3.87,0,0,1,2.057,1.827c.043.08.082.162.118.246a3.848,3.848,0,0,1,.32,1.538,3.856,3.856,0,0,1-.2,1.211C243.893-402.97,243.857-402.873,243.817-402.778Z" transform="translate(-232.25 412.251)" fill="#dbf6e9"/>
        </g>
      </g>
      <g id="Grupo_55729" data-name="Grupo 55729" transform="translate(65.706 241.149)">
        <g id="Grupo_55728" data-name="Grupo 55728">
          <path id="Trazado_102233" data-name="Trazado 102233" d="M-50.386-179.786l1.471-.023a.307.307,0,0,0,.3-.312l-.033-2.135a.307.307,0,0,0-.312-.3l-1.52.024a6.108,6.108,0,0,0-.886-1.915l1.085-1.142a.308.308,0,0,0-.011-.435l-1.549-1.471a.308.308,0,0,0-.435.011l-1.123,1.182a6.1,6.1,0,0,0-1.725-.654v-1.665a.308.308,0,0,0-.307-.308h-2.136a.307.307,0,0,0-.307.308v1.706a6.1,6.1,0,0,0-1.9.827l-1.265-1.213a.307.307,0,0,0-.435.009l-1.478,1.542a.307.307,0,0,0,.008.435l1.265,1.211a6.086,6.086,0,0,0-.708,1.757l-1.732.027a.307.307,0,0,0-.3.312l.033,2.135a.307.307,0,0,0,.312.3l1.682-.026a6.109,6.109,0,0,0,.8,1.921l-1.123,1.182a.307.307,0,0,0,.011.434l1.549,1.472a.308.308,0,0,0,.435-.011l1.084-1.141a6.084,6.084,0,0,0,1.765.742v1.537a.307.307,0,0,0,.307.308h2.136a.308.308,0,0,0,.307-.308v-1.5a6.1,6.1,0,0,0,2.08-.871l1.046,1a.308.308,0,0,0,.435-.009l1.478-1.542a.308.308,0,0,0-.008-.435l-1.048-1A6.079,6.079,0,0,0-50.386-179.786Zm-2.464.327a3.872,3.872,0,0,1-1.9,1.987,3.9,3.9,0,0,1-.368.152,3.857,3.857,0,0,1-1.287.22,3.845,3.845,0,0,1-1.464-.288c-.048-.02-.1-.041-.143-.062a3.872,3.872,0,0,1-1.93-1.962c-.032-.074-.063-.149-.091-.225a3.86,3.86,0,0,1-.233-1.324A3.851,3.851,0,0,1-60-182.388c.01-.026.02-.053.031-.079a3.88,3.88,0,0,1,1.9-1.984c.061-.029.124-.056.187-.082a3.845,3.845,0,0,1,1.464-.288,3.836,3.836,0,0,1,1.287.221l.079.028a3.875,3.875,0,0,1,2.058,1.827c.042.081.082.162.117.246a3.852,3.852,0,0,1,.32,1.538,3.851,3.851,0,0,1-.195,1.211C-52.774-179.651-52.81-179.553-52.85-179.459Z" transform="translate(64.418 188.932)" fill="#dbf6e9"/>
        </g>
      </g>
      <g id="Grupo_55731" data-name="Grupo 55731" transform="translate(192.151 134.552)">
        <g id="Grupo_55730" data-name="Grupo 55730" transform="translate(0)">
          <path id="Trazado_102234" data-name="Trazado 102234" d="M102.315-300.777l2.045-.031a.427.427,0,0,0,.42-.434l-.046-2.97a.427.427,0,0,0-.434-.42l-2.113.033a8.477,8.477,0,0,0-1.231-2.663l1.508-1.587a.427.427,0,0,0-.015-.6L100.3-311.5a.426.426,0,0,0-.6.015l-1.562,1.643a8.494,8.494,0,0,0-2.4-.91v-2.315a.427.427,0,0,0-.427-.427h-2.97a.427.427,0,0,0-.427.427v2.372a8.466,8.466,0,0,0-2.64,1.15l-1.759-1.686a.427.427,0,0,0-.6.013l-2.055,2.144a.427.427,0,0,0,.013.6l1.757,1.684a8.457,8.457,0,0,0-.985,2.442l-2.408.037a.427.427,0,0,0-.42.434l.046,2.969a.427.427,0,0,0,.434.42l2.339-.036a8.483,8.483,0,0,0,1.11,2.669L85.177-296.2a.427.427,0,0,0,.015.6l2.153,2.045a.427.427,0,0,0,.6-.015l1.507-1.586a8.493,8.493,0,0,0,2.453,1.031v2.136a.427.427,0,0,0,.427.428h2.97a.427.427,0,0,0,.427-.428v-2.08a8.465,8.465,0,0,0,2.891-1.21l1.455,1.4a.428.428,0,0,0,.6-.013l2.055-2.144a.427.427,0,0,0-.013-.6l-1.455-1.4A8.47,8.47,0,0,0,102.315-300.777Zm-3.425.456a5.389,5.389,0,0,1-2.645,2.761,5.385,5.385,0,0,1-.512.211,5.349,5.349,0,0,1-1.789.307,5.343,5.343,0,0,1-2.034-.4c-.067-.027-.134-.057-.2-.087a5.386,5.386,0,0,1-2.683-2.727c-.045-.1-.088-.207-.127-.312a5.365,5.365,0,0,1-.324-1.84,5.344,5.344,0,0,1,.381-1.985c.014-.037.028-.073.043-.11a5.386,5.386,0,0,1,2.648-2.758c.086-.041.172-.078.26-.114a5.342,5.342,0,0,1,2.034-.4,5.371,5.371,0,0,1,1.789.306l.11.04a5.386,5.386,0,0,1,2.861,2.541c.058.111.113.225.163.341a5.353,5.353,0,0,1,.444,2.139,5.375,5.375,0,0,1-.27,1.683C98.994-300.589,98.944-300.453,98.889-300.321Z" transform="translate(-82.809 313.49)" fill="#dbf6e9"/>
        </g>
      </g>
    </g>
  </g>
</svg>
