<svg xmlns="http://www.w3.org/2000/svg" xmlns:xlink="http://www.w3.org/1999/xlink" width="607.354" height="491.291" viewBox="0 0 607.354 491.291">
  <defs>
    <linearGradient id="linear-gradient" x1="0.5" y1="1" x2="0.5" y2="-11.621" gradientUnits="objectBoundingBox">
      <stop offset="0" stop-color="#fdfdfd"/>
      <stop offset="1" stop-color="#31326f"/>
    </linearGradient>
    <linearGradient id="linear-gradient-2" x1="0.5" y1="1" x2="0.5" y2="0" xlink:href="#linear-gradient"/>
    <linearGradient id="linear-gradient-3" x1="3.139" y1="-41.942" x2="4.155" y2="-41.942" gradientUnits="objectBoundingBox">
      <stop offset="0" stop-color="#51c0b1"/>
      <stop offset="0.991" stop-color="#7acfe7"/>
    </linearGradient>
    <linearGradient id="linear-gradient-4" x1="3.022" y1="-33.639" x2="3.695" y2="-33.639" xlink:href="#linear-gradient-3"/>
    <linearGradient id="linear-gradient-5" x1="-45.684" y1="-24.388" x2="-44.739" y2="-24.388" xlink:href="#linear-gradient-3"/>
    <linearGradient id="linear-gradient-6" x1="0.918" y1="-5.969" x2="1.731" y2="-5.969" xlink:href="#linear-gradient-3"/>
    <linearGradient id="linear-gradient-7" x1="0.935" y1="-3.889" x2="1.642" y2="-3.889" xlink:href="#linear-gradient-3"/>
    <linearGradient id="linear-gradient-8" x1="1.385" y1="-4.653" x2="2.189" y2="-4.653" xlink:href="#linear-gradient-3"/>
  </defs>
  <g id="Grupo_55443" data-name="Grupo 55443" transform="translate(-523.609 -167.215)">
    <g id="Grupo_55361" data-name="Grupo 55361" transform="translate(523.609 167.215)" opacity="0.62" style="mix-blend-mode: multiply;isolation: isolate">
      <path id="Trazado_101070" data-name="Trazado 101070" d="M718.3,409.4s-.156-13.369-.419-35.462c-.045-.018-.095-.032-.139-.05Z" transform="translate(-370.539 -4.255)" fill="url(#linear-gradient)"/>
      <path id="Trazado_101071" data-name="Trazado 101071" d="M1130.831,167.841l-265.837-.626L526,167.841c0,13.117-4.024,12.888-1.64,26,5.963,26.232,29.809,23.846,50.078,32.193,47.694,16.692,23.848,54.848,27.425,91.809,2.384,22.655,11.922,41.733,35.77,47.694,22.653,4.77,35.768,4.681,52.462,26.142,29.807,35.77-3.577,88.321,54.848,112.167,16.692,7.154,36.963,2.384,54.848,5.961,20.659,1.969,39.694,11.237,58.448,19.781l-.025,1.384q3.125,1.607,6.349,2.942a40.759,40.759,0,0,0,6.24,2.93c.045.018.095.032.14.05,0-.2-.005-.42-.007-.624,28.53,9.272,59.927,2.391,73.126-29.442,10.731-27.722,28.616-47.4,60.809-38.453,14.308,4.471,24.145,9.837,40.241,2.683,16.991-8.048,25.933-27.722,29.51-45.607,3.577-18.779,4.471-40.241,24.145-50.078,10.731-4.471,27.767,2.549,32.193-10.731Z" transform="translate(-523.609 -167.215)" fill="url(#linear-gradient-2)"/>
    </g>
    <path id="Trazado_101072" data-name="Trazado 101072" d="M806.222,284.777l-10.554-7.914,1.61,12.918-7.916,10.554,12.92-1.608,10.552,7.918-1.606-12.922,7.914-10.554Z" transform="translate(209.589 75.206)" fill="#cc3d60"/>
    <path id="Trazado_101073" data-name="Trazado 101073" d="M736.425,277.212l-12.693-3.589,6.147,11.477-3.593,12.693,11.479-6.145,12.693,3.593-6.145-11.479,3.591-12.695Z" transform="translate(166.389 78.735)" fill="#dbf6e9"/>
    <path id="Trazado_101074" data-name="Trazado 101074" d="M677.356,341.827l-9.2-6.895,1.406,11.255-6.9,9.195,11.253-1.4,9.195,6.9-1.4-11.257,6.9-9.2Z" transform="translate(109.648 132.244)" fill="#f17fb1"/>
    <path id="Trazado_101075" data-name="Trazado 101075" d="M859.391,256.43l-9.195-6.895,1.4,11.255-6.9,9.195,11.253-1.4,9.195,6.9-1.4-11.257,6.895-9.2Z" transform="translate(253.183 64.909)" fill="#dbf6e9"/>
    <path id="Trazado_101076" data-name="Trazado 101076" d="M602.106,179.773l-3.166-11.048-5.678,9.819-11.049,3.162,9.815,5.68,3.162,11.049,5.682-9.817,11.049-3.164Z" transform="translate(46.208 1.191)" fill="#ffc93c"/>
    <path id="Trazado_101077" data-name="Trazado 101077" d="M621.279,266.694l-5.927-9.847L612.419,267.8l-9.848,5.925,10.953,2.935,5.925,9.849,2.937-10.956,9.847-5.927Z" transform="translate(62.261 70.675)" fill="#cc3d60"/>
    <path id="Trazado_101078" data-name="Trazado 101078" d="M848.662,235.253s-5.008-11.142-2.445-12.7,11.139,3.346,11.139,3.346,10.248-6.233,12.366-4.232-1.785,10.915-1.785,10.915,11.969,5.158,11.217,7.762-13.9,3.6-13.9,3.6-2.7,11.865-5.8,12.92c-1.889.649-5.788-11.586-5.788-11.586s-11.126,2.813-12.189.123S848.662,235.253,848.662,235.253Z" transform="translate(246.248 26.666)" fill="#ffc93c"/>
    <path id="Trazado_101079" data-name="Trazado 101079" d="M801.938,316.222s6.254-10.495,9-9.291,3.647,11.046,3.647,11.046,10.987,4.818,10.561,7.7-9.966,4.8-9.966,4.8,2.64,12.765.073,13.641-10.915-9.318-10.915-9.318-11.268,4.593-13.907,2.663c-1.619-1.175,6.169-11.386,6.169-11.386s-8.687-7.5-7.091-9.915S801.938,316.222,801.938,316.222Z" transform="translate(209.639 96.306)" fill="#dbf6e9"/>
    <path id="Trazado_101080" data-name="Trazado 101080" d="M586.505,204.239s1.2-12.156,4.2-12.235,8,8.447,8,8.447,11.992-.309,12.832,2.481-6.982,8.581-6.982,8.581,7.818,10.431,5.87,12.314-13.843-3.792-13.843-3.792-8.247,8.946-11.455,8.324c-1.966-.377.742-12.929.742-12.929s-11.051-3.1-10.634-5.959S586.505,204.239,586.505,204.239Z" transform="translate(40.693 19.546)" fill="#dbf6e9"/>
    <path id="Trazado_101081" data-name="Trazado 101081" d="M666.051,272.649s-2.849-11.879-.043-12.933,10.323,5.362,10.323,5.362,11.228-4.219,12.936-1.858-3.786,10.393-3.786,10.393,10.8,7.3,9.577,9.715-14.321.948-14.321.948-4.861,11.153-8.1,11.616c-1.978.286-3.532-12.459-3.532-12.459s-11.457.692-12-2.148S666.051,272.649,666.051,272.649Z" transform="translate(111.892 58.523)" fill="#9ddfd3"/>
    <path id="Trazado_101082" data-name="Trazado 101082" d="M770.492,215.99s4.33-11.421,7.243-10.715,5.516,10.241,5.516,10.241,11.656,2.833,11.74,5.745-8.978,6.46-8.978,6.46,4.824,12.112,2.45,13.421-12.373-7.274-12.373-7.274-10.295,6.483-13.231,5.045c-1.8-.876,4.09-12.289,4.09-12.289s-9.858-5.873-8.71-8.528S770.492,215.99,770.492,215.99Z" transform="translate(209.836 -19.063)" fill="#ffc93c"/>
    <path id="Trazado_101083" data-name="Trazado 101083" d="M696.963,296.993a7,7,0,1,1-8.016-5.8A7,7,0,0,1,696.963,296.993Z" transform="translate(125.724 97.683)" fill="#cc3d60"/>
    <path id="Trazado_101331" data-name="Trazado 101331" d="M696.963,296.993a7,7,0,1,1-8.016-5.8A7,7,0,0,1,696.963,296.993Z" transform="translate(247.886 -105.833)" fill="#cc3d60"/>
    <path id="Trazado_101084" data-name="Trazado 101084" d="M756.539,225.84a7,7,0,1,1-8.016-5.8A7,7,0,0,1,756.539,225.84Z" transform="translate(172.699 41.579)" fill="#b3aad3"/>
    <path id="Trazado_101085" data-name="Trazado 101085" d="M577.339,187.6a7,7,0,1,1-8.016-5.8A7,7,0,0,1,577.339,187.6Z" transform="translate(31.401 11.427)" fill="#dbf6e9"/>
    <path id="Trazado_101086" data-name="Trazado 101086" d="M778.121,325.123a4.867,4.867,0,1,1-5.577-4.037A4.863,4.863,0,0,1,778.121,325.123Z" transform="translate(193.054 121.278)" fill="#f9c1b9"/>
    <path id="Trazado_101087" data-name="Trazado 101087" d="M799.963,216.4a4.867,4.867,0,1,1-5.575-4.038A4.86,4.86,0,0,1,799.963,216.4Z" transform="translate(182.554 25.197)" fill="#ffc93c"/>
    <path id="Trazado_101088" data-name="Trazado 101088" d="M689.039,318.248a4.867,4.867,0,1,1-5.577-4.037A4.866,4.866,0,0,1,689.039,318.248Z" transform="translate(122.813 115.857)" fill="#f16953"/>
    <path id="Trazado_101089" data-name="Trazado 101089" d="M743.508,209.845a4.867,4.867,0,1,1-5.575-4.038A4.863,4.863,0,0,1,743.508,209.845Z" transform="translate(173.568 25.177)" fill="#f16953"/>
    <path id="Trazado_101090" data-name="Trazado 101090" d="M590.569,226.257a4.867,4.867,0,1,1-5.575-4.037A4.864,4.864,0,0,1,590.569,226.257Z" transform="translate(45.17 43.323)" fill="#ffc93c"/>
    <path id="Trazado_101091" data-name="Trazado 101091" d="M549.051,178.409a4.867,4.867,0,1,1-5.575-4.037A4.864,4.864,0,0,1,549.051,178.409Z" transform="translate(12.433 5.595)" fill="#f79828"/>
    <path id="Trazado_101092" data-name="Trazado 101092" d="M834.247,302.236a8.574,8.574,0,1,1-9.822-7.113A8.567,8.567,0,0,1,834.247,302.236Z" transform="translate(231.5 88.391)" fill="#cc3d60"/>
    <g id="Grupo_55365" data-name="Grupo 55365" transform="translate(930.49 357.146)">
      <path id="Trazado_101093" data-name="Trazado 101093" d="M772.056,291.773a4.358,4.358,0,1,1-5.956-1.594A4.355,4.355,0,0,1,772.056,291.773Z" transform="translate(-740.034 -266.985)" fill="#ffcb73"/>
      <g id="Grupo_55362" data-name="Grupo 55362" transform="translate(6.929 4.583)">
        <path id="Trazado_101094" data-name="Trazado 101094" d="M770.225,295.177c-4.475,5.11-21.632,20.384-13.736,28.428,5.644,5.757,17.915-8.32,21.158-11.688a124.168,124.168,0,0,0,13.085-16.188c2.563-3.77,6.5-9,5.873-13.816-.469-3.573-5.274-2.3-7.388-1.549-7.458,2.658-13.866,9.014-18.992,14.812-.631.712.5,1.656,1.125.946a65.266,65.266,0,0,1,14.022-12.171A20.666,20.666,0,0,1,792.34,281c5-.976,1.89,5.75,1.028,7.492-4.117,8.315-10.532,15.775-16.846,22.481-2.663,2.829-13.766,15.424-18.747,11.86-5.108-3.656,2.225-13.448,4.511-16.426,2.788-3.625,6.057-6.848,9.064-10.282C771.98,295.408,770.849,294.465,770.225,295.177Z" transform="translate(-754.44 -279.515)" fill="#fff"/>
      </g>
      <g id="Grupo_55363" data-name="Grupo 55363" transform="translate(0 15.39)">
        <path id="Trazado_101095" data-name="Trazado 101095" d="M782.255,289.272c-6.65-1.366-28.407-8.735-31.5,2.105-2.212,7.751,16.088,11.464,20.618,12.62a123.951,123.951,0,0,0,20.539,3.378c4.544.368,11.039,1.207,14.912-1.719,2.878-2.173-.6-5.723-2.3-7.188-6-5.171-14.691-7.6-22.263-9.2a.737.737,0,0,0-.266,1.449A65.182,65.182,0,0,1,799.5,296.9a20.619,20.619,0,0,1,6.011,4.6c3.323,3.865-4.064,4.482-6,4.591-9.263.531-18.919-1.359-27.87-3.538-3.776-.919-20.212-4.346-19.572-10.439.656-6.249,12.79-4.711,16.508-4.194,4.53.631,8.946,1.883,13.417,2.8A.737.737,0,0,0,782.255,289.272Z" transform="translate(-750.566 -285.557)" fill="#fff"/>
      </g>
      <g id="Grupo_55364" data-name="Grupo 55364" transform="translate(15.07)">
        <path id="Trazado_101096" data-name="Trazado 101096" d="M781,303.012c-2.3-6.387-7.361-28.793-18.223-25.783-7.771,2.155-1.4,19.7-.018,24.175a123.984,123.984,0,0,0,7.828,19.285c2.055,4.069,4.722,10.046,9.243,11.827,3.352,1.322,4.566-3.5,4.931-5.712,1.286-7.812-1.173-16.5-3.761-23.792a.736.736,0,0,0-1.373.529,65.484,65.484,0,0,1,3.861,18.162,20.7,20.7,0,0,1-.792,7.528c-1.57,4.849-5.947-1.13-7.052-2.733-5.28-7.621-8.7-16.849-11.513-25.624-1.187-3.7-6.83-19.511-1.3-22.142,5.671-2.7,10.686,8.454,12.185,11.9,1.824,4.194,3.058,8.615,4.609,12.909C779.946,304.437,781.322,303.906,781,303.012Z" transform="translate(-758.992 -276.952)" fill="#fff"/>
      </g>
      <path id="Trazado_101097" data-name="Trazado 101097" d="M778.271,297.561a2.117,2.117,0,1,1-2.894-.774A2.116,2.116,0,0,1,778.271,297.561Z" transform="translate(-731.836 -261.538)" fill="#b4aad3"/>
      <path id="Trazado_101098" data-name="Trazado 101098" d="M761.559,303.9a2.117,2.117,0,1,1-2.892-.774A2.115,2.115,0,0,1,761.559,303.9Z" transform="translate(-745.013 -256.539)" fill="#b4aad3"/>
      <path id="Trazado_101099" data-name="Trazado 101099" d="M762.395,280.417a2.117,2.117,0,1,1-2.894-.774A2.114,2.114,0,0,1,762.395,280.417Z" transform="translate(-744.354 -275.056)" fill="#b4aad3"/>
    </g>
    <g id="Grupo_55368" data-name="Grupo 55368" transform="translate(796.24 237.5)">
      <g id="Grupo_55366" data-name="Grupo 55366">
        <path id="Trazado_101100" data-name="Trazado 101100" d="M663.154,228.9a29.742,29.742,0,0,0,53.226,22.07c.143-.2.277-.4.419-.606C697.57,253.666,677.258,243.624,663.154,228.9Z" transform="translate(-662.847 -204.066)" fill="#96324f"/>
        <path id="Trazado_101101" data-name="Trazado 101101" d="M709.5,220.758a29.489,29.489,0,0,0-41.237,6.226,28.836,28.836,0,0,0-5.24,12.861c14.1,14.727,34.416,24.769,53.644,21.464A29.5,29.5,0,0,0,709.5,220.758Z" transform="translate(-662.712 -215.013)" fill="#cc3d60"/>
      </g>
      <g id="Grupo_55367" data-name="Grupo 55367" transform="translate(1.89 1.109)">
        <path id="Trazado_101102" data-name="Trazado 101102" d="M682,252.8a13.908,13.908,0,0,0-2.836-1.289c.626-1.706,1.327-3.386,2.075-5.027a81.211,81.211,0,0,0,8.172,3.777c9.1,3.638,20.183,6.66,29.932,4.019.054-.143.107-.286.156-.431-9.694,2.295-20.1-.474-29.176-3.949a71.707,71.707,0,0,1-8.783-4.055c.664-1.425,1.359-2.826,2.067-4.192q.48-.92.989-1.822c5.069,3.114,11.5,3.062,17.259,1.622,6.517-1.629,11.409-6.043,15.9-10.786-.127-.243-.256-.488-.388-.728-4.088,4.291-8.424,8.22-14.208,10.232-5.816,2.023-12.831,2.119-18.126-1.1a70.371,70.371,0,0,1,9.078-12.491c2.738-3,6.192-6.82,10.026-9.1-.259-.123-.519-.25-.78-.367-2.77,1.83-5.133,4.387-7.488,6.643a64.9,64.9,0,0,0-11.4,14.952,14.927,14.927,0,0,1-2.241-1.833c-6.422-6.4-2.777-14.285.978-21.246-.286.082-.576.165-.862.254-4,7.3-7.292,15.5-.17,22.118a15.28,15.28,0,0,0,1.865,1.47c-.12.22-.247.436-.367.655-.932,1.726-1.853,3.527-2.724,5.383a66.9,66.9,0,0,1-7.232-4.664c-3.162-2.347-6.99-5.058-9.492-8.4-.113.266-.22.537-.324.8,2.182,2.67,5.146,4.782,7.76,6.92a58.962,58.962,0,0,0,8.991,6c-.775,1.681-1.492,3.4-2.135,5.16a14.807,14.807,0,0,0-14.054,4.062c.141.324.284.646.436.962a20.624,20.624,0,0,1,3.159-2.6,11.836,11.836,0,0,1,10.071-1.345,36.92,36.92,0,0,0-2.209,16.333c.147.093.3.186.443.275a39.211,39.211,0,0,1,2.409-16.4,16.794,16.794,0,0,1,4.892,2.649c5.432,4.219,8.429,11.089,9.99,18.075.383-.025.766-.052,1.147-.089C693.073,265.022,688.85,256.883,682,252.8Z" transform="translate(-663.904 -215.633)" fill="#fff"/>
      </g>
    </g>
    <g id="Grupo_55370" data-name="Grupo 55370" transform="translate(955.816 298.107)">
      <path id="Trazado_101103" data-name="Trazado 101103" d="M809.863,254.414c-.24-2.3-3.806-3.275-6.841-3.681a23.354,23.354,0,0,0,4.033,9.6C808.636,258.5,810.056,256.281,809.863,254.414Z" transform="translate(-740.355 -250.434)" fill="#2b2b2b"/>
      <path id="Trazado_101104" data-name="Trazado 101104" d="M797.568,256.1l5.156,8.2,4.7-.03a32.244,32.244,0,0,0,3.927-3.8,23.355,23.355,0,0,1-4.033-9.6,35.257,35.257,0,0,0-4.3-.3Z" transform="translate(-744.655 -250.566)" fill="#fbd7d6"/>
      <path id="Trazado_101105" data-name="Trazado 101105" d="M767.983,263.565c.012,1.7,1.542,5.675,2.956,8.63s3.65,1.526,3.65,1.526l3.783-1.728-1.07-3.355a53.373,53.373,0,0,0-9.134-6.435A4.479,4.479,0,0,0,767.983,263.565Z" transform="translate(-767.983 -241.391)" fill="#f17fb0"/>
      <path id="Trazado_101106" data-name="Trazado 101106" d="M770.1,261.757a3.218,3.218,0,0,0-2.012,2.053,53.376,53.376,0,0,1,9.134,6.435l-3.208-10.084S771.664,261.092,770.1,261.757Z" transform="translate(-767.901 -243)" fill="#f0678f"/>
      <path id="Trazado_101107" data-name="Trazado 101107" d="M775.649,259.9a58.314,58.314,0,0,0,3.806,12.591,1.675,1.675,0,0,1-1.029,1.969c-1.366.467-2.148,1.125-2.747-.243s-4.38-11.722-4.278-13.439C771.462,259.8,775.429,258.716,775.649,259.9Z" transform="translate(-765.29 -243.615)" fill="#c2b9db"/>
      <g id="Grupo_55369" data-name="Grupo 55369" transform="translate(10.359 0)">
        <path id="Trazado_101108" data-name="Trazado 101108" d="M821.66,251.451c.581-.689.122-.885.122-.885L773.775,266.85a15.633,15.633,0,0,0,.462,2.89l45.213-15.4C819.13,253.193,821.106,252.1,821.66,251.451Z" transform="translate(-773.775 -250.566)" fill="#ffcb73"/>
        <path id="Trazado_101109" data-name="Trazado 101109" d="M824.72,258.236c-.642-.721-3.151-.427-3.709-1.447l-45.6,15.538c.517,1.325.889,2.207.889,2.207L824.9,259.361S825.409,259.014,824.72,258.236Z" transform="translate(-772.489 -245.659)" fill="#f79828"/>
        <path id="Trazado_101110" data-name="Trazado 101110" d="M822,259.741c-.207-1.372,2.3-3.255,1.8-4.822s-4.469-2.037-4.469-2.037a.8.8,0,0,1-.079-.207l-45.213,15.4a63.581,63.581,0,0,0,2.456,7.494l45.6-15.538A.953.953,0,0,1,822,259.741Z" transform="translate(-773.572 -248.903)" fill="#fab21b"/>
      </g>
    </g>
    <g id="Grupo_55378" data-name="Grupo 55378" transform="translate(708.139 291.133)">
      <path id="Trazado_101111" data-name="Trazado 101111" d="M662.122,283.567a91.869,91.869,0,0,0-12.251-11.4c-8.939-6.789-13.389-20.475-12.689-33.415a23.659,23.659,0,0,0-5.476,5.727c-6.55,9.522-3.659,20.711-1.817,30.036A35.9,35.9,0,0,1,629,291.769l11.575,3.836,11.573,3.838a34.746,34.746,0,0,1,8.73-14.659C661.284,284.384,661.7,283.978,662.122,283.567Z" transform="translate(-626.113 -234.728)" fill="#fab21b"/>
      <path id="Trazado_101112" data-name="Trazado 101112" d="M645.695,273.936a91.865,91.865,0,0,1,12.251,11.4c6.385-6.237,13.852-13.444,13.72-24.461-.131-11.116-6.675-19.341-17.379-22.886-7.941-2.634-15.419-1.772-21.281,2.529C632.306,253.461,636.756,267.147,645.695,273.936Z" transform="translate(-621.936 -236.501)" fill="#ffcb73"/>
      <g id="Grupo_55371" data-name="Grupo 55371" transform="translate(6.549 17.031)">
        <path id="Trazado_101113" data-name="Trazado 101113" d="M632.205,288.712a75.6,75.6,0,0,0,5.707-20.192c.451-3.756,1.188-10.168-1.386-13.551-2.838-3.74-6.644,1.012-6.009,4.221,1.084,5.466,6.812,6.165,11.464,5.092,5.33-1.229,9.434-5.984,11.074-10.928,1.5-4.514-2.187-9.9-6.687-5.965-3.935,3.443-.871,11.72,1.5,15.508,2.7,4.317,8.429,6.989,12.453,3.162,1.713-1.631,2.15-6.355-1.034-7.118-4.611-1.105-7.542,4.373-9.214,7.564-3.945,7.519-7.15,17.332-5.779,26.076.195,1.243,2.082.869,1.91-.35-1.257-9.08,2.3-19.162,6.678-26.785a15.412,15.412,0,0,1,2.692-3.5c1.295-1.234,3.927-1.933,4.088.635.274,4.353-5.607,3.956-8.113,2.144-2.479-1.792-3.826-4.893-4.58-7.662a22.425,22.425,0,0,1-.8-4.663,7.553,7.553,0,0,1,.263-2.212c.5-2.144,3.929-4.446,5.2-.6.971,2.942-1.379,6.247-3.024,8.377a13.067,13.067,0,0,1-6.98,4.84c-2.629.766-7.3,1.02-9.03-1.81a5.541,5.541,0,0,1-.5-4.23,2.044,2.044,0,0,1,3.055-1.225,4.555,4.555,0,0,1,.921,2c1.252,4.194.689,9.053.15,13.215a85.088,85.088,0,0,1-4.793,17.688c-.172.476.583.708.769.256Z" transform="translate(-630.447 -246.023)" fill="#7cd0e8"/>
      </g>
      <path id="Trazado_101114" data-name="Trazado 101114" d="M634.751,270.127a41.876,41.876,0,0,1-4.841-2.153l-1.459,4.834c-4.355,13.319,1.209,15.172,1.209,15.172a45.129,45.129,0,0,0,7.678,3.107A44.126,44.126,0,0,1,634.751,270.127Z" transform="translate(-626.785 -211.684)" fill="#b2aad3"/>
      <path id="Trazado_101115" data-name="Trazado 101115" d="M649.667,274.694a140.635,140.635,0,0,1-18.293-5.516,44.126,44.126,0,0,0,2.586,20.959,38.7,38.7,0,0,0,5.451,1.259C645.972,292.384,649.667,274.694,649.667,274.694Z" transform="translate(-623.408 -210.735)" fill="#c2b9db"/>
      <g id="Grupo_55373" data-name="Grupo 55373" transform="translate(2.94 60.482)">
        <path id="Trazado_101116" data-name="Trazado 101116" d="M628.58,270.478c3.262,1.869,16.034,5.927,20.788,6.526" transform="translate(-628.31 -270.192)" fill="#fff"/>
        <g id="Grupo_55372" data-name="Grupo 55372">
          <path id="Trazado_101117" data-name="Trazado 101117" d="M628.552,270.828c3.06,1.973,6.834,2.994,10.257,4.081,3.153,1,7.429,2.819,10.751,2.524.336-.029.292-.488.014-.6-3.309-1.266-7.1-1.744-10.5-2.8a88.067,88.067,0,0,1-10.294-3.69c-.3-.136-.487.313-.225.485Z" transform="translate(-628.429 -270.318)" fill="#fff"/>
        </g>
      </g>
      <g id="Grupo_55375" data-name="Grupo 55375" transform="translate(1.475 65.44)">
        <path id="Trazado_101118" data-name="Trazado 101118" d="M627.762,273.249c3.26,1.871,16.032,5.931,20.784,6.528" transform="translate(-627.49 -272.965)" fill="#fff"/>
        <g id="Grupo_55374" data-name="Grupo 55374">
          <path id="Trazado_101119" data-name="Trazado 101119" d="M627.734,273.6c3.058,1.973,6.836,2.994,10.253,4.08,3.157,1,7.431,2.819,10.751,2.527.334-.029.3-.492.016-.6-3.305-1.264-7.095-1.742-10.5-2.8a88.986,88.986,0,0,1-10.294-3.691c-.3-.134-.487.315-.225.485Z" transform="translate(-627.61 -273.09)" fill="#fff"/>
        </g>
      </g>
      <g id="Grupo_55377" data-name="Grupo 55377" transform="translate(1.012 70.313)">
        <path id="Trazado_101120" data-name="Trazado 101120" d="M627.491,275.958c3.006,1.733,14.76,5.546,19.122,6.135" transform="translate(-627.24 -275.702)" fill="#fff"/>
        <g id="Grupo_55376" data-name="Grupo 55376">
          <path id="Trazado_101121" data-name="Trazado 101121" d="M627.468,276.275c2.824,1.823,6.3,2.786,9.443,3.806,2.9.943,6.839,2.634,9.883,2.4.31-.025.263-.445.009-.544-3.044-1.182-6.526-1.653-9.658-2.647a83.861,83.861,0,0,1-9.477-3.454c-.275-.125-.442.281-.2.436Z" transform="translate(-627.351 -275.815)" fill="#fff"/>
        </g>
      </g>
    </g>
    <g id="Grupo_55379" data-name="Grupo 55379" transform="translate(1028.688 271.4)">
      <path id="Trazado_101122" data-name="Trazado 101122" d="M852.905,298.134c-2.924-11.8-11.071-30.844-11.071-30.844l2.668-14.716s6.36,1.5,7.276-1.717c.817-2.887-3.284-3.624-3.284-3.624s-16.025-3.466-21.449-4.641c-3.334-.721-6.267-1.454-6.981,1.835-.849,3.935,6.823,4.854,6.823,4.854l-2.5,14.557-.994,1.134A163.048,163.048,0,0,0,852.905,298.134Z" transform="translate(-798.611 -241.977)" fill="#f17fb1"/>
      <path id="Trazado_101123" data-name="Trazado 101123" d="M832.821,254.834c-4.405,5.02-22.006,25.175-23.792,28.738-2.041,4.076-1.52,7.027,7.356,8.948l37.478,8.105s7.953,1.724,9.381-4.875c.34-1.57-.072-4.364-.909-7.753A163.048,163.048,0,0,1,832.821,254.834Z" transform="translate(-808.04 -231.839)" fill="#f0678f"/>
      <path id="Trazado_101124" data-name="Trazado 101124" d="M825.281,260.859s-11.266,13.308-12.26,15.222-4.151,6.651,3.3,8.458,36.323,7.941,36.323,7.941,5.435-.116,3.668-8c-1.848-8.234-6.637-19.439-6.637-19.439S831.13,264.254,825.281,260.859Z" transform="translate(-805.31 -227.088)" fill="#fbb21a"/>
      <path id="Trazado_101125" data-name="Trazado 101125" d="M824.42,267.672a2.087,2.087,0,1,1-1.8-2.343A2.09,2.09,0,0,1,824.42,267.672Z" transform="translate(-798.401 -223.577)" fill="#fff"/>
      <path id="Trazado_101126" data-name="Trazado 101126" d="M836.442,275.9a2.086,2.086,0,1,1-1.792-2.343A2.083,2.083,0,0,1,836.442,275.9Z" transform="translate(-788.922 -217.09)" fill="#fff"/>
      <path id="Trazado_101127" data-name="Trazado 101127" d="M831.106,267.527a1.279,1.279,0,1,1-1.1-1.434A1.281,1.281,0,0,1,831.106,267.527Z" transform="translate(-791.861 -222.97)" fill="#fff"/>
      <path id="Trazado_101128" data-name="Trazado 101128" d="M817.866,271.143a1.278,1.278,0,1,1-1.1-1.434A1.277,1.277,0,0,1,817.866,271.143Z" transform="translate(-802.299 -220.119)" fill="#fff"/>
      <path id="Trazado_101129" data-name="Trazado 101129" d="M830.826,274.217a2.941,2.941,0,1,1-2.529-3.3A2.941,2.941,0,0,1,830.826,274.217Z" transform="translate(-794.692 -219.177)" fill="#fff"/>
    </g>
    <g id="Grupo_55389" data-name="Grupo 55389" transform="translate(717.688 381.851)">
      <g id="Grupo_55386" data-name="Grupo 55386">
        <g id="Grupo_55380" data-name="Grupo 55380" transform="translate(1.943)">
          <path id="Trazado_101130" data-name="Trazado 101130" d="M653.266,295.921c-10.89,9.756-33.724,50.911-8.925,67.457s57.345-16.971,61.007-31.833-4.963-18.842-9.708-15.909-6.419-.014-6.415-1.674c.013-5.246,5.607-12.786-1.937-21.373S664.16,286.167,653.266,295.921Zm31.361,27.623c-3.085,3.706-7.626,5.011-10.132,2.921s-2.037-6.787,1.055-10.491,7.626-5.013,10.134-2.922S687.72,319.841,684.627,323.545Z" transform="translate(-633.21 -287.224)" fill="#9ddfd3"/>
        </g>
        <g id="Grupo_55381" data-name="Grupo 55381" transform="translate(0 0.175)">
          <path id="Trazado_101131" data-name="Trazado 101131" d="M652.18,296.021c-10.892,9.758-33.726,50.913-8.923,67.459a26.322,26.322,0,0,0,9.125,3.888,163.992,163.992,0,0,0,27.173-40.583c-2.279,1.062-4.6,1.071-6.145-.22-2.507-2.089-2.035-6.787,1.053-10.493s7.628-5.013,10.134-2.922a4.112,4.112,0,0,1,.594.628q2.618-6.712,4.763-13.63a14.844,14.844,0,0,0-3.752-7.458C678.663,284.1,663.072,286.263,652.18,296.021Z" transform="translate(-632.124 -287.322)" fill="#dbf6e9"/>
          <path id="Trazado_101132" data-name="Trazado 101132" d="M674.612,317.988a11.775,11.775,0,0,1-3.988,3.142,163.989,163.989,0,0,1-27.173,40.583c23.013,4.927,48.653-22.632,51.883-35.725,3.665-14.862-4.965-18.844-9.712-15.907s-6.417-.014-6.415-1.674c.009-3.663,2.735-8.44,1.815-13.915q-2.154,6.908-4.763,13.63C678.057,310.425,677.424,314.615,674.612,317.988Z" transform="translate(-623.193 -281.668)" fill="#dbf6e9"/>
        </g>
        <g id="Grupo_55382" data-name="Grupo 55382" transform="translate(30.643 6.004)">
          <path id="Trazado_101133" data-name="Trazado 101133" d="M658.351,290.8a7.02,7.02,0,0,0-7.95,3.294c-3.183,5.151.835,8.726,5.237,9.456C655.109,298.894,655.772,294.269,658.351,290.8Z" transform="translate(-649.258 -290.581)" fill="#f0678f"/>
          <path id="Trazado_101134" data-name="Trazado 101134" d="M659.472,301.766c4.2-4.482,2.152-7.084.667-8.674a9.252,9.252,0,0,0-4.527-2.391c-2.579,3.473-3.243,8.1-2.713,12.75C655.373,303.861,657.963,303.38,659.472,301.766Z" transform="translate(-646.519 -290.487)" fill="#f17fb0"/>
        </g>
        <g id="Grupo_55383" data-name="Grupo 55383" transform="translate(13.579 19.694)">
          <path id="Trazado_101135" data-name="Trazado 101135" d="M646.448,298.266a7.025,7.025,0,0,0-6.5,5.646c-1.381,5.893,3.561,8.009,7.968,7.3C645.943,306.971,645.1,302.376,646.448,298.266Z" transform="translate(-639.716 -298.212)" fill="#4a4793"/>
          <path id="Trazado_101136" data-name="Trazado 101136" d="M650.939,307.556c2.566-5.584-.208-7.4-2.118-8.436a9.261,9.261,0,0,0-5.052-.83c-1.343,4.11-.5,8.7,1.472,12.951C647.714,310.843,650.019,309.565,650.939,307.556Z" transform="translate(-637.037 -298.236)" fill="#7cd0e8"/>
        </g>
        <g id="Grupo_55384" data-name="Grupo 55384" transform="translate(6.342 41.078)">
          <path id="Trazado_101137" data-name="Trazado 101137" d="M639,311.128a7.021,7.021,0,0,0-3.028,8.055c1.586,5.841,6.941,5.351,10.482,2.636C642.7,319.028,639.773,315.383,639,311.128Z" transform="translate(-635.67 -309.454)" fill="#0ab0be"/>
          <path id="Trazado_101138" data-name="Trazado 101138" d="M648.249,316.607c-.4-6.133-3.7-6.41-5.879-6.415a9.3,9.3,0,0,0-4.838,1.674c.773,4.255,3.7,7.9,7.454,10.692C646.975,321.032,648.393,318.813,648.249,316.607Z" transform="translate(-634.202 -310.192)" fill="#51c0b1"/>
        </g>
        <g id="Grupo_55385" data-name="Grupo 55385" transform="translate(13.993 59.182)">
          <path id="Trazado_101139" data-name="Trazado 101139" d="M642.3,321.807a7.023,7.023,0,0,0-1.567,8.463c2.586,5.469,7.773,4.051,10.781.757C647.326,328.936,643.806,325.862,642.3,321.807Z" transform="translate(-639.948 -319.138)" fill="#fab21b"/>
          <path id="Trazado_101140" data-name="Trazado 101140" d="M652.645,325.772c-1.468-5.966-4.77-5.661-6.912-5.283a9.27,9.27,0,0,0-4.47,2.495c1.506,4.055,5.026,7.129,9.214,9.22C652.166,330.352,653.171,327.918,652.645,325.772Z" transform="translate(-638.911 -320.315)" fill="#ffcb73"/>
        </g>
      </g>
      <g id="Grupo_55388" data-name="Grupo 55388" transform="translate(30.113 26.392)">
        <path id="Trazado_101141" data-name="Trazado 101141" d="M668.166,313.277c-8.658,5.805-19.479,14.676-19.2,22.632.075,2.152,2.071,1.631,3.96,1.293a16.449,16.449,0,0,0,4.773-1.985A68.281,68.281,0,0,1,668.166,313.277Z" transform="translate(-648.961 -293.074)" fill="#d6a538"/>
        <path id="Trazado_101142" data-name="Trazado 101142" d="M678.922,313.972l-4.089-4.242s-4.788,2.5-10.52,6.344a68.281,68.281,0,0,0-10.466,21.94C663.784,332.36,679.3,316.88,678.922,313.972Z" transform="translate(-645.109 -295.871)" fill="#cc3d60"/>
        <g id="Grupo_55387" data-name="Grupo 55387" transform="translate(32.983)">
          <path id="Trazado_101143" data-name="Trazado 101143" d="M670.951,317.076c3.43-1,6.909-2.722,8.968-5.784a13.253,13.253,0,0,0,2.089-6.716c-.651,2.261-1.143,4.391-2.947,6.326a11.9,11.9,0,0,1-3.545,2.854c-1.812.851-3.706,1.427-5.031,3.035a.116.116,0,0,1-.188-.136c1.67-2.391,4.8-2.547,6.882-4.462a12.45,12.45,0,0,0,4.122-6.58c.131-.6.265-1.182.424-1.753a15.128,15.128,0,0,0-1.576,2.329,8.934,8.934,0,0,1-2.4,3.169c-2.9,2.314-6.308,3.2-8.835,6.106a.1.1,0,0,1-.159-.118c1.8-2.581,4.2-3.468,6.805-5.01,2.391-1.413,3.378-3.1,4.691-5.484.072-.125.154-.254.238-.379-4.083,3.464-9.967,4.591-12.176,10.35-.021.068-.114.029-.1-.036,1.778-7,10.135-7.494,13.888-12.695l0-.005c-4.015,5-14.4,2.243-14.467,11.056a.111.111,0,0,1-.172.079,6.565,6.565,0,0,0,3.379,3.954A.143.143,0,0,1,670.951,317.076Z" transform="translate(-667.35 -301.897)" fill="#8c4b5d"/>
          <path id="Trazado_101144" data-name="Trazado 101144" d="M681.53,302.053c-.025.016-.05.021-.079.039-3.074,2.279-3.971-.231-9.322,2.624a8.7,8.7,0,0,0-4.573,5.983C669.087,305.052,677.89,305.682,681.53,302.053Z" transform="translate(-667.282 -301.924)" fill="#8c4b5d"/>
          <path id="Trazado_101145" data-name="Trazado 101145" d="M669.866,317.025c8.878-.408,11.775-11.718,10.9-14.669-.093.254-.184.51-.265.758C680.847,309.946,676.326,315.047,669.866,317.025Z" transform="translate(-665.461 -301.685)" fill="#8c4b5d"/>
          <path id="Trazado_101146" data-name="Trazado 101146" d="M681.914,302.2l0-.061c-3.827,5.149-12.192,5.523-14.068,12.495-.018.066.072.107.1.041,2.291-5.727,8.191-6.771,12.325-10.178A11.908,11.908,0,0,0,681.914,302.2Z" transform="translate(-667.053 -301.855)" fill="#673542"/>
          <path id="Trazado_101147" data-name="Trazado 101147" d="M680.045,304.106c-.089.125-.175.252-.247.377-1.345,2.361-2.357,4.037-4.768,5.416-2.629,1.5-5.036,2.357-6.878,4.913a.1.1,0,0,0,.161.12c2.57-2.869,5.986-3.706,8.921-5.977a8.976,8.976,0,0,0,2.441-3.137,15.078,15.078,0,0,1,1.606-2.311c.084-.292.177-.58.274-.867A12.291,12.291,0,0,1,680.045,304.106Z" transform="translate(-666.828 -301.462)" fill="#673542"/>
          <path id="Trazado_101148" data-name="Trazado 101148" d="M676.415,302.706c.005-.177.018-.352.021-.531a11.908,11.908,0,0,1-1.644,2.3A12.294,12.294,0,0,0,676.3,303C676.338,302.9,676.381,302.8,676.415,302.706Z" transform="translate(-661.576 -301.828)" fill="#673542"/>
          <path id="Trazado_101149" data-name="Trazado 101149" d="M675.86,302.2a.468.468,0,0,1,.005.068c.007-.016.011-.034.02-.052a.264.264,0,0,1,.052-.075.529.529,0,0,0-.113-.1c-.023.032-.05.061-.075.093A.084.084,0,0,1,675.86,302.2Z" transform="translate(-660.822 -301.931)" fill="#673542"/>
          <path id="Trazado_101150" data-name="Trazado 101150" d="M680.612,303.349c-.164.574-.308,1.154-.447,1.751a12.458,12.458,0,0,1-4.217,6.521c-2.1,1.887-5.24,2-6.945,4.364a.117.117,0,0,0,.19.138c1.345-1.588,3.248-2.141,5.072-2.962a11.978,11.978,0,0,0,3.59-2.8c1.828-1.908,2.347-4.033,3.031-6.283.038-.4.066-.817.088-1.234C680.861,303.013,680.741,303.181,680.612,303.349Z" transform="translate(-666.159 -301.305)" fill="#673542"/>
          <path id="Trazado_101151" data-name="Trazado 101151" d="M675.844,302.805c.011.154.029.308.032.456.088-.25.181-.5.279-.755a1.939,1.939,0,0,0-.072-.216A4.437,4.437,0,0,1,675.844,302.805Z" transform="translate(-660.747 -301.737)" fill="#673542"/>
          <path id="Trazado_101152" data-name="Trazado 101152" d="M675.865,302.571c-.034.043-.072.082-.107.122-.1.288-.189.576-.274.867.129-.168.249-.336.361-.51C675.854,302.891,675.856,302.73,675.865,302.571Z" transform="translate(-661.031 -301.516)" fill="#673542"/>
          <path id="Trazado_101153" data-name="Trazado 101153" d="M675.855,302.843a4.427,4.427,0,0,0,.24-.515.556.556,0,0,0-.041-.086c-.073.1-.147.195-.224.292C675.843,302.639,675.848,302.739,675.855,302.843Z" transform="translate(-660.758 -301.775)" fill="#673542"/>
          <path id="Trazado_101154" data-name="Trazado 101154" d="M675.637,302.771c.036-.039.073-.079.107-.122l.005-.177C675.716,302.57,675.673,302.671,675.637,302.771Z" transform="translate(-660.91 -301.594)" fill="#673542"/>
          <path id="Trazado_101155" data-name="Trazado 101155" d="M675.834,302.175c-.009.018-.013.036-.02.052.016.141.02.279.029.419.077-.1.15-.193.224-.292a.854.854,0,0,0-.181-.254A.264.264,0,0,0,675.834,302.175Z" transform="translate(-660.771 -301.887)" fill="#673542"/>
          <path id="Trazado_101156" data-name="Trazado 101156" d="M667.666,306.821a7.374,7.374,0,0,0-.249,2.475.084.084,0,0,0,.055.077c-.027-.084-.041-.136-.041-.136A8.422,8.422,0,0,1,667.666,306.821Z" transform="translate(-667.403 -298.165)" fill="#673542"/>
          <path id="Trazado_101157" data-name="Trazado 101157" d="M667.635,313.083c.193-8.814,10.54-5.9,14.626-10.851l0-.007a.064.064,0,0,1,.048-.063c.007-.021.018-.039.027-.061a.142.142,0,0,1,.023-.046.642.642,0,0,0-.606.107c-3.693,3.577-12.487,2.822-14.093,8.445a8.422,8.422,0,0,0-.234,2.416s.014.052.041.136C667.53,313.2,667.633,313.173,667.635,313.083Z" transform="translate(-667.395 -301.952)" fill="#673542"/>
          <path id="Trazado_101158" data-name="Trazado 101158" d="M675.769,302.085a.111.111,0,0,1,.032.011l0,0a.381.381,0,0,1,.039-.038.193.193,0,0,0,.036-.075A.2.2,0,0,0,675.769,302.085Z" transform="translate(-660.806 -301.981)" fill="#673542"/>
          <path id="Trazado_101159" data-name="Trazado 101159" d="M675.823,302.05a.111.111,0,0,0-.032-.011.141.141,0,0,0-.023.046c-.009.021-.02.039-.027.061l.013,0C675.777,302.109,675.8,302.08,675.823,302.05Z" transform="translate(-660.828 -301.935)" fill="#673542"/>
          <path id="Trazado_101160" data-name="Trazado 101160" d="M670.209,316.59c6.485-1.887,11.08-6.923,10.829-13.757-.143.42-.277.837-.4,1.245a13.232,13.232,0,0,1-2.182,6.687c-2.1,3.03-5.607,4.706-9.05,5.655a.148.148,0,0,0-.107.1c.061.027.12.055.184.077C669.73,316.608,669.968,316.6,670.209,316.59Z" transform="translate(-665.909 -301.309)" fill="#673542"/>
          <path id="Trazado_101161" data-name="Trazado 101161" d="M675.755,302.109c-.013.02-.027.034-.039.052l0,.005a.642.642,0,0,0,.039-.055Z" transform="translate(-660.85 -301.88)" fill="#673542"/>
          <path id="Trazado_101162" data-name="Trazado 101162" d="M675.755,302.11a.642.642,0,0,1-.039.055l0,.061A.932.932,0,0,0,675.755,302.11Z" transform="translate(-660.851 -301.879)" fill="#673542"/>
          <path id="Trazado_101163" data-name="Trazado 101163" d="M675.738,302.11l0,0,.007,0Z" transform="translate(-660.832 -301.881)" fill="#673542"/>
          <path id="Trazado_101164" data-name="Trazado 101164" d="M675.9,302.163a.084.084,0,0,0-.111-.064.058.058,0,0,0-.016.02l-.007,0a.932.932,0,0,1-.043.116c0,.179-.016.354-.021.531.068-.179.131-.359.2-.538A.477.477,0,0,0,675.9,302.163Z" transform="translate(-660.861 -301.891)" fill="#673542"/>
          <path id="Trazado_101165" data-name="Trazado 101165" d="M675.725,303.045c-.021.417-.05.83-.088,1.234.125-.408.259-.824.4-1.245,0-.148-.022-.3-.032-.456C675.92,302.735,675.827,302.891,675.725,303.045Z" transform="translate(-660.91 -301.51)" fill="#673542"/>
          <path id="Trazado_101166" data-name="Trazado 101166" d="M675.706,302.7c-.009.159-.011.32-.02.479.1-.154.2-.309.283-.467-.007-.1-.013-.2-.025-.309C675.865,302.505,675.786,302.607,675.706,302.7Z" transform="translate(-660.872 -301.647)" fill="#673542"/>
          <path id="Trazado_101167" data-name="Trazado 101167" d="M675.906,302.171c-.073.179-.136.36-.2.538l-.005.177c.08-.095.159-.2.238-.3C675.926,302.45,675.922,302.312,675.906,302.171Z" transform="translate(-660.863 -301.831)" fill="#673542"/>
          <path id="Trazado_101168" data-name="Trazado 101168" d="M675.762,302.1a.064.064,0,0,0-.048.063l0,.007c.013-.018.027-.032.039-.052Z" transform="translate(-660.85 -301.888)" fill="#673542"/>
          <path id="Trazado_101169" data-name="Trazado 101169" d="M675.742,302.117a.04.04,0,0,1,.014-.02l-.013,0-.007.018Z" transform="translate(-660.831 -301.89)" fill="#673542"/>
          <path id="Trazado_101170" data-name="Trazado 101170" d="M675.754,302.1a.04.04,0,0,0-.014.02.059.059,0,0,1,.016-.02Z" transform="translate(-660.829 -301.89)" fill="#673542"/>
        </g>
        <path id="Trazado_101171" data-name="Trazado 101171" d="M665.581,310.961c.551,2.985,4.089,4.242,4.089,4.242.07-.041.13-.079.2-.118a12.829,12.829,0,0,1-.6-6.795C667.012,307.481,665.581,310.961,665.581,310.961Z" transform="translate(-635.856 -297.102)" fill="#f0678f"/>
        <path id="Trazado_101172" data-name="Trazado 101172" d="M668.428,308.595a2.729,2.729,0,0,0-.687-.358,12.829,12.829,0,0,0,.6,6.795C672.4,312.773,671.033,310.476,668.428,308.595Z" transform="translate(-634.33 -297.048)" fill="#f17fb0"/>
      </g>
    </g>
    <g id="Grupo_55402" data-name="Grupo 55402" transform="translate(622.768 277.833)">
      <path id="Trazado_101173" data-name="Trazado 101173" d="M580.595,244.325s63.388-13.941,68.14-14.873c4.284-.839,5.249-.24,5.873,1.084-10.863,4.257-22.279,5.9-34.534,7.5-13.762,2.291-26.189,5.34-40.32,6.612A3.746,3.746,0,0,1,580.595,244.325Z" transform="translate(-578.498 -229.065)" fill="#9ae3f4"/>
      <g id="Grupo_55390" data-name="Grupo 55390" transform="translate(0 1.471)">
        <path id="Trazado_101174" data-name="Trazado 101174" d="M588.023,245.079s23.726-5.217,25.506-5.564,2.026-.036,2.273.576l-21.5,19.418c-.413.726-.7,1.272-.9,1.676-1.007.422-1.239-.728-1.239-.728s-4.341-12.765-4.866-14.244C586.978,245.3,588.023,245.079,588.023,245.079Z" transform="translate(-572.596 -222.41)" fill="none"/>
        <path id="Trazado_101175" data-name="Trazado 101175" d="M579.217,246.7c1.4,3.954,13,38.052,13,38.052s.812,4.017,4.595,1.188c.758-.569,54.626-49.813,54.626-49.813s4.58-4.149,3.928-5.784c-.063-.161-.129-.313-.2-.458-10.863,4.257-22.279,5.9-34.534,7.5-13.763,2.291-26.189,5.34-40.32,6.612A2.039,2.039,0,0,0,579.217,246.7Zm15.261,5.854s23.726-5.217,25.506-5.564,2.026-.036,2.273.576c0,0,1.467.148-4.807,6.226s-16.03,15.517-16.957,15.773c-.722.2-1.322.554-.631-.9-1.007.422-1.239-.728-1.239-.728s-4.341-12.765-4.866-14.244C593.434,252.78,594.478,252.556,594.478,252.556Z" transform="translate(-579.052 -229.887)" fill="#9ddfd3"/>
        <path id="Trazado_101176" data-name="Trazado 101176" d="M611.745,241.939s1.713-1.554,1.472-2.166c0,0,1.467.148-4.807,6.226s-16.03,15.517-16.957,15.773c-.723.2-1.322.554-.631-.9a2.205,2.205,0,0,0,.477-.286C591.585,260.371,611.745,241.939,611.745,241.939Z" transform="translate(-570.011 -222.092)" fill="#9ae3f4"/>
      </g>
      <g id="Grupo_55391" data-name="Grupo 55391" transform="translate(69.371 0.444)">
        <path id="Trazado_101177" data-name="Trazado 101177" d="M618.485,232.45c-.156-.664-.3-1.331-.438-2a6.282,6.282,0,0,0-.2-1.014c-.052-.136.2-.188.2-.029a4.073,4.073,0,0,0,.193.989,16.26,16.26,0,0,1,.347,2.021c.012.068-.084.1-.1.029Z" transform="translate(-617.839 -229.313)" fill="#635ba7"/>
      </g>
      <g id="Grupo_55392" data-name="Grupo 55392" transform="translate(61.917 2.279)">
        <path id="Trazado_101178" data-name="Trazado 101178" d="M614.317,233.478q-.231-1-.438-2a6.277,6.277,0,0,0-.2-1.012c-.052-.136.2-.188.2-.029a3.778,3.778,0,0,0,.19.987,16.436,16.436,0,0,1,.347,2.023c.012.068-.084.1-.1.03Z" transform="translate(-613.671 -230.339)" fill="#635ba7"/>
      </g>
      <g id="Grupo_55393" data-name="Grupo 55393" transform="translate(54.566 3.778)">
        <path id="Trazado_101179" data-name="Trazado 101179" d="M610.208,234.316c-.154-.665-.3-1.332-.44-2a6.1,6.1,0,0,0-.2-1.012c-.052-.136.2-.188.2-.03a3.868,3.868,0,0,0,.191.987,16.481,16.481,0,0,1,.351,2.023c.012.07-.088.1-.1.032Z" transform="translate(-609.561 -231.177)" fill="#635ba7"/>
      </g>
      <g id="Grupo_55394" data-name="Grupo 55394" transform="translate(47.13 5.458)">
        <path id="Trazado_101180" data-name="Trazado 101180" d="M606.049,235.254q-.231-1-.438-2a6.084,6.084,0,0,0-.2-1.014c-.052-.134.2-.186.2-.03a3.946,3.946,0,0,0,.2.989,16.718,16.718,0,0,1,.347,2.023c.012.07-.088.1-.1.03Z" transform="translate(-605.403 -232.117)" fill="#635ba7"/>
      </g>
      <g id="Grupo_55395" data-name="Grupo 55395" transform="translate(40.988 6.745)">
        <path id="Trazado_101181" data-name="Trazado 101181" d="M602.615,235.971c-.154-.664-.3-1.329-.438-2a6.062,6.062,0,0,0-.2-1.012c-.052-.134.2-.186.2-.029a3.849,3.849,0,0,0,.19.985,17.176,17.176,0,0,1,.351,2.025c.011.068-.089.1-.105.029Z" transform="translate(-601.969 -232.836)" fill="#635ba7"/>
      </g>
      <g id="Grupo_55396" data-name="Grupo 55396" transform="translate(35.179 7.98)">
        <path id="Trazado_101182" data-name="Trazado 101182" d="M599.366,236.662q-.228-1-.436-2a6.5,6.5,0,0,0-.2-1.012c-.05-.134.2-.186.2-.029a3.974,3.974,0,0,0,.193.987,17.2,17.2,0,0,1,.349,2.021c.012.07-.089.1-.106.03Z" transform="translate(-598.721 -233.527)" fill="#635ba7"/>
      </g>
      <g id="Grupo_55397" data-name="Grupo 55397" transform="translate(29.672 9.283)">
        <path id="Trazado_101183" data-name="Trazado 101183" d="M596.29,237.392q-.231-1-.44-2a6.376,6.376,0,0,0-.2-1.012c-.054-.132.2-.186.2-.027a3.971,3.971,0,0,0,.193.987,17.306,17.306,0,0,1,.351,2.023c.011.068-.089.1-.1.029Z" transform="translate(-595.642 -234.255)" fill="#635ba7"/>
      </g>
      <g id="Grupo_55398" data-name="Grupo 55398" transform="translate(23.961 10.578)">
        <path id="Trazado_101184" data-name="Trazado 101184" d="M593.095,238.116c-.152-.664-.3-1.331-.438-2a6.335,6.335,0,0,0-.2-1.016c-.054-.132.2-.186.2-.027a3.877,3.877,0,0,0,.191.987,17.4,17.4,0,0,1,.351,2.021c.011.07-.09.1-.106.03Z" transform="translate(-592.449 -234.979)" fill="#635ba7"/>
      </g>
      <g id="Grupo_55399" data-name="Grupo 55399" transform="translate(19.09 11.376)">
        <path id="Trazado_101185" data-name="Trazado 101185" d="M590.372,238.564c-.156-.667-.3-1.331-.44-2a6.229,6.229,0,0,0-.2-1.012c-.052-.136.2-.186.2-.03a3.909,3.909,0,0,0,.193.991,16.371,16.371,0,0,1,.349,2.021c.013.068-.086.1-.1.03Z" transform="translate(-589.725 -235.425)" fill="#635ba7"/>
      </g>
      <g id="Grupo_55400" data-name="Grupo 55400" transform="translate(13.963 12.667)">
        <path id="Trazado_101186" data-name="Trazado 101186" d="M587.5,239.286q-.231-1-.438-2a6.25,6.25,0,0,0-.2-1.012c-.054-.134.2-.188.2-.03a3.806,3.806,0,0,0,.191.989,17.083,17.083,0,0,1,.351,2.023c.011.068-.089.1-.106.03Z" transform="translate(-586.859 -236.147)" fill="#635ba7"/>
      </g>
      <g id="Grupo_55401" data-name="Grupo 55401" transform="translate(8.227 13.816)">
        <path id="Trazado_101187" data-name="Trazado 101187" d="M584.3,239.927q-.231-1-.438-2a6.169,6.169,0,0,0-.2-1.014c-.05-.134.2-.186.2-.029a3.868,3.868,0,0,0,.191.989,17.04,17.04,0,0,1,.349,2.023c.013.068-.089.1-.1.029Z" transform="translate(-583.651 -236.79)" fill="#635ba7"/>
      </g>
    </g>
    <path id="Trazado_101188" data-name="Trazado 101188" d="M768.942,272.411c-.9-8.064-3.888-32.252-7.281-31.767-6.1.873-23.7,4.9-23.258,7.995.292,2.041,3.187,16.093,4.588,22.861a4.969,4.969,0,0,0-2.534-.315c-3.017.433-5.07,3.572-4.577,7.013s3.336,5.882,6.356,5.451,5.069-3.57,4.577-7.013a7.028,7.028,0,0,0-.46-1.69c.14-6.1-2.318-17.767-2.318-17.767s15.347-5.641,17.951-5.16l2.837,16.111a4.946,4.946,0,0,0-2.009-.138c-3.017.431-5.07,3.572-4.577,7.013s3.339,5.882,6.356,5.451a5.72,5.72,0,0,0,4.629-5.462h0a7.074,7.074,0,0,0-.045-1.551A6.749,6.749,0,0,0,768.942,272.411Z" transform="translate(164.324 50.497)" fill="#f17fb1"/>
    <path id="Trazado_101189" data-name="Trazado 101189" d="M873.345,212.474c-2.341-7.769-9.647-31.02-12.9-29.931-5.848,1.962-22.424,9.1-21.433,12.062.655,1.955,6.04,15.252,8.64,21.655a4.976,4.976,0,0,0-2.55.15c-2.89.969-4.341,4.428-3.237,7.723s4.346,5.183,7.238,4.214,4.342-4.425,3.233-7.723a6.988,6.988,0,0,0-.755-1.579c-.966-6.022-5.487-17.059-5.487-17.059s14.075-8.317,16.724-8.315l5.7,15.335a4.974,4.974,0,0,0-2,.227c-2.89.969-4.342,4.428-3.234,7.725s4.344,5.181,7.235,4.214a5.719,5.719,0,0,0,3.568-6.208h0a7.1,7.1,0,0,0-.326-1.517A7.017,7.017,0,0,0,873.345,212.474Z" transform="translate(241.338 -6.386)" fill="#dbf6e9"/>
    <path id="Trazado_101332" data-name="Trazado 101332" d="M867.118,207.044c-1.917-6.362-7.9-25.4-10.56-24.508-4.789,1.607-18.362,7.454-17.55,9.876.536,1.6,4.945,12.489,7.075,17.732a4.074,4.074,0,0,0-2.088.123c-2.367.794-3.554,3.626-2.651,6.324s3.559,4.244,5.927,3.45,3.556-3.623,2.648-6.324a5.721,5.721,0,0,0-.618-1.293c-.791-4.931-4.493-13.968-4.493-13.968s11.525-6.81,13.694-6.808l4.666,12.556a4.073,4.073,0,0,0-1.639.186c-2.367.794-3.556,3.626-2.648,6.325s3.557,4.243,5.924,3.45a4.683,4.683,0,0,0,2.922-5.083h0a5.813,5.813,0,0,0-.267-1.242A5.752,5.752,0,0,0,867.118,207.044Z" transform="translate(541.047 -631.146) rotate(59)" fill="#fec93c"/>
    <g id="Grupo_55404" data-name="Grupo 55404" transform="translate(1023.874 188.914)">
      <g id="Grupo_55403" data-name="Grupo 55403" transform="translate(16.735)">
        <path id="Trazado_101190" data-name="Trazado 101190" d="M823.352,229.079s8.442-23.379,6.635-25.584-11.409,28.827-9.021,27.207,4.266-2.642,4.266-2.642" transform="translate(-814.516 -200.821)" fill="#4fc1b2"/>
        <path id="Trazado_101191" data-name="Trazado 101191" d="M826.209,225.351s3.514-21.526-8.045-23.4C814.609,208.936,821.615,224.655,826.209,225.351Z" transform="translate(-817.193 -201.95)" fill="#4fc1b2"/>
      </g>
      <path id="Trazado_101192" data-name="Trazado 101192" d="M813.427,214.151c-5.716,5.816-6.6,15.809-4.661,23.959,2.25,9.458,9.828,8.658,13.82,4.67.011,4.849,3.927,10.048,10.277,8.184A47.844,47.844,0,0,1,813.427,214.151Z" transform="translate(-807.836 -192.33)" fill="#96324f"/>
      <path id="Trazado_101193" data-name="Trazado 101193" d="M833.712,251.051c8.273-5.1,15.631-14.646,13.156-24.195s-17.731-5.895-17.731-5.895-6.557-12.679-15.054-7.669a15.2,15.2,0,0,0-3.121,2.459A47.844,47.844,0,0,0,830.4,252.564,13.572,13.572,0,0,0,833.712,251.051Z" transform="translate(-805.371 -193.93)" fill="#cc3d60"/>
      <path id="Trazado_101194" data-name="Trazado 101194" d="M825.2,218.488s5.843-1.123,8.005,2.525,1.007,8.023-.415,10.189-.817-5.625-1.746-7.5S821.161,221.187,825.2,218.488Z" transform="translate(-794.963 -189.039)" fill="#fff"/>
    </g>
    <g id="Grupo_55411" data-name="Grupo 55411" transform="translate(665.516 180.991)">
      <g id="Grupo_55406" data-name="Grupo 55406" transform="translate(8.494)">
        <g id="Grupo_55405" data-name="Grupo 55405">
          <path id="Trazado_101195" data-name="Trazado 101195" d="M690.134,220.388a41.319,41.319,0,1,0-82.221-8.3q-.207,2.05-.211,4.071l3.62.365c0-1.247.066-2.506.2-3.77a37.852,37.852,0,1,1,74.248,13.514l3.266.331A41.5,41.5,0,0,0,690.134,220.388Z" transform="translate(-607.702 -174.917)" fill="#f0678f"/>
          <path id="Trazado_101196" data-name="Trazado 101196" d="M651.382,177.227a37.851,37.851,0,0,0-41.461,33.863c-.129,1.264-.191,2.524-.2,3.77l3.742.377a34.376,34.376,0,0,1,.164-4.076,33.967,33.967,0,1,1,66.38,13.024l4.156.418a37.863,37.863,0,0,0-32.787-47.377Z" transform="translate(-606.106 -173.25)" fill="#f16953"/>
          <path id="Trazado_101197" data-name="Trazado 101197" d="M614.856,210.18a31.237,31.237,0,1,1,60.981,12.176l2.529.256a33.971,33.971,0,1,0-66.545-8.948l2.883.292A31.183,31.183,0,0,1,614.856,210.18Z" transform="translate(-604.459 -171.676)" fill="#f79828"/>
          <path id="Trazado_101198" data-name="Trazado 101198" d="M647.8,180.893a31.243,31.243,0,0,0-34.366,31.719l3.2.322a27.908,27.908,0,1,1,54.308,7.714l3.627.365a31.238,31.238,0,0,0-26.767-40.12Z" transform="translate(-603.188 -170.332)" fill="#ffcc73"/>
          <path id="Trazado_101199" data-name="Trazado 101199" d="M618.1,208.106a25.3,25.3,0,1,1,49.021,10.969l2.422.245a27.911,27.911,0,1,0-54.308-7.714l2.767.279A25.277,25.277,0,0,1,618.1,208.106Z" transform="translate(-601.788 -169.005)" fill="#51c0b1"/>
          <path id="Trazado_101200" data-name="Trazado 101200" d="M644.584,184.184a25.3,25.3,0,0,0-27.806,26.409l2.828.286a22.491,22.491,0,1,1,43.4,6.612l2.887.292a25.31,25.31,0,0,0-21.313-33.6Z" transform="translate(-600.569 -167.713)" fill="#55c7e4"/>
          <path id="Trazado_101201" data-name="Trazado 101201" d="M621.247,205.841A19.508,19.508,0,1,1,658.4,215.916l3.379.34a22.494,22.494,0,1,0-43.405-6.612l2.892.292A19.552,19.552,0,0,1,621.247,205.841Z" transform="translate(-599.333 -166.477)" fill="#b3aad3"/>
        </g>
      </g>
      <g id="Grupo_55408" data-name="Grupo 55408" transform="translate(0 26.527)">
        <g id="Grupo_55407" data-name="Grupo 55407">
          <path id="Trazado_101202" data-name="Trazado 101202" d="M633.771,205.9s3.6-15.91-3.749-16.15-7.236,12.24-7.236,12.24,2.661-11.92-5.421-10.915c-5.382,1.146-4.394,10.9-4.394,10.9s-.284-8.293-4.376-7.142c-5.537,1.56-2.186,9.561-5.641,12.155l29.149,2.94S633.207,209.217,633.771,205.9Z" transform="translate(-602.953 -189.749)" fill="#f7f7f7"/>
        </g>
      </g>
      <g id="Grupo_55410" data-name="Grupo 55410" transform="translate(66.839 41.368)">
        <g id="Grupo_55409" data-name="Grupo 55409">
          <path id="Trazado_101203" data-name="Trazado 101203" d="M669.285,219.58l-27.106-2.735s-6.288-17.146,4.3-18.8c0,0,7.243-.313,6.9,9.268,0,0-.451-7.977,5.036-7.422,6.308.638,3.527,11.631,3.527,11.631s.123-7.263,4.863-6.575S666.969,215.585,669.285,219.58Z" transform="translate(-640.325 -198.047)" fill="#f7f7f7"/>
        </g>
      </g>
    </g>
    <text id="_1_1_2" data-name="1+1=2" transform="translate(961.485 291.212) rotate(-16.465)" fill="#fff" font-size="23" font-family="SegoeUI, Segoe UI"><tspan x="0" y="0">1+1=2</tspan></text>
    <text id="_5x2_10" data-name="5x2=10" transform="translate(684.801 259.252) rotate(11.604)" fill="#fff" font-size="24" font-family="SegoeUI, Segoe UI"><tspan x="0" y="0">5x2=10</tspan></text>
    <g id="Grupo_55413" data-name="Grupo 55413" transform="translate(822.354 293.526)">
      <path id="Trazado_101204" data-name="Trazado 101204" d="M728.231,258.41c2.652-6.693,2.946-12.464-1.424-15.476-5.433-3.743-11.548-1.649-17.463,3.153A57.371,57.371,0,0,0,728.231,258.41Z" transform="translate(-669.658 -241.015)" fill="#cc3d60"/>
      <path id="Trazado_101205" data-name="Trazado 101205" d="M699.864,265.138s-13.943,9.594-12.621,16.25,8.039,1.962,8.039,1.962-10.572,9.976-4.734,15.131,11.353-6.113,11.353-6.113-.152,2.084,3.266,4.575c6.059,4.419,12.705-18.679,12.705-18.679Z" transform="translate(-687.155 -221.994)" fill="#cc3d60"/>
      <path id="Trazado_101206" data-name="Trazado 101206" d="M699.772,266.351s-9.576,6.585-8.667,11.157,5.519,1.345,5.519,1.345-7.258,6.85-3.251,10.391,7.8-4.2,7.8-4.2-.1,1.431,2.241,3.141c4.164,3.033,8.726-12.825,8.726-12.825Z" transform="translate(-684.088 -221.037)" fill="#ffc93c"/>
      <path id="Trazado_101207" data-name="Trazado 101207" d="M720.407,243.851c-10.847,8.8-21.018,26.7-25.094,34.4a131.443,131.443,0,0,0,35.414-6.8,81.821,81.821,0,0,0,8.567-15.281A57.372,57.372,0,0,1,720.407,243.851Z" transform="translate(-680.722 -238.778)" fill="#fff"/>
      <path id="Trazado_101208" data-name="Trazado 101208" d="M694.261,269.753c5.069,10.318,18.008,13.126,18.008,13.126a188.011,188.011,0,0,0,19.287-23.594,131.443,131.443,0,0,1-35.414,6.8C694.939,268.356,694.261,269.753,694.261,269.753Z" transform="translate(-681.551 -226.609)" fill="#ebe9f4"/>
      <g id="Grupo_55412" data-name="Grupo 55412" transform="translate(31.497 15.391)">
        <path id="Trazado_101209" data-name="Trazado 101209" d="M722.084,263.817c-2.683,3.686-8.672,5.462-12.764,2.479s-6.272-8.461-2.887-13.1a9.1,9.1,0,0,1,12.5-1.887C723.027,254.291,724.767,260.134,722.084,263.817Z" transform="translate(-704.766 -249.62)" fill="#635ba8"/>
        <path id="Trazado_101210" data-name="Trazado 101210" d="M717.261,251.945a7.338,7.338,0,0,0-6.653-.982,7.1,7.1,0,0,0-3.516,2.518c-2.754,3.774-.984,8.232,2.35,10.659,2.719,1.985,6.474,1.379,8.944-.545a7.316,7.316,0,0,0,1.44-1.47C722.013,259.127,720.593,254.372,717.261,251.945Z" transform="translate(-704.002 -248.869)" fill="url(#linear-gradient-3)"/>
      </g>
      <path id="Trazado_101211" data-name="Trazado 101211" d="M708,255.639s-14.369-1.47-17.459,6.467-3.191,9.252-1.79,10.983c1.835,2.273,12.139-2.465,12.139-2.465Z" transform="translate(-686.581 -229.568)" fill="#635ba8"/>
      <path id="Trazado_101212" data-name="Trazado 101212" d="M708.871,255.221s-14.367-1.468-17.458,6.469-3.557,9.631-1.79,10.983c2.241,1.717,12.14-2.465,12.14-2.465Z" transform="translate(-686.016 -229.897)" fill="url(#linear-gradient-4)"/>
      <path id="Trazado_101213" data-name="Trazado 101213" d="M716.294,264.525s6.5,12.9.182,18.62-7.506,6.276-9.627,5.587c-2.776-.9-2.023-12.219-2.023-12.219Z" transform="translate(-673.294 -222.477)" fill="#635ba8"/>
      <path id="Trazado_101214" data-name="Trazado 101214" d="M716.361,263.624s6.5,12.9.184,18.615-7.734,6.759-9.626,5.591c-2.4-1.484-2.023-12.223-2.023-12.223Z" transform="translate(-673.182 -223.187)" fill="url(#linear-gradient-5)"/>
    </g>
    <g id="Grupo_55415" data-name="Grupo 55415" transform="translate(838.923 185.456)">
      <path id="Trazado_101215" data-name="Trazado 101215" d="M729.992,226.428c-2.254-1.688-4.695-3.393-7.34-5.086l-5.9,4.326s8.685,12.48,16.669,19.169A72.524,72.524,0,0,0,729.992,226.428Z" transform="translate(-684.12 -186.56)" fill="#ffc93c"/>
      <path id="Trazado_101216" data-name="Trazado 101216" d="M724.153,224.185a72.521,72.521,0,0,1,3.425,18.409c4.214,3.53,8.231,5.448,10.674,3.069C742.276,241.741,736.174,233.188,724.153,224.185Z" transform="translate(-678.281 -184.317)" fill="#d6a538"/>
      <g id="Grupo_55414" data-name="Grupo 55414" transform="translate(30.181 32.496)">
        <path id="Trazado_101217" data-name="Trazado 101217" d="M719.149,227.666c4.435-.85,6.666-5.541,6.666-5.541-.055-.091-.1-.166-.154-.256a21.528,21.528,0,0,1-10.019,1.084C714.2,225.943,719.149,227.666,719.149,227.666Z" transform="translate(-715.379 -218.64)" fill="#f0678f"/>
        <path id="Trazado_101218" data-name="Trazado 101218" d="M716.127,223.463a4,4,0,0,0-.6.914,21.528,21.528,0,0,0,10.019-1.084C722.687,218.07,719.169,219.966,716.127,223.463Z" transform="translate(-715.264 -220.063)" fill="#f17fb0"/>
      </g>
      <path id="Trazado_101219" data-name="Trazado 101219" d="M733.927,236.782c-7.438,6.809-21.213,8.029-28.775-.245s-9.878-21.11-.492-29.682a20.14,20.14,0,0,1,27.938,1.411C740.161,216.538,741.365,229.977,733.927,236.782Z" transform="translate(-698.505 -201.894)" fill="#635ba8"/>
      <path id="Trazado_101220" data-name="Trazado 101220" d="M728.35,209.2a16.227,16.227,0,0,0-14-5.056,15.684,15.684,0,0,0-8.731,3.91c-7.633,6.973-5.755,17.424.4,24.15,5.026,5.5,13.433,5.841,19.638,2.756a16.219,16.219,0,0,0,3.772-2.554C735.495,226.869,734.51,215.93,728.35,209.2Z" transform="translate(-696.839 -200.216)" fill="#fff"/>
      <path id="Trazado_101221" data-name="Trazado 101221" d="M714.349,204.136a15.685,15.685,0,0,0-8.731,3.91c-5.4,4.94-6.029,11.615-3.75,17.483,4.8-7.2,9.7-14.371,14.855-21.492A16.955,16.955,0,0,0,714.349,204.136Z" transform="translate(-696.835 -200.208)" opacity="0.4" fill="url(#linear-gradient-6)"/>
      <path id="Trazado_101222" data-name="Trazado 101222" d="M718.153,204.33c-5.228,9.157-10.162,18.225-14.51,27.636a14.469,14.469,0,0,0,8.4,4.448c3.33-10.132,6.968-20.2,10.4-30.311A16.167,16.167,0,0,0,718.153,204.33Z" transform="translate(-694.453 -199.973)" opacity="0.4" fill="url(#linear-gradient-7)"/>
      <path id="Trazado_101223" data-name="Trazado 101223" d="M722.065,207.991a15.528,15.528,0,0,0-3.328-2.67c-3.429,10.112-7.066,20.18-10.4,30.311a18.25,18.25,0,0,0,6.126-.045C715.439,225.914,719.583,217.333,722.065,207.991Z" transform="translate(-690.749 -199.191)" fill="#fff" opacity="0.4"/>
      <path id="Trazado_101224" data-name="Trazado 101224" d="M719.559,207c-.061-.068-.132-.116-.2-.184-2.482,9.341-6.626,17.923-7.6,27.6a18.683,18.683,0,0,0,5.106-1.653,16.218,16.218,0,0,0,3.772-2.554C726.7,224.667,725.719,213.728,719.559,207Z" transform="translate(-688.049 -198.014)" opacity="0.4" fill="url(#linear-gradient-8)"/>
      <path id="Trazado_101225" data-name="Trazado 101225" d="M716.173,204.034c-5.16,7.122-10.059,14.3-14.855,21.492a21.37,21.37,0,0,0,4.153,6.668l.005.005c4.348-9.411,9.282-18.479,14.51-27.636A16.86,16.86,0,0,0,716.173,204.034Z" transform="translate(-696.286 -200.206)" fill="#fff" opacity="0.4"/>
    </g>
    <ellipse id="Elipse_3953" data-name="Elipse 3953" cx="183.759" cy="28.483" rx="183.759" ry="28.483" transform="translate(693.912 601.539)" fill="#606060" opacity="0.42" style="mix-blend-mode: multiply;isolation: isolate"/>
    <g id="Grupo_55416" data-name="Grupo 55416" transform="translate(925.388 608.181)">
      <path id="Trazado_101226" data-name="Trazado 101226" d="M786.4,421.014c-3.108,6.1.014,13.847.014,13.847l24.576-7.419a5.527,5.527,0,0,1-.733-1.264,116.747,116.747,0,0,1-21.473-5.832Z" transform="translate(-719.261 -408.589)" fill="#e3e3e8"/>
      <path id="Trazado_101227" data-name="Trazado 101227" d="M808.767,416.945l-21.637,6.081a116.749,116.749,0,0,0,21.473,5.832C806.766,424.548,808.767,416.945,808.767,416.945Z" transform="translate(-717.602 -411.27)" fill="#fff"/>
      <path id="Trazado_101228" data-name="Trazado 101228" d="M758.344,417.983l-7.068-.309c-6.285,9.141-.812,18.534-.812,18.534l8.231.359C755.981,430.612,756.248,424.107,758.344,417.983Z" transform="translate(-748.255 -410.695)" fill="#ffc93c"/>
      <path id="Trazado_101229" data-name="Trazado 101229" d="M761.16,418.135l-6.546-.288c-2.1,6.124-2.362,12.629.351,18.584l6.728.3A35.911,35.911,0,0,1,761.16,418.135Z" transform="translate(-744.525 -410.559)" fill="#cc3d60"/>
      <path id="Trazado_101230" data-name="Trazado 101230" d="M786.818,419.271l-28.834-1.263a35.911,35.911,0,0,0,.533,18.591l28.931,1.266A34.981,34.981,0,0,1,786.818,419.271Z" transform="translate(-741.35 -410.432)" fill="#ffc93c"/>
      <path id="Trazado_101231" data-name="Trazado 101231" d="M782.018,419.061l-7.92-.347a34.982,34.982,0,0,0,.63,18.6l8.844.388A43.988,43.988,0,0,1,782.018,419.061Z" transform="translate(-728.63 -409.875)" fill="#cc3d60"/>
      <path id="Trazado_101232" data-name="Trazado 101232" d="M818.776,430.842l-26.734,8.068c-1.52-7-.855-11.386-.014-13.847h0l26.235-7.372a2.689,2.689,0,0,0,.107-2.481l-25.014,7.274-15.084-.66a43.988,43.988,0,0,0,1.554,18.636l12.718.556h0l26.153-7.728A2.608,2.608,0,0,0,818.776,430.842Z" transform="translate(-724.884 -412.638)" fill="#ffc93c"/>
      <path id="Trazado_101233" data-name="Trazado 101233" d="M749.944,420.751l31.727-6.979,58.739,2.573L815.4,423.618Z" transform="translate(-746.923 -413.772)" fill="#d6a538"/>
      <path id="Trazado_101234" data-name="Trazado 101234" d="M771.061,427.544l3.382-4.6-5.587.751-4.6-3.384.749,5.585-3.384,4.6,5.585-.749,4.6,3.382Z" transform="translate(-737.715 -408.618)" fill="#96324f"/>
    </g>
    <g id="Grupo_55417" data-name="Grupo 55417" transform="translate(741.934 600.442)">
      <path id="Trazado_101235" data-name="Trazado 101235" d="M671.459,417.358c3.348,5.97.536,13.836.536,13.836l-24.851-6.44a5.546,5.546,0,0,0,.683-1.295,116.647,116.647,0,0,0,21.226-6.676Z" transform="translate(-644.527 -403.66)" fill="#e3e3e8"/>
      <path id="Trazado_101236" data-name="Trazado 101236" d="M647.171,413.864l21.861,5.219a116.645,116.645,0,0,1-21.226,6.676C649.471,421.381,647.171,413.864,647.171,413.864Z" transform="translate(-644.506 -405.96)" fill="#fff"/>
      <path id="Trazado_101237" data-name="Trazado 101237" d="M692.5,413.23l7.048-.588c6.641,8.884,1.545,18.486,1.545,18.486l-8.209.685C695.361,425.753,694.839,419.265,692.5,413.23Z" transform="translate(-608.762 -406.924)" fill="#dbf6e9"/>
      <path id="Trazado_101238" data-name="Trazado 101238" d="M688.852,413.517l6.53-.546c2.336,6.034,2.858,12.523.385,18.582l-6.711.56A35.934,35.934,0,0,0,688.852,413.517Z" transform="translate(-611.641 -406.665)" fill="#ffc93c"/>
      <path id="Trazado_101239" data-name="Trazado 101239" d="M672.77,415.68l28.763-2.4a35.934,35.934,0,0,1,.2,18.6l-28.861,2.413A34.979,34.979,0,0,0,672.77,415.68Z" transform="translate(-624.321 -406.424)" fill="#dbf6e9"/>
      <path id="Trazado_101240" data-name="Trazado 101240" d="M668.714,415.28l7.9-.66a34.979,34.979,0,0,1,.105,18.606l-8.819.737A44.06,44.06,0,0,0,668.714,415.28Z" transform="translate(-628.163 -405.364)" fill="#ffc93c"/>
      <path id="Trazado_101241" data-name="Trazado 101241" d="M646.114,427.815l27.035,7.006c1.676-9.52,1.942-7.431-.536-13.836h0l-26.5-6.329a2.678,2.678,0,0,1-.208-2.473l25.284,6.278,15.047-1.257a44.06,44.06,0,0,1-.815,18.683l-12.688,1.061h0l-26.438-6.687A2.613,2.613,0,0,1,646.114,427.815Z" transform="translate(-645.681 -407.287)" fill="#dbf6e9"/>
      <path id="Trazado_101242" data-name="Trazado 101242" d="M736.374,415.163l-31.98-5.718-58.59,4.9,25.283,6.277Z" transform="translate(-645.583 -409.445)" fill="#9ddfd3"/>
      <path id="Trazado_101243" data-name="Trazado 101243" d="M680.808,428.9l4.464-3.561,5.611.528-3.563-4.464.528-5.612-4.462,3.564-5.611-.529,3.563,4.466Z" transform="translate(-620.375 -404.439)" fill="#d6a538"/>
    </g>
    <g id="Grupo_55418" data-name="Grupo 55418" transform="translate(937.749 587.263)">
      <path id="Trazado_101244" data-name="Trazado 101244" d="M786.8,409.32c-2.622,6.118-.093,13.843-.093,13.843l16.89-6.292a36.582,36.582,0,0,1-13.952-8.54Z" transform="translate(-731.158 -397.143)" fill="#e3e3e8"/>
      <path id="Trazado_101245" data-name="Trazado 101245" d="M804.973,405.009l-17.1,5.941a36.582,36.582,0,0,0,13.952,8.54l3.522-1.309C802.868,414.359,804.973,405.009,804.973,405.009Z" transform="translate(-729.379 -399.763)" fill="#fff"/>
      <path id="Trazado_101246" data-name="Trazado 101246" d="M761.824,406.288l-4.081-.179c-5.278,9.184-.812,18.532-.812,18.532l4.886.215A30.869,30.869,0,0,1,761.824,406.288Z" transform="translate(-755.166 -398.895)" fill="#cc3d60"/>
      <path id="Trazado_101247" data-name="Trazado 101247" d="M763.658,406.39l-4.137-.181a30.869,30.869,0,0,0-.007,18.568l4.292.188C762.6,418.816,762.12,412.329,763.658,406.39Z" transform="translate(-752.863 -398.817)" fill="#ffc93c"/>
      <path id="Trazado_101248" data-name="Trazado 101248" d="M786.626,407.413l-8.563-.374a47.291,47.291,0,0,0,.875,18.606l7.819.342A59.366,59.366,0,0,1,786.626,407.413Z" transform="translate(-737.543 -398.162)" fill="#ffc93c"/>
      <path id="Trazado_101249" data-name="Trazado 101249" d="M811.583,418.885l-22.208,8.272c-1.205-6.984-.621-11.378.093-13.843h0l21.786-7.569a3.171,3.171,0,0,0,.109-2.479l-20.775,7.458-7.683-.336a59.365,59.365,0,0,0,.13,18.574l6.741.3h0l21.72-7.918A3.111,3.111,0,0,0,811.583,418.885Z" transform="translate(-733.822 -401.137)" fill="#cc3d60"/>
      <path id="Trazado_101250" data-name="Trazado 101250" d="M791.353,407.614,775.08,406.9l-8.3-.363-5.149-.227c-1.538,5.94-1.055,12.427.148,18.575l5.657.247,7.063.309,17.731.778A47.292,47.292,0,0,1,791.353,407.614Z" transform="translate(-750.834 -398.737)" fill="#cc3d60"/>
      <path id="Trazado_101251" data-name="Trazado 101251" d="M756.607,409.289l26.333-7.213,48.632,2.129L810.8,411.663Z" transform="translate(-754.031 -402.076)" fill="#96324f"/>
    </g>
    <g id="Grupo_55442" data-name="Grupo 55442" transform="translate(790.226 392.356)">
      <g id="Grupo_55429" data-name="Grupo 55429" transform="translate(24.91 185.058)">
        <path id="Trazado_101252" data-name="Trazado 101252" d="M777.312,402.3s-27.766,15.356-65.264-.569l-12.838-5.09s-22.834,34.538,13.476,46.39,77.83-.735,83.035-8.159S794.449,402.926,777.312,402.3Z" transform="translate(-682.262 -396.509)" fill="#0ab0be"/>
        <g id="Grupo_55423" data-name="Grupo 55423" transform="translate(3.016)">
          <path id="Trazado_101253" data-name="Trazado 101253" d="M739.9,409.839,707.771,430.9l10.847,22.548,46.544-21.741,11.171-5.811a132.937,132.937,0,0,1-33.69-17.862Z" transform="translate(-672.94 -387.529)" fill="#42b29f"/>
          <path id="Trazado_101254" data-name="Trazado 101254" d="M769.834,399.481c-5.99-6.308-15.245-.4-15.245-.4l-27.319,18a132.938,132.938,0,0,0,33.69,17.862l9.066-4.716S788.257,418.875,769.834,399.481Z" transform="translate(-657.566 -396.569)" fill="#51c0b1"/>
          <g id="Grupo_55422" data-name="Grupo 55422" transform="translate(0 38.943)">
            <path id="Trazado_101255" data-name="Trazado 101255" d="M721.868,421.238c4.142,31.286,21.212,16.324,12.457,22.771,0,0-37.827,7.093-45.279-10.581C682.424,417.725,721.868,421.238,721.868,421.238Z" transform="translate(-688.296 -416.325)" fill="#31326f"/>
            <path id="Trazado_101256" data-name="Trazado 101256" d="M705.844,444.327a89.146,89.146,0,0,0,23.508-1.148c-5.789-6.805-11.166-22.53-11.166-22.53s-12.747-1.127-22.535.778C701.814,427.592,704.921,435.669,705.844,444.327Z" transform="translate(-682.497 -416.785)" fill="#ebe9f4"/>
            <g id="Grupo_55419" data-name="Grupo 55419" transform="translate(32.581)">
              <path id="Trazado_101257" data-name="Trazado 101257" d="M707.931,431.109c3.659,1.459,8.157,3.3,12.058,1.869,1.69-.612,2.121-2.552.309-3.235-1.2-.451-2.953-.041-4.2.159a35.7,35.7,0,0,0-7.943,2.708c-.288-.642-.567-1.277-.842-1.914,2.522-1.066,5.056-2.062,7.51-3.293.892-.456,9.985-6.269,5.149-6.918-2.49-.329-5.526,4.053-6.811,5.646a75.059,75.059,0,0,0-4.441,6.238c-.855,1.336-2.872-.12-1.983-1.434,2.305-3.425,9.94-15.98,15.32-11.722,6.8,5.371-11.024,12.144-13.9,13.4a1.046,1.046,0,0,1-.842-1.914c3.92-1.71,8.342-3.373,12.7-2.951,1.789.166,4.389,1.763,3.858,3.9-1.828,7.224-12.679,2.879-16.486.481-.563-.356-.057-1.263.547-1.016Z" transform="translate(-706.513 -418.343)" fill="#21214b" stroke="#21214b" stroke-miterlimit="10" stroke-width="1"/>
            </g>
            <path id="Trazado_101258" data-name="Trazado 101258" d="M700.516,420.938c-7.424,1.447-13.144,4.639-10.286,11.411,3.2,7.587,11.756,10.561,20.478,11.489C709.786,435.18,706.679,427.1,700.516,420.938Z" transform="translate(-687.362 -416.297)" fill="#31326f"/>
            <g id="Grupo_55420" data-name="Grupo 55420" transform="translate(27.41 5.523)">
              <path id="Trazado_101259" data-name="Trazado 101259" d="M703.662,421.8c3.506,5.956,7.433,11.094,8.417,18.137.063.444.812.4.791-.05-.3-6.975-5-12.754-8.733-18.327-.182-.274-.653-.064-.474.24Z" transform="translate(-703.622 -421.431)" fill="#21214b" stroke="#21214b" stroke-miterlimit="10" stroke-width="1"/>
            </g>
            <g id="Grupo_55421" data-name="Grupo 55421" transform="translate(21.738 6.093)">
              <path id="Trazado_101260" data-name="Trazado 101260" d="M700.489,422.114c3.505,5.959,7.433,11.1,8.419,18.139.064.44.808.4.791-.05-.3-6.977-5.006-12.756-8.735-18.323-.179-.279-.649-.064-.474.234Z" transform="translate(-700.451 -421.75)" fill="#21214b" stroke="#21214b" stroke-miterlimit="10" stroke-width="1"/>
            </g>
          </g>
        </g>
        <g id="Grupo_55428" data-name="Grupo 55428">
          <path id="Trazado_101261" data-name="Trazado 101261" d="M694.644,423.012l23.157,9.47,46.544,21.741,7.993-16.612c-30.17-.8-61.947-11.9-85.392-31.9C684.677,416.8,694.644,423.012,694.644,423.012Z" transform="translate(-686.61 -389.361)" fill="#42b29f"/>
          <path id="Trazado_101262" data-name="Trazado 101262" d="M742.916,417.824l-32.984-18.745s-9.255-5.906-15.247.4c-4.793,5.045-7.09,9.54-7.887,13.437,23.445,20,55.222,31.1,85.392,31.9l2.856-5.936Z" transform="translate(-686.462 -396.569)" fill="#51c0b1"/>
          <g id="Grupo_55427" data-name="Grupo 55427" transform="translate(73.405 37.886)">
            <path id="Trazado_101263" data-name="Trazado 101263" d="M743.421,420.647c-4.142,31.288-21.21,16.324-12.457,22.771,0,0,37.827,7.1,45.279-10.581C782.866,417.138,743.421,420.647,743.421,420.647Z" transform="translate(-726.985 -415.733)" fill="#31326f"/>
            <path id="Trazado_101264" data-name="Trazado 101264" d="M752.926,443.736a89.154,89.154,0,0,1-23.51-1.148c5.789-6.8,11.165-22.528,11.165-22.528s12.747-1.128,22.535.776C756.955,427,753.847,435.077,752.926,443.736Z" transform="translate(-726.263 -416.194)" fill="#ebe9f4"/>
            <g id="Grupo_55424" data-name="Grupo 55424">
              <path id="Trazado_101265" data-name="Trazado 101265" d="M743.664,430.518c-3.659,1.461-8.159,3.3-12.06,1.869-1.69-.612-2.121-2.552-.308-3.235,1.2-.451,2.951-.041,4.2.159a35.828,35.828,0,0,1,7.944,2.708c.288-.64.565-1.277.841-1.912-2.522-1.068-5.056-2.064-7.51-3.294-.893-.456-9.985-6.269-5.149-6.918,2.491-.329,5.526,4.053,6.813,5.646a75.469,75.469,0,0,1,4.439,6.238c.857,1.336,2.874-.12,1.985-1.434-2.307-3.425-9.942-15.98-15.322-11.722-6.8,5.371,11.024,12.144,13.9,13.4a1.045,1.045,0,0,0,.841-1.912c-3.919-1.71-8.342-3.375-12.7-2.953-1.788.166-4.389,1.765-3.859,3.9,1.828,7.222,12.679,2.879,16.486.481.565-.356.057-1.263-.545-1.016Z" transform="translate(-727.653 -417.752)" fill="#21214b" stroke="#21214b" stroke-miterlimit="10" stroke-width="1"/>
            </g>
            <path id="Trazado_101266" data-name="Trazado 101266" d="M752.752,420.347c7.424,1.447,13.146,4.639,10.288,11.411-3.2,7.587-11.756,10.561-20.478,11.489C743.482,434.589,746.591,426.512,752.752,420.347Z" transform="translate(-715.898 -415.706)" fill="#31326f"/>
            <g id="Grupo_55425" data-name="Grupo 55425" transform="translate(13.351 5.524)">
              <path id="Trazado_101267" data-name="Trazado 101267" d="M744.327,421.207c-3.505,5.956-7.435,11.1-8.417,18.137-.063.444-.812.406-.792-.048.3-6.977,5-12.756,8.733-18.327.184-.275.653-.066.476.238Z" transform="translate(-735.118 -420.84)" fill="#21214b" stroke="#21214b" stroke-miterlimit="10" stroke-width="1"/>
            </g>
            <g id="Grupo_55426" data-name="Grupo 55426" transform="translate(19.022 6.094)">
              <path id="Trazado_101268" data-name="Trazado 101268" d="M747.5,421.522c-3.506,5.959-7.435,11.1-8.419,18.139-.066.44-.81.4-.792-.05.3-6.977,5.006-12.756,8.735-18.323.181-.277.649-.064.476.234Z" transform="translate(-738.289 -421.159)" fill="#21214b" stroke="#21214b" stroke-miterlimit="10" stroke-width="1"/>
            </g>
          </g>
        </g>
      </g>
      <g id="Grupo_55441" data-name="Grupo 55441">
        <g id="Grupo_55440" data-name="Grupo 55440">
          <g id="Grupo_55439" data-name="Grupo 55439">
            <path id="Trazado_101269" data-name="Trazado 101269" d="M703.219,314.612S681.8,409,672.682,418.886c0,0,1.906,1.547,5.063,3.643,1.638,1.087,11.758-9.091,11.758-9.091,2.218,1.243-3.407,13.741-3.407,13.741.975.415,2.1.878,3.316,1.357,16.892-35.412,23.4-75.652,24-114.934C707.114,314.159,703.219,314.612,703.219,314.612Z" transform="translate(-672.682 -276.929)" fill="#9ddfd3"/>
            <path id="Trazado_101270" data-name="Trazado 101270" d="M706.039,314.482c-.606,39.283-7.111,79.522-24,114.934,6.43,2.533,15.6,5.557,21.158,5,15.224-1.526,85.256.52,110.688-6.34-15.868-35.791-27.335-73.793-28.239-112.468C762.395,310.452,724.194,312.881,706.039,314.482Z" transform="translate(-665.306 -277.808)" fill="#42b29f"/>
            <path id="Trazado_101271" data-name="Trazado 101271" d="M795,412.035s-29.321-62.6-36.1-86.222c-1.644-5.73-8.91-9.357-18.94-11.581.9,38.674,12.371,76.676,28.239,112.468,4.062-1.1,6.993-2.42,8.374-4.021l-2.611-13.866,9.762,11.8A56.288,56.288,0,0,0,795,412.035Z" transform="translate(-619.629 -276.433)" fill="#9ddfd3"/>
            <path id="Trazado_101272" data-name="Trazado 101272" d="M698.324,371.828S682.3,392.389,682.869,399.3s17.1,1.032,17.1,1.032l18.559-19.092Z" transform="translate(-664.661 -231.019)" fill="#e0ffef"/>
            <path id="Trazado_101273" data-name="Trazado 101273" d="M759.193,371.8s16.268,20.364,15.789,27.282-23.914.14-23.914.14l-10.135-17.034Z" transform="translate(-618.867 -231.041)" fill="#e0ffef"/>
            <path id="Trazado_101274" data-name="Trazado 101274" d="M758.328,356.571l-1.6,4.866c-3.457,1.6-8.991,1.78-10.944,1.789-.052,0-.091,0-.15,0-1.953-.009-7.485-.188-10.944-1.789l-.241-4.351s-29.643-6.516-43.958,26.824c0,0,16.486,11.477,21.583,12.223,0,0-5.576,34.2-3.777,35.214,39.951,22.526,76.446-.335,76.446-.335l-5.4-34.879c5.1-.746,21.582-12.223,21.582-12.223C797.092,368.447,786.175,357.818,758.328,356.571Z" transform="translate(-658.637 -243.049)" fill="#cc3d60"/>
            <path id="Trazado_101275" data-name="Trazado 101275" d="M713.722,352.087a48.05,48.05,0,0,1,2.872,16.247s12.223,3.427,21.462-.15l6.34-19.076Z" transform="translate(-640.322 -248.935)" fill="#f5fffa"/>
            <g id="Grupo_55437" data-name="Grupo 55437" transform="translate(20.837)">
              <g id="Grupo_55436" data-name="Grupo 55436">
                <g id="Grupo_55435" data-name="Grupo 55435">
                  <g id="Grupo_55432" data-name="Grupo 55432" transform="translate(0 66.59)">
                    <g id="Grupo_55430" data-name="Grupo 55430">
                      <path id="Trazado_101276" data-name="Trazado 101276" d="M684.453,338.632c1.3,6.455,8.37,12.46,21.294,6.979l-.449-9.2A20.247,20.247,0,0,0,684.453,338.632Z" transform="translate(-684.238 -327.04)" fill="#f5fffa"/>
                      <path id="Trazado_101277" data-name="Trazado 101277" d="M687.952,332.5c-3.007,1.942-4.135,5.754-3.4,9.425a20.247,20.247,0,0,1,20.845-2.218l-.311-6.337S696.232,327.157,687.952,332.5Z" transform="translate(-684.333 -330.33)" fill="#e0ffef"/>
                    </g>
                    <g id="Grupo_55431" data-name="Grupo 55431" transform="translate(6.504 8.266)">
                      <path id="Trazado_101278" data-name="Trazado 101278" d="M687.969,335.911c2.566-1.12,6.5-1.15,9.186-.646,4.849.767,2.93,4.16,4.917,8.32" transform="translate(-687.969 -334.952)" fill="none" stroke="#21214b" stroke-linecap="round" stroke-linejoin="round" stroke-width="3"/>
                    </g>
                  </g>
                  <g id="Grupo_55434" data-name="Grupo 55434" transform="translate(111.963 62.713)">
                    <g id="Grupo_55433" data-name="Grupo 55433">
                      <path id="Trazado_101279" data-name="Trazado 101279" d="M768.063,335.389c-.651,6.549-7.1,13.219-20.5,9.03l-.451-9.2A20.221,20.221,0,0,1,768.063,335.389Z" transform="translate(-746.796 -324.838)" fill="#f5fffa"/>
                      <path id="Trazado_101280" data-name="Trazado 101280" d="M763.9,329.666c3.178,1.635,4.677,5.321,4.3,9.048a20.221,20.221,0,0,0-20.954-.168l-.313-6.337S755.129,325.164,763.9,329.666Z" transform="translate(-746.934 -328.163)" fill="#e0ffef"/>
                    </g>
                  </g>
                  <path id="Trazado_101281" data-name="Trazado 101281" d="M771.127,390.2c8.055-3.541,14.422-8.572,16.726-14.946,5.129-14.177,6.932-23.887,4.471-37.947s-4.682-23.478-19.586-33.613c-12.063-8.2-84.782-17.586-78.486,47.363,0,0,.061,2.915.444,6.957C712.183,381.155,741.883,391.759,771.127,390.2Z" transform="translate(-676.815 -289.328)" fill="#f5fffa"/>
                  <path id="Trazado_101282" data-name="Trazado 101282" d="M708.789,298.66c-20.16,10.813-19.568,41.107-19.568,41.107a14.416,14.416,0,0,1,8.309.49c1.272-5.852,6.2-10.967,10.794-14.617.138-10.62,3.579-21.228,8.229-30.455A59.557,59.557,0,0,0,708.789,298.66Z" transform="translate(-680.48 -291.452)" fill="#9ddfd3"/>
                  <path id="Trazado_101283" data-name="Trazado 101283" d="M708.556,308.4c-.052.036-.073.075-.055.116C708.556,308.654,708.569,308.578,708.556,308.4Z" transform="translate(-665.281 -281.035)" fill="#3d1926"/>
                  <path id="Trazado_101284" data-name="Trazado 101284" d="M722.075,293.349a61.433,61.433,0,0,0-13.945,3.284c-4.65,9.227-8.091,19.834-8.229,30.455a59.921,59.921,0,0,1,8.842-5.816l4.208-14.7s2.289,12.119,2.38,13.691c.4-.272,2.677-.408,5.9-.456A71.649,71.649,0,0,1,722.075,293.349Z" transform="translate(-672.057 -292.9)" fill="#dbf6e9"/>
                  <path id="Trazado_101285" data-name="Trazado 101285" d="M747.693,298.219a72.482,72.482,0,0,0-34.649-4.672A71.647,71.647,0,0,0,712.205,320c10.3-.156,30.344.572,30.344.572l1.792-7.6,3.352,8.942a50.432,50.432,0,0,1,17.18,2.552,60.562,60.562,0,0,0-7.313-25.347A39.294,39.294,0,0,0,747.693,298.219Z" transform="translate(-663.026 -293.098)" fill="#9ddfd3"/>
                  <path id="Trazado_101286" data-name="Trazado 101286" d="M744.991,299.093a35.237,35.237,0,0,0-7.8-2.627,60.563,60.563,0,0,1,7.313,25.347,24.091,24.091,0,0,1,8.029,4.623A73.572,73.572,0,0,0,744.991,299.093Z" transform="translate(-642.655 -290.442)" fill="#dbf6e9"/>
                  <path id="Trazado_101287" data-name="Trazado 101287" d="M755.814,315.419a25.7,25.7,0,0,0-14.263-17.484,73.571,73.571,0,0,1,7.54,27.343c5.255,4.734,5.292,10.064,5.292,10.064l7.387,14.269S757.894,323.732,755.814,315.419Z" transform="translate(-639.216 -289.284)" fill="#9ddfd3"/>
                  <path id="Trazado_101288" data-name="Trazado 101288" d="M694.33,331.5c.567,5.975,1.835,14.413,4.654,19.561,4.727,8.628,19.609,17.774,38.9,18.6a77.758,77.758,0,0,0,32.881-5.974C741.518,365.249,711.818,354.645,694.33,331.5Z" transform="translate(-676.45 -262.818)" fill="#e0ffef"/>
                  <path id="Trazado_101289" data-name="Trazado 101289" d="M716.069,323.546c.193,2.856-1.579,5.3-3.96,5.464s-4.469-2.019-4.664-4.879,1.583-5.3,3.963-5.464S715.874,320.688,716.069,323.546Z" transform="translate(-666.12 -272.943)" fill="#21214b"/>
                  <path id="Trazado_101290" data-name="Trazado 101290" d="M731.194,323.546c-.195,2.856,1.579,5.3,3.96,5.464s4.47-2.019,4.664-4.879-1.583-5.3-3.963-5.464S731.389,320.688,731.194,323.546Z" transform="translate(-647.394 -272.943)" fill="#21214b"/>
                  <path id="Trazado_101291" data-name="Trazado 101291" d="M703.283,318.492c1-2.964,5.017-6.2,8.42-6.492" transform="translate(-669.39 -278.193)" fill="none" stroke="#21214b" stroke-linecap="round" stroke-linejoin="round" stroke-width="2"/>
                  <path id="Trazado_101292" data-name="Trazado 101292" d="M733.928,311.958c2.908-.143,7.4,1.028,9.4,3.209" transform="translate(-645.227 -278.236)" fill="none" stroke="#21214b" stroke-linecap="round" stroke-linejoin="round" stroke-width="2"/>
                  <path id="Trazado_101293" data-name="Trazado 101293" d="M721.253,334.155c.24,4.877-3.774,9.043-8.976,9.3s-9.6-3.5-9.84-8.376a9.438,9.438,0,0,1,18.817-.923Z" transform="translate(-670.066 -267.345)" fill="#9ddfd3"/>
                  <path id="Trazado_101294" data-name="Trazado 101294" d="M750.03,332.74c.238,4.879-3.779,9.043-8.977,9.3a8.869,8.869,0,1,1,8.977-9.3Z" transform="translate(-647.375 -268.459)" fill="#9ddfd3"/>
                  <path id="Trazado_101295" data-name="Trazado 101295" d="M718.306,331.338c1.241,3.7,5.31,3.564,8.885,3.191" transform="translate(-657.544 -262.945)" fill="none" stroke="#21214b" stroke-linecap="round" stroke-linejoin="round" stroke-width="2"/>
                </g>
              </g>
            </g>
            <g id="Grupo_55438" data-name="Grupo 55438" transform="translate(44.767 135.168)">
              <path id="Trazado_101296" data-name="Trazado 101296" d="M704.212,379.994l1.964-9.7s23.2,9.241,30.351,19.226v44.117l-36.366-16.1Z" transform="translate(-695.782 -367.393)" fill="#ebe9f4"/>
              <path id="Trazado_101297" data-name="Trazado 101297" d="M708.293,379.119l1.576-9.7s18.629,9.241,24.374,19.226v44.117l-29.2-16.1Z" transform="translate(-691.935 -368.083)" fill="#ebe9f4"/>
              <path id="Trazado_101298" data-name="Trazado 101298" d="M712.505,378.494l1.077-9.7s12.718,9.241,16.64,19.226v44.117l-19.938-16.1Z" transform="translate(-687.8 -368.576)" fill="#ebe9f4"/>
              <path id="Trazado_101299" data-name="Trazado 101299" d="M753.821,379.869l-1.962-9.7s-23.2,9.241-30.353,19.226v44.117l36.366-16.1Z" transform="translate(-678.951 -367.491)" fill="#ebe9f4"/>
              <path id="Trazado_101300" data-name="Trazado 101300" d="M746.583,378.994l-1.578-9.7s-18.629,9.241-24.374,19.226v44.117l29.2-16.1Z" transform="translate(-679.641 -368.181)" fill="#ebe9f4"/>
              <path id="Trazado_101301" data-name="Trazado 101301" d="M738.287,378.369l-1.078-9.7s-12.718,9.241-16.64,19.226v44.117l19.938-16.1Z" transform="translate(-679.691 -368.674)" fill="#ebe9f4"/>
              <path id="Trazado_101302" data-name="Trazado 101302" d="M736.291,387.566v46.159s-28.582-13.861-37.188-15.649l-1.354-39.123s-.916-7.7,6.4-6.317S733.988,385.778,736.291,387.566Z" transform="translate(-697.712 -365.681)" fill="#ffc93c"/>
              <path id="Trazado_101303" data-name="Trazado 101303" d="M723.582,387.676V433.21s28.582-13.861,37.187-15.649l1.356-39.123s.916-7.7-6.4-6.319S725.884,385.888,723.582,387.676Z" transform="translate(-677.315 -366.089)" fill="#ffc93c"/>
              <path id="Trazado_101304" data-name="Trazado 101304" d="M719.283,427.725V381.566s5.013-3.132,7.689-.3V426.8S725.759,429.322,719.283,427.725Z" transform="translate(-680.704 -359.68)" fill="#e2b234"/>
            </g>
            <path id="Trazado_101305" data-name="Trazado 101305" d="M689.323,391.579l23.134-5.353s-.808-11.729,3.464-11.718,3.162,8.7,3.162,8.7,7.948-6.9,11.18-4.586c2.472,1.772-2.209,5.739-4.539,7.5-.708.538-1.2.871-1.2.871s6.231-4.691,8.9-1.88-6.546,4.967-6.546,4.967,8.508-2.731,7.431,1.266c-.565,2.1-24.012,18.8-33.726,22.142s-21.355-11.888-17.86-18.568C684.047,392.386,689.323,391.579,689.323,391.579Z" transform="translate(-665.266 -228.906)" fill="#f5fffa"/>
            <path id="Trazado_101306" data-name="Trazado 101306" d="M772.868,384.428l-23.022,5.834s-4.648-10.8-8.443-8.833,1.173,9.184,1.173,9.184-10.228-2.5-12.04,1.043c-1.386,2.708,4.591,4.092,7.467,4.589.876.156,1.47.224,1.47.224s-7.69-1.316-8.774,2.4,8.095,1.418,8.095,1.418-8.814,1.468-6.027,4.529c1.463,1.606,29.954,5.716,40.12,4.246s13.542-20.346,7.381-24.687C777.927,382.73,772.868,384.428,772.868,384.428Z" transform="translate(-627.227 -223.638)" fill="#f5fffa"/>
            <path id="Trazado_101307" data-name="Trazado 101307" d="M732.584,331.464c.352-8.016-7.719-16.191-16.778-16.166a16.76,16.76,0,1,0,16.728,18.345c.871-.86,4.863-4.022,12.877.492.533,4.015,5.333,14.583,16.645,14.555a16.761,16.761,0,1,0-16.806-16.714S738.461,327.826,732.584,331.464ZM715.9,347.12a15.062,15.062,0,1,1,15.02-15.1A15.081,15.081,0,0,1,715.9,347.12Zm46.156-.131a15.063,15.063,0,1,1,15.02-15.1A15.08,15.08,0,0,1,762.051,346.99Z" transform="translate(-651.856 -275.696)" fill="#31346d" stroke="#21214b" stroke-miterlimit="10" stroke-width="1"/>
          </g>
        </g>
      </g>
    </g>
    <path id="Trazado_101308" data-name="Trazado 101308" d="M742.162,436.708l5.813-2.824,9.066-4.716s19.158-10.234-.7-31.98" transform="translate(172.329 181.333)" fill="none" stroke="#21214b" stroke-linecap="round" stroke-linejoin="round" stroke-width="3"/>
    <path id="Trazado_101309" data-name="Trazado 101309" d="M708.1,422.627l9.021,18.752,15.613-7.293" transform="translate(145.469 201.392)" fill="none" stroke="#21214b" stroke-linecap="round" stroke-linejoin="round" stroke-width="2"/>
    <path id="Trazado_101310" data-name="Trazado 101310" d="M759.965,396.554a19.432,19.432,0,0,0-3.772,1.973l-27.319,18L723.66,420" transform="translate(157.74 180.833)" fill="none" stroke="#21214b" stroke-linecap="round" stroke-linejoin="round" stroke-width="3"/>
    <path id="Trazado_101311" data-name="Trazado 101311" d="M713.229,420.434a71.184,71.184,0,0,0-12.049,1.095,23.322,23.322,0,0,0-7.429,2.563c-4.5,1.835-7.091,4.884-4.977,9.9,7.453,17.674,45.281,10.581,45.281,10.581,3.581-2.638,2.838-1.694.427-1.8a53.323,53.323,0,0,1-5.9-10.091" transform="translate(129.642 199.662)" fill="none" stroke="#21214b" stroke-linecap="round" stroke-linejoin="round" stroke-width="3"/>
    <path id="Trazado_101312" data-name="Trazado 101312" d="M707.894,397.556s-7.34-4.5-13.332,1.808c-4.791,5.045-7.088,9.54-7.887,13.439-2.268,11.085,7.7,17.3,7.7,17.3s22.6,10.944,38.335,16.56l31.369,14.653,10.566-22.539a190.618,190.618,0,0,0-30.444-24.2" transform="translate(128.312 180.398)" fill="none" stroke="#21214b" stroke-linecap="round" stroke-linejoin="round" stroke-width="3"/>
    <path id="Trazado_101313" data-name="Trazado 101313" d="M771.423,423.3a23.347,23.347,0,0,0-7.433-2.565c-9.788-1.907-22.535-.778-22.535-.778s-5.131,14.988-10.767,22.024c-2.411.1-3.153-.841.427,1.8,0,0,37.828,7.093,45.281-10.581C778.511,428.181,775.919,425.133,771.423,423.3Z" transform="translate(161.677 199.023)" fill="none" stroke="#21214b" stroke-linecap="round" stroke-linejoin="round" stroke-width="3"/>
    <path id="Trazado_101314" data-name="Trazado 101314" d="M681.554,377.551c1.969.776,4.743,1.846,7.043,2.6" transform="translate(124.539 165.849)" fill="none" stroke="#21214b" stroke-linecap="round" stroke-linejoin="round" stroke-width="3"/>
    <path id="Trazado_101315" data-name="Trazado 101315" d="M697.314,372.977s-10.806,13.044-14.465,21.839" transform="translate(125.56 162.243)" fill="none" stroke="#21214b" stroke-linecap="round" stroke-linejoin="round" stroke-width="3"/>
    <path id="Trazado_101316" data-name="Trazado 101316" d="M751.756,373.135s15.065,17.792,14.585,24.71" transform="translate(179.893 162.367)" fill="none" stroke="#21214b" stroke-linecap="round" stroke-linejoin="round" stroke-width="3"/>
    <path id="Trazado_101317" data-name="Trazado 101317" d="M789.021,392.1c5.938-3.5,12.062-7.764,12.062-7.764-3.838-15.462-14.755-26.092-42.6-27.339l-1.6,4.868c-3.459,1.6-8.993,1.778-10.946,1.789-.052,0-.089,0-.15,0-1.951-.011-7.485-.19-10.944-1.789l-.24-4.353S704.961,351,690.646,384.335c0,0,6.256,4.355,12.253,7.875" transform="translate(131.708 149.642)" fill="none" stroke="#21214b" stroke-linecap="round" stroke-linejoin="round" stroke-width="3"/>
    <path id="Trazado_101318" data-name="Trazado 101318" d="M701.286,331.248a15.521,15.521,0,0,0-13.5,1.442c-3.006,1.942-4.135,5.752-3.4,9.424,1.286,6.4,8.249,12.357,20.961,7.118" transform="translate(126.6 128.618)" fill="none" stroke="#21214b" stroke-linecap="round" stroke-linejoin="round" stroke-width="3"/>
    <path id="Trazado_101319" data-name="Trazado 101319" d="M747.2,348.022c13.4,4.189,19.852-2.481,20.5-9.03.372-3.727-1.127-7.412-4.3-9.046a14.859,14.859,0,0,0-11.906-1.118" transform="translate(176.298 126.822)" fill="none" stroke="#21214b" stroke-linecap="round" stroke-linejoin="round" stroke-width="3"/>
    <path id="Trazado_101320" data-name="Trazado 101320" d="M806.474,355.005s-4.8-27.668-6.884-35.981a25.7,25.7,0,0,0-14.263-17.486,35.32,35.32,0,0,0-7.8-2.626,39.292,39.292,0,0,0-9.867-.9,72.481,72.481,0,0,0-34.649-4.672,61.335,61.335,0,0,0-13.945,3.284A59.306,59.306,0,0,0,711.3,300.1c-12.4,6.651-16.944,20.666-18.609,30.474h0s-3.64,17.232-7.993,34.74" transform="translate(127.019 99.093)" fill="none" stroke="#21214b" stroke-linecap="round" stroke-linejoin="round" stroke-width="3"/>
    <path id="Trazado_101321" data-name="Trazado 101321" d="M743.642,350.131c3.97,16.166,7.563,23.352,20.612,56.762,4.063-1.1,6.993-2.42,8.374-4.021l-2.611-13.866,9.762,11.8a56.29,56.29,0,0,0,11.273-8.578s-11.766-26.5-23.111-53.347" transform="translate(173.495 135.357)" fill="none" stroke="#21214b" stroke-linecap="round" stroke-linejoin="round" stroke-width="3"/>
    <path id="Trazado_101322" data-name="Trazado 101322" d="M693.9,354.074c.819-8.17,1.334-16.365,1.586-24.531a37.91,37.91,0,0,1,8.1-8.494,59.839,59.839,0,0,1,8.841-5.816l4.208-14.7s2.289,12.117,2.382,13.691c.4-.272,2.677-.408,5.9-.456,10.3-.156,30.344.572,30.344.572l1.792-7.6,3.352,8.942a50.452,50.452,0,0,1,17.182,2.552,24.1,24.1,0,0,1,8.027,4.623,15.93,15.93,0,0,1,5.027,8.241,126.035,126.035,0,0,1,2.813,19.015" transform="translate(134.272 105.12)" fill="none" stroke="#21214b" stroke-linecap="round" stroke-linejoin="round" stroke-width="3"/>
    <path id="Trazado_101323" data-name="Trazado 101323" d="M693.6,336.131c-7.073,28.446-15.862,58.5-21.5,64.618,0,0,1.906,1.547,5.063,3.643,1.638,1.087,11.758-9.091,11.758-9.091,2.218,1.243-3.407,13.741-3.407,13.741.975.415,2.1.878,3.316,1.358,13.473-27.657,18.012-44.865,21.416-62.83" transform="translate(117.08 133.19)" fill="none" stroke="#21214b" stroke-linecap="round" stroke-linejoin="round" stroke-width="3"/>
    <path id="Trazado_101324" data-name="Trazado 101324" d="M694.268,336.968c6.24,19.1,20.069,27.114,35.443,29.7a52.478,52.478,0,0,1,1.928,13.4s12.223,3.427,21.462-.15L757.86,365.6a69.345,69.345,0,0,0,12.655-4.063c8.055-3.539,14.138-7.172,21.512-27.783" transform="translate(134.564 131.314)" fill="none" stroke="#21214b" stroke-linecap="round" stroke-linejoin="round" stroke-width="3"/>
    <path id="Trazado_101325" data-name="Trazado 101325" d="M689.264,391.476l23.134-5.353s-.808-11.729,3.464-11.718,3.16,8.7,3.16,8.7,7.95-6.9,11.18-4.586c2.473,1.772-2.207,5.739-4.537,7.5-.708.538-1.2.869-1.2.869s6.233-4.691,8.9-1.878-6.546,4.967-6.546,4.967,8.508-2.731,7.431,1.266c-.565,2.1-24.014,18.8-33.726,22.142s-21.355-11.89-17.862-18.568C683.989,392.283,689.264,391.476,689.264,391.476Z" transform="translate(124.913 163.369)" fill="none" stroke="#21214b" stroke-linecap="round" stroke-linejoin="round" stroke-width="3"/>
    <path id="Trazado_101326" data-name="Trazado 101326" d="M772.809,384.325l-23.022,5.834s-4.65-10.8-8.445-8.835,1.175,9.186,1.175,9.186-10.228-2.5-12.04,1.041c-1.386,2.71,4.591,4.092,7.467,4.591.876.154,1.468.224,1.468.224s-7.689-1.318-8.773,2.4,8.093,1.418,8.093,1.418-8.812,1.47-6.027,4.528c1.465,1.608,29.954,5.718,40.121,4.246s13.543-20.344,7.381-24.685C777.868,382.628,772.809,384.325,772.809,384.325Z" transform="translate(162.952 168.636)" fill="none" stroke="#21214b" stroke-linecap="round" stroke-linejoin="round" stroke-width="3"/>
    <path id="Trazado_101327" data-name="Trazado 101327" d="M761.263,333.678c-2.713-.891-5.28-1.823-7.9-1.057-4.752,1.241-3.1,3.808-5.843,8.941" transform="translate(176.551 130.199)" fill="none" stroke="#21214b" stroke-linecap="round" stroke-linejoin="round" stroke-width="3"/>
    <path id="Trazado_101328" data-name="Trazado 101328" d="M698.3,387.259l-.281-8.12s-.916-7.7,6.4-6.317,29.836,13.142,32.139,14.93v46.159s-28.584-13.861-37.188-15.649l-.3-8.588" transform="translate(137.494 161.99)" fill="none" stroke="#21214b" stroke-linecap="round" stroke-linejoin="round" stroke-width="3"/>
    <path id="Trazado_101329" data-name="Trazado 101329" d="M761.84,394.632l.554-16.009s.916-7.7-6.4-6.319-29.834,13.77-32.136,15.558V433.4s28.58-13.861,37.186-15.649l-.047-1.42" transform="translate(157.893 161.581)" fill="none" stroke="#21214b" stroke-linecap="round" stroke-linejoin="round" stroke-width="3"/>
    <path id="Trazado_101330" data-name="Trazado 101330" d="M719.555,427.911V381.752s5.011-3.132,7.689-.3v45.533S726.031,429.508,719.555,427.911Z" transform="translate(154.503 167.991)" fill="none" stroke="#21214b" stroke-linecap="round" stroke-linejoin="round" stroke-width="3"/>
  </g>
</svg>
