<svg xmlns="http://www.w3.org/2000/svg" width="39.392" height="52.017" viewBox="0 0 39.392 52.017">
  <g id="matraz" transform="translate(0)">
    <g id="_x3C_Group_x3E__9_" transform="translate(0.762 0.773)">
      <path id="Trazado_101797" data-name="Trazado 101797" d="M118.1,83.649a18.938,18.938,0,0,0-11.55-17.439A2.536,2.536,0,0,1,105,63.875V53.722H96.377l0,0v0l-2.217.547V64.422a2.536,2.536,0,0,1-1.545,2.335A18.254,18.254,0,0,0,81.427,83.936c0,6.409,2.4,11.421,7.276,14.846a2.007,2.007,0,0,0,1.155.36H90.95l8.13-.65,8.831.47H109a2.014,2.014,0,0,0,1.159-.363,15.182,15.182,0,0,0,2.851-2.037q.6-.641,1.135-1.335c.043-.053.086-.108.129-.164A18.848,18.848,0,0,0,118.1,83.649Z" transform="translate(-80.228 -49.037)" fill="#f1f6f7"/>
      <path id="Trazado_101798" data-name="Trazado 101798" d="M102.408,96.566a18.955,18.955,0,0,1-2.964,2.584,2.019,2.019,0,0,1-1.159.363H97.2L88.482,98.5l-8.547,1.016H78.844a2.008,2.008,0,0,1-1.156-.361A18.937,18.937,0,0,1,81.18,66.214a2.536,2.536,0,0,0,1.545-2.336V53.726h3.048V64.173a4.566,4.566,0,0,1-2.635,4.141C75.882,71.687,72.727,77.647,72.727,84.1c0,3.449,2.5,9.415,6.1,12.067a2.046,2.046,0,0,0,1.214.4Z" transform="translate(-69.63 -49.041)" fill="#e1ebf0"/>
      <path id="Trazado_101799" data-name="Trazado 101799" d="M192.09,12.329l-11.655.069c-1.542,0-1.9-.36-1.9-1.9l.208-.259c0-1.251-.146-2.147.988-2.5a2.79,2.79,0,0,1,.836-.127h11.678a2.793,2.793,0,0,1,2.783,2.561c.006.076-.237.224-.237.224C194.788,11.934,193.633,12.329,192.09,12.329Z" transform="translate(-167.469 -7.607)" fill="#f1f6f7"/>
      <path id="Trazado_101800" data-name="Trazado 101800" d="M187.543,11.149H175.865a2.792,2.792,0,0,1-2.78-2.536,2.792,2.792,0,0,0,.748,5.483h11.678A2.793,2.793,0,0,0,188.3,11.3c0-.086,0-.172-.012-.256A2.793,2.793,0,0,1,187.543,11.149Z" transform="translate(-160.738 -8.511)" fill="#e1ebf0"/>
      <path id="Trazado_101801" data-name="Trazado 101801" d="M193,447.907c.964-3.079,1.3-4.893,4.487-5.578a9.128,9.128,0,0,1,1.916-.2,9.023,9.023,0,0,1,7.065,3.383c.692.864.148,1.313.486,2.4Z" transform="translate(-180.466 -397.982)" fill="#e2a975"/>
      <path id="Trazado_101802" data-name="Trazado 101802" d="M177.3,444.636a9.1,9.1,0,0,1,.635-.822,9.033,9.033,0,0,0-6.873,6.154h17.265a8.985,8.985,0,0,0-1.572-2.946h-8.2A1.524,1.524,0,0,1,177.3,444.636Z" transform="translate(-160.757 -399.498)" fill="#d19a6e"/>
      <path id="Trazado_101803" data-name="Trazado 101803" d="M223.393,187.071a24.038,24.038,0,0,0-4.106-6.5.791.791,0,0,0-1.209.006c-.421.5-1.017,1.244-1.632,2.09-1,1.368-1.318,3.359-1.761,4.742-.795,2.48.42,5.694,4.021,5.681,2.415,0,4.061-1.117,4.665-3.1A4.652,4.652,0,0,0,223.393,187.071Z" transform="translate(-199.739 -162.753)" fill="#9ddfd3"/>
      <path id="Trazado_101804" data-name="Trazado 101804" d="M214.775,206.941c-3.6.014-5.512-4.3-4.717-6.784a10.754,10.754,0,0,1,.863-1.9,19.14,19.14,0,0,0-2.895,4.949c-.795,2.48,1.117,6.8,4.717,6.784a5.115,5.115,0,0,0,4.723-3.958A4.407,4.407,0,0,1,214.775,206.941Z" transform="translate(-193.806 -178.887)" fill="#9ddfd3" style="mix-blend-mode: multiply;isolation: isolate"/>
      <path id="Trazado_101805" data-name="Trazado 101805" d="M306.462,335.468a3.026,3.026,0,0,1,.986-4.111c.165-.088.3-.339.446-.4,1.2-.516,1.964-.3,3.683.047a5.822,5.822,0,0,0,3.125-.4.473.473,0,0,1,.647.428,6.972,6.972,0,0,1-1.027,3.877,6.471,6.471,0,0,1-3.415,2.313C308.675,338.061,307.327,337.274,306.462,335.468Z" transform="translate(-282.048 -297.76)" fill="#9ddfd3"/>
      <path id="Trazado_101806" data-name="Trazado 101806" d="M127.378,336.352c.017-.035.153-.121.168-.156a3.615,3.615,0,0,0-1.481-4.364c-1.494-.795-2.22-.572-4.152-.181a4.59,4.59,0,0,1-1.514.031c-.637-.085-.8.2-1.206.04a.473.473,0,0,0-.647.428c-.035,1.482.138,4.009,4.176,5.525C124.953,338.513,126.513,338.158,127.378,336.352Z" transform="translate(-113.573 -298.411)" fill="#9ddfd3"/>
      <g id="Grupo_55604" data-name="Grupo 55604" transform="translate(4.566 32.812)" style="mix-blend-mode: multiply;isolation: isolate">
        <path id="Trazado_101807" data-name="Trazado 101807" d="M309.646,338.507a3.73,3.73,0,0,1-4.978-1.849,3.375,3.375,0,0,1-.039-2.7,6.036,6.036,0,0,0-.561.265,3.6,3.6,0,0,0-1.432,4.47,3.73,3.73,0,0,0,4.978,1.849,6.527,6.527,0,0,0,3.428-2.715A7.825,7.825,0,0,1,309.646,338.507Z" transform="translate(-283.258 -333.611)" fill="#9ddfd3"/>
        <path id="Trazado_101808" data-name="Trazado 101808" d="M120.411,335.477c-2.674-1-3.17-2.872-3.576-4.445a7.1,7.1,0,0,1-1.616-.427.473.473,0,0,0-.647.428,6.451,6.451,0,0,0,4.379,6.467,3.73,3.73,0,0,0,4.978-1.849c.018-.038.034-.076.051-.115A6.506,6.506,0,0,1,120.411,335.477Z" transform="translate(-114.57 -330.572)" fill="#9ddfd3"/>
      </g>
    </g>
    <g id="Grupo_55605" data-name="Grupo 55605" transform="translate(0 0)">
      <path id="Trazado_101809" data-name="Trazado 101809" d="M143.419,17.241a1.771,1.771,0,0,1-1.08-1.634V7.029A3.556,3.556,0,0,0,141.577,0H129.9a3.556,3.556,0,0,0-.762,7.029v8.578a1.771,1.771,0,0,1-1.08,1.634,19.655,19.655,0,0,0-5.673,3.666.762.762,0,1,0,1.033,1.12,18.14,18.14,0,0,1,5.235-3.383,3.293,3.293,0,0,0,2.009-3.038V7.112h4.889a.762.762,0,0,0,0-1.525H129.9a2.031,2.031,0,0,1,0-4.063h11.678a2.031,2.031,0,0,1,0,4.063h-2.469a.762.762,0,0,0,0,1.525h1.707v8.495a3.293,3.293,0,0,0,2.009,3.038,18.211,18.211,0,0,1,10.586,21,.762.762,0,1,0,1.482.355,19.737,19.737,0,0,0-11.474-22.755Z" transform="translate(-116.042)"/>
      <path id="Trazado_101810" data-name="Trazado 101810" d="M99.4,197.7a.762.762,0,0,0-1.008.38,18.247,18.247,0,0,1-6.128,7.4,1.238,1.238,0,0,1-.717.222H91a9.812,9.812,0,0,0-8.41-6.3v-1.168a9.794,9.794,0,0,1,2.253-2.624,11.524,11.524,0,0,1,1.5-1.039,4.344,4.344,0,0,0,3.836,2.231,5.414,5.414,0,0,0,1.9-.36,7.2,7.2,0,0,0,4.873-7.2,1.235,1.235,0,0,0-1.687-1.12,5.116,5.116,0,0,1-2.7.358c-1.709-.364-2.978-.674-4.662.255a4.426,4.426,0,0,0-2.093,4.383,13.165,13.165,0,0,0-1.941,1.316,11.728,11.728,0,0,0-1.286,1.23V187.8a5.479,5.479,0,0,0,3.735-2.425,6.129,6.129,0,0,0,.933-5.337,24.92,24.92,0,0,0-4.24-6.724,1.551,1.551,0,0,0-1.182-.545h-.009a1.548,1.548,0,0,0-1.182.558c-1.272,1.527-3.518,4.433-4.259,6.748a6.49,6.49,0,0,0,1.135,5.485,5.359,5.359,0,0,0,3.546,2.24v7.871a11.738,11.738,0,0,0-1.286-1.23,13.182,13.182,0,0,0-1.947-1.32,4.426,4.426,0,0,0-2.093-4.38c-1.628-.912-2.9-.635-4.662-.255a5.117,5.117,0,0,1-2.7-.358,1.235,1.235,0,0,0-1.687,1.12,7.2,7.2,0,0,0,4.873,7.2,5.412,5.412,0,0,0,1.9.36,4.345,4.345,0,0,0,3.838-2.233,11.525,11.525,0,0,1,1.5,1.042,9.794,9.794,0,0,1,2.253,2.624v1.168a9.684,9.684,0,0,0-3.583.983.762.762,0,0,0,.676,1.367,8.3,8.3,0,0,1,11.191,3.95H74.313a8.249,8.249,0,0,1,1.263-1.951.762.762,0,1,0-1.15-1,9.742,9.742,0,0,0-1.767,2.951h-.55a1.238,1.238,0,0,1-.717-.222A18.217,18.217,0,0,1,63.657,190.6a18.033,18.033,0,0,1,3.565-10.816A.762.762,0,1,0,66,178.878a19.711,19.711,0,0,0,4.516,27.852,2.753,2.753,0,0,0,1.594.5H91.55a2.754,2.754,0,0,0,1.594-.5,19.771,19.771,0,0,0,6.64-8.018.762.762,0,0,0-.38-1.009Zm-10.774-7.621c1.213-.7,2.139-.415,3.643-.106a6.223,6.223,0,0,0,3.16-.289,5.6,5.6,0,0,1-3.883,5.331,2.982,2.982,0,0,1-4.023-1.465h0A2.848,2.848,0,0,1,88.629,190.083Zm-12.5,3.47a2.982,2.982,0,0,1-4.023,1.465,5.6,5.6,0,0,1-3.883-5.331,6.223,6.223,0,0,0,3.16.289c1.5-.327,2.528-.567,3.643.106A2.848,2.848,0,0,1,76.132,193.552Zm2.622-8.9a4.982,4.982,0,0,1-.913-4.119c.687-2.145,3.011-5.076,3.978-6.236a.024.024,0,0,1,.021-.01h0a.027.027,0,0,1,.023.011,23.4,23.4,0,0,1,3.972,6.272,4.628,4.628,0,0,1-.76,3.931,3.969,3.969,0,0,1-3.247,1.824h-.014A3.77,3.77,0,0,1,78.754,184.655Z" transform="translate(-62.133 -155.213)"/>
    </g>
  </g>
</svg>
