<svg id="Page-1" xmlns="http://www.w3.org/2000/svg" width="90.011" height="90.011" viewBox="0 0 90.011 90.011">
  <g id="_098---Make-Notes-on-Calendar" data-name="098---Make-Notes-on-Calendar">
    <path id="Path" d="M88.011,12V22.5H1V12A6,6,0,0,1,7,6H82.01A6,6,0,0,1,88.011,12Z" transform="translate(0.5 3.001)" fill="#9ddfd3" fill-rule="evenodd"/>
    <path id="Path-2" data-name="Path" d="M56.5,6H52a6,6,0,0,1,6,6V22.5h4.5V12A6,6,0,0,0,56.5,6Z" transform="translate(26.01 3.001)" fill="#9ddfd3" fill-rule="evenodd" style="mix-blend-mode: multiply;isolation: isolate"/>
    <path id="Path-3" data-name="Path" d="M88.011,17V74.007a6,6,0,0,1-6,6H7a6,6,0,0,1-6-6V17Z" transform="translate(0.5 8.503)" fill="#f5f5f5" fill-rule="evenodd"/>
    <path id="Path-4" data-name="Path" d="M58,17V74.007a6,6,0,0,1-6,6h4.5a6,6,0,0,0,6-6V17Z" transform="translate(26.01 8.503)" fill="#cfd8dc" fill-rule="evenodd"/>
    <rect id="Rectangle" width="9" height="18" rx="3" transform="translate(9 1.011)" fill="#7f8e94"/>
    <rect id="Rectangle-2" data-name="Rectangle" width="9" height="18" rx="3" transform="translate(30 1.011)" fill="#7f8e94"/>
    <rect id="Rectangle-3" data-name="Rectangle" width="9" height="18" rx="3" transform="translate(51 1.011)" fill="#7f8e94"/>
    <rect id="Rectangle-4" data-name="Rectangle" width="9" height="18" rx="3" transform="translate(72 1.011)" fill="#7f8e94"/>
    <path id="Rectangle-5" data-name="Rectangle" d="M2,0H73a2,2,0,0,1,2,2V13a2,2,0,0,1-2,2H2a2,2,0,0,1-2-2V2A2,2,0,0,1,2,0Z" transform="translate(8 67.011)" fill="#cc3d60"/>
    <path id="Path-5" data-name="Path" d="M54.5,45H50a3,3,0,0,1,3,3v9a3,3,0,0,1-3,3h4.5a3,3,0,0,0,3-3V48A3,3,0,0,0,54.5,45Z" transform="translate(25.009 22.508)" fill="#cc3d60" fill-rule="evenodd" style="mix-blend-mode: multiply;isolation: isolate"/>
    <path id="Path-6" data-name="Path" d="M32,24V42a3,3,0,0,0,3,3h8.251a1.5,1.5,0,0,1,1.2.6L48.5,51l4.051-5.4a1.5,1.5,0,0,1,1.2-.6H62a3,3,0,0,0,3-3V24a3,3,0,0,0-3-3H35A3,3,0,0,0,32,24Z" transform="translate(16.006 10.504)" fill="#ffc93c" fill-rule="evenodd"/>
    <path id="Path-7" data-name="Path" d="M53.5,21H49a3,3,0,0,1,3,3V42a3,3,0,0,1-3,3h4.5a3,3,0,0,0,3-3V24A3,3,0,0,0,53.5,21Z" transform="translate(24.509 10.504)" fill="#ffc93c" fill-rule="evenodd" style="mix-blend-mode: multiply;isolation: isolate"/>
    <g id="Grupo_55555" data-name="Grupo 55555">
      <path id="Shape" d="M82.51,7.5V6a6,6,0,1,0-12,0V7.5h-9V6a6,6,0,0,0-12,0V7.5h-9V6a6,6,0,0,0-12,0V7.5h-9V6a6,6,0,0,0-12,0V7.5A7.51,7.51,0,0,0,0,15V82.51a7.51,7.51,0,0,0,7.5,7.5H82.51a7.51,7.51,0,0,0,7.5-7.5V15A7.51,7.51,0,0,0,82.51,7.5Zm-9-1.5a3,3,0,1,1,6,0v9a3,3,0,1,1-6,0Zm-21,0a3,3,0,1,1,6,0v9a3,3,0,1,1-6,0Zm-21,0a3,3,0,0,1,6,0v9a3,3,0,1,1-6,0Zm-21,0a3,3,0,1,1,6,0v9a3,3,0,1,1-6,0Zm-3,4.5V15a6,6,0,1,0,12,0V10.5h9V15a6,6,0,1,0,12,0V10.5h9V15a6,6,0,1,0,12,0V10.5h9V15a6,6,0,1,0,12,0V10.5a4.5,4.5,0,0,1,4.5,4.5v9H3V15A4.5,4.5,0,0,1,7.5,10.5ZM82.51,87.011H7.5A4.5,4.5,0,0,1,3,82.51V27h84.01V82.51A4.5,4.5,0,0,1,82.51,87.011Z"/>
      <path id="Shape-2" data-name="Shape" d="M77.509,44H8.5A4.5,4.5,0,0,0,4,48.5v9A4.5,4.5,0,0,0,8.5,62H77.509a4.5,4.5,0,0,0,4.5-4.5v-9A4.5,4.5,0,0,0,77.509,44Zm1.5,13.5a1.5,1.5,0,0,1-1.5,1.5H8.5A1.5,1.5,0,0,1,7,57.5v-9A1.5,1.5,0,0,1,8.5,47H77.509a1.5,1.5,0,0,1,1.5,1.5Z" transform="translate(2.001 22.008)"/>
      <path id="Shape-3" data-name="Shape" d="M35.5,47h8.251L47.8,52.4a1.5,1.5,0,0,0,2.4,0L54.253,47H62.5A4.5,4.5,0,0,0,67,42.5v-18A4.5,4.5,0,0,0,62.5,20h-27A4.5,4.5,0,0,0,31,24.5v18A4.5,4.5,0,0,0,35.5,47ZM34,24.5A1.5,1.5,0,0,1,35.5,23h27A1.5,1.5,0,0,1,64,24.5v18A1.5,1.5,0,0,1,62.5,44H54.253a3.011,3.011,0,0,0-2.4,1.2L49,49l-2.85-3.8a3.012,3.012,0,0,0-2.4-1.2H35.5A1.5,1.5,0,0,1,34,42.5Z" transform="translate(15.506 10.004)"/>
      <path id="Path-8" data-name="Path" d="M36.5,27h6a1.5,1.5,0,1,0,0-3h-6a1.5,1.5,0,0,0,0,3Z" transform="translate(17.507 12.004)" fill-rule="evenodd"/>
      <path id="Path-9" data-name="Path" d="M44.5,27h9a1.5,1.5,0,0,0,0-3h-9a1.5,1.5,0,0,0,0,3Z" transform="translate(21.508 12.004)" fill-rule="evenodd"/>
      <path id="Path-10" data-name="Path" d="M36.5,31h21a1.5,1.5,0,0,0,0-3h-21a1.5,1.5,0,0,0,0,3Z" transform="translate(17.507 14.005)" fill-rule="evenodd"/>
      <path id="Path-11" data-name="Path" d="M36.5,35h12a1.5,1.5,0,1,0,0-3h-12a1.5,1.5,0,0,0,0,3Z" transform="translate(17.507 16.006)" fill-rule="evenodd"/>
      <path id="Path-12" data-name="Path" d="M6.5,25H11a1.5,1.5,0,0,0,0-3H6.5a1.5,1.5,0,0,0,0,3Z" transform="translate(2.501 11.004)" fill-rule="evenodd"/>
      <path id="Path-13" data-name="Path" d="M13.5,25H27a1.5,1.5,0,0,0,0-3H13.5a1.5,1.5,0,0,0,0,3Z" transform="translate(6.002 11.004)" fill-rule="evenodd"/>
      <path id="Path-14" data-name="Path" d="M6.5,30h15a1.5,1.5,0,1,0,0-3H6.5a1.5,1.5,0,1,0,0,3Z" transform="translate(2.501 13.505)" fill-rule="evenodd"/>
      <path id="Path-15" data-name="Path" d="M6.5,35h6a1.5,1.5,0,1,0,0-3h-6a1.5,1.5,0,1,0,0,3Z" transform="translate(2.501 16.006)" fill-rule="evenodd"/>
    </g>
  </g>
</svg>
