<svg xmlns="http://www.w3.org/2000/svg" xmlns:xlink="http://www.w3.org/1999/xlink" width="108.296" height="94.281" viewBox="0 0 108.296 94.281">
  <defs>
    <clipPath id="clip-path">
      <rect id="Rectángulo_5289" data-name="Rectángulo 5289" width="108.296" height="94.281" fill="#fff" stroke="#707070" stroke-width="1"/>
    </clipPath>
  </defs>
  <g id="Grupo_55553" data-name="Grupo 55553" transform="translate(-338.5 -2626)">
    <path id="Trazado_101653" data-name="Trazado 101653" d="M34.246,43H7v6.693H34.246Z" transform="translate(334.792 2644.17)" fill="#cc3d60"/>
    <path id="Trazado_101654" data-name="Trazado 101654" d="M7,47H34.246V62.773H7Z" transform="translate(335.792 2648.781)" fill="#ffc93c"/>
    <path id="Trazado_101655" data-name="Trazado 101655" d="M25,49.693H51.7V43H25Z" transform="translate(353.237 2644.17)" fill="#cc3d60"/>
    <path id="Trazado_101656" data-name="Trazado 101656" d="M25,47H51.7V60.386H25Z" transform="translate(354.606 2648.781)" fill="#ffc93c"/>
    <path id="Trazado_101657" data-name="Trazado 101657" d="M43,49.693H68.674V43H43Z" transform="translate(372.29 2644.17)" fill="#cc3d60"/>
    <path id="Trazado_101658" data-name="Trazado 101658" d="M43,47H68.674V60.386H43Z" transform="translate(373.29 2648.781)" fill="#ffc93c"/>
    <g id="Grupo_55552" data-name="Grupo 55552" transform="translate(338.5 2626)" opacity="0.997">
      <path id="Trazado_101651" data-name="Trazado 101651" d="M23,15H57.178v9.094H23Z" transform="translate(13.799 -10.746)" fill="#cc3d60"/>
      <path id="Trazado_101652" data-name="Trazado 101652" d="M23,19V39.958H57.178V19Z" transform="translate(13.799 -3.606)" fill="#ffc93c"/>
      <g id="Enmascarar_grupo_12" data-name="Enmascarar grupo 12" clip-path="url(#clip-path)">
        <g id="Grupo_55551" data-name="Grupo 55551" transform="translate(-5.731 -20.385)">
          <path id="Trazado_101659" data-name="Trazado 101659" d="M119.112,2H3.985A1.985,1.985,0,0,0,2,3.985V119.112A1.985,1.985,0,0,0,3.985,121.1H119.112a1.985,1.985,0,0,0,1.985-1.985V3.985A1.985,1.985,0,0,0,119.112,2Zm-1.985,115.127H5.97V21.849H117.127Zm0-99.247H5.97V5.97H117.127Z" transform="translate(-2 -2)" fill="#231f20"/>
          <path id="Trazado_101660" data-name="Trazado 101660" d="M9.97,6H7.985a1.985,1.985,0,1,0,0,3.97H9.97A1.985,1.985,0,0,0,9.97,6Z" transform="translate(1.94 1.94)" fill="#231f20"/>
          <path id="Trazado_101661" data-name="Trazado 101661" d="M14.97,6H12.985a1.985,1.985,0,0,0,0,3.97H14.97a1.985,1.985,0,1,0,0-3.97Z" transform="translate(6.865 1.94)" fill="#231f20"/>
          <path id="Trazado_101662" data-name="Trazado 101662" d="M19.97,6H17.985a1.985,1.985,0,1,0,0,3.97H19.97a1.985,1.985,0,1,0,0-3.97Z" transform="translate(11.789 1.94)" fill="#231f20"/>
          <path id="Trazado_101663" data-name="Trazado 101663" d="M107.232,69.579H95.323V59.654a1.985,1.985,0,0,0-1.985-1.985H59.594v-7.94h15.88a1.985,1.985,0,0,0,1.985-1.985V15.985A1.985,1.985,0,0,0,75.473,14H39.744a1.985,1.985,0,0,0-1.985,1.985V47.744a1.985,1.985,0,0,0,1.985,1.985h15.88v7.94H21.88a1.985,1.985,0,0,0-1.985,1.985v9.925H7.985A1.985,1.985,0,0,0,6,71.564V95.383a1.985,1.985,0,0,0,1.985,1.985H35.774a1.985,1.985,0,0,0,1.985-1.985V71.564a1.985,1.985,0,0,0-1.985-1.985H23.865v-7.94H55.624v7.94H43.714a1.985,1.985,0,0,0-1.985,1.985V95.383a1.985,1.985,0,0,0,1.985,1.985H71.5a1.985,1.985,0,0,0,1.985-1.985V71.564A1.985,1.985,0,0,0,71.5,69.579H59.594v-7.94H91.353v7.94H79.443a1.985,1.985,0,0,0-1.985,1.985V95.383a1.985,1.985,0,0,0,1.985,1.985h27.789a1.985,1.985,0,0,0,1.985-1.985V71.564A1.985,1.985,0,0,0,107.232,69.579ZM33.789,93.4H9.97V81.488H33.789Zm0-19.85v3.97H9.97v-3.97Zm7.94-55.579H73.488v3.97H41.729ZM69.518,93.4H45.7V81.488H69.518Zm0-19.85v3.97H45.7v-3.97ZM41.729,45.759V25.91H73.488v19.85ZM105.248,93.4H81.428V81.488h23.819Zm0-15.88H81.428v-3.97h23.819Z" transform="translate(1.94 9.819)" fill="#231f20"/>
          <path id="Trazado_101664" data-name="Trazado 101664" d="M27.985,25.97h19.85a1.985,1.985,0,1,0,0-3.97H27.985a1.985,1.985,0,1,0,0,3.97Z" transform="translate(21.639 17.699)" fill="#231f20"/>
          <path id="Trazado_101665" data-name="Trazado 101665" d="M49.819,27.985A1.985,1.985,0,0,0,47.834,26H27.985a1.985,1.985,0,0,0,0,3.97h19.85A1.985,1.985,0,0,0,49.819,27.985Z" transform="translate(21.639 21.639)" fill="#231f20"/>
          <path id="Trazado_101666" data-name="Trazado 101666" d="M11.985,53.97h11.91a1.985,1.985,0,1,0,0-3.97H11.985a1.985,1.985,0,1,0,0,3.97Z" transform="translate(5.88 45.278)" fill="#231f20"/>
          <path id="Trazado_101667" data-name="Trazado 101667" d="M29.985,53.97h11.91a1.985,1.985,0,1,0,0-3.97H29.985a1.985,1.985,0,1,0,0,3.97Z" transform="translate(23.609 45.278)" fill="#231f20"/>
          <path id="Trazado_101668" data-name="Trazado 101668" d="M47.985,53.97h11.91a1.985,1.985,0,1,0,0-3.97H47.985a1.985,1.985,0,0,0,0,3.97Z" transform="translate(41.338 45.278)" fill="#231f20"/>
        </g>
      </g>
    </g>
  </g>
</svg>
