<svg xmlns="http://www.w3.org/2000/svg" width="82.012" height="82.012" viewBox="0 0 82.012 82.012">
  <g id="material-escolar" transform="translate(0 0)">
    <path id="Trazado_101775" data-name="Trazado 101775" d="M354.19,364.969l19.513,9.423a.516.516,0,0,0,.688-.688l-9.423-19.513-3.787-3.787L350.4,361.182Z" transform="translate(-294.276 -294.276)" fill="#fed9a8"/>
    <path id="Trazado_101776" data-name="Trazado 101776" d="M401.417,374.393a.516.516,0,0,0,.688-.688l-9.423-19.513-3.787-3.787L383.4,355.9Z" transform="translate(-321.989 -294.277)" fill="#f4c892"/>
    <path id="Trazado_101777" data-name="Trazado 101777" d="M13.724,13.724h0a7.622,7.622,0,0,1,10.779,0l55.8,55.8L69.527,80.305l-55.8-55.8A7.621,7.621,0,0,1,13.724,13.724Z" transform="translate(-9.651 -9.651)" fill="#ffc93c"/>
    <path id="Trazado_101778" data-name="Trazado 101778" d="M26.243,13.724a7.622,7.622,0,0,0-10.779,0h0a7.585,7.585,0,0,0-1.9,3.163,7.62,7.62,0,0,1,7.615,1.9l55.8,55.8,5.063-5.063Z" transform="translate(-11.391 -9.651)" fill="#ffc93c"/>
    <rect id="Rectángulo_5290" data-name="Rectángulo 5290" width="15.242" height="5.802" transform="translate(8.244 19.021) rotate(-45)" fill="#afafaf"/>
    <path id="Trazado_101779" data-name="Trazado 101779" d="M28.672,17.894,24.5,13.724a7.622,7.622,0,0,0-10.779,0h0a7.622,7.622,0,0,0,0,10.779l4.171,4.171Z" transform="translate(-9.65 -9.651)" fill="#cc3d60"/>
    <rect id="Rectángulo_5291" data-name="Rectángulo 5291" width="5.089" height="67.217" transform="translate(67.063 63.467) rotate(135)" fill="#ffc93c" style="mix-blend-mode: multiply;isolation: isolate"/>
    <path id="Trazado_101780" data-name="Trazado 101780" d="M18.454,86.392,7.84,75.778a1.924,1.924,0,0,1,0-2.721L73.057,7.84a1.924,1.924,0,0,1,2.721,0L86.392,18.454a1.924,1.924,0,0,1,0,2.721L21.175,86.392A1.924,1.924,0,0,1,18.454,86.392Z" transform="translate(-6.111 -6.111)" fill="#9ddfd3"/>
    <path id="Trazado_101781" data-name="Trazado 101781" d="M125.433,57.5,121.7,53.764,53.764,121.7l3.731,3.731a1.924,1.924,0,0,0,2.721,0l65.217-65.217A1.924,1.924,0,0,0,125.433,57.5Z" transform="translate(-45.152 -45.152)" fill="#9ddfd3" style="mix-blend-mode: multiply;isolation: isolate"/>
    <path id="Trazado_101782" data-name="Trazado 101782" d="M442.363,441.674l-4.992-10.336-6.033,6.033,10.336,4.992A.516.516,0,0,0,442.363,441.674Z" transform="translate(-362.247 -362.247)" fill="#333"/>
    <path id="Trazado_101783" data-name="Trazado 101783" d="M21.192,18.781l4.171,4.171,5.058-5.058L26.25,13.724a7.622,7.622,0,0,0-10.779,0h0a7.587,7.587,0,0,0-1.9,3.159A7.619,7.619,0,0,1,21.192,18.781Z" transform="translate(-11.398 -9.651)" fill="#cc3d60" style="mix-blend-mode: multiply;isolation: isolate"/>
    <rect id="Rectángulo_5292" data-name="Rectángulo 5292" width="7.153" height="5.802" transform="translate(13.965 13.301) rotate(-45)" fill="#e8e8e8"/>
    <path id="Trazado_101784" data-name="Trazado 101784" d="M81.5,12.006l0,0c-.049-.074-.1-.146-.159-.217-.009-.011-.017-.023-.026-.034-.066-.08-.136-.158-.21-.233L70.492.9a3.094,3.094,0,0,0-4.371,0L.9,66.121a3.1,3.1,0,0,0,0,4.371L11.518,81.106c.074.074.152.144.233.21l.037.027c.07.055.141.109.214.157l.007,0a3.091,3.091,0,0,0,3.389,0l.007,0c.074-.049.145-.1.214-.157l.037-.027c.08-.066.158-.136.233-.21L81.106,15.889c.074-.074.144-.152.21-.233.009-.011.017-.023.026-.034.056-.07.11-.142.159-.217l0,0a3.092,3.092,0,0,0,0-3.4Zm-1.879,1.971s0,.008,0,.011a.755.755,0,0,1-.057.109c0,.008-.008.016-.013.024a.766.766,0,0,1-.1.118L14.239,79.455a.758.758,0,0,1-.118.1l-.023.012a.748.748,0,0,1-.109.057l-.01,0a.761.761,0,0,1-.551,0l-.009,0a.767.767,0,0,1-.112-.059l-.02-.011a.766.766,0,0,1-.118-.1l-2.906-2.906,7.712-7.712a1.167,1.167,0,0,0-1.651-1.651L8.611,74.9,2.555,68.841a.758.758,0,0,1,0-1.07L67.771,2.554a.758.758,0,0,1,1.07,0L74.9,8.612,21.456,62.054A1.167,1.167,0,0,0,23.107,63.7L76.55,10.262l2.906,2.906a.758.758,0,0,1,.1.118c0,.007.008.016.012.023a.762.762,0,0,1,.057.109s0,.007,0,.011A.761.761,0,0,1,79.625,13.977Z" transform="translate(0 0)"/>
    <path id="Trazado_101785" data-name="Trazado 101785" d="M403.752,49.467a1.167,1.167,0,0,0,1.65-1.651l-3.229-3.229a1.167,1.167,0,0,0-1.651,1.651Z" transform="translate(-336.081 -37.159)"/>
    <path id="Trazado_101786" data-name="Trazado 101786" d="M287.959,165.261a1.167,1.167,0,0,0,1.65-1.651l-3.229-3.229a1.167,1.167,0,1,0-1.651,1.651Z" transform="translate(-238.835 -134.406)"/>
    <path id="Trazado_101787" data-name="Trazado 101787" d="M348.3,102.266a1.167,1.167,0,1,0,1.65-1.651l-1.9-1.9a1.167,1.167,0,0,0-1.651,1.651Z" transform="translate(-290.626 -82.615)"/>
    <path id="Trazado_101788" data-name="Trazado 101788" d="M228.736,221.83a1.167,1.167,0,0,0,1.65-1.651l-1.9-1.9a1.167,1.167,0,0,0-1.651,1.651Z" transform="translate(-190.212 -183.027)"/>
    <path id="Trazado_101789" data-name="Trazado 101789" d="M172.166,281.054a1.167,1.167,0,0,0,1.65-1.651l-3.229-3.229a1.167,1.167,0,1,0-1.651,1.651Z" transform="translate(-141.59 -231.651)"/>
    <path id="Trazado_101790" data-name="Trazado 101790" d="M54.8,391.966a1.167,1.167,0,0,0-1.651,1.651l3.229,3.229a1.167,1.167,0,0,0,1.65-1.651Z" transform="translate(-44.345 -328.895)"/>
    <path id="Trazado_101791" data-name="Trazado 101791" d="M110.822,339.744l-1.9-1.9a1.167,1.167,0,0,0-1.651,1.651l1.9,1.9a1.167,1.167,0,0,0,1.651-1.651Z" transform="translate(-89.8 -283.44)"/>
    <path id="Trazado_101792" data-name="Trazado 101792" d="M29.121,41.571a1.167,1.167,0,0,0,1.65-1.651L17.528,26.678l9.128-9.128L39.9,30.793a1.167,1.167,0,1,0,1.651-1.651L19.208,6.8A8.789,8.789,0,0,0,6.779,19.23ZM25.005,15.9l-9.128,9.128-2.452-2.452,9.128-9.128ZM8.43,8.451a6.462,6.462,0,0,1,9.128,0L20.9,11.8l-9.128,9.128L8.43,17.579A6.462,6.462,0,0,1,8.43,8.451Z" transform="translate(-3.531 -3.553)"/>
    <path id="Trazado_101793" data-name="Trazado 101793" d="M310.35,308.1h0l-2.808-5.815-6.615-13.7a1.168,1.168,0,0,0-.226-.318l-.038-.038-15-15a1.167,1.167,0,0,0-1.651,1.651l14.172,14.172-9.128,9.128-14.172-14.172a1.167,1.167,0,0,0-1.651,1.651l15,15,.038.038a1.164,1.164,0,0,0,.318.226L308.1,310.35a1.7,1.7,0,0,0,.739.171,1.691,1.691,0,0,0,1.639-2.042A1.742,1.742,0,0,0,310.35,308.1Zm-19.318-8.589,8.482-8.482,3.382,7-4.861,4.861Zm9.229,4.457,3.71-3.71,3.465,7.174Z" transform="translate(-229.183 -229.183)"/>
  </g>
</svg>
