<svg xmlns="http://www.w3.org/2000/svg" width="92.5" height="92.448" viewBox="0 0 92.5 92.448">
  <g id="Grupo_55577" data-name="Grupo 55577" transform="translate(-1175.808 -3062.531)">
    <g id="Grupo_55576" data-name="Grupo 55576" transform="translate(61 23.355)">
      <path id="Trazado_101716" data-name="Trazado 101716" d="M26.807,7.646H72.747a5.346,5.346,0,0,1,5.346,5.346V92.037a5.346,5.346,0,0,1-5.346,5.346h-59.9A5.346,5.346,0,0,1,7.5,92.037V26.953a5.345,5.345,0,0,1,1.566-3.78L23.027,9.212a5.346,5.346,0,0,1,3.78-1.566Z" transform="translate(1108.663 3034.24)" fill="#f4fbff"/>
      <path id="Trazado_101717" data-name="Trazado 101717" d="M316.667,7.646H305.2a5.346,5.346,0,0,1,5.346,5.346V92.037a5.346,5.346,0,0,1-5.346,5.346h11.463a5.346,5.346,0,0,0,5.346-5.346V12.992a5.346,5.346,0,0,0-5.346-5.346Z" transform="translate(864.743 3034.24)" fill="#e4f6ff"/>
      <path id="Trazado_101718" data-name="Trazado 101718" d="M11.243,25.352,25.2,11.39A5.344,5.344,0,0,1,26.77,10.3V23.6a3.314,3.314,0,0,1-3.314,3.314h-13.3A5.342,5.342,0,0,1,11.243,25.352Z" transform="translate(1106.485 3032.061)" fill="#9ddfd3"/>
    </g>
    <g id="Grupo_55573" data-name="Grupo 55573" transform="translate(1205.633 3099.252)">
      <g id="Grupo_55569" data-name="Grupo 55569">
        <g id="Grupo_55568" data-name="Grupo 55568">
          <g id="Grupo_55567" data-name="Grupo 55567">
            <g id="Grupo_55565" data-name="Grupo 55565" transform="translate(15.356)">
              <path id="Trazado_101719" data-name="Trazado 101719" d="M277.927,216.357a2.769,2.769,0,0,1-2.766-2.766V203.585a2.157,2.157,0,0,0-2.155-2.155H257.773a2.157,2.157,0,0,0-2.155,2.155v10.006a2.766,2.766,0,1,1-5.532,0V203.585a7.7,7.7,0,0,1,7.687-7.687h15.234a7.7,7.7,0,0,1,7.687,7.687v10.006A2.769,2.769,0,0,1,277.927,216.357Z" transform="translate(-250.086 -195.898)" fill="#407093"/>
            </g>
            <g id="Grupo_55566" data-name="Grupo 55566" transform="translate(0 12.824)">
              <path id="Trazado_101720" data-name="Trazado 101720" d="M220.449,309.784H171.044a5.957,5.957,0,0,1-5.957-5.957V272.838a5.957,5.957,0,0,1,5.957-5.957h49.405a5.957,5.957,0,0,1,5.957,5.957v30.988A5.957,5.957,0,0,1,220.449,309.784Z" transform="translate(-165.087 -266.881)" fill="#ddb7a0"/>
              <path id="Trazado_101721" data-name="Trazado 101721" d="M419.691,266.88h-11.43a5.957,5.957,0,0,1,5.957,5.957v30.988a5.957,5.957,0,0,1-5.957,5.957h11.43a5.957,5.957,0,0,0,5.957-5.957V272.837A5.957,5.957,0,0,0,419.691,266.88Z" transform="translate(-364.328 -266.88)" fill="#d6a889"/>
              <path id="Trazado_101722" data-name="Trazado 101722" d="M220.449,266.88H171.044a5.957,5.957,0,0,0-5.957,5.957v4.143a10.8,10.8,0,0,0,10.795,10.795h39.73a10.8,10.8,0,0,0,10.795-10.795v-4.143A5.957,5.957,0,0,0,220.449,266.88Z" transform="translate(-165.087 -266.88)" fill="#cc9675"/>
              <path id="Trazado_101723" data-name="Trazado 101723" d="M220.449,266.88H171.044a5.957,5.957,0,0,0-5.957,5.957v4.143a10.8,10.8,0,0,0,10.795,10.795h39.73a10.8,10.8,0,0,0,10.795-10.795v-4.143A5.957,5.957,0,0,0,220.449,266.88Z" transform="translate(-165.087 -266.88)" fill="#cc9675"/>
              <path id="Trazado_101724" data-name="Trazado 101724" d="M414.217,272.838v14.938h.635a10.8,10.8,0,0,0,10.795-10.795v-4.143a5.957,5.957,0,0,0-5.957-5.957H408.26A5.957,5.957,0,0,1,414.217,272.838Z" transform="translate(-364.327 -266.881)" fill="#c4845c"/>
            </g>
          </g>
        </g>
      </g>
      <g id="Grupo_55572" data-name="Grupo 55572" transform="translate(11.669 28.693)">
        <g id="Grupo_55570" data-name="Grupo 55570">
          <path id="Trazado_101725" data-name="Trazado 101725" d="M233.276,366.756a3.6,3.6,0,0,1-3.6-3.6v-4.844a3.6,3.6,0,1,1,7.194,0v4.844a3.6,3.6,0,0,1-3.6,3.6Z" transform="translate(-229.679 -354.719)" fill="#f4fbff"/>
        </g>
        <g id="Grupo_55571" data-name="Grupo 55571" transform="translate(30.787)">
          <path id="Trazado_101726" data-name="Trazado 101726" d="M403.686,366.756a3.6,3.6,0,0,1-3.6-3.6v-4.844a3.6,3.6,0,1,1,7.194,0v4.844A3.6,3.6,0,0,1,403.686,366.756Z" transform="translate(-400.089 -354.719)" fill="#f4fbff"/>
        </g>
      </g>
    </g>
    <g id="Grupo_55575" data-name="Grupo 55575" transform="translate(1175.808 3062.531)">
      <path id="Trazado_101727" data-name="Trazado 101727" d="M194.19,50.854H166.044a1.355,1.355,0,1,0,0,2.71H194.19a1.355,1.355,0,1,0,0-2.71Z" transform="translate(-134.936 -41.693)"/>
      <path id="Trazado_101728" data-name="Trazado 101728" d="M194.19,94.756H166.044a1.355,1.355,0,1,0,0,2.71H194.19a1.355,1.355,0,1,0,0-2.71Z" transform="translate(-134.936 -77.663)"/>
      <path id="Trazado_101729" data-name="Trazado 101729" d="M214.3,201.221h-8.044v-3.783a9.052,9.052,0,0,0-9.042-9.042H181.984a9.052,9.052,0,0,0-9.042,9.042v3.783H164.9a7.312,7.312,0,0,0-7.312,7.312v30.988a7.321,7.321,0,0,0,7.312,7.312H214.3a7.321,7.321,0,0,0,7.312-7.312V233.65a1.355,1.355,0,1,0-2.71,0v5.872a4.608,4.608,0,0,1-4.6,4.6H164.9a4.608,4.608,0,0,1-4.6-4.6v-19.2a12.136,12.136,0,0,0,8.96,4.5v2.069a4.952,4.952,0,1,0,9.9,0v-2.059h20.883v2.059a4.952,4.952,0,1,0,9.9,0v-2.069a12.136,12.136,0,0,0,8.96-4.5v7a1.355,1.355,0,0,0,2.71,0V208.533a7.312,7.312,0,0,0-7.312-7.312Zm-38.651-3.783a6.339,6.339,0,0,1,6.332-6.332h15.234a6.339,6.339,0,0,1,6.332,6.332v3.783h-2.822v-3.783a3.514,3.514,0,0,0-3.51-3.51H181.984a3.514,3.514,0,0,0-3.51,3.51v3.783h-2.822Zm5.532,3.783v-3.783a.8.8,0,0,1,.8-.8h15.234a.8.8,0,0,1,.8.8v3.783Zm-4.735,25.665a2.242,2.242,0,1,1-4.484,0v-4.844a2.242,2.242,0,1,1,4.484,0Zm30.787,0a2.242,2.242,0,1,1-4.484,0v-3.4s0-.009,0-.014,0-.009,0-.014v-1.415a2.242,2.242,0,1,1,4.484,0Zm2.71-4.781v-.062a4.952,4.952,0,1,0-9.9,0v.074H179.159v-.074a4.952,4.952,0,1,0-9.9,0v.062a9.452,9.452,0,0,1-8.96-9.428v-4.143a4.6,4.6,0,0,1,4.6-4.6H214.3a4.6,4.6,0,0,1,4.6,4.6v4.143A9.452,9.452,0,0,1,209.946,222.1Z" transform="translate(-129.116 -154.387)"/>
      <path id="Trazado_101730" data-name="Trazado 101730" d="M26.723,89.883H6.7A4,4,0,0,1,2.71,85.892V20.808a4.017,4.017,0,0,1,.092-.859H15.133A4.675,4.675,0,0,0,19.8,15.28V2.948a4.029,4.029,0,0,1,.859-.092H66.6a4,4,0,0,1,3.991,3.991V30.095a1.355,1.355,0,1,0,2.71,0V6.847a6.708,6.708,0,0,0-6.7-6.7H20.662a6.657,6.657,0,0,0-4.738,1.962L1.962,16.07A6.657,6.657,0,0,0,0,20.808V85.892a6.708,6.708,0,0,0,6.7,6.7H26.723a1.355,1.355,0,0,0,0-2.71ZM17.093,4.772V15.28a1.961,1.961,0,0,1-1.959,1.959H4.626Z" transform="translate(0 -0.146)"/>
    </g>
  </g>
</svg>
