<svg xmlns="http://www.w3.org/2000/svg" width="88.629" height="93.978" viewBox="0 0 88.629 93.978">
  <g id="Grupo_55550" data-name="Grupo 55550" transform="translate(-1180.712 -2158.5)">
    <g id="lista-de-verificacion-3" transform="translate(1180.712 2158.5)">
      <g id="Grupo_55544" data-name="Grupo 55544" transform="translate(1.377 1.377)">
        <g id="Grupo_55539" data-name="Grupo 55539">
          <path id="Trazado_101630" data-name="Trazado 101630" d="M85.537,7.5H30.42a8.35,8.35,0,0,0-8.35,8.35V90.374a8.35,8.35,0,0,0,8.35,8.35H85.537a8.35,8.35,0,0,0,8.35-8.35V15.85A8.35,8.35,0,0,0,85.537,7.5Z" transform="translate(-22.07 -7.5)" fill="#f7f4f7"/>
        </g>
        <path id="Trazado_101631" data-name="Trazado 101631" d="M314.509,7.5H302.518a8.35,8.35,0,0,1,8.35,8.35V90.374a8.35,8.35,0,0,1-8.35,8.35h11.991a8.35,8.35,0,0,0,8.35-8.35V15.85A8.35,8.35,0,0,0,314.509,7.5Z" transform="translate(-251.042 -7.5)" fill="#e0dde0"/>
        <g id="Grupo_55543" data-name="Grupo 55543" transform="translate(8.679 11.379)">
          <g id="Grupo_55540" data-name="Grupo 55540">
            <path id="Trazado_101632" data-name="Trazado 101632" d="M72.023,86.967H84.152A2.671,2.671,0,0,0,86.823,84.3V72.167A2.671,2.671,0,0,0,84.152,69.5H72.023a2.671,2.671,0,0,0-2.671,2.671V84.3a2.671,2.671,0,0,0,2.671,2.671Z" transform="translate(-69.352 -69.496)" fill="#edfff6"/>
          </g>
          <g id="Grupo_55541" data-name="Grupo 55541" transform="translate(0 25.497)">
            <path id="Trazado_101633" data-name="Trazado 101633" d="M72.023,225.879H84.152a2.671,2.671,0,0,0,2.671-2.671V211.079a2.671,2.671,0,0,0-2.671-2.671H72.023a2.671,2.671,0,0,0-2.671,2.671v12.129A2.671,2.671,0,0,0,72.023,225.879Z" transform="translate(-69.352 -208.408)" fill="#edfff6"/>
          </g>
          <g id="Grupo_55542" data-name="Grupo 55542" transform="translate(0 50.994)">
            <path id="Trazado_101634" data-name="Trazado 101634" d="M72.023,364.79H84.152a2.671,2.671,0,0,0,2.671-2.671V349.99a2.671,2.671,0,0,0-2.671-2.671H72.023a2.671,2.671,0,0,0-2.671,2.671v12.129A2.671,2.671,0,0,0,72.023,364.79Z" transform="translate(-69.352 -347.319)" fill="#edfff6"/>
          </g>
        </g>
      </g>
      <g id="Grupo_55548" data-name="Grupo 55548" transform="translate(48.674 12.981)">
        <g id="Grupo_55546" data-name="Grupo 55546">
          <g id="Grupo_55545" data-name="Grupo 55545">
            <path id="Trazado_101635" data-name="Trazado 101635" d="M279.754,139.858l.064,9.456a1.031,1.031,0,0,0,1.729.753l6.969-6.393a11.207,11.207,0,0,0,2.7-3.783l26.637-61.135a5.741,5.741,0,0,0-10.527-4.587l-26.637,61.135a11.205,11.205,0,0,0-.933,4.553Z" transform="translate(-279.754 -70.721)" fill="#ffc93c"/>
          </g>
        </g>
        <path id="Trazado_101636" data-name="Trazado 101636" d="M290.579,434.211,280.215,429.7a11.2,11.2,0,0,0-.462,3.247l.063,9.456a1.031,1.031,0,0,0,1.729.753l6.969-6.393A11.209,11.209,0,0,0,290.579,434.211Z" transform="translate(-279.754 -363.806)" fill="#a87f7f"/>
        <path id="Trazado_101637" data-name="Trazado 101637" d="M0,0H6.173V11.483H0Z" transform="translate(22.5 14.993) rotate(-66.485)" fill="#f7f4f7"/>
        <g id="Grupo_55547" data-name="Grupo 55547" transform="translate(24.994 0)">
          <path id="Trazado_101638" data-name="Trazado 101638" d="M426.058,71.2a5.741,5.741,0,0,0-7.557,2.97l-2.576,5.912,10.527,4.587,2.576-5.912A5.741,5.741,0,0,0,426.058,71.2Z" transform="translate(-415.925 -70.721)" fill="#cc3d60"/>
        </g>
      </g>
      <g id="Grupo_55549" data-name="Grupo 55549" transform="translate(0)">
        <path id="Trazado_101639" data-name="Trazado 101639" d="M97.489,105.156a1.377,1.377,0,0,0,1.956-.15l3.351-3.972a1.377,1.377,0,0,0-2.1-1.775l-2.449,2.9-.859-.748a1.377,1.377,0,1,0-1.809,2.076Z" transform="translate(-80.322 -80.64)"/>
        <path id="Trazado_101640" data-name="Trazado 101640" d="M102.633,238a1.377,1.377,0,0,0-1.94.164l-2.449,2.9-.859-.748a1.377,1.377,0,1,0-1.809,2.076l1.913,1.667a1.377,1.377,0,0,0,1.956-.15l3.351-3.972a1.377,1.377,0,0,0-.164-1.94Z" transform="translate(-80.322 -194.054)"/>
        <path id="Trazado_101641" data-name="Trazado 101641" d="M102.633,376.916a1.377,1.377,0,0,0-1.94.164l-2.449,2.9-.859-.748a1.377,1.377,0,1,0-1.809,2.076l1.913,1.667a1.377,1.377,0,0,0,1.956-.15l3.351-3.972a1.377,1.377,0,0,0-.164-1.94Z" transform="translate(-80.322 -307.468)"/>
        <path id="Trazado_101642" data-name="Trazado 101642" d="M201.4,94.077h29.1a1.377,1.377,0,0,0,0-2.753H201.4a1.377,1.377,0,0,0,0,2.753Z" transform="translate(-165.983 -74.561)"/>
        <path id="Trazado_101643" data-name="Trazado 101643" d="M201.4,130.607h29.1a1.377,1.377,0,0,0,0-2.753H201.4a1.377,1.377,0,0,0,0,2.753Z" transform="translate(-165.983 -104.386)"/>
        <path id="Trazado_101644" data-name="Trazado 101644" d="M78.029,62H65.9a4.052,4.052,0,0,0-4.048,4.048v2.712a1.377,1.377,0,0,0,2.753,0V66.044A1.3,1.3,0,0,1,65.9,64.749H78.029a1.3,1.3,0,0,1,1.294,1.295V78.173a1.3,1.3,0,0,1-1.294,1.294H65.9a1.3,1.3,0,0,1-1.295-1.294V75.326a1.377,1.377,0,1,0-2.753,0v2.847A4.052,4.052,0,0,0,65.9,82.221H78.029a4.052,4.052,0,0,0,4.048-4.048V66.044A4.053,4.053,0,0,0,78.029,62Z" transform="translate(-53.173 -50.617)"/>
        <path id="Trazado_101645" data-name="Trazado 101645" d="M78.029,200.907H65.9a4.052,4.052,0,0,0-4.048,4.048v12.129a4.052,4.052,0,0,0,4.048,4.048H78.029a4.052,4.052,0,0,0,4.048-4.048V204.955A4.052,4.052,0,0,0,78.029,200.907Zm1.294,16.177a1.3,1.3,0,0,1-1.294,1.294H65.9a1.3,1.3,0,0,1-1.295-1.294V204.955A1.3,1.3,0,0,1,65.9,203.66H78.029a1.3,1.3,0,0,1,1.294,1.295v12.129Z" transform="translate(-53.173 -164.031)"/>
        <path id="Trazado_101646" data-name="Trazado 101646" d="M78.029,339.818H65.9a4.052,4.052,0,0,0-4.048,4.048v12.129a4.052,4.052,0,0,0,4.048,4.048H78.029a4.052,4.052,0,0,0,4.048-4.048V343.866A4.053,4.053,0,0,0,78.029,339.818Zm1.294,16.177a1.3,1.3,0,0,1-1.294,1.294H65.9a1.3,1.3,0,0,1-1.295-1.294V343.866a1.3,1.3,0,0,1,1.295-1.295H78.029a1.3,1.3,0,0,1,1.294,1.295v12.129Z" transform="translate(-53.173 -277.444)"/>
        <path id="Trazado_101647" data-name="Trazado 101647" d="M98.921,12.2a7.127,7.127,0,0,0-9.369,3.682l-.412.945v-7.1A9.738,9.738,0,0,0,79.414,0H24.3A9.738,9.738,0,0,0,14.57,9.727V84.251A9.738,9.738,0,0,0,24.3,93.978H79.414a9.738,9.738,0,0,0,9.727-9.727V52.467l13.463-30.9A7.114,7.114,0,0,0,98.921,12.2ZM64.028,74.462H49.986a1.377,1.377,0,1,0,0,2.753H62.834a12.51,12.51,0,0,0-.967,4.912h0l.061,9.1H24.3a6.981,6.981,0,0,1-6.973-6.973V9.727A6.981,6.981,0,0,1,24.3,2.753H79.414a6.981,6.981,0,0,1,6.973,6.973V23.145L78.059,42.26H49.987a1.377,1.377,0,1,0,0,2.753H76.859l-1.722,3.952H49.987a1.377,1.377,0,1,0,0,2.753H73.938L66.949,67.757H49.987a1.377,1.377,0,1,0,0,2.753H65.75Zm.593,7.647a9.884,9.884,0,0,1,.08-1.3l7.273,3.169a9.882,9.882,0,0,1-.9.946l-6.4,5.866Zm21.766,2.142a6.981,6.981,0,0,1-6.973,6.973H68.276l4.66-4.274A12.513,12.513,0,0,0,75.967,82.7l10.42-23.917ZM73.443,81.6l0,.007L70.7,80.416l6.48-14.872a1.377,1.377,0,0,0-2.524-1.1l-6.48,14.872-2.739-1.193,0-.007,21.046-48.3,2.739,1.193-12,27.538a1.377,1.377,0,0,0,2.524,1.1l12-27.538L94.488,33.3,73.443,81.6ZM95.588,30.776l-8-3.487,1.366-3.135,8,3.487Zm4.492-10.309-2.026,4.649-8-3.487,2.026-4.65a4.365,4.365,0,1,1,8,3.487Z" transform="translate(-14.57)"/>
      </g>
    </g>
  </g>
</svg>
