<svg xmlns="http://www.w3.org/2000/svg" width="81.413" height="93.977" viewBox="0 0 81.413 93.977">
  <g id="XMLID_2919_" transform="translate(-34.227 0)">
    <path id="XMLID_1791_" d="M49.117,66.136a47.073,47.073,0,0,1-4.886-20.952,35.81,35.81,0,0,1,71.615.623l6.038,19.659a1.824,1.824,0,0,1-1.744,2.36h-8.248V77.961A10.594,10.594,0,0,1,101.3,88.556H89.174L85.809,100.3H48.732L51.68,88.076a32.281,32.281,0,0,0-2.563-21.94Z" transform="translate(-8.164 -8.162)" fill="#9ddfd3"/>
    <g id="XMLID_2230_" transform="translate(34.227 0)">
      <path id="XMLID_2240_" d="M4.405,0A4.405,4.405,0,1,1,0,4.405,4.405,4.405,0,0,1,4.405,0Z" transform="translate(15.311 44.051)" fill="#cc3d60"/>
      <path id="XMLID_2239_" d="M4.405,0A4.405,4.405,0,1,1,0,4.405,4.405,4.405,0,0,1,4.405,0Z" transform="translate(32.932 44.051)" fill="#edfff6"/>
      <path id="XMLID_2238_" d="M4.405,0A4.405,4.405,0,1,1,0,4.405,4.405,4.405,0,0,1,4.405,0Z" transform="translate(50.553 44.051)" fill="#ffc93c"/>
      <path id="XMLID_2232_" d="M181.645,88H202.2V99.744H181.645Z" transform="translate(-154.587 -71.845)" fill="#ffc93c"/>
      <g id="XMLID_1263_" transform="translate(0 0)">
        <path id="XMLID_1294_" d="M192.92,56.766l-5.958-19.4a37.7,37.7,0,0,0-56.985-32.06,1.835,1.835,0,0,0,1.882,3.152,34.027,34.027,0,0,1,51.433,29.186,1.831,1.831,0,0,0,.081.539l6.033,19.645h-8.233a1.836,1.836,0,0,0-1.835,1.835V69.8a8.769,8.769,0,0,1-8.759,8.759H156.561a16.231,16.231,0,0,1-11.553-4.785,1.836,1.836,0,0,0-2.6,2.6,19.869,19.869,0,0,0,13.61,5.853l-2.7,9.414a1.835,1.835,0,1,0,3.529,1.011l2.984-10.417h10.741a12.444,12.444,0,0,0,12.43-12.43V61.5h6.413a3.66,3.66,0,0,0,3.5-4.734Z" transform="translate(-111.672 0)"/>
        <path id="XMLID_1577_" d="M37.9,110.271A33.976,33.976,0,0,1,43.239,92.5a1.835,1.835,0,1,0-3.091-1.98,37.639,37.639,0,0,0-5.916,19.685,48.827,48.827,0,0,0,5.077,21.8A30.517,30.517,0,0,1,41.732,152.7l-2.948,12.227a1.835,1.835,0,1,0,3.569.86L45.3,153.562a34.193,34.193,0,0,0-2.7-23.187,45.038,45.038,0,0,1-4.694-20.1Z" transform="translate(-34.227 -73.218)"/>
        <path id="XMLID_1578_" d="M96.5,55.4A1.836,1.836,0,0,0,93.9,58l0,0A1.836,1.836,0,1,0,96.5,55.4Z" transform="translate(-82.51 -44.794)"/>
        <path id="XMLID_1581_" d="M115.768,106.187v-4.7h13.909v4.679a6.24,6.24,0,1,0,3.671,0v-4.683h13.944v4.681a6.241,6.241,0,1,0,3.671,0V99.656a1.836,1.836,0,0,0-1.835-1.835h-15.78V93.415h8.438a1.836,1.836,0,0,0,1.835-1.835V79.832A1.836,1.836,0,0,0,141.785,78H121.228a1.836,1.836,0,0,0-1.835,1.835V91.58a1.836,1.836,0,0,0,1.835,1.835h8.449V97.82H113.932a1.836,1.836,0,0,0-1.835,1.835v6.5a6.24,6.24,0,1,0,3.671.028Zm15.738,8.52a2.57,2.57,0,1,1,2.57-2.57A2.573,2.573,0,0,1,131.506,114.707Zm17.621,0a2.57,2.57,0,1,1,2.57-2.57A2.573,2.573,0,0,1,149.127,114.707ZM123.063,81.668H139.95v8.076H123.063Zm-9.177,33.039a2.57,2.57,0,1,1,2.57-2.57A2.573,2.573,0,0,1,113.886,114.707Z" transform="translate(-94.169 -63.681)"/>
      </g>
    </g>
  </g>
</svg>
