<svg xmlns="http://www.w3.org/2000/svg" width="83.851" height="96.701" viewBox="0 0 83.851 96.701">
  <g id="lista-de-verificacion-2" transform="translate(-34.02)">
    <g id="Grupo_55533" data-name="Grupo 55533" transform="translate(35.436 1.417)">
      <g id="Grupo_55532" data-name="Grupo 55532" transform="translate(0)">
        <g id="Grupo_55529" data-name="Grupo 55529">
          <g id="Grupo_55526" data-name="Grupo 55526">
            <path id="Trazado_101585" data-name="Trazado 101585" d="M104.778,134.536h-59.8a3.467,3.467,0,0,1-3.467-3.467V51.858a3.467,3.467,0,0,1,3.467-3.467h59.8a3.467,3.467,0,0,1,3.467,3.467v79.21A3.467,3.467,0,0,1,104.778,134.536Z" transform="translate(-41.515 -40.668)" fill="#ffc93c"/>
            <path id="Trazado_101586" data-name="Trazado 101586" d="M326.631,48.39H315.026a3.467,3.467,0,0,1,3.467,3.467v79.21a3.467,3.467,0,0,1-3.467,3.467h11.605a3.467,3.467,0,0,0,3.467-3.467V51.858a3.467,3.467,0,0,0-3.467-3.468Z" transform="translate(-263.368 -40.667)" fill="#eab14d"/>
            <path id="Trazado_101587" data-name="Trazado 101587" d="M71.522,151.969V79.637A1.239,1.239,0,0,1,72.761,78.4h52.917a1.239,1.239,0,0,1,1.239,1.239v72.331a1.239,1.239,0,0,1-1.239,1.239H72.762a1.239,1.239,0,0,1-1.24-1.239Z" transform="translate(-65.855 -65.008)" fill="#f5f5f5"/>
            <path id="Trazado_101588" data-name="Trazado 101588" d="M308.421,78.4H296.816a1.239,1.239,0,0,1,1.239,1.239v72.331a1.239,1.239,0,0,1-1.239,1.239h11.605a1.239,1.239,0,0,0,1.239-1.239V79.637A1.239,1.239,0,0,0,308.421,78.4Z" transform="translate(-248.597 -65.008)" fill="#eaeaea"/>
            <path id="Trazado_101589" data-name="Trazado 101589" d="M161.6,11.815V9.99a2.49,2.49,0,0,0-2.49-2.49h-9.753a2.49,2.49,0,0,0-2.49,2.49v1.825a1.018,1.018,0,0,1-1.018,1.018h-4.059a2.445,2.445,0,0,0-2.445,2.445V20.89h29.777V15.279a2.445,2.445,0,0,0-2.445-2.445h-4.059A1.018,1.018,0,0,1,161.6,11.815Z" transform="translate(-120.867 -7.5)" fill="#c2d0da"/>
          </g>
          <g id="Grupo_55528" data-name="Grupo 55528" transform="translate(12.877 20.407)">
            <g id="Grupo_55527" data-name="Grupo 55527">
              <path id="Trazado_101590" data-name="Trazado 101590" d="M109.694,128.653V117.738a2.19,2.19,0,0,1,2.19-2.19H122.8a2.19,2.19,0,0,1,2.19,2.19v10.916a2.19,2.19,0,0,1-2.19,2.19H111.884A2.19,2.19,0,0,1,109.694,128.653Z" transform="translate(-109.694 -115.548)" fill="#9ddfd3"/>
              <path id="Trazado_101591" data-name="Trazado 101591" d="M109.694,249.06V238.145a2.19,2.19,0,0,1,2.19-2.19H122.8a2.19,2.19,0,0,1,2.19,2.19V249.06a2.19,2.19,0,0,1-2.19,2.19H111.884A2.19,2.19,0,0,1,109.694,249.06Z" transform="translate(-109.694 -213.214)" fill="#9ddfd3"/>
              <path id="Trazado_101592" data-name="Trazado 101592" d="M109.694,369.465V358.55a2.19,2.19,0,0,1,2.19-2.19H122.8a2.19,2.19,0,0,1,2.19,2.19v10.915a2.19,2.19,0,0,1-2.19,2.19H111.884A2.19,2.19,0,0,1,109.694,369.465Z" transform="translate(-109.694 -310.878)" fill="#9ddfd3"/>
            </g>
          </g>
        </g>
        <g id="Grupo_55531" data-name="Grupo 55531" transform="translate(36.545 22.008)">
          <g id="Grupo_55530" data-name="Grupo 55530" transform="translate(2.326)">
            <path id="Trazado_101593" data-name="Trazado 101593" d="M283.966,179.933l-1.391-1.832-5.2-3.3-2-.315L248.724,216.6a10.969,10.969,0,0,0-1.4,3.3,8.583,8.583,0,0,1,7.607,4.817,10.966,10.966,0,0,0,2.384-2.672Z" transform="translate(-247.328 -164.959)" fill="#cc3d60"/>
            <path id="Trazado_101594" data-name="Trazado 101594" d="M420.461,126.034l-2.249-1.424a3.756,3.756,0,0,0-5.183,1.165l-2.062,3.259.658,1.326,6.257,3.962,1.68.154,2.063-3.261A3.756,3.756,0,0,0,420.461,126.034Z" transform="translate(-380.061 -124.027)" fill="#8c9ba6"/>
          </g>
          <path id="Trazado_101595" data-name="Trazado 101595" d="M0,0H5.354V10.174H0Z" transform="matrix(0.535, -0.845, 0.845, 0.535, 30.373, 9.519)" fill="#c9e2e7"/>
          <path id="Trazado_101596" data-name="Trazado 101596" d="M244.945,419.712l-7.587,6.114a1.44,1.44,0,0,1-2.3-1.458l2.283-9.473A8.583,8.583,0,0,1,244.945,419.712Z" transform="translate(-235.011 -359.959)" fill="#7c8b96"/>
        </g>
      </g>
    </g>
    <g id="Grupo_55536" data-name="Grupo 55536" transform="translate(34.02 0)">
      <g id="Grupo_55535" data-name="Grupo 55535" transform="translate(0 0)">
        <g id="Grupo_55534" data-name="Grupo 55534">
          <path id="Trazado_101597" data-name="Trazado 101597" d="M134.982,135.615a1.417,1.417,0,0,0-1.981.3l-2.8,3.809-.959-1.317a1.417,1.417,0,1,0-2.291,1.668l1.654,2.271a1.976,1.976,0,0,0,1.587.81h0a1.976,1.976,0,0,0,1.586-.8l3.5-4.76a1.417,1.417,0,0,0-.3-1.981Z" transform="translate(-109.176 -109.777)"/>
          <path id="Trazado_101598" data-name="Trazado 101598" d="M134.981,258.642a1.416,1.416,0,0,0-1.981.3l-2.8,3.809-.959-1.317a1.417,1.417,0,1,0-2.291,1.668l1.654,2.272a1.976,1.976,0,0,0,1.587.81h0a1.976,1.976,0,0,0,1.586-.8l3.5-4.76A1.417,1.417,0,0,0,134.981,258.642Z" transform="translate(-109.176 -209.568)"/>
          <path id="Trazado_101599" data-name="Trazado 101599" d="M134.981,376.426a1.417,1.417,0,0,0-1.981.3l-2.8,3.809-.959-1.317a1.417,1.417,0,1,0-2.291,1.668l1.654,2.272a1.976,1.976,0,0,0,1.587.81h0a1.976,1.976,0,0,0,1.586-.8l3.5-4.76A1.417,1.417,0,0,0,134.981,376.426Z" transform="translate(-109.176 -305.107)"/>
          <path id="Trazado_101600" data-name="Trazado 101600" d="M221.942,135.7h17.511a1.417,1.417,0,0,0,0-2.834H221.942a1.417,1.417,0,0,0,0,2.834Z" transform="translate(-185.3 -107.773)"/>
          <path id="Trazado_101601" data-name="Trazado 101601" d="M221.942,167.042H230.7a1.417,1.417,0,0,0,0-2.834h-8.756a1.417,1.417,0,0,0,0,2.834Z" transform="translate(-185.3 -133.194)"/>
          <path id="Trazado_101602" data-name="Trazado 101602" d="M221.942,256.106h11.749a1.417,1.417,0,0,0,0-2.834H221.942a1.417,1.417,0,0,0,0,2.834Z" transform="translate(-185.3 -205.437)"/>
          <path id="Trazado_101603" data-name="Trazado 101603" d="M230.7,287.448a1.417,1.417,0,0,0,0-2.834h-8.756a1.417,1.417,0,0,0,0,2.834Z" transform="translate(-185.3 -230.859)"/>
          <path id="Trazado_101604" data-name="Trazado 101604" d="M116.719,108.047H105.8a3.611,3.611,0,0,0-3.607,3.607v10.915a3.611,3.611,0,0,0,3.607,3.607h10.916a3.611,3.611,0,0,0,3.607-3.607V111.654A3.611,3.611,0,0,0,116.719,108.047Zm.773,14.522a.774.774,0,0,1-.773.773H105.8a.774.774,0,0,1-.773-.773V111.654a.774.774,0,0,1,.773-.773h10.916a.774.774,0,0,1,.773.773Z" transform="translate(-89.32 -87.64)"/>
          <path id="Trazado_101605" data-name="Trazado 101605" d="M116.719,228.453H105.8a3.611,3.611,0,0,0-3.607,3.607v10.916a3.611,3.611,0,0,0,3.607,3.607h10.916a3.611,3.611,0,0,0,3.607-3.607V232.06A3.611,3.611,0,0,0,116.719,228.453Zm.773,14.522a.774.774,0,0,1-.773.773H105.8a.774.774,0,0,1-.773-.773V232.06a.774.774,0,0,1,.773-.773h10.916a.774.774,0,0,1,.773.773Z" transform="translate(-89.32 -185.305)"/>
          <path id="Trazado_101606" data-name="Trazado 101606" d="M116.719,348.857H105.8a3.611,3.611,0,0,0-3.607,3.607v10.915a3.611,3.611,0,0,0,3.607,3.607h10.916a3.611,3.611,0,0,0,3.607-3.607V352.464A3.611,3.611,0,0,0,116.719,348.857Zm.773,14.522a.774.774,0,0,1-.773.773H105.8a.774.774,0,0,1-.773-.773V352.464a.774.774,0,0,1,.773-.773h10.916a.774.774,0,0,1,.773.773Z" transform="translate(-89.32 -282.969)"/>
          <path id="Trazado_101607" data-name="Trazado 101607" d="M115.467,24.235l-2.249-1.424a5.173,5.173,0,0,0-7.139,1.6l-2.062,3.258L101.154,32.2l-3.238,5.117V16.047A2.659,2.659,0,0,0,95.26,13.39H85.107V10.557H98.7a2.053,2.053,0,0,1,2.051,2.051v12.27a1.417,1.417,0,0,0,2.834,0V12.607A4.89,4.89,0,0,0,98.7,7.723H84.814a3.867,3.867,0,0,0-3.569-2.389h-3.66V3.907A3.911,3.911,0,0,0,73.678,0H63.925a3.911,3.911,0,0,0-3.907,3.907V5.334h-3.66A3.866,3.866,0,0,0,52.79,7.723H38.9a4.89,4.89,0,0,0-4.884,4.884V91.817A4.89,4.89,0,0,0,38.9,96.7H98.7a4.89,4.89,0,0,0,4.884-4.884V60.048a1.417,1.417,0,1,0-2.834,0V91.817A2.053,2.053,0,0,1,98.7,93.867H38.9a2.053,2.053,0,0,1-2.051-2.051V12.607A2.053,2.053,0,0,1,38.9,10.557H52.5V13.39H42.344a2.659,2.659,0,0,0-2.656,2.656V88.377a2.659,2.659,0,0,0,2.656,2.656H95.26a2.659,2.659,0,0,0,2.656-2.656V61.639l14.228-22.482h0l2.862-4.523,2.063-3.26a5.179,5.179,0,0,0-1.6-7.136Zm-5.529.664a2.321,2.321,0,0,1,1.764.306l2.249,1.424a2.342,2.342,0,0,1,.725,3.227l-1.305,2.063-6.2-3.927,1.3-2.062a2.323,2.323,0,0,1,1.464-1.032ZM83.1,79.748a9.536,9.536,0,0,1-.9,1.2A9.96,9.96,0,0,0,80.7,79.332L107.1,37.64l1.891,1.2ZM73.428,88.2a.19.19,0,0,0-.027-.01h0l2-8.313a7.133,7.133,0,0,1,4.678,2.962c-7.5,6.045-6.545,5.263-6.651,5.36Zm32.226-57.811,6.2,3.927-1.348,2.13-6.2-3.927ZM55.33,9.227c0-.017,0-.035,0-.052s0-.012,0-.018a1.029,1.029,0,0,1,1.026-.99h4.059a2.438,2.438,0,0,0,2.435-2.435V3.907a1.074,1.074,0,0,1,1.073-1.073h9.753a1.074,1.074,0,0,1,1.073,1.073V5.732a2.438,2.438,0,0,0,2.435,2.435h4.059a1.028,1.028,0,0,1,1.026.99c0,.006,0,.012,0,.018s0,.035,0,.052V13.39H55.33Zm-12.809,7H95.082V41.793L80.253,65.226a1.417,1.417,0,1,0,2.394,1.515l20.143-31.83,1.916,1.213-26.4,41.692a9.949,9.949,0,0,0-2.1-.672,9.58,9.58,0,0,1,.7-1.323l2.2-3.48a1.417,1.417,0,1,0-2.394-1.515l-2.2,3.48a12.361,12.361,0,0,0-1.577,3.724h0L70.648,87.5a2.941,2.941,0,0,0-.082.7H42.521ZM95.082,88.2H77.942L82.8,84.281A12.357,12.357,0,0,0,85.5,81.264l9.585-15.147Z" transform="translate(-34.02 0)"/>
        </g>
      </g>
    </g>
  </g>
</svg>
