<svg xmlns="http://www.w3.org/2000/svg" width="93.79" height="93.423" viewBox="0 0 93.79 93.423">
  <g id="conferencia" transform="translate(0 -1)">
    <g id="Grupo_55578" data-name="Grupo 55578" transform="translate(34.347 2.832)">
      <path id="Trazado_101731" data-name="Trazado 101731" d="M200.047,11A12.585,12.585,0,0,0,187.5,23.546v3.287c6.885-9.97,12.4-.036,25.09,0V23.546A12.581,12.581,0,0,0,200.047,11Z" transform="translate(-187.502 -11)" fill="#727997" fill-rule="evenodd"/>
    </g>
    <g id="Grupo_55579" data-name="Grupo 55579" transform="translate(34.347 14.226)">
      <path id="Trazado_101732" data-name="Trazado 101732" d="M212.593,77.639c-12.685-.036-18.2-9.97-25.09,0V82.1c0,2.846,1.958,5.593,4.491,7.639,2.576,2.093,5.753,3.453,8.054,3.453s5.478-1.361,8.059-3.453c2.529-2.046,4.486-4.793,4.486-7.639V77.639Z" transform="translate(-187.503 -73.199)" fill="#ffdcd5" fill-rule="evenodd"/>
    </g>
    <g id="Grupo_55580" data-name="Grupo 55580" transform="translate(34.347 30.765)">
      <path id="Trazado_101733" data-name="Trazado 101733" d="M191.993,163.485l-4.491,4.591,8.214,7.576,4.33-8.714C197.747,166.938,194.569,165.578,191.993,163.485Z" transform="translate(-187.502 -163.485)" fill="#ebddd9" fill-rule="evenodd"/>
    </g>
    <g id="Grupo_55581" data-name="Grupo 55581" transform="translate(25.982 34.218)">
      <path id="Trazado_101734" data-name="Trazado 101734" d="M158.417,191.051l-8.214-7.576c-7.233,3.35-8.365,7.971-8.365,19.271h41.82c0-11.3-1.132-15.922-8.365-19.271l-8.214,7.576-4.331-8.714Z" transform="translate(-141.837 -182.337)" fill="#cc3d60" fill-rule="evenodd"/>
    </g>
    <g id="Grupo_55582" data-name="Grupo 55582" transform="translate(46.892 30.765)">
      <path id="Trazado_101735" data-name="Trazado 101735" d="M264.045,163.485c-2.581,2.093-5.753,3.453-8.059,3.453l4.331,8.714,8.214-7.576Z" transform="translate(-255.986 -163.485)" fill="#ebddd9" fill-rule="evenodd"/>
    </g>
    <g id="Grupo_55583" data-name="Grupo 55583" transform="translate(2.071 54.626)">
      <path id="Trazado_101736" data-name="Trazado 101736" d="M35.215,293.745H14.087a3.026,3.026,0,0,0-2.783,1.849v5.5a3.026,3.026,0,0,0,2.783,1.849H98.169a3.028,3.028,0,0,0,3.022-3.022v-3.157a3.032,3.032,0,0,0-3.022-3.022H35.215Z" transform="translate(-11.304 -293.745)" fill="#ffcd69" fill-rule="evenodd"/>
    </g>
    <g id="Grupo_55584" data-name="Grupo 55584" transform="translate(8.52 63.828)">
      <path id="Trazado_101737" data-name="Trazado 101737" d="M123.26,343.979H46.51l7,27.419c.223.883.478,1.345,1.288,1.345h60.165c.81,0,1.059-.462,1.288-1.345Zm-58.3,17.589v-6.413a2.339,2.339,0,0,1,2.337-2.332h35.169a2.343,2.343,0,0,1,2.337,2.332v6.413a2.344,2.344,0,0,1-2.337,2.337H67.3A2.34,2.34,0,0,1,64.964,361.568Z" transform="translate(-46.51 -343.979)" fill="#ffc93c" fill-rule="evenodd"/>
    </g>
    <g id="Grupo_55585" data-name="Grupo 55585" transform="translate(26.974 72.671)">
      <path id="Trazado_101738" data-name="Trazado 101738" d="M184.756,392.256H149.588a2.339,2.339,0,0,0-2.337,2.332V401a2.34,2.34,0,0,0,2.337,2.337h35.169A2.344,2.344,0,0,0,187.093,401v-6.413A2.343,2.343,0,0,0,184.756,392.256Z" transform="translate(-147.251 -392.256)" fill="#dbf6e9" fill-rule="evenodd"/>
    </g>
    <g id="Grupo_55586" data-name="Grupo 55586" transform="translate(11.392 29.469)">
      <path id="Trazado_101739" data-name="Trazado 101739" d="M64.847,157.873l-1.708,2.036a4.1,4.1,0,1,0,6.283,5.266l1.708-2.036a4.1,4.1,0,1,0-6.283-5.266Z" transform="translate(-62.189 -156.41)" fill="#ebddd9" fill-rule="evenodd"/>
    </g>
    <g id="Grupo_55587" data-name="Grupo 55587" transform="translate(72.503 29.469)">
      <path id="Trazado_101740" data-name="Trazado 101740" d="M397.254,157.363a4.114,4.114,0,0,0-.5,5.774l1.7,2.036a4.1,4.1,0,1,0,6.283-5.266l-1.708-2.036A4.108,4.108,0,0,0,397.254,157.363Z" transform="translate(-395.797 -156.41)" fill="#ebddd9" fill-rule="evenodd"/>
    </g>
    <g id="Grupo_55588" data-name="Grupo 55588" transform="translate(0 1)">
      <path id="Trazado_101741" data-name="Trazado 101741" d="M137.251,386.419v6.413A4.173,4.173,0,0,0,141.42,397h35.169a4.173,4.173,0,0,0,4.169-4.169v-6.413a4.171,4.171,0,0,0-4.169-4.164H141.42A4.171,4.171,0,0,0,137.251,386.419Zm39.842,0v6.413a.512.512,0,0,1-.5.505H141.42a.505.505,0,0,1-.5-.505v-6.413a.509.509,0,0,1,.5-.5h35.169A.509.509,0,0,1,177.093,386.419Z" transform="translate(-112.109 -312.416)"/>
      <path id="Trazado_101742" data-name="Trazado 101742" d="M88.936,52.794h-.92v-7.8a.85.85,0,0,0-.029-.3,1.82,1.82,0,0,0-.4-.861l-4.26-5.087a5.942,5.942,0,0,0-.481-6.957l-1.705-2.032a5.94,5.94,0,0,0-8.357-.739l0,0a5.936,5.936,0,0,0-.73,8.352l1.7,2.036A5.889,5.889,0,0,0,77.782,41.5q.268.024.533.024a5.889,5.889,0,0,0,2.206-.427l3.831,4.575v7.12H69.621c-.147-10.288-1.695-15.4-9.1-18.949l-2.94-3.008a11.31,11.31,0,0,0,3.686-7.711V15.378a14.377,14.377,0,1,0-28.754,0v7.748A11.311,11.311,0,0,0,36.2,30.839l-2.941,3.006c-7.4,3.55-8.952,8.661-9.1,18.949H9.432v-7.12L13.264,41.1a5.893,5.893,0,0,0,2.207.427q.269,0,.54-.024a5.874,5.874,0,0,0,4.016-2.093l1.707-2.034a5.931,5.931,0,0,0-9.088-7.622l-1.711,2.039a5.953,5.953,0,0,0-.476,6.951L6.2,43.833a1.822,1.822,0,0,0-.422,1.051c0,.028,0,.06-.005.095,0,.007,0,.015,0,.022s0,0,0,.008v7.785H4.853A4.859,4.859,0,0,0,0,57.648v3.157A4.859,4.859,0,0,0,4.854,65.66H7.1L13.748,91.7a3.114,3.114,0,0,0,3.064,2.728H76.977A3.126,3.126,0,0,0,80.04,91.7l6.652-26.04h2.243a4.859,4.859,0,0,0,4.854-4.854V57.648a4.859,4.859,0,0,0-4.854-4.854ZM79.758,37.337a2.277,2.277,0,0,1-3.193-.28l-1.706-2.039A2.26,2.26,0,0,1,76.8,31.309a2.24,2.24,0,0,1,1.535.8l1.707,2.034a2.27,2.27,0,0,1-.281,3.195ZM13.745,34.144l1.709-2.037a2.248,2.248,0,0,1,1.538-.8q.1-.009.206-.009a2.268,2.268,0,0,1,1.731,3.719l-1.711,2.039a2.276,2.276,0,0,1-3.189.28,2.278,2.278,0,0,1-.284-3.195ZM46.892,4.664A10.726,10.726,0,0,1,57.605,15.378v1.375a33.239,33.239,0,0,1-9.4-2.515,20.71,20.71,0,0,0-7.146-1.846,7.969,7.969,0,0,0-4.789,1.567,10.73,10.73,0,0,1,10.62-9.3ZM36.179,23.126V19.25c3.263-4.455,5.658-3.535,10.714-1.592a36.192,36.192,0,0,0,10.712,2.769v2.7c0,4.5-6.967,9.26-10.713,9.26s-10.713-4.76-10.713-9.26Zm20.63,12.161-5.033,4.642-2.138-4.3a18.089,18.089,0,0,0,5.112-2.448Zm-12.664.341-2.137,4.3-5.032-4.641,2.06-2.106A18.08,18.08,0,0,0,44.146,35.628ZM34.03,37.555l7.289,6.723a1.832,1.832,0,0,0,2.883-.531l2.69-5.413,2.69,5.413a1.832,1.832,0,0,0,2.883.531l7.289-6.723c4.726,2.511,6.063,5.83,6.2,15.239H27.827c.141-9.41,1.478-12.728,6.2-15.239Zm56.1,23.251A1.192,1.192,0,0,1,88.936,62H55.112a1.832,1.832,0,1,0,0,3.664h27.8L76.5,90.76H17.291l-6.412-25.1H38.657a1.832,1.832,0,1,0,0-3.664H4.854a1.206,1.206,0,0,1-1.19-1.19V57.648a1.206,1.206,0,0,1,1.19-1.19H88.936a1.206,1.206,0,0,1,1.19,1.19Z" transform="translate(0 -1)"/>
      <path id="Trazado_101743" data-name="Trazado 101743" d="M247.788,337.643h.005a1.835,1.835,0,1,0-.005,0Z" transform="translate(-200.901 -272.983)"/>
    </g>
  </g>
</svg>
