<svg xmlns="http://www.w3.org/2000/svg" width="70.772" height="93.978" viewBox="0 0 70.772 93.978">
  <g id="informe-seo" transform="translate(-63.215)">
    <g id="Grupo_55598" data-name="Grupo 55598" transform="translate(64.592 1.377)">
      <path id="Trazado_101744" data-name="Trazado 101744" d="M163.834,92.354H108.661a3.238,3.238,0,0,1-3.237-3.237V10.737A3.238,3.238,0,0,1,108.661,7.5h55.173a3.238,3.238,0,0,1,3.237,3.237V89.116A3.238,3.238,0,0,1,163.834,92.354Z" transform="translate(-99.053 -7.5)" fill="#9ddfd3"/>
      <path id="Trazado_101745" data-name="Trazado 101745" d="M129.125,127.063H73.952a3.238,3.238,0,0,1-3.237-3.237V45.446a3.238,3.238,0,0,1,3.237-3.237h55.173a3.238,3.238,0,0,1,3.237,3.237v78.379A3.238,3.238,0,0,1,129.125,127.063Z" transform="translate(-70.715 -35.838)" fill="#f6f6f6"/>
      <path id="Trazado_101746" data-name="Trazado 101746" d="M358.841,42.209h-6.766a3.238,3.238,0,0,1,3.237,3.237v78.379a3.238,3.238,0,0,1-3.237,3.237h6.766a3.238,3.238,0,0,0,3.237-3.237V45.446A3.238,3.238,0,0,0,358.841,42.209Z" transform="translate(-300.431 -35.838)" fill="#e8e8e8"/>
      <g id="Grupo_55592" data-name="Grupo 55592" transform="translate(34.522 18.512)">
        <g id="Grupo_55589" data-name="Grupo 55589">
          <path id="Trazado_101747" data-name="Trazado 101747" d="M277.874,110.915h-17.8a1.28,1.28,0,1,1,0-2.561h17.8a1.28,1.28,0,1,1,0,2.561Z" transform="translate(-258.795 -108.354)" fill="#3e5959"/>
        </g>
        <g id="Grupo_55590" data-name="Grupo 55590" transform="translate(0 5.99)">
          <path id="Trazado_101748" data-name="Trazado 101748" d="M277.874,143.549h-17.8a1.28,1.28,0,1,1,0-2.561h17.8a1.28,1.28,0,1,1,0,2.561Z" transform="translate(-258.795 -140.988)" fill="#3e5959"/>
        </g>
        <g id="Grupo_55591" data-name="Grupo 55591" transform="translate(0 11.98)">
          <path id="Trazado_101749" data-name="Trazado 101749" d="M277.874,176.184h-17.8a1.28,1.28,0,1,1,0-2.561h17.8a1.28,1.28,0,1,1,0,2.561Z" transform="translate(-258.795 -173.623)" fill="#3e5959"/>
        </g>
      </g>
      <g id="Grupo_55593" data-name="Grupo 55593" transform="translate(35.775 63.922)">
        <path id="Trazado_101750" data-name="Trazado 101750" d="M283.446,358.314H266.9a1.28,1.28,0,1,1,0-2.561h16.545a1.28,1.28,0,1,1,0,2.561Z" transform="translate(-265.62 -355.753)" fill="#3e5959"/>
      </g>
      <g id="Grupo_55594" data-name="Grupo 55594" transform="translate(6.766 51.427)">
        <path id="Trazado_101751" data-name="Trazado 101751" d="M126.656,290.241h-17.8a1.28,1.28,0,0,1,0-2.561h17.8a1.28,1.28,0,0,1,0,2.561Z" transform="translate(-107.577 -287.68)" fill="#3e5959"/>
      </g>
      <g id="Grupo_55595" data-name="Grupo 55595" transform="translate(6.766 45.437)">
        <path id="Trazado_101752" data-name="Trazado 101752" d="M126.656,257.606h-17.8a1.28,1.28,0,1,1,0-2.561h17.8a1.28,1.28,0,1,1,0,2.561Z" transform="translate(-107.577 -255.045)" fill="#3e5959"/>
      </g>
      <path id="Trazado_101753" data-name="Trazado 101753" d="M172.382,80.194V92.088h11.894a11.894,11.894,0,0,0-11.894-11.894Z" transform="translate(-153.721 -66.851)" fill="#cc3d60"/>
      <path id="Trazado_101754" data-name="Trazado 101754" d="M119.475,80.194A11.894,11.894,0,1,0,131.37,92.088H119.475Z" transform="translate(-100.814 -66.851)" fill="#ffc93c"/>
      <path id="Trazado_101755" data-name="Trazado 101755" d="M266.153,254.2H244.77a.854.854,0,0,1-.854-.854V241.055a.854.854,0,0,1,.854-.854h21.383a.854.854,0,0,1,.854.854v12.293A.854.854,0,0,1,266.153,254.2Z" transform="translate(-212.125 -197.489)" fill="#cc3d60"/>
      <path id="Trazado_101756" data-name="Trazado 101756" d="M112.171,363.963h-3.741a.854.854,0,0,1-.854-.854V344.436a.854.854,0,0,1,.854-.854h3.741a.854.854,0,0,1,.854.854v18.673A.854.854,0,0,1,112.171,363.963Z" transform="translate(-100.811 -281.894)" fill="#ffc93c"/>
      <path id="Trazado_101757" data-name="Trazado 101757" d="M167.541,385.756H163.8a.854.854,0,0,1-.854-.854V371.129a.854.854,0,0,1,.854-.854h3.741a.854.854,0,0,1,.854.854V384.9A.854.854,0,0,1,167.541,385.756Z" transform="translate(-146.018 -303.687)" fill="#9ddfd3"/>
      <path id="Trazado_101758" data-name="Trazado 101758" d="M222.912,412.908h-3.741a.854.854,0,0,1-.854-.854v-7.67a.854.854,0,0,1,.854-.854h3.741a.854.854,0,0,1,.854.854v7.67A.854.854,0,0,1,222.912,412.908Z" transform="translate(-191.225 -330.839)" fill="#cc3d60"/>
      <g id="Grupo_55596" data-name="Grupo 55596" transform="translate(35.775 70.214)">
        <path id="Trazado_101759" data-name="Trazado 101759" d="M283.446,392.591H266.9a1.28,1.28,0,0,1,0-2.561h16.545a1.28,1.28,0,1,1,0,2.561Z" transform="translate(-265.62 -390.03)" fill="#3e5959"/>
      </g>
      <g id="Grupo_55597" data-name="Grupo 55597" transform="translate(35.775 76.505)">
        <path id="Trazado_101760" data-name="Trazado 101760" d="M283.446,426.868H266.9a1.28,1.28,0,0,1,0-2.561h16.545a1.28,1.28,0,0,1,0,2.561Z" transform="translate(-265.62 -424.307)" fill="#3e5959"/>
      </g>
    </g>
    <g id="Grupo_55599" data-name="Grupo 55599" transform="translate(63.215 0)">
      <path id="Trazado_101761" data-name="Trazado 101761" d="M260.075,110.914h17.8a1.28,1.28,0,1,0,0-2.561h-17.8a1.28,1.28,0,1,0,0,2.561Z" transform="translate(-222.896 -88.465)"/>
      <path id="Trazado_101762" data-name="Trazado 101762" d="M258.8,142.268a1.28,1.28,0,0,0,1.28,1.28h17.8a1.28,1.28,0,1,0,0-2.561h-17.8A1.281,1.281,0,0,0,258.8,142.268Z" transform="translate(-222.896 -115.11)"/>
      <path id="Trazado_101763" data-name="Trazado 101763" d="M260.075,176.184h17.8a1.28,1.28,0,1,0,0-2.561h-17.8a1.28,1.28,0,1,0,0,2.561Z" transform="translate(-222.896 -141.754)"/>
      <path id="Trazado_101764" data-name="Trazado 101764" d="M284.727,357.033a1.28,1.28,0,0,0-1.28-1.28H266.9a1.28,1.28,0,1,0,0,2.561h16.545A1.281,1.281,0,0,0,284.727,357.033Z" transform="translate(-228.469 -290.454)"/>
      <path id="Trazado_101765" data-name="Trazado 101765" d="M127.937,288.959a1.28,1.28,0,0,0-1.28-1.28h-17.8a1.28,1.28,0,0,0,0,2.561h17.8A1.28,1.28,0,0,0,127.937,288.959Z" transform="translate(-99.435 -234.875)"/>
      <path id="Trazado_101766" data-name="Trazado 101766" d="M108.858,257.606h17.8a1.28,1.28,0,1,0,0-2.561h-17.8a1.28,1.28,0,1,0,0,2.561Z" transform="translate(-99.435 -208.231)"/>
      <path id="Trazado_101767" data-name="Trazado 101767" d="M113.352,72.694a13.271,13.271,0,1,0,13.271,13.271,13.286,13.286,0,0,0-13.271-13.271Zm0,23.789a10.518,10.518,0,0,1-1.377-20.946V85.965a1.377,1.377,0,0,0,1.377,1.377H123.78A10.534,10.534,0,0,1,113.352,96.483Zm1.377-11.894V75.537a10.541,10.541,0,0,1,9.051,9.051Z" transform="translate(-93.314 -59.351)"/>
      <path id="Trazado_101768" data-name="Trazado 101768" d="M236.417,234.932v12.293a2.233,2.233,0,0,0,2.23,2.23H260.03a2.233,2.233,0,0,0,2.23-2.23V234.932a2.233,2.233,0,0,0-2.23-2.23H238.647a2.233,2.233,0,0,0-2.23,2.23Zm2.753.523h20.337V246.7H239.17Z" transform="translate(-204.626 -189.989)"/>
      <path id="Trazado_101769" data-name="Trazado 101769" d="M100.078,356.986a2.233,2.233,0,0,0,2.23,2.23h3.741a2.233,2.233,0,0,0,2.23-2.23V338.312a2.233,2.233,0,0,0-2.23-2.23h-3.741a2.233,2.233,0,0,0-2.23,2.23Zm2.753-18.15h2.695v17.628h-2.695Z" transform="translate(-93.312 -274.394)"/>
      <path id="Trazado_101770" data-name="Trazado 101770" d="M157.678,362.775a2.233,2.233,0,0,0-2.23,2.23v13.774a2.233,2.233,0,0,0,2.23,2.23h3.74a2.233,2.233,0,0,0,2.23-2.23V365.005a2.233,2.233,0,0,0-2.23-2.23Zm3.217,15.481H158.2V365.528H160.9Z" transform="translate(-138.519 -296.187)"/>
      <path id="Trazado_101771" data-name="Trazado 101771" d="M213.048,408.161h3.741a2.233,2.233,0,0,0,2.23-2.23v-7.67a2.233,2.233,0,0,0-2.23-2.23h-3.741a2.233,2.233,0,0,0-2.23,2.23v7.67A2.233,2.233,0,0,0,213.048,408.161Zm.523-9.377h2.695v6.624h-2.695Z" transform="translate(-183.725 -323.339)"/>
      <path id="Trazado_101772" data-name="Trazado 101772" d="M283.446,390.03H266.9a1.28,1.28,0,0,0,0,2.561h16.545a1.28,1.28,0,0,0,0-2.561Z" transform="translate(-228.468 -318.44)"/>
      <path id="Trazado_101773" data-name="Trazado 101773" d="M283.446,424.307H266.9a1.28,1.28,0,1,0,0,2.561h16.545a1.28,1.28,0,1,0,0-2.561Z" transform="translate(-228.468 -346.425)"/>
      <path id="Trazado_101774" data-name="Trazado 101774" d="M132.61,17.068a1.377,1.377,0,0,0,1.377-1.377V4.614A4.619,4.619,0,0,0,129.373,0H74.2a4.619,4.619,0,0,0-4.614,4.614V6.371H67.829a4.619,4.619,0,0,0-4.614,4.614V69.963a1.377,1.377,0,0,0,2.753,0V10.985a1.863,1.863,0,0,1,1.861-1.861H123a1.863,1.863,0,0,1,1.861,1.861V89.364A1.863,1.863,0,0,1,123,91.225H67.829a1.863,1.863,0,0,1-1.861-1.861V76.387a1.377,1.377,0,0,0-2.753,0V89.364a4.619,4.619,0,0,0,4.614,4.614H123a4.619,4.619,0,0,0,4.614-4.614V87.607h1.757a4.619,4.619,0,0,0,4.614-4.614V22.116a1.377,1.377,0,0,0-2.753,0V82.993a1.863,1.863,0,0,1-1.861,1.861h-1.757V10.985A4.619,4.619,0,0,0,123,6.371H72.339V4.614A1.863,1.863,0,0,1,74.2,2.753h55.173a1.863,1.863,0,0,1,1.861,1.861V15.692a1.377,1.377,0,0,0,1.377,1.377Z" transform="translate(-63.215 0)"/>
    </g>
  </g>
</svg>
