<svg id="trabajo-en-equipo" xmlns="http://www.w3.org/2000/svg" width="114.287" height="114.287" viewBox="0 0 114.287 114.287">
  <path id="Trazado_101685" data-name="Trazado 101685" d="M343.263,234.046l4.5,1.7a7.331,7.331,0,0,1,4.793,6.895V254.12h-11.06V244.9H323.06v9.217H312V242.636a7.331,7.331,0,0,1,4.793-6.895l4.5-1.7L326.747,232l5.53,7.373,5.53-7.373Zm0,0" transform="translate(-240.11 -178.543)" fill="#ffc93c"/>
  <path id="Trazado_101686" data-name="Trazado 101686" d="M200.553,378.636V390.12h-11.06V380.9H171.06v9.217H160V378.636a7.331,7.331,0,0,1,4.793-6.894L174.747,368a5.53,5.53,0,0,0,11.06,0l9.954,3.742A7.331,7.331,0,0,1,200.553,378.636Zm0,0" transform="translate(-123.133 -283.207)" fill="#9ddfd3"/>
  <path id="Trazado_101687" data-name="Trazado 101687" d="M28.277,239.373,33.807,232l9.954,3.742a7.331,7.331,0,0,1,4.793,6.895V254.12H37.493V244.9H19.06v9.217H8V242.636a7.331,7.331,0,0,1,4.793-6.895L22.747,232Zm0,0" transform="translate(-6.157 -178.543)" fill="#cc3d60"/>
  <path id="Trazado_101688" data-name="Trazado 101688" d="M378.433,288v14.747H360V288Zm0,0" transform="translate(-277.05 -221.64)" fill="#e6e9ed"/>
  <path id="Trazado_101689" data-name="Trazado 101689" d="M226.433,424v14.747H208V424Zm0,0" transform="translate(-160.073 -326.303)" fill="#e6e9ed"/>
  <path id="Trazado_101690" data-name="Trazado 101690" d="M74.433,288v14.747H56V288Zm0,0" transform="translate(-43.097 -221.64)" fill="#e6e9ed"/>
  <path id="Trazado_101691" data-name="Trazado 101691" d="M213.493,224.166v5.954a5.538,5.538,0,0,0-5.53-5.53h-.313a12.6,12.6,0,0,1-8.9-3.687,12.6,12.6,0,0,1-8.9,3.687h-.313a5.522,5.522,0,0,0-5.53,5.53v-7.373a14.747,14.747,0,1,1,29.493,0Zm0,0" transform="translate(-141.603 -160.073)" fill="#636363"/>
  <path id="Trazado_101692" data-name="Trazado 101692" d="M436.9,180.9a6.2,6.2,0,0,1-1.622,1.843,8.91,8.91,0,0,1-5.751,1.843l-.074.2L424,182.747V179.06a8.685,8.685,0,0,0,1-.848,9.213,9.213,0,0,0,2.507-4.7l.185.018a5.522,5.522,0,0,0,5.53-5.53v4A12.6,12.6,0,0,0,436.9,180.9Zm0,0" transform="translate(-326.303 -129.29)" fill="#b27946"/>
  <path id="Trazado_101693" data-name="Trazado 101693" d="M332.9,179.06v3.687l-5.456,2.046-.074-.2c-5.53,0-7.373-3.687-7.373-3.687a12.6,12.6,0,0,0,3.687-8.9v-4a5.538,5.538,0,0,0,5.53,5.53l.185-.018A9.243,9.243,0,0,0,332.9,179.06Zm0,0" transform="translate(-246.267 -129.29)" fill="#b27946"/>
  <path id="Trazado_101694" data-name="Trazado 101694" d="M365.493,86.747V94.12a5.538,5.538,0,0,0-5.53-5.53h-.313a12.6,12.6,0,0,1-8.9-3.687,12.6,12.6,0,0,1-8.9,3.687h-.313A5.522,5.522,0,0,0,336,94.12V86.747a14.747,14.747,0,1,1,29.493,0Zm0,0" transform="translate(-258.58 -55.41)" fill="#b27946"/>
  <path id="Trazado_101695" data-name="Trazado 101695" d="M61.493,86.747V94.12a5.538,5.538,0,0,0-5.53-5.53H37.53A5.522,5.522,0,0,0,32,94.12V86.747a14.747,14.747,0,0,1,29.493,0Zm0,0" transform="translate(-24.627 -55.41)" fill="#b27946"/>
  <g id="Grupo_55554" data-name="Grupo 55554" transform="translate(7.373 29.493)">
    <path id="Trazado_101696" data-name="Trazado 101696" d="M229.53,353.843c1.143,0,2.23-.2,5.53-1.843v3.687a5.53,5.53,0,0,1-11.06,0V352A9.11,9.11,0,0,0,229.53,353.843Zm0,0" transform="translate(-179.76 -300.387)" fill="#f0d0b4"/>
    <path id="Trazado_101697" data-name="Trazado 101697" d="M292.914,285.53a5.522,5.522,0,0,1-5.53,5.53l-.185-.018a8.487,8.487,0,0,0,.185-1.825V280a5.538,5.538,0,0,1,5.53,5.53Zm0,0" transform="translate(-228.397 -244.977)" fill="#f0d0b4"/>
    <path id="Trazado_101698" data-name="Trazado 101698" d="M226.433,267.687V276.9a8.487,8.487,0,0,1-.185,1.825,9.213,9.213,0,0,1-2.507,4.7,8.683,8.683,0,0,1-1,.848c-3.3,1.641-4.387,1.843-5.53,1.843a9.11,9.11,0,0,1-5.53-1.843,9.243,9.243,0,0,1-3.5-5.548A8.487,8.487,0,0,1,208,276.9v-9.217h.313a12.6,12.6,0,0,0,8.9-3.687,12.6,12.6,0,0,0,8.9,3.687Zm0,0" transform="translate(-167.447 -232.663)" fill="#f0d0b4"/>
    <path id="Trazado_101699" data-name="Trazado 101699" d="M189.53,289.217a8.487,8.487,0,0,0,.185,1.825l-.185.018a5.53,5.53,0,1,1,0-11.06Zm0,0" transform="translate(-148.977 -244.977)" fill="#f0d0b4"/>
    <path id="Trazado_101700" data-name="Trazado 101700" d="M381.53,217.843c1.143,0,2.23-.2,5.53-1.843v3.687l-5.53,7.373L376,219.687V216A9.11,9.11,0,0,0,381.53,217.843Zm0,0" transform="translate(-296.737 -195.723)" fill="#f0d0b4"/>
    <path id="Trazado_101701" data-name="Trazado 101701" d="M444.914,149.53a5.522,5.522,0,0,1-5.53,5.53l-.185-.018a8.487,8.487,0,0,0,.185-1.825V144a5.538,5.538,0,0,1,5.53,5.53Zm0,0" transform="translate(-345.374 -140.313)" fill="#f0d0b4"/>
    <path id="Trazado_101702" data-name="Trazado 101702" d="M378.433,131.687V140.9a8.487,8.487,0,0,1-.185,1.825,9.213,9.213,0,0,1-2.507,4.7,8.685,8.685,0,0,1-1,.848c-3.3,1.641-4.387,1.843-5.53,1.843a9.11,9.11,0,0,1-5.53-1.843,9.243,9.243,0,0,1-3.5-5.548A8.487,8.487,0,0,1,360,140.9v-9.217h.313a12.6,12.6,0,0,0,8.9-3.687,12.6,12.6,0,0,0,8.9,3.687Zm0,0" transform="translate(-284.423 -128)" fill="#f0d0b4"/>
    <path id="Trazado_101703" data-name="Trazado 101703" d="M341.53,153.217a8.487,8.487,0,0,0,.185,1.825l-.185.018a5.53,5.53,0,0,1,0-11.06Zm0,0" transform="translate(-265.953 -140.313)" fill="#f0d0b4"/>
    <path id="Trazado_101704" data-name="Trazado 101704" d="M77.53,217.843c1.143,0,2.23-.2,5.53-1.843v3.687l-5.53,7.373L72,219.687V216A9.11,9.11,0,0,0,77.53,217.843Zm0,0" transform="translate(-62.783 -195.723)" fill="#f0d0b4"/>
    <path id="Trazado_101705" data-name="Trazado 101705" d="M140.914,149.53a5.522,5.522,0,0,1-5.53,5.53l-.185-.018a8.487,8.487,0,0,0,.185-1.825V144a5.538,5.538,0,0,1,5.53,5.53Zm0,0" transform="translate(-111.42 -140.313)" fill="#f0d0b4"/>
    <path id="Trazado_101706" data-name="Trazado 101706" d="M74.433,144v9.217a8.487,8.487,0,0,1-.185,1.825,9.213,9.213,0,0,1-2.507,4.7,8.682,8.682,0,0,1-1,.848c-3.3,1.641-4.387,1.843-5.53,1.843a9.11,9.11,0,0,1-5.53-1.843,9.243,9.243,0,0,1-3.5-5.548A8.487,8.487,0,0,1,56,153.217V144Zm0,0" transform="translate(-50.47 -140.313)" fill="#f0d0b4"/>
    <path id="Trazado_101707" data-name="Trazado 101707" d="M37.53,153.217a8.487,8.487,0,0,0,.185,1.825l-.185.018a5.53,5.53,0,1,1,0-11.06Zm0,0" transform="translate(-32 -140.313)" fill="#f0d0b4"/>
  </g>
  <path id="Trazado_101708" data-name="Trazado 101708" d="M46.747,15.373v7.373H35.687A3.7,3.7,0,0,1,32,19.06V11.687A3.7,3.7,0,0,1,35.687,8h11.06Zm0,0" transform="translate(-24.627 -6.157)" fill="#aab2bd"/>
  <path id="Trazado_101709" data-name="Trazado 101709" d="M96,8h70.047v7.373H96Zm0,0" transform="translate(-73.88 -6.157)" fill="#ffc93c"/>
  <path id="Trazado_101710" data-name="Trazado 101710" d="M96,40h70.047v7.373H96Zm0,0" transform="translate(-73.88 -30.783)" fill="#fcd770"/>
  <path id="Trazado_101711" data-name="Trazado 101711" d="M414.747,15.373,400,22.747V8Zm0,0" transform="translate(-307.833 -6.157)" fill="#969faa"/>
  <path id="Trazado_101712" data-name="Trazado 101712" d="M114.287,64.1a9.245,9.245,0,0,0-5.4-8.358,8.711,8.711,0,0,0,3.361-3.3l.593-1.189-.94-.94a10.664,10.664,0,0,1-3.147-7.6V31.337a16.6,16.6,0,0,0-10.863-15.55l13.141-6.57L92.6,0H11.06A5.537,5.537,0,0,0,5.53,5.53V12.9a5.537,5.537,0,0,0,5.53,5.53h.656a16.557,16.557,0,0,0-6.186,12.9V38.71a7.371,7.371,0,0,0,6.129,7.248,11.078,11.078,0,0,0,3.087,4.66v1.562L5.982,55.466A9.261,9.261,0,0,0,0,64.1V77.42H11.06v5.53H33.18V77.42H44.24V76.395a7.249,7.249,0,0,0,2.443.9,11.078,11.078,0,0,0,3.087,4.66v1.562L41.005,86.8a9.263,9.263,0,0,0-5.982,8.631v13.324h11.06v5.53H68.2v-5.53h11.06V95.433A9.267,9.267,0,0,0,73.281,86.8l-8.765-3.284V81.954a11.056,11.056,0,0,0,3.087-4.66,7.249,7.249,0,0,0,2.443-.9V77.42h11.06v5.53h22.12V77.42h11.06ZM84.793,52.179l-3.687,1.382v-.105A6.975,6.975,0,0,1,76.126,51.7a14.264,14.264,0,0,0,2.95-6.742,7.347,7.347,0,0,0,2.631,1,11.078,11.078,0,0,0,3.087,4.66Zm-11.9,5.3a16.575,16.575,0,0,0-31.491,0,9.115,9.115,0,0,0-3.139-2.015l-8.765-3.286V50.618a11.056,11.056,0,0,0,3.087-4.66A7.371,7.371,0,0,0,38.71,38.71V31.337a16.557,16.557,0,0,0-6.186-12.9H81.763a16.557,16.557,0,0,0-6.186,12.9V42.712a10.674,10.674,0,0,1-3.147,7.6l-.94.941.593,1.189a8.732,8.732,0,0,0,3.361,3.3A9.08,9.08,0,0,0,72.889,57.481ZM66.36,62.673h-.315a10.674,10.674,0,0,1-7.6-3.147l-1.3-1.3-1.3,1.3a10.674,10.674,0,0,1-7.6,3.147h-.315A7.293,7.293,0,0,0,44.24,63.7V62.673a12.9,12.9,0,1,1,25.807,0V63.7A7.293,7.293,0,0,0,66.36,62.673ZM14.747,42.4V35.023H29.493V42.4a7.373,7.373,0,0,1-14.747,0ZM33.18,35.535a3.655,3.655,0,0,1,0,6.349ZM23.963,11.06h66.36v3.687H23.963Zm66.36-3.687H23.963V3.687h66.36Zm12.9,34.511V35.535a3.655,3.655,0,0,1,0,6.349ZM92.167,49.77A7.381,7.381,0,0,1,84.793,42.4V34.9a14.269,14.269,0,0,0,7.373-2.942A14.239,14.239,0,0,0,99.54,34.9v7.5A7.381,7.381,0,0,1,92.167,49.77Zm-11.06-7.885a3.655,3.655,0,0,1,0-6.349ZM88.48,52.811a10.853,10.853,0,0,0,7.373,0v.032l-3.687,4.916L88.48,52.843Zm11.06-2.193a11.056,11.056,0,0,0,3.087-4.66,7.326,7.326,0,0,0,2.631-1,14.265,14.265,0,0,0,2.948,6.741,6.96,6.96,0,0,1-4.979,1.761v.105L99.54,52.179Zm5.53-19.281v1.025a7.293,7.293,0,0,0-3.687-1.025h-.315a10.674,10.674,0,0,1-7.6-3.147l-1.3-1.3-1.3,1.3a10.671,10.671,0,0,1-7.6,3.147H82.95a7.293,7.293,0,0,0-3.687,1.025V31.337a12.9,12.9,0,0,1,25.807,0ZM94.01,13.607V4.826l8.782,4.391ZM9.217,12.9V5.53A1.847,1.847,0,0,1,11.06,3.687h9.217v11.06H11.06A1.847,1.847,0,0,1,9.217,12.9Zm12.9,5.53a12.918,12.918,0,0,1,12.9,12.9v1.025a7.293,7.293,0,0,0-3.687-1.025H12.9a7.293,7.293,0,0,0-3.687,1.025V31.337A12.918,12.918,0,0,1,22.12,18.433ZM9.217,38.71a3.675,3.675,0,0,1,1.843-3.175v6.349A3.675,3.675,0,0,1,9.217,38.71Zm12.9,14.747a11.006,11.006,0,0,0,3.687-.645v.032L22.12,57.759l-3.687-4.916v-.032A11.006,11.006,0,0,0,22.12,53.457Zm7.373,25.807H14.747V68.2H29.493Zm11.06-5.53H33.18V64.517H11.06v9.217H3.687V64.1a5.553,5.553,0,0,1,3.589-5.178l8.669-3.249L22.12,63.9,28.3,55.669l8.669,3.251A5.549,5.549,0,0,1,40.553,64.1Zm3.687-3.687a3.675,3.675,0,0,1,1.843-3.175v6.349A3.675,3.675,0,0,1,44.24,70.047ZM64.517,110.6H49.77V99.54H64.517Zm11.06-15.167v9.637H68.2V95.853H46.083v9.217H38.71V95.433a5.558,5.558,0,0,1,3.589-5.18l7.934-2.975a7.33,7.33,0,0,0,13.821,0l7.934,2.975A5.553,5.553,0,0,1,75.577,95.433ZM60.83,84.793a3.687,3.687,0,0,1-7.373,0v-.645a10.853,10.853,0,0,0,7.373,0Zm-3.687-3.687a7.381,7.381,0,0,1-7.373-7.373v-7.5a14.269,14.269,0,0,0,7.373-2.942,14.269,14.269,0,0,0,7.373,2.942v7.5A7.381,7.381,0,0,1,57.143,81.107ZM68.2,73.221V66.872a3.655,3.655,0,0,1,0,6.349ZM99.54,79.263H84.793V68.2H99.54Zm11.06-5.53h-7.373V64.517H81.107v9.217H73.733V64.1a5.553,5.553,0,0,1,3.589-5.178l8.669-3.249L92.167,63.9l6.175-8.234,8.669,3.251A5.549,5.549,0,0,1,110.6,64.1Zm0,0"/>
  <path id="Trazado_101713" data-name="Trazado 101713" d="M232,448h7.373v3.687H232Zm0,0" transform="translate(-178.543 -344.773)"/>
  <path id="Trazado_101714" data-name="Trazado 101714" d="M80,312h7.373v3.687H80Zm0,0" transform="translate(-61.567 -240.11)"/>
  <path id="Trazado_101715" data-name="Trazado 101715" d="M384,312h7.373v3.687H384Zm0,0" transform="translate(-295.52 -240.11)"/>
</svg>
