<svg xmlns="http://www.w3.org/2000/svg" width="46.364" height="52.017" viewBox="0 0 46.364 52.017">
  <g id="surface1" transform="translate(0)">
    <path id="Trazado_101862" data-name="Trazado 101862" d="M78.126,340.741v-3.218h-11.8l-.118.944a7.765,7.765,0,0,1-15.412,0l-.118-.944h-11.8v3.218h4.569a15.235,15.235,0,0,0,2.145,5.073l-3.325,3.325,4.58,4.547,3.325-3.325a15.147,15.147,0,0,0,5.073,2.145v4.687h6.435v-4.708a15.143,15.143,0,0,0,5.073-2.145l3.325,3.325,4.558-4.558-3.3-3.293a15.142,15.142,0,0,0,2.145-5.073Zm0,0" transform="translate(-35.29 -306.228)" fill="#9ddfd3"/>
    <path id="Trazado_101863" data-name="Trazado 101863" d="M53.1,35V32.856A19.305,19.305,0,0,0,40.915,14.838l-1.469-.59V11.566h-11.5v2.692l-1.469.59A19.305,19.305,0,0,0,14.3,32.867v2.145l-2.714,1.169v5.631H55.823V36.159Zm0,0" transform="translate(-10.52 -10.494)" fill="#ffc93c"/>
    <path id="Trazado_101864" data-name="Trazado 101864" d="M45.832,24.678l-2.07-.89V22.373A20.379,20.379,0,0,0,30.109,3.067V1.072A1.073,1.073,0,0,0,29.037,0H17.561a1.073,1.073,0,0,0-1.072,1.072V3.078a20.379,20.379,0,0,0-13.653,19.3V23.81l-2.049.869a1.071,1.071,0,0,0-.654.987V31.3a1.073,1.073,0,0,0,1.072,1.073H2.6v2.145a1.073,1.073,0,0,0,1.072,1.072h3.85a16.221,16.221,0,0,0,1.6,3.84L6.4,42.149a1.073,1.073,0,0,0,0,1.513l4.559,4.558a1.072,1.072,0,0,0,1.512,0L15.191,45.5a16.185,16.185,0,0,0,3.829,1.6v3.85a1.073,1.073,0,0,0,1.072,1.072h6.435A1.073,1.073,0,0,0,27.6,50.944v-3.85a16.176,16.176,0,0,0,3.84-1.6l2.724,2.724a1.072,1.072,0,0,0,1.512,0l4.558-4.558a1.072,1.072,0,0,0,0-1.513L37.51,39.425a16.23,16.23,0,0,0,1.6-3.84h3.85a1.073,1.073,0,0,0,1.072-1.072V32.368h1.394A1.073,1.073,0,0,0,46.5,31.3V25.665A1.072,1.072,0,0,0,45.832,24.678ZM18.612,2.156h9.353V20.077H18.634ZM41.9,33.441H38.325a1.072,1.072,0,0,0-1.072.847,14.1,14.1,0,0,1-1.963,4.719,1.073,1.073,0,0,0,.139,1.341l2.564,2.563-3.067,3.046-2.563-2.564a1.073,1.073,0,0,0-1.341-.139A14.1,14.1,0,0,1,26.3,45.217a1.072,1.072,0,0,0-.847,1.072V49.9h-4.29V46.257a1.072,1.072,0,0,0-.847-1.072A14.056,14.056,0,0,1,15.6,43.222a1.072,1.072,0,0,0-1.341.139l-2.563,2.563L8.659,42.89l2.563-2.563a1.073,1.073,0,0,0,.139-1.341,14.121,14.121,0,0,1-1.995-4.7,1.072,1.072,0,0,0-1.073-.847H4.723V32.368h9.8a8.837,8.837,0,0,0,17.546,0h9.814ZM16.714,32.368h13.2a6.692,6.692,0,0,1-13.213,0Zm27.649-2.145H2.267v-3.85l2.07-.89a1.071,1.071,0,0,0,.654-.987V22.351a18.232,18.232,0,0,1,11.5-17v15.8a1.073,1.073,0,0,0,1.072,1.072h11.5a1.073,1.073,0,0,0,1.072-1.072V5.352A18.232,18.232,0,0,1,41.639,22.373v2.145a1.07,1.07,0,0,0,.654.987l2.07.89Zm0,0" transform="translate(-0.133)" fill="#3a322b"/>
  </g>
</svg>
