<svg id="calculadora" xmlns="http://www.w3.org/2000/svg" width="52.017" height="52.017" viewBox="0 0 52.017 52.017">
  <g id="Grupo_55606" data-name="Grupo 55606" transform="translate(1.016 1.016)">
    <path id="Trazado_101813" data-name="Trazado 101813" d="M72.191,66.1a2.032,2.032,0,0,0-2.032-2.032H68.128V62.032a2.032,2.032,0,0,0-4.064,0v2.032H62.032a2.032,2.032,0,1,0,0,4.064h2.032v2.032a2.032,2.032,0,1,0,4.064,0V68.128h2.032A2.032,2.032,0,0,0,72.191,66.1Z" transform="translate(-54.92 -54.92)" fill="#fff" fill-rule="evenodd"/>
    <path id="Trazado_101814" data-name="Trazado 101814" d="M25.239,19.143a2.032,2.032,0,1,1,0,4.064H23.207v2.032a2.032,2.032,0,0,1-4.064,0V23.207H17.112a2.032,2.032,0,1,1,0-4.064h2.032V17.112a2.032,2.032,0,0,1,4.064,0v2.032ZM28.287,10H14.064A4.076,4.076,0,0,0,10,14.064V28.287a4.076,4.076,0,0,0,4.064,4.064H28.287a4.076,4.076,0,0,0,4.064-4.064V14.064A4.076,4.076,0,0,0,28.287,10Z" transform="translate(-10 -10)" fill="#cc3d60" fill-rule="evenodd"/>
    <path id="Trazado_101815" data-name="Trazado 101815" d="M28.287,282H14.064A4.076,4.076,0,0,0,10,286.066v14.223a4.076,4.076,0,0,0,4.064,4.064H28.287a4.076,4.076,0,0,0,4.064-4.064V286.066A4.076,4.076,0,0,0,28.287,282Zm-11.175,9.143h8.128a2.032,2.032,0,1,1,0,4.064H17.112a2.032,2.032,0,1,1,0-4.064Z" transform="translate(-10 -254.368)" fill="#dbf6e9" fill-rule="evenodd"/>
    <path id="Trazado_101816" data-name="Trazado 101816" d="M70.159,372H62.032a2.032,2.032,0,1,0,0,4.064h8.128a2.032,2.032,0,1,0,0-4.064Z" transform="translate(-54.92 -335.225)" fill="#fff" fill-rule="evenodd"/>
    <path id="Trazado_101817" data-name="Trazado 101817" d="M64.223,73.57a4.076,4.076,0,0,1,4.064,4.064V91.857H73.57V77.634a4.076,4.076,0,0,1,4.064-4.064H91.857V68.287H77.634a4.076,4.076,0,0,1-4.064-4.064V50H68.287V64.223a4.076,4.076,0,0,1-4.064,4.064H50V73.57Z" transform="translate(-45.936 -45.936)" fill="#636363" fill-rule="evenodd"/>
    <path id="Trazado_101818" data-name="Trazado 101818" d="M282,28.287a4.076,4.076,0,0,0,4.064,4.064h14.223a4.076,4.076,0,0,0,4.064-4.064V14.064A4.076,4.076,0,0,0,300.289,10H286.066A4.076,4.076,0,0,0,282,14.064Zm9.739-2.8a2.032,2.032,0,1,1-2.874-2.873l5.747-5.747a2.032,2.032,0,0,1,2.874,2.873Z" transform="translate(-254.368 -10)" fill="#9ddfd3" fill-rule="evenodd"/>
    <path id="Trazado_101819" data-name="Trazado 101819" d="M344.313,80.931a2.032,2.032,0,0,0,2.874,0l5.747-5.747a2.032,2.032,0,0,0-2.873-2.873l-5.747,5.747A2.032,2.032,0,0,0,344.313,80.931Z" transform="translate(-309.814 -65.446)" fill="#fff" fill-rule="evenodd"/>
    <path id="Trazado_101820" data-name="Trazado 101820" d="M300.289,282H286.066A4.076,4.076,0,0,0,282,286.066v14.223a4.076,4.076,0,0,0,4.064,4.064h14.223a4.076,4.076,0,0,0,4.064-4.064V286.066A4.076,4.076,0,0,0,300.289,282Zm-11.422,6.865a2.032,2.032,0,0,1,2.874,0l1.437,1.437,1.437-1.437a2.032,2.032,0,1,1,2.874,2.874l-1.437,1.437,1.437,1.437a2.032,2.032,0,1,1-2.874,2.873l-1.437-1.437-1.437,1.437a2.032,2.032,0,1,1-2.874-2.873l1.437-1.437-1.437-1.437A2.032,2.032,0,0,1,288.867,288.867Z" transform="translate(-254.368 -254.368)" fill="#ffc93c" fill-rule="evenodd"/>
    <path id="Trazado_101821" data-name="Trazado 101821" d="M352.933,344.313a2.032,2.032,0,0,0-2.873,0l-1.437,1.437-1.437-1.437a2.032,2.032,0,0,0-2.874,2.874l1.437,1.437-1.437,1.437a2.032,2.032,0,0,0,2.874,2.873l1.437-1.437,1.437,1.437a2.032,2.032,0,0,0,2.873-2.873l-1.437-1.437,1.437-1.437A2.032,2.032,0,0,0,352.933,344.313Z" transform="translate(-309.814 -309.814)" fill="#fff" fill-rule="evenodd"/>
  </g>
  <g id="Grupo_55607" data-name="Grupo 55607" transform="translate(0 0)">
    <path id="Trazado_101822" data-name="Trazado 101822" d="M52.017,19.3V5.08A5.085,5.085,0,0,0,46.937,0H32.714a5.088,5.088,0,0,0-4.978,4.064H24.28A5.088,5.088,0,0,0,19.3,0H5.08A5.085,5.085,0,0,0,0,5.08V19.3A5.088,5.088,0,0,0,4.064,24.28v3.456A5.088,5.088,0,0,0,0,32.714V46.937a5.085,5.085,0,0,0,5.08,5.08H19.3a5.088,5.088,0,0,0,4.978-4.064h3.456a5.088,5.088,0,0,0,4.978,4.064H46.937a5.085,5.085,0,0,0,5.08-5.08V32.714a5.088,5.088,0,0,0-4.064-4.978V24.28A5.088,5.088,0,0,0,52.017,19.3ZM32.714,2.032H46.937A3.051,3.051,0,0,1,49.985,5.08V19.3a3.051,3.051,0,0,1-3.048,3.048H32.714A3.051,3.051,0,0,1,29.666,19.3V5.08A3.051,3.051,0,0,1,32.714,2.032ZM2.032,19.3V5.08A3.051,3.051,0,0,1,5.08,2.032H19.3A3.051,3.051,0,0,1,22.351,5.08V19.3A3.051,3.051,0,0,1,19.3,22.351H5.08A3.051,3.051,0,0,1,2.032,19.3ZM19.3,49.985H5.08a3.051,3.051,0,0,1-3.048-3.048V32.714A3.051,3.051,0,0,1,5.08,29.666H7.619a1.016,1.016,0,1,0,0-2.032H6.1V24.383H19.3a5.085,5.085,0,0,0,5.08-5.08V6.1h3.251V19.3a5.085,5.085,0,0,0,5.08,5.08H45.921v3.251H32.714a5.085,5.085,0,0,0-5.08,5.08V45.921H24.383V32.714a5.085,5.085,0,0,0-5.08-5.08h-2.54a1.016,1.016,0,1,0,0,2.032H19.3a3.051,3.051,0,0,1,3.048,3.048V46.937A3.051,3.051,0,0,1,19.3,49.985ZM49.985,32.714V46.937a3.051,3.051,0,0,1-3.048,3.048H32.714a3.051,3.051,0,0,1-3.048-3.048V32.714a3.051,3.051,0,0,1,3.048-3.048H46.937A3.051,3.051,0,0,1,49.985,32.714Z"/>
    <path id="Trazado_101823" data-name="Trazado 101823" d="M53.048,60.159h1.016v1.016a3.048,3.048,0,1,0,6.1,0V60.159h1.016a3.048,3.048,0,1,0,0-6.1H60.159V53.048a3.048,3.048,0,0,0-6.1,0v1.016H53.048a3.048,3.048,0,1,0,0,6.1Zm0-4.064H55.08A1.016,1.016,0,0,0,56.1,55.08V53.048a1.016,1.016,0,0,1,2.032,0V55.08A1.016,1.016,0,0,0,59.144,56.1h2.032a1.016,1.016,0,0,1,0,2.032H59.144a1.016,1.016,0,0,0-1.016,1.016v2.032a1.016,1.016,0,0,1-2.032,0V59.143a1.016,1.016,0,0,0-1.016-1.016H53.048a1.016,1.016,0,1,1,0-2.032Z" transform="translate(-44.92 -44.92)"/>
    <path id="Trazado_101824" data-name="Trazado 101824" d="M61.175,362H53.048a3.048,3.048,0,1,0,0,6.1h8.128a3.048,3.048,0,1,0,0-6.1Zm0,4.064H53.048a1.016,1.016,0,1,1,0-2.032h8.128a1.016,1.016,0,1,1,0,2.032Z" transform="translate(-44.92 -325.225)"/>
    <path id="Trazado_101825" data-name="Trazado 101825" d="M344.681,334.623a3.051,3.051,0,0,0-4.31,0l-.718.718-.718-.718a3.048,3.048,0,1,0-4.31,4.31l.718.718-.718.718a3.048,3.048,0,0,0,4.31,4.31l.718-.718.718.718a3.048,3.048,0,0,0,4.31-4.31l-.718-.718.718-.718A3.051,3.051,0,0,0,344.681,334.623Zm-2.874,5.747,1.437,1.437a1.016,1.016,0,1,1-1.437,1.437l-1.437-1.437a1.016,1.016,0,0,0-1.437,0l-1.437,1.437a1.016,1.016,0,1,1-1.437-1.437l1.437-1.437a1.016,1.016,0,0,0,0-1.437L336.06,337.5a1.016,1.016,0,0,1,1.437-1.437l1.437,1.437a1.016,1.016,0,0,0,1.437,0l1.437-1.437a1.016,1.016,0,1,1,1.437,1.437l-1.437,1.437A1.016,1.016,0,0,0,341.807,340.37Z" transform="translate(-299.827 -299.826)"/>
    <path id="Trazado_101826" data-name="Trazado 101826" d="M336.778,73.57a3.039,3.039,0,0,0,2.155-.891l5.747-5.747a3.048,3.048,0,0,0-4.31-4.31l-5.747,5.747a3.046,3.046,0,0,0,2.155,5.2Zm-.718-3.765,5.747-5.747a1.016,1.016,0,0,1,1.437,1.437L337.5,71.242a1.016,1.016,0,0,1-1.437-1.437Z" transform="translate(-299.827 -55.459)"/>
    <path id="Trazado_101827" data-name="Trazado 101827" d="M111.013,274.034a1.016,1.016,0,0,0,0-2.032h0a1.016,1.016,0,0,0,0,2.032Z" transform="translate(-98.822 -244.368)"/>
  </g>
</svg>
