<svg xmlns="http://www.w3.org/2000/svg" width="446.917" height="311.262" viewBox="0 0 446.917 311.262">
  <g id="Grupo_55757" data-name="Grupo 55757" transform="translate(-523.16 493.203)">
    <g id="Grupo_55756" data-name="Grupo 55756" transform="translate(523.66 -492.608)">
      <g id="Grupo_55734" data-name="Grupo 55734" transform="translate(0 115.836)">
        <path id="Rectángulo_5381" data-name="Rectángulo 5381" d="M3.063,0H4.128A3.063,3.063,0,0,1,7.191,3.063V32.791a0,0,0,0,1,0,0H0a0,0,0,0,1,0,0V3.063A3.063,3.063,0,0,1,3.063,0Z" transform="translate(10.658 35.497)" fill="#f7e1a0"/>
        <path id="Rectángulo_5382" data-name="Rectángulo 5382" d="M3.6,0h0a3.6,3.6,0,0,1,3.6,3.6V43.148a0,0,0,0,1,0,0H0a0,0,0,0,1,0,0V3.6A3.6,3.6,0,0,1,3.6,0Z" transform="translate(36.657 25.14)" fill="#f7e1a0"/>
        <path id="Rectángulo_5383" data-name="Rectángulo 5383" d="M3.6,0h0a3.6,3.6,0,0,1,3.6,3.6V53.426a0,0,0,0,1,0,0H0a0,0,0,0,1,0,0V3.6A3.6,3.6,0,0,1,3.6,0Z" transform="translate(23.982 14.862)" fill="#f7e1a0"/>
        <path id="Rectángulo_5384" data-name="Rectángulo 5384" d="M3.6,0h0a3.6,3.6,0,0,1,3.6,3.6V68.288a0,0,0,0,1,0,0H0a0,0,0,0,1,0,0V3.6A3.6,3.6,0,0,1,3.6,0Z" transform="translate(51.556)" fill="#f7e1a0"/>
        <path id="Trazado_102235" data-name="Trazado 102235" d="M523.66-364.9v61.1h67.508" transform="translate(-523.66 372.088)" fill="none" stroke="#f7e1a0" stroke-linecap="round" stroke-linejoin="round" stroke-width="1"/>
        <path id="Trazado_102236" data-name="Trazado 102236" d="M527.465-306.148l22.85-34.6,13.016,9.983,17.31-27.672" transform="translate(-523.66 372.088)" fill="none" stroke="#fff" stroke-linecap="round" stroke-linejoin="round" stroke-width="1"/>
        <path id="Trazado_102237" data-name="Trazado 102237" d="M581-359.131l-3.17.519,5.894-4.781-1.514,7.086Z" transform="translate(-523.66 372.088)" fill="#dbf6e9"/>
      </g>
      <g id="Grupo_55735" data-name="Grupo 55735" transform="translate(387.126 155.953)">
        <path id="Trazado_102238" data-name="Trazado 102238" d="M950.93-317.1l-24.822-.3a1.156,1.156,0,0,1-.967-1.279v-11.542a1.157,1.157,0,0,1,.967-1.279l24.822.3a1.157,1.157,0,0,1,.967,1.279v11.542A1.157,1.157,0,0,1,950.93-317.1Z" transform="translate(-925.141 331.498)" fill="#f2cf67" stroke="#f7e1a0" stroke-linecap="round" stroke-linejoin="round" stroke-width="1"/>
        <line id="Línea_405" data-name="Línea 405" x2="20" transform="translate(3.125 3.095)" fill="none" stroke="#f7e1a0" stroke-linecap="round" stroke-linejoin="round" stroke-width="1"/>
        <line id="Línea_406" data-name="Línea 406" x2="20" transform="translate(3.125 5.498)" fill="none" stroke="#f7e1a0" stroke-linecap="round" stroke-linejoin="round" stroke-width="1"/>
        <line id="Línea_407" data-name="Línea 407" x2="20" transform="translate(3.125 7.781)" fill="none" stroke="#f7e1a0" stroke-linecap="round" stroke-linejoin="round" stroke-width="1"/>
        <line id="Línea_408" data-name="Línea 408" x2="20" transform="translate(3.125 9.823)" fill="none" stroke="#f7e1a0" stroke-linecap="round" stroke-linejoin="round" stroke-width="1"/>
        <line id="Línea_409" data-name="Línea 409" x2="20" transform="translate(3.125 12.106)" fill="none" stroke="#f7e1a0" stroke-linecap="round" stroke-linejoin="round" stroke-width="1"/>
      </g>
      <g id="Grupo_55737" data-name="Grupo 55737" transform="translate(103.355 88.999)">
        <g id="Grupo_55736" data-name="Grupo 55736">
          <path id="Trazado_102239" data-name="Trazado 102239" d="M650.2-387.765l2.063-.032a.431.431,0,0,0,.424-.437l-.047-2.995a.43.43,0,0,0-.437-.424l-2.131.033a8.561,8.561,0,0,0-1.242-2.685l1.521-1.6a.431.431,0,0,0-.015-.609l-2.171-2.063a.43.43,0,0,0-.609.016l-1.575,1.657a8.571,8.571,0,0,0-2.419-.918v-2.334a.431.431,0,0,0-.431-.431h-2.995a.43.43,0,0,0-.43.431v2.392a8.544,8.544,0,0,0-2.662,1.159l-1.774-1.7a.431.431,0,0,0-.609.012l-2.072,2.162a.43.43,0,0,0,.013.609l1.772,1.7a8.512,8.512,0,0,0-.993,2.463l-2.429.037a.431.431,0,0,0-.424.438l.047,2.994a.43.43,0,0,0,.437.424l2.359-.037a8.547,8.547,0,0,0,1.12,2.693l-1.575,1.657a.43.43,0,0,0,.016.609l2.171,2.063a.431.431,0,0,0,.609-.015l1.519-1.6a8.553,8.553,0,0,0,2.475,1.039v2.155a.43.43,0,0,0,.43.431h2.995a.431.431,0,0,0,.431-.431V-381a8.554,8.554,0,0,0,2.915-1.221l1.467,1.407a.431.431,0,0,0,.609-.013l2.073-2.162a.431.431,0,0,0-.013-.609l-1.468-1.407A8.54,8.54,0,0,0,650.2-387.765Zm-3.455.46a5.434,5.434,0,0,1-2.667,2.785,5.418,5.418,0,0,1-.516.212,5.4,5.4,0,0,1-1.8.309,5.4,5.4,0,0,1-2.052-.4c-.068-.028-.135-.057-.2-.088a5.437,5.437,0,0,1-2.706-2.75c-.045-.1-.088-.208-.127-.315a5.409,5.409,0,0,1-.327-1.856,5.388,5.388,0,0,1,.384-2c.015-.037.028-.075.044-.111a5.432,5.432,0,0,1,2.671-2.782c.086-.04.173-.079.262-.115a5.4,5.4,0,0,1,2.052-.4,5.4,5.4,0,0,1,1.8.31l.11.04a5.428,5.428,0,0,1,2.885,2.562c.059.113.114.227.165.344a5.386,5.386,0,0,1,.448,2.157,5.412,5.412,0,0,1-.273,1.7C646.847-387.575,646.8-387.439,646.741-387.3Z" transform="translate(-630.524 400.587)" fill="#dbf6e9"/>
        </g>
      </g>
      <g id="Grupo_55739" data-name="Grupo 55739" transform="translate(346.06 190.081)">
        <g id="Grupo_55738" data-name="Grupo 55738">
          <path id="Trazado_102240" data-name="Trazado 102240" d="M906.783-279.546l2.636-.041a.551.551,0,0,0,.542-.559l-.06-3.826a.551.551,0,0,0-.559-.542l-2.723.042a10.949,10.949,0,0,0-1.587-3.431l1.944-2.046a.551.551,0,0,0-.02-.778l-2.775-2.636a.55.55,0,0,0-.778.02l-2.013,2.118A10.89,10.89,0,0,0,898.3-292.4v-2.983a.551.551,0,0,0-.551-.551h-3.827a.551.551,0,0,0-.55.551v3.056a10.921,10.921,0,0,0-3.4,1.482l-2.267-2.173a.551.551,0,0,0-.779.016l-2.648,2.763a.551.551,0,0,0,.016.778l2.265,2.171a10.888,10.888,0,0,0-1.269,3.147l-3.1.049a.549.549,0,0,0-.542.558l.06,3.827a.549.549,0,0,0,.558.542l3.015-.047a10.917,10.917,0,0,0,1.432,3.441l-2.013,2.119a.55.55,0,0,0,.02.778l2.774,2.636a.552.552,0,0,0,.779-.02l1.942-2.044a10.928,10.928,0,0,0,3.162,1.328v2.754a.551.551,0,0,0,.55.551h3.827a.551.551,0,0,0,.551-.551V-270.9a10.931,10.931,0,0,0,3.726-1.559l1.875,1.8a.55.55,0,0,0,.778-.016l2.649-2.763a.55.55,0,0,0-.017-.778l-1.876-1.8A10.925,10.925,0,0,0,906.783-279.546Zm-4.415.588a6.948,6.948,0,0,1-3.409,3.559c-.214.1-.435.192-.66.272a6.9,6.9,0,0,1-2.306.4,6.89,6.89,0,0,1-2.622-.516c-.087-.036-.172-.073-.257-.112a6.942,6.942,0,0,1-3.457-3.515c-.058-.133-.113-.266-.163-.4a6.907,6.907,0,0,1-.418-2.372,6.879,6.879,0,0,1,.491-2.558c.018-.047.036-.1.056-.142a6.942,6.942,0,0,1,3.413-3.554c.11-.052.222-.1.335-.148a6.909,6.909,0,0,1,2.622-.516,6.9,6.9,0,0,1,2.306.395l.141.052a6.938,6.938,0,0,1,3.687,3.274c.075.144.146.291.211.441a6.879,6.879,0,0,1,.573,2.756,6.917,6.917,0,0,1-.349,2.169C902.5-279.3,902.439-279.129,902.368-278.958Z" transform="translate(-881.642 295.932)" fill="#dbf6e9"/>
        </g>
      </g>
      <g id="Grupo_55741" data-name="Grupo 55741" transform="translate(395.878 82.573)">
        <g id="Grupo_55740" data-name="Grupo 55740">
          <path id="Trazado_102241" data-name="Trazado 102241" d="M959.809-389.222c.927-.014,2.346.249,3.2-.185,1.075-.546.71-2.232.7-3.2s.266-2.533-.859-2.983c-.9-.361-2.252-.07-3.2-.055l.724.551a12.794,12.794,0,0,0-1.663-3.611l-.117.909c.675-.71,1.822-1.526,2.2-2.45.486-1.2-1.018-2.141-1.752-2.838s-1.7-2.056-2.861-1.4a11.893,11.893,0,0,0-2.287,2.31l.909-.117a13.1,13.1,0,0,0-3.271-1.248l.551.723a12.375,12.375,0,0,0-.065-3.322c-.4-1.326-2.218-.962-3.274-.962-1.084,0-2.757-.316-3.063,1.1a16.238,16.238,0,0,0-.027,3.256l.551-.723a12.805,12.805,0,0,0-3.58,1.557l.909.117a17.715,17.715,0,0,0-2.419-2.29c-1.267-.8-2.245.715-3.012,1.515s-2.253,1.844-1.425,3.068a16.627,16.627,0,0,0,2.382,2.323l-.117-.909a13.079,13.079,0,0,0-1.345,3.327l.723-.551a16.845,16.845,0,0,0-3.3.075c-1.452.328-1.08,2.092-1.063,3.2s-.3,2.889,1.14,3.178a15.917,15.917,0,0,0,3.214-.02l-.723-.551a12.771,12.771,0,0,0,1.507,3.621l.117-.909a16.839,16.839,0,0,0-2.13,2.27c-.788,1.239.646,2.17,1.434,2.919.7.664,1.707,2.09,2.829,1.689.944-.337,1.764-1.649,2.43-2.349l-.909.117a13.051,13.051,0,0,0,3.341,1.4l-.551-.723a11.576,11.576,0,0,0,.065,3.092c.385,1.3,2.114.963,3.149.963.986,0,2.634.325,3.113-.824a9.1,9.1,0,0,0,.1-3.158l-.551.723a12.581,12.581,0,0,0,3.9-1.635l-.909-.117a9.17,9.17,0,0,0,2.28,2.053c1.169.478,2.07-.935,2.758-1.653.657-.685,2-1.629,1.612-2.733-.316-.89-1.522-1.656-2.18-2.286l.118.909a12.817,12.817,0,0,0,1.424-3.706c.2-.942-1.244-1.344-1.447-.4a11.463,11.463,0,0,1-1.272,3.348.763.763,0,0,0,.117.909,10.445,10.445,0,0,0,1.7,1.632c.3.166.081.019.132-.058a1.415,1.415,0,0,1-.264.276,11.02,11.02,0,0,0-1,1.047,9.615,9.615,0,0,0-1,1.046,1.915,1.915,0,0,1-.265.276c-.077.07.32.166.1-.046l-1.748-1.676a.764.764,0,0,0-.909-.117,11.4,11.4,0,0,1-3.547,1.484.758.758,0,0,0-.55.723,11.3,11.3,0,0,0,0,2.46c.072.3-.059.1.178.022a1.462,1.462,0,0,1-.443,0c-.473-.048-.974,0-1.45,0s-.976-.047-1.449,0a1.344,1.344,0,0,1-.443,0c.235.107.109.258.178-.028a11.662,11.662,0,0,0,0-2.527.762.762,0,0,0-.55-.723,11.576,11.576,0,0,1-2.983-1.253.762.762,0,0,0-.909.117,11.057,11.057,0,0,0-1.782,1.876c-.158.29-.01.082.063.132a1.506,1.506,0,0,1-.277-.263,12.586,12.586,0,0,0-1.141-1.085,6.152,6.152,0,0,0-1.075-1.02,1.26,1.26,0,0,1-.207-.2c.158.325-.115.225.219,0a12.773,12.773,0,0,0,1.759-1.85.769.769,0,0,0,.117-.909,11.48,11.48,0,0,1-1.356-3.262.76.76,0,0,0-.723-.551,11.658,11.658,0,0,0-2.67.042c-.317.089-.336-.179-.154.192a.811.811,0,0,1-.005-.286,7.027,7.027,0,0,0-.025-1.606,6.635,6.635,0,0,0-.024-1.607,1.171,1.171,0,0,1-.005-.286c-.131.352-.228.081.146.165a12.983,12.983,0,0,0,2.749-.043.765.765,0,0,0,.723-.55,11.6,11.6,0,0,1,1.194-2.969.765.765,0,0,0-.117-.909,12.165,12.165,0,0,0-2.006-1.922c-.282-.156-.134-.383-.261.019a.836.836,0,0,1,.2-.207,7.23,7.23,0,0,0,1.112-1.159,6.58,6.58,0,0,0,1.112-1.16,1.193,1.193,0,0,1,.2-.207c-.332.159-.223-.112-.009.217a13.379,13.379,0,0,0,2.008,1.925.766.766,0,0,0,.909.117,11.468,11.468,0,0,1,3.222-1.406.762.762,0,0,0,.55-.723,12.249,12.249,0,0,0,0-2.707,1.413,1.413,0,0,1,0-.325c-.158.36-.216.086.108.175a6.333,6.333,0,0,0,1.482,0c.513,0,1.063.051,1.574,0a1.344,1.344,0,0,1,.443,0c-.233-.105-.109-.261-.178.021a12.826,12.826,0,0,0,0,2.763.761.761,0,0,0,.55.723,11.523,11.523,0,0,1,2.913,1.1.765.765,0,0,0,.908-.117,13.64,13.64,0,0,0,1.759-1.851c.169-.269.377-.158-.013-.272a.8.8,0,0,1,.207.2,6.971,6.971,0,0,0,1.074,1.02,10.329,10.329,0,0,0,1.142,1.085,2.139,2.139,0,0,1,.277.263c-.033-.034.218-.265-.081-.058a13.631,13.631,0,0,0-1.783,1.877.763.763,0,0,0-.118.909,11.475,11.475,0,0,1,1.511,3.252.766.766,0,0,0,.723.551,10.962,10.962,0,0,0,2.5-.039c.231-.064.215.163.034-.19a.735.735,0,0,1,.005.285,6.693,6.693,0,0,0,.023,1.482l.023,1.484c0,.155.02.318.007.473s.3-.158.1-.108a12.417,12.417,0,0,1-2.523.039A.75.75,0,0,0,959.809-389.222Z" transform="translate(-933.893 407.154)" fill="#f7e1a0"/>
          <path id="Trazado_102242" data-name="Trazado 102242" d="M954.747-389.763a6.288,6.288,0,0,1-5.979,3.85,6.21,6.21,0,0,1-5.563-4.1,6.24,6.24,0,0,1,1.971-6.888,6.238,6.238,0,0,1,7.229-.328,6.266,6.266,0,0,1,2.266,7.647c-.361.9,1.089,1.284,1.446.4a7.724,7.724,0,0,0-2.13-8.726,7.749,7.749,0,0,0-8.77-.822,7.742,7.742,0,0,0-3.768,7.839,7.715,7.715,0,0,0,5.9,6.3,7.75,7.75,0,0,0,8.7-4.412C956.428-389.881,955.136-390.645,954.747-389.763Z" transform="translate(-933.893 407.154)" fill="#f7e1a0"/>
        </g>
      </g>
      <g id="Grupo_55742" data-name="Grupo 55742" transform="translate(48.994 143.506)">
        <path id="Trazado_102243" data-name="Trazado 102243" d="M645.608-257.539l-4.258.147-15.268,60.074,4.258-.147Z" transform="translate(-572.655 339.327)" fill="#18104b" stroke="#31326f" stroke-miterlimit="10" stroke-width="1"/>
        <path id="Trazado_102244" data-name="Trazado 102244" d="M644.363-254.309l-4.186.147,14.168,60.074,4.186-.147Z" transform="translate(-572.655 339.327)" fill="#18104b" stroke="#31326f" stroke-miterlimit="10" stroke-width="1"/>
        <path id="Trazado_102245" data-name="Trazado 102245" d="M600.086-257.539l-4.258.147L580.56-197.319l4.258-.147Z" transform="translate(-572.655 339.327)" fill="#18104b" stroke="#31326f" stroke-miterlimit="10" stroke-width="1"/>
        <path id="Trazado_102246" data-name="Trazado 102246" d="M598.842-254.309l-4.187.147,14.168,60.074,4.187-.147Z" transform="translate(-572.655 339.327)" fill="#18104b" stroke="#31326f" stroke-miterlimit="10" stroke-width="1"/>
        <path id="Rectángulo_5385" data-name="Rectángulo 5385" d="M0,0H57.483a0,0,0,0,1,0,0V1.406A2.594,2.594,0,0,1,54.889,4H2.594A2.594,2.594,0,0,1,0,1.406V0A0,0,0,0,1,0,0Z" transform="translate(17.672 86.371)" fill="#18104b" stroke="#31326f" stroke-miterlimit="10" stroke-width="1"/>
        <path id="Trazado_102247" data-name="Trazado 102247" d="M653.4-253.108H585.1l-12.446-85.9h68.3Z" transform="translate(-572.655 339.327)" fill="#f7e1a0"/>
        <path id="Trazado_102248" data-name="Trazado 102248" d="M644.515-269.533H588.86l-9.091-62.741h55.655Z" transform="translate(-572.655 339.327)" fill="#cc3d60"/>
        <path id="Trazado_102249" data-name="Trazado 102249" d="M588.86-269.533s9.506-40.678,12.885-42.79,13.514,12.247,16.47,10.558,8.549-25.526,8.549-25.526" transform="translate(-572.655 339.327)" fill="none" stroke="#18104b" stroke-linecap="round" stroke-linejoin="round" stroke-width="1"/>
        <path id="Trazado_102250" data-name="Trazado 102250" d="M579.769-332.274c.218.458,9.29,62.828,9.29,62.828l55.456-.087" transform="translate(-572.655 339.327)" fill="none" stroke="#18104b" stroke-linecap="round" stroke-linejoin="round" stroke-width="1"/>
        <path id="Trazado_102251" data-name="Trazado 102251" d="M581.877-276.628l-9.222-62.378,25.476.008" transform="translate(-572.655 339.327)" fill="none" stroke="#18104b" stroke-linecap="round" stroke-linejoin="round" stroke-width="1"/>
        <path id="Trazado_102252" data-name="Trazado 102252" d="M582.759-269.386l2.341,16.279h17.944" transform="translate(-572.655 339.327)" fill="none" stroke="#18104b" stroke-linecap="round" stroke-linejoin="round" stroke-width="1"/>
        <line id="Línea_410" data-name="Línea 410" x2="54.971" transform="translate(18.49 75.354)" fill="none" stroke="#18104b" stroke-linecap="round" stroke-linejoin="round" stroke-width="1"/>
        <line id="Línea_411" data-name="Línea 411" x2="54.971" transform="translate(20.674 79.722)" fill="none" stroke="#18104b" stroke-linecap="round" stroke-linejoin="round" stroke-width="1"/>
        <path id="Trazado_102253" data-name="Trazado 102253" d="M624.564-332.318l10.86.044s2.023,13,2.023,13.467" transform="translate(-572.655 339.327)" fill="none" stroke="#18104b" stroke-linecap="round" stroke-linejoin="round" stroke-width="1"/>
        <path id="Trazado_102254" data-name="Trazado 102254" d="M620.31-339.327l20.644.322,2.013,14.224" transform="translate(-572.655 339.327)" fill="none" stroke="#18104b" stroke-linecap="round" stroke-linejoin="round" stroke-width="1"/>
      </g>
      <path id="Trazado_102255" data-name="Trazado 102255" d="M920.438-216.184a16.918,16.918,0,0,0,3.555.658c1.317,0,4.476-7.11,4.476-7.11l-1.815-1.588S922.94-222.767,920.438-216.184Z" transform="translate(-538.015 482.833)" fill="#f29554"/>
      <path id="Trazado_102256" data-name="Trazado 102256" d="M928.469-222.636s-3.159,7.11-4.476,7.11c0,0-6.551,9.914-1.631,14.456,0,0,10.716-17.484,10.847-19.459S928.469-222.636,928.469-222.636Z" transform="translate(-538.015 482.833)" fill="#18104b" stroke="#31326f" stroke-miterlimit="10" stroke-width="1"/>
      <path id="Trazado_102257" data-name="Trazado 102257" d="M842.772-321.441l-2.984,7.492s-1.048,7.036-4.042,8.832-12.126-10.03-12.126-10.03-5.389-1.347-7.335,1.8S817-303,825.267-297.033c2.695,1.946,15.569,7.785,19.76,1.8s7.486-15.869,7.486-15.869Z" transform="translate(-533.581 486.857)" fill="#f29554"/>
      <path id="Trazado_102258" data-name="Trazado 102258" d="M844.031-317.289l7.106,9.274-5.9,2.649S844.152-317.65,844.031-317.289Z" transform="translate(-533.829 487.041)" fill="#18104b" stroke="#31326f" stroke-miterlimit="10" stroke-width="1"/>
      <path id="Trazado_102259" data-name="Trazado 102259" d="M826.154-308.74c-5.357-3.571-10.713-4.166-8.134-.6s20.83,14.879,26.98,13.093c3.557-1.033-3.184-2.125-9.324-5.555A67.337,67.337,0,0,1,826.154-308.74Z" transform="translate(-533.448 486.794)" fill="#18104b" stroke="#31326f" stroke-miterlimit="10" stroke-width="1"/>
      <rect id="Rectángulo_5386" data-name="Rectángulo 5386" width="7.032" height="35.745" transform="translate(195.711 272.433)" fill="#f0c64c" stroke="#18104b" stroke-linecap="round" stroke-linejoin="round" stroke-width="1"/>
      <rect id="Rectángulo_5387" data-name="Rectángulo 5387" width="7.032" height="11.32" transform="translate(195.711 272.433)" fill="#18104b" stroke="#31326f" stroke-miterlimit="10" stroke-width="1"/>
      <rect id="Rectángulo_5388" data-name="Rectángulo 5388" width="7.032" height="35.745" transform="translate(256.615 272.433)" fill="#f0c64c" stroke="#18104b" stroke-linecap="round" stroke-linejoin="round" stroke-width="1"/>
      <rect id="Rectángulo_5389" data-name="Rectángulo 5389" width="7.032" height="11.88" transform="translate(256.615 272.433)" fill="#18104b" stroke="#31326f" stroke-miterlimit="10" stroke-width="1"/>
      <rect id="Rectángulo_5390" data-name="Rectángulo 5390" width="7.032" height="69.933" transform="translate(194.675 279.465) rotate(-90)" fill="#f0c64c" stroke="#18104b" stroke-linecap="round" stroke-linejoin="round" stroke-width="1"/>
      <path id="Trazado_102260" data-name="Trazado 102260" d="M689.424-207.068H669.892v3.446h34.181v-3.446Z" transform="translate(-528.597 482.833)" fill="#18104b" stroke="#31326f" stroke-miterlimit="10" stroke-width="1"/>
      <path id="Trazado_102261" data-name="Trazado 102261" d="M697.191-250.4c6.537-24.746,22.254-38.286,22.254-38.286l15.075,61.5c-27.279,0-35.654,21.057-35.654,21.057S690.491-225.035,697.191-250.4Z" transform="translate(-529.51 482.833)" fill="#31326f" stroke="#31326f" stroke-miterlimit="10" stroke-width="1"/>
      <path id="Trazado_102262" data-name="Trazado 102262" d="M710.308-214.406H698.465s-21.126,2.063-21.126,7.682h31.689Z" transform="translate(-528.834 482.833)" fill="#b51dcc"/>
      <path id="Trazado_102263" data-name="Trazado 102263" d="M785.729-228.146s27.518.718,37.09,20.34c0,0,20.1-44.029-21.536-82.316a318.707,318.707,0,0,1-7.179,35.894C789.147-235.346,785.729-228.146,785.729-228.146Z" transform="translate(-532.673 482.833)" fill="#31326f" stroke="#31326f" stroke-miterlimit="10" stroke-width="1"/>
      <g id="Grupo_55743" data-name="Grupo 55743" transform="translate(178.736)">
        <path id="Trazado_102264" data-name="Trazado 102264" d="M807.25-346.3q.861-15.708,1.111-33.25c.313-23.769-4.474-43.507-11.2-59.408a58.91,58.91,0,0,1-38.078,13.76,58.94,58.94,0,0,1-37.613-13.375,188.782,188.782,0,0,0-11.466,57.115c-2.349,48.312,15.906,119.706,24.12,144.325a64.622,64.622,0,0,0,3,7.859h49.38q1.441-3.422,2.886-7.529c5.3-15.1,10.44-37.143,14.043-66.1Z" transform="translate(-709.802 492.608)" fill="#ffc93c"/>
        <path id="Trazado_102265" data-name="Trazado 102265" d="M802.875-296.368c-.1.179-6.2-.649-6.2-.649s.612-10.409-7.756-10.409c-7.143,0-7.345,10.9-7.345,10.9l-11.024.118-.039-15.273s-11.819,1.7-11.819-7.8c0-8.878,11.4-7.776,11.4-7.776l-.345-12.951,11.066-.393s.668,9.75,8.768,9.75c8.255,0,9.189-10.435,9.189-10.435s7.9-.257,7.912-.513C806.683-341.793,804.5-299.358,802.875-296.368Z" transform="translate(-709.802 486.132)" fill="#dcaa41"/>
        <path id="Trazado_102266" data-name="Trazado 102266" d="M797.166-438.96c-14.724-36.465-38.73-53.648-38.73-53.648C746.2-485.5,731.5-466.483,721.475-438.557a57.355,57.355,0,0,0,37.613,14A57.356,57.356,0,0,0,797.166-438.96Z" transform="translate(-709.802 492.608)" fill="#31326f" stroke="#31326f" stroke-miterlimit="10" stroke-width="1"/>
      </g>
      <path id="Trazado_102267" data-name="Trazado 102267" d="M789.4-227.381q-1.44,4.3-2.886,7.881h-49.38a69.686,69.686,0,0,1-3-8.226h55.213Z" transform="translate(-531.137 482.833)" fill="#f2cf67" stroke="#18104b" stroke-linecap="round" stroke-linejoin="round" stroke-width="1"/>
      <path id="Trazado_102268" data-name="Trazado 102268" d="M781.516-219.5H741.532l4.294,9.516h32.067S781.516-219.49,781.516-219.5Z" transform="translate(-531.118 482.833)" fill="#18104b" stroke="#31326f" stroke-miterlimit="10" stroke-width="1"/>
      <path id="Trazado_102269" data-name="Trazado 102269" d="M762.757-291.079c-3.59,2.393-12.683,55.994.239,81.359,0,0,5.264-15.793,4.547-41.4S762.757-291.079,762.757-291.079Z" transform="translate(-531.114 482.833)" fill="#31326f" stroke="#31326f" stroke-miterlimit="10" stroke-width="1"/>
      <circle id="Elipse_4033" data-name="Elipse 4033" cx="26.323" cy="26.323" r="26.323" transform="translate(201.724 77.66)" fill="none" stroke="#18104b" stroke-miterlimit="10" stroke-width="1"/>
      <circle id="Elipse_4034" data-name="Elipse 4034" cx="20.729" cy="20.729" r="20.729" transform="translate(207.014 83.292)" fill="#31326f" stroke="#31326f" stroke-miterlimit="10" stroke-width="1"/>
      <path id="Trazado_102270" data-name="Trazado 102270" d="M712.336-394.745c8.044,1.238,21.657,12.066,22.894,13.458s.1,20.324-1.392,21.812c-.309.309-14.077-7.426-14.077-7.426Z" transform="translate(-529.873 489.246)" fill="#cc3d60"/>
      <path id="Trazado_102271" data-name="Trazado 102271" d="M720.037-384.685s4.122,11.671,4.4,15.337-7.331,3.1-7.331,3.1Z" transform="translate(-529.804 489.107)" fill="#18104b" stroke="#31326f" stroke-miterlimit="10" stroke-width="1"/>
      <path id="Trazado_102272" data-name="Trazado 102272" d="M735.23-381.287c1.238,1.392.1,20.324-1.392,21.812-.13.13,1.795.875,4.356,1.7,3.527,1.137,8.261,2.428,10.5,2.475,9.008.191,16.706-24.441,17.944-27.844s5.1-8.972,4.641-10.055-2.475-.928-4.177,1.7c0,0,3.094-5.105,1.237-5.569s-4.64,3.867-4.64,3.867,2.784-6.033,1.083-6.961-4.951,4.022-4.951,4.022,1.7-5.105.31-5.878-5.1,9.126-5.1,9.126-.773-4.331-2.32-4.331c-1.393,0-1.238,4.177.773,11.756l-6.961,13.459Z" transform="translate(-530.812 489.366)" fill="#dc94ba"/>
      <path id="Trazado_102273" data-name="Trazado 102273" d="M738.194-357.774c-2.561-.826-4.486-1.571-4.356-1.7,1.488-1.488,2.63-20.42,1.392-21.812,0,0,3.829,14.2,3.581,17.679S738.194-357.774,738.194-357.774Z" transform="translate(-530.3 488.935)" fill="#18104b" stroke="#31326f" stroke-miterlimit="10" stroke-width="1"/>
      <path id="Trazado_102274" data-name="Trazado 102274" d="M688.77-395.935s-.447-18.286,2.457-25.06c4.422-10.319,23.831-10.811,23.831.982,0,7.862,1.72,16.216-1.474,18.181s-8.6.983-8.6.983l-.491,5.159S688.4-396.3,688.77-395.935Z" transform="translate(-529.139 490.432)" fill="#dc94ba"/>
      <path id="Trazado_102275" data-name="Trazado 102275" d="M688.6-400.527s-.212,2.471,6.861,2.471c5.452,0,7.561-2.471,7.561-2.471s3.439-5.236,3.931-7.938c0,0-3.44-.246-2.949-4.423s3.44-3.931,3.931,0c0,0,3.686-.737,3.194-6.388,0,0,12.2-1.451,10.319-8.6-1.228-4.668-7.616-2.211-7.616-2.211s3.44-4.913-1.474-6.388c-6.05-1.815-13.022,6.143-13.022,6.143s0-5.16-2.7-4.423-5.965,4.336-4.736,9.5c0,0-4.1-3.161-6.074-.16C683.553-421.972,688.6-409.578,688.6-400.527Z" transform="translate(-529.144 490.665)" fill="#31326f" stroke="#31326f" stroke-miterlimit="10" stroke-width="1"/>
      <path id="Trazado_102276" data-name="Trazado 102276" d="M673.813-390.9c6.523-3.261,11.763-5.037,14.957-5.037h15.724s14.741-.983,16.707,12.038c.886,5.871-4.669,55.525-4.669,55.525h-46.68l1.474-28.008.737-32.185A3.477,3.477,0,0,1,673.813-390.9Z" transform="translate(-528.805 488.862)" fill="#cc3d60"/>
      <path id="Trazado_102277" data-name="Trazado 102277" d="M672.84-347.354c6.485-5.64,12.407-11,13.535-16.355a37.662,37.662,0,0,0-.018-16.168Z" transform="translate(-528.473 488.772)" fill="#18104b" stroke="#31326f" stroke-miterlimit="10" stroke-width="1"/>
      <path id="Trazado_102278" data-name="Trazado 102278" d="M661.645-371.282c4.229-15.15,10.618-18.482,13.409-20.112,4.12-2.406,10.114-5.293,11.3,11.517.681,9.636-6.346,19.567-6.346,19.567Z" transform="translate(-528.218 489.222)" fill="#cc3d60"/>
      <path id="Trazado_102279" data-name="Trazado 102279" d="M680.011-360.31l-18.366-10.972-7.271,23.255L644.3-323.949s-9.495,4.927-10.073,8.353c-.923,5.46,6.389,12.118,8.107,10.073.426-.507-.935-2.786-1.621-5.225,0,0,.773-6.342,5.061-4.357,2.542,1.177,4.422,6.634,4.422,6.634s1.474-6.388,1.229-8.845,11.056-14.25,16.706-22.112S680.011-360.31,680.011-360.31Z" transform="translate(-527.496 487.932)" fill="#dc94ba"/>
      <g id="Trazado_102280" data-name="Trazado 102280" transform="translate(-528.963 482.833)" fill="#45499b" stroke-miterlimit="10">
        <path d="M 710.8170166015625 -213.906005859375 L 710.3079833984375 -213.906005859375 L 690.301025390625 -213.906005859375 L 689.8497924804688 -213.906005859375 L 689.8036499023438 -214.3548889160156 C 689.77734375 -214.6107940673828 687.1464233398438 -240.1853790283203 684.7703247070313 -260.8719177246094 C 683.5079345703125 -271.8613891601563 682.3031616210938 -285.5181579589844 681.5833740234375 -293.6778259277344 C 681.239990234375 -297.570068359375 680.991943359375 -300.3822631835938 680.914794921875 -300.8851928710938 C 680.5660400390625 -303.1508483886719 680.3367309570313 -305.858154296875 681.2805786132813 -308.7572937011719 C 682.4918823242188 -312.4780883789063 685.3614501953125 -315.4296875 689.8095092773438 -317.5301208496094 C 693.751220703125 -319.3910522460938 698.7521362304688 -320.3346252441406 704.6732788085938 -320.3346252441406 C 710.0443115234375 -320.3346252441406 714.2523193359375 -319.5218811035156 714.294189453125 -319.513671875 L 714.697998046875 -319.4345092773438 L 714.697998046875 -319.0230102539063 C 714.697998046875 -311.1188659667969 710.0294189453125 -267.6404113769531 709.8784790039063 -266.2376403808594 L 710.8079223632813 -214.4149780273438 L 710.8170166015625 -213.906005859375 Z" stroke="none"/>
        <path d="M 704.6732788085938 -319.8346252441406 C 700.0960693359375 -319.8346252441406 694.6195678710938 -319.2481079101563 690.0230102539063 -317.0780029296875 C 680.0189819335938 -312.35400390625 680.85302734375 -304.572998046875 681.4089965820313 -300.9609985351563 C 681.6519775390625 -299.3770141601563 683.3909912109375 -277.260986328125 685.2670288085938 -260.9289855957031 C 687.6710205078125 -240 690.301025390625 -214.406005859375 690.301025390625 -214.406005859375 L 710.3079833984375 -214.406005859375 L 709.3779907226563 -266.260009765625 C 709.3779907226563 -266.260009765625 714.197998046875 -310.9639892578125 714.197998046875 -319.0230102539063 C 714.197998046875 -319.0230102539063 710.0579223632813 -319.8346252441406 704.6732788085938 -319.8346252441406 M 704.6732788085938 -320.8346252441406 C 710.0927124023438 -320.8346252441406 714.2174682617188 -320.0382385253906 714.390380859375 -320.0043334960938 L 715.197998046875 -319.8460083007813 L 715.197998046875 -319.0230102539063 C 715.197998046875 -311.0778198242188 710.6558837890625 -268.7861328125 710.3789672851563 -266.21533203125 L 711.3078002929688 -214.4239501953125 L 711.3260498046875 -213.406005859375 L 710.3079833984375 -213.406005859375 L 690.301025390625 -213.406005859375 L 689.3984985351563 -213.406005859375 L 689.3062744140625 -214.3038024902344 C 689.2799682617188 -214.5596618652344 686.6493530273438 -240.1314086914063 684.2735595703125 -260.8148803710938 C 683.010498046875 -271.8108825683594 681.8053588867188 -285.4717407226563 681.0853271484375 -293.6338500976563 C 680.7427368164063 -297.516845703125 680.4953002929688 -300.3223266601563 680.4205932617188 -300.8093872070313 C 680.2041625976563 -302.2152709960938 679.6972045898438 -305.5088195800781 680.8051147460938 -308.9120483398438 C 682.0607299804688 -312.76904296875 685.0184326171875 -315.8206787109375 689.5960083007813 -317.9822387695313 C 693.6050415039063 -319.8749389648438 698.677734375 -320.8346252441406 704.6732788085938 -320.8346252441406 Z" stroke="none" fill="#31326f"/>
      </g>
      <g id="Trazado_102281" data-name="Trazado 102281" transform="translate(-528.263 485.938)" fill="#45499b" stroke-miterlimit="10">
        <path d="M 661.608154296875 -248.7090454101563 L 661.4791259765625 -249.1277465820313 C 661.4423217773438 -249.2473449707031 657.7554321289063 -261.2337646484375 654.4219360351563 -273.9488220214844 C 652.462646484375 -281.4221801757813 651.0065307617188 -287.6832275390625 650.0938720703125 -292.5580749511719 C 648.9234008789063 -298.8103942871094 648.6498413085938 -302.7030639648438 649.2575073242188 -304.4585571289063 C 650.3173828125 -307.5203552246094 654.05322265625 -312.5412902832031 660.361328125 -319.3818359375 C 665.0357666015625 -324.4508666992188 669.4622192382813 -328.6911315917969 669.5064086914063 -328.7333679199219 L 669.6513671875 -328.8720092773438 L 669.8519897460938 -328.8720092773438 L 716.531982421875 -328.8720092773438 L 717.0637817382813 -328.8720092773438 L 717.0310668945313 -328.3412475585938 L 716.64306640625 -322.0482482910156 L 716.6409912109375 -322.0153503417969 L 716.6347045898438 -321.9830017089844 C 716.1481323242188 -319.4962463378906 715.2088012695313 -317.2491760253906 713.8428955078125 -315.3041381835938 C 712.6702880859375 -313.6343688964844 711.1470947265625 -312.1383972167969 709.315673828125 -310.8578186035156 C 705.9844360351563 -308.5285034179688 702.1993408203125 -307.2816467285156 699.4356079101563 -306.3712158203125 C 698.1658325195313 -305.9529113769531 697.0691528320313 -305.5916748046875 696.359619140625 -305.2367858886719 C 692.768310546875 -303.441162109375 677.7728271484375 -298.0102233886719 675.0367431640625 -297.0235290527344 L 683.8442993164063 -252.9850463867188 L 683.9453735351563 -252.4797515869141 L 683.437255859375 -252.3939819335938 L 662.0402221679688 -248.781982421875 L 661.608154296875 -248.7090454101563 Z" stroke="none"/>
        <path d="M 669.8519897460938 -328.3720092773438 C 669.8519897460938 -328.3720092773438 652.2310180664063 -311.5199890136719 649.72998046875 -304.2950134277344 C 647.22900390625 -297.0700073242188 661.9569702148438 -249.2749938964844 661.9569702148438 -249.2749938964844 L 683.35400390625 -252.8869934082031 L 674.4619750976563 -297.3479919433594 C 674.4619750976563 -297.3479919433594 692.2459716796875 -303.739013671875 696.135986328125 -305.6839904785156 C 700.0269775390625 -307.6300048828125 713.6430053710938 -309.2969970703125 716.1439819335938 -322.0790100097656 L 716.531982421875 -328.3720092773438 L 669.8519897460938 -328.3720092773438 M 669.4508056640625 -329.3720092773438 L 669.8519897460938 -329.3720092773438 L 716.531982421875 -329.3720092773438 L 717.5955200195313 -329.3720092773438 L 717.5300903320313 -328.3104858398438 L 717.14208984375 -322.0174560546875 L 717.1380004882813 -321.95166015625 L 717.1253662109375 -321.8869934082031 C 716.625244140625 -319.3310241699219 715.6585693359375 -317.0195617675781 714.2520751953125 -315.0167846679688 C 713.0458984375 -313.2992248535156 711.4814453125 -311.7620849609375 709.6022338867188 -310.4480590820313 C 706.210693359375 -308.0765991210938 702.38525390625 -306.8164367675781 699.592041015625 -305.8963317871094 C 698.3408203125 -305.484130859375 697.26025390625 -305.128173828125 696.5833129882813 -304.7896118164063 C 693.118408203125 -303.0571899414063 679.1800537109375 -297.989013671875 675.6115112304688 -296.6994323730469 L 684.3345947265625 -253.0830993652344 L 684.5366821289063 -252.072509765625 L 683.5204467773438 -251.9009399414063 L 662.1234130859375 -248.2889404296875 L 661.2593383789063 -248.1430969238281 L 661.0012817382813 -248.9804992675781 C 660.9644165039063 -249.1002197265625 657.2744750976563 -261.0967712402344 653.9382934570313 -273.822021484375 C 651.9760131835938 -281.3068237304688 650.5172119140625 -287.57958984375 649.6024169921875 -292.466064453125 C 649.0555419921875 -295.3873901367188 648.6983032226563 -297.8464660644531 648.5406494140625 -299.7750244140625 C 648.3563232421875 -302.0292358398438 648.436279296875 -303.6147155761719 648.7849731445313 -304.6221313476563 C 649.8675537109375 -307.7493896484375 653.6387329101563 -312.8293151855469 659.9937133789063 -319.7207946777344 C 664.6787109375 -324.8012390136719 669.1165771484375 -329.0523681640625 669.1608276367188 -329.0947265625 L 669.4508056640625 -329.3720092773438 Z" stroke="none" fill="#31326f"/>
      </g>
      <path id="Trazado_102282" data-name="Trazado 102282" d="M674.462-297.348s17.784-6.391,21.674-8.336,17.507-3.613,20.008-16.4" transform="translate(-528.843 486.958)" fill="#31326f" stroke="#31326f" stroke-miterlimit="10" stroke-width="1"/>
      <path id="Trazado_102283" data-name="Trazado 102283" d="M670.026-246.692l-1.086-3.762,14.414-2.433s2.223,9.447.278,10.837-21.675,4.168-27.788,2.779C655.844-239.271,656.862-245.149,670.026-246.692Z" transform="translate(-528.065 484.945)" fill="#b51dcc"/>
      <path id="Trazado_102284" data-name="Trazado 102284" d="M649.48-290.175l-2.036,10.018-21.35,105.078h8.483l19.6-97.807,1.26-6.284Z" transform="translate(-527.08 482.833)" fill="#f2cf67"/>
      <path id="Trazado_102285" data-name="Trazado 102285" d="M647.444-280.157l2.036-10.018,5.961,11.005-1.26,6.284Z" transform="translate(-527.597 486.066)" fill="#18104b" stroke="#31326f" stroke-miterlimit="10" stroke-width="1"/>
      <path id="Trazado_102286" data-name="Trazado 102286" d="M655.844-239.271v3.48h30.708V-239.9Z" transform="translate(-528.087 484.783)" fill="#18104b" stroke="#31326f" stroke-miterlimit="10" stroke-width="1"/>
      <path id="Trazado_102287" data-name="Trazado 102287" d="M642.335-305.523c.426-.507-.935-2.786-1.621-5.225,0,0,.773-6.342,5.061-4.357,2.542,1.177,4.422,6.634,4.422,6.634L715.84-172.833h-9.855Z" transform="translate(-528.033 482.833)" fill="#f7e1a0"/>
      <path id="Trazado_102288" data-name="Trazado 102288" d="M842.772-321.441l10.579,12.262,8.414-28.13S847.821-338.03,842.772-321.441Z" transform="translate(-534.063 487.403)" fill="#9ddfd3"/>
      <path id="Trazado_102289" data-name="Trazado 102289" d="M861.765-337.309c-7.137,2.729-13.463,9.617-11.059,27.168s4.327,32.938,4.327,32.938l35.823-3.606s3.366-46.4-1.683-52.412S869.94-340.434,861.765-337.309Z" transform="translate(-534.885 486.787)" fill="#9ddfd3"/>
      <path id="Trazado_102290" data-name="Trazado 102290" d="M851.254-324.352a68.9,68.9,0,0,0,0,15.494l3.775,31.655" transform="translate(-533.979 486.575)" fill="none" stroke="#18104b" stroke-linecap="round" stroke-linejoin="round" stroke-width="1"/>
      <path id="Trazado_102291" data-name="Trazado 102291" d="M870.79-292.869c2.579,1.388,11.9-2.778,16.862-9.92,0,0,3.968-2.38,1.984-10.315S870.79-292.869,870.79-292.869Z" transform="translate(-534.987 486.763)" fill="#18104b" stroke="#31326f" stroke-miterlimit="10" stroke-width="1"/>
      <path id="Trazado_102292" data-name="Trazado 102292" d="M858.868-365.059c-3.126.24-4.088,6.251-.962,9.857,0,0,5.53-2.4,6.01-5.53S858.868-365.059,858.868-365.059Z" transform="translate(-534.229 488.585)" fill="#18104b" stroke="#31326f" stroke-miterlimit="10" stroke-width="1"/>
      <path id="Trazado_102293" data-name="Trazado 102293" d="M860.563-362.313c-2.688,1.076-6.738,16.155-5.551,18.2,1.168,2.016,4.821,3.514,7.084,3.588l-.331,3.212s-3.606,3.366-1.2,4.088,11.06-3.366,12.5-4.809l.721-5.289,1.187-5.625s1.939-6.156.016-8.8S865.372-364.236,860.563-362.313Z" transform="translate(-534.505 488.235)" fill="#f29554"/>
      <path id="Trazado_102294" data-name="Trazado 102294" d="M861.765-337.309l.331-3.212a37.157,37.157,0,0,0,6.143,1.072Z" transform="translate(-534.377 487.912)" fill="#18104b" stroke="#31326f" stroke-miterlimit="10" stroke-width="1"/>
      <path id="Trazado_102295" data-name="Trazado 102295" d="M858.64-370.727c-3.241,1.721-1.443,5.77,1.923,8.414a22.976,22.976,0,0,0,7.545,3.7s0,3.847,3.125,4.088c0,0-1.293,8.556-.091,9.277s2.885-3.365,2.885-3.365,7.9-.274,7.213-6.492c-.241-2.164-3.366-1.683-3.366-1.683s2.885-3.125-.962-9.376c-4.389-7.132-8.655-1.924-8.415.961C868.5-365.2,866.333-374.814,858.64-370.727Z" transform="translate(-534.658 488.578)" fill="#31326f" stroke="#31326f" stroke-miterlimit="10" stroke-width="1"/>
      <path id="Trazado_102296" data-name="Trazado 102296" d="M872.584-316.873s10.819,6.732,14.185,12.021c0,0,12.743-13.7,4.087-26.446S872.584-316.873,872.584-316.873Z" transform="translate(-535.094 487.284)" fill="#9ddfd3"/>
      <path id="Trazado_102297" data-name="Trazado 102297" d="M816.131-297.4a1.628,1.628,0,0,0,1.537-1.809c-.344-3.181-.331-9.759,5.389-10.936,5.965-1.226,9.185,3.4,10.511,7.182a3.484,3.484,0,0,0,3.855,2.267l8.8-1.431-4.5-36.58a1.625,1.625,0,0,0-1.772-1.419l-9.036.893a1.618,1.618,0,0,0-1.461,1.721c.219,3.164,0,10.133-5.983,11.283-7.048,1.356-9.543-5.677-9.969-9.786a1.612,1.612,0,0,0-1.773-1.42l-8.652.866a1.624,1.624,0,0,0-1.455,1.774l1.19,12.159s-11.377-.9-10.479,8.833,11.527,6.137,11.826,6.586c.225.338.787,5.99,1.054,8.787a1.623,1.623,0,0,0,1.694,1.469Z" transform="translate(-533.172 487.219)" fill="#ffc93c" stroke="#18104b" stroke-linecap="round" stroke-linejoin="round" stroke-width="1"/>
      <path id="Trazado_102298" data-name="Trazado 102298" d="M833.876-322.4c-1.663.314-2.949,2.1-1.267,4.767s3.959,2.969,3.167,1.484A42.121,42.121,0,0,1,833.876-322.4Z" transform="translate(-533.377 487.286)" fill="#18104b" stroke="#31326f" stroke-miterlimit="10" stroke-width="1"/>
      <path id="Trazado_102299" data-name="Trazado 102299" d="M823.057-310.141c2.645,2.645,26.192,21.767,43.276,18.272,10.579-2.163,18.753-14.185,18.753-14.185s-5.289-9.857-10.819-9.857c0,0-7.693,10.579-10.578,10.819s-18.272-3.606-25.726-10.338c0,0-2.4-7.694-4.087-6.972s.722,5.77.722,5.77-2.886-2.645-6.732-6.011-2.405,2.885.481,5.29c0,0-4.568-4.569-5.771-4.088s1.683,5.53,4.088,6.973c0,0-5.29-4.809-6.011-4.088s2.365,4.172,4.328,6.251c0,0-3.945-2.9-4.328-2.163C819.791-312.8,823.057-310.141,823.057-310.141Z" transform="translate(-534.454 486.864)" fill="#f29554"/>
      <path id="Trazado_102300" data-name="Trazado 102300" d="M840.223-195.659l3.452-.09,8.9-.232s.079-31.281,2.614-38.568c3.791-10.9,34.3-30.255,35.665-46.26L855.033-277.2s-12.852,22.417-16.578,33.407c-1.4,4.13-1.91,9.664-1.921,15.48C836.506-213.55,840.223-195.659,840.223-195.659Z" transform="translate(-534.749 482.833)" fill="#31326f" stroke="#31326f" stroke-miterlimit="10" stroke-width="1"/>
      <path id="Trazado_102301" data-name="Trazado 102301" d="M843.675-195.749l8.9-.232-.192,2.887s-5.446,1.18-7.8-.181Z" transform="translate(-533.858 482.833)" fill="#f29554"/>
      <path id="Trazado_102302" data-name="Trazado 102302" d="M828.147-186.741c3.9-6.262,16.433-6.534,16.433-6.534,2.359,1.361,7.8.181,7.8.181s.635,4.538,0,5.627S828.147-186.741,828.147-186.741Z" transform="translate(-533.712 482.833)" fill="#18104b" stroke="#31326f" stroke-miterlimit="10" stroke-width="1"/>
      <path id="Trazado_102303" data-name="Trazado 102303" d="M855.033-277.2s10.985,28.6,25.787,40.344A205.429,205.429,0,0,0,920.6-212.794l6.056-11.43s-21.456-19.005-30.942-24.7c-3.716-2.229-2.009-21.88-4.856-31.888Z" transform="translate(-538.015 482.833)" fill="#31326f" stroke="#31326f" stroke-miterlimit="10" stroke-width="1"/>
      <path id="Trazado_102304" data-name="Trazado 102304" d="M873.1-343.8c1.4.624,2.964-.156,3.744-2.807.448-1.526-.624-3.744-2.652-1.56" transform="translate(-534.673 488.144)" fill="#f29554"/>
      <rect id="Rectángulo_5391" data-name="Rectángulo 5391" width="59.386" height="16.418" rx="2.336" transform="translate(59.186 82.096)" fill="#f7e1a0"/>
      <rect id="Rectángulo_5392" data-name="Rectángulo 5392" width="17.379" height="9.067" rx="2.371" transform="translate(64.14 85.574)" fill="#18104b" stroke="#31326f" stroke-miterlimit="10" stroke-width="1"/>
      <g id="Grupo_55744" data-name="Grupo 55744" transform="translate(51.317 89.968)">
        <circle id="Elipse_4035" data-name="Elipse 4035" cx="6.037" cy="6.037" r="6.037" transform="translate(2.665)" fill="#f2cf67" stroke="#18104b" stroke-linecap="round" stroke-linejoin="round" stroke-width="2"/>
        <line id="Línea_412" data-name="Línea 412" y1="5.302" x2="4.761" transform="translate(0 10.918)" fill="#f2cf67" stroke="#18104b" stroke-linecap="round" stroke-linejoin="round" stroke-width="2"/>
      </g>
      <g id="Grupo_55745" data-name="Grupo 55745" transform="translate(357.355 56.741)">
        <circle id="Elipse_4036" data-name="Elipse 4036" cx="6.037" cy="6.037" r="6.037" fill="none" stroke="#f7e1a0" stroke-linecap="round" stroke-linejoin="round" stroke-width="2"/>
        <line id="Línea_413" data-name="Línea 413" x1="4.761" y1="5.302" transform="translate(9.979 10.918)" fill="none" stroke="#f7e1a0" stroke-linecap="round" stroke-linejoin="round" stroke-width="2"/>
      </g>
      <g id="Grupo_55746" data-name="Grupo 55746" transform="translate(355.282 112.88)">
        <rect id="Rectángulo_5393" data-name="Rectángulo 5393" width="2.368" height="1.976" rx="0.468" transform="translate(1.743 12.29) rotate(22.471)" fill="#18104b" stroke="#31326f" stroke-miterlimit="10" stroke-width="1"/>
        <rect id="Rectángulo_5394" data-name="Rectángulo 5394" width="5.061" height="1.976" rx="0.635" transform="translate(0.912 10.725) rotate(22.471)" fill="#18104b" stroke="#31326f" stroke-miterlimit="10" stroke-width="1"/>
        <circle id="Elipse_4037" data-name="Elipse 4037" cx="5.678" cy="5.678" r="5.678" transform="translate(0.157)" fill="#dbf6e9"/>
        <rect id="Rectángulo_5395" data-name="Rectángulo 5395" width="6.838" height="1.976" rx="0.734" transform="translate(0.755 8.933) rotate(22.471)" fill="#18104b" stroke="#31326f" stroke-miterlimit="10" stroke-width="1"/>
        <path id="Trazado_102305" data-name="Trazado 102305" d="M893.141-365.877s1.8-3.485,1.9-4.6c.144-1.679-1.918-1.007-1.269.2.394.732,2.926,2.3,4.092,2.009,1.349-.337.438-2.207-.521-1.152-.391.43-1.147,2.827-1.8,4.127" transform="translate(-890.708 375.988)" fill="none" stroke="#18104b" stroke-linecap="round" stroke-linejoin="round" stroke-width="0.5"/>
      </g>
      <path id="Trazado_102306" data-name="Trazado 102306" d="M661.645-371.282s3.237-22.841,27.125-24.653c5.99-.455,15.724,0,15.724,0" transform="translate(-528.416 489.41)" fill="none" stroke="#18104b" stroke-linecap="round" stroke-linejoin="round" stroke-width="1"/>
      <path id="Trazado_102307" data-name="Trazado 102307" d="M718.829-389.063c3.48,5.087,1.561,12.572.932,22.162s-3.229,38.529-3.229,38.529" transform="translate(-529.745 488.701)" fill="none" stroke="#18104b" stroke-linecap="round" stroke-linejoin="round" stroke-width="1"/>
      <path id="Trazado_102308" data-name="Trazado 102308" d="M680.011-360.31s8.42-11.462,5.41-25.676" transform="translate(-528.612 489.064)" fill="none" stroke="#18104b" stroke-linecap="round" stroke-linejoin="round" stroke-width="1"/>
      <path id="Trazado_102309" data-name="Trazado 102309" d="M712.439-394.526s8.553.213,22.791,13.239" transform="translate(-529.868 489.48)" fill="none" stroke="#18104b" stroke-linecap="round" stroke-linejoin="round" stroke-width="1"/>
      <line id="Línea_414" data-name="Línea 414" x2="21.419" y2="12.706" transform="translate(130.575 115.935)" fill="none" stroke="#18104b" stroke-linecap="round" stroke-linejoin="round" stroke-width="1"/>
      <path id="Trazado_102310" data-name="Trazado 102310" d="M733.838-359.475s3.236-17.38,2.147-25.729" transform="translate(-530.262 489.038)" fill="none" stroke="#18104b" stroke-linecap="round" stroke-linejoin="round" stroke-width="1"/>
      <path id="Trazado_102311" data-name="Trazado 102311" d="M746.523-372.005s4.346,3.137,4.709,6.4" transform="translate(-530.697 488.846)" fill="none" stroke="#18104b" stroke-linecap="round" stroke-linejoin="round" stroke-width="1"/>
      <line id="Línea_415" data-name="Línea 415" x2="6.534" y2="3.63" transform="translate(138.454 142.077)" fill="none" stroke="#18104b" stroke-linecap="round" stroke-linejoin="round" stroke-width="1"/>
      <line id="Línea_416" data-name="Línea 416" x2="6.534" y2="3.63" transform="translate(137.048 144.892)" fill="none" stroke="#18104b" stroke-linecap="round" stroke-linejoin="round" stroke-width="1"/>
      <line id="Línea_417" data-name="Línea 417" x2="26.258" transform="translate(84.479 86.752)" fill="none" stroke="#18104b" stroke-linecap="round" stroke-linejoin="round" stroke-width="1"/>
      <line id="Línea_418" data-name="Línea 418" x2="26.258" transform="translate(84.479 92.063)" fill="none" stroke="#18104b" stroke-linecap="round" stroke-linejoin="round" stroke-width="1"/>
      <path id="Trazado_102312" data-name="Trazado 102312" d="M640.714-310.748s7.26,16.666,11.217,25.119,54.054,112.8,54.054,112.8" transform="translate(-527.924 482.833)" fill="none" stroke="#18104b" stroke-linecap="round" stroke-linejoin="round" stroke-width="1"/>
      <path id="Trazado_102313" data-name="Trazado 102313" d="M655.329-276.236,634.577-175.079h-8.483" transform="translate(-527.079 482.833)" fill="none" stroke="#18104b" stroke-linecap="round" stroke-linejoin="round" stroke-width="1"/>
      <line id="Línea_419" data-name="Línea 419" x1="14.215" y2="68.861" transform="translate(108.005 194.547)" fill="none" stroke="#18104b" stroke-linecap="round" stroke-linejoin="round" stroke-width="1"/>
      <line id="Línea_420" data-name="Línea 420" x2="62.563" y2="130.532" transform="translate(119.996 179.138)" fill="none" stroke="#18104b" stroke-linecap="round" stroke-linejoin="round" stroke-width="1"/>
      <line id="Línea_421" data-name="Línea 421" y1="101.954" x2="22.013" transform="translate(102.858 201.923)" fill="none" stroke="#18104b" stroke-linecap="round" stroke-linejoin="round" stroke-width="1"/>
      <path id="Trazado_102314" data-name="Trazado 102314" d="M603.048-391.73H639.9a2.59,2.59,0,0,0,2.337-1.966c.639-1.975,0-11.746,0-11.746" transform="translate(-526.374 489.824)" fill="none" stroke="#18104b" stroke-linecap="round" stroke-linejoin="round" stroke-width="1"/>
      <path id="Trazado_102315" data-name="Trazado 102315" d="M582.846-405.442s-.389-2.336,2.336-2.336h41.1" transform="translate(-523.66 489.996)" fill="none" stroke="#18104b" stroke-linecap="round" stroke-linejoin="round" stroke-width="1"/>
      <rect id="Rectángulo_5396" data-name="Rectángulo 5396" width="35.426" height="16.418" rx="2.336" transform="translate(437.136 181.248) rotate(-180)" fill="#f7e1a0"/>
      <rect id="Rectángulo_5397" data-name="Rectángulo 5397" width="10.744" height="9.067" rx="2.371" transform="translate(432.182 177.44) rotate(-180)" fill="#18104b" stroke="#31326f" stroke-miterlimit="10" stroke-width="1"/>
      <g id="Grupo_55747" data-name="Grupo 55747" transform="translate(430.265 172.703)">
        <circle id="Elipse_4038" data-name="Elipse 4038" cx="6.037" cy="6.037" r="6.037" fill="#f2cf67" stroke="#18104b" stroke-linecap="round" stroke-linejoin="round" stroke-width="2"/>
        <line id="Línea_422" data-name="Línea 422" x1="4.761" y1="5.302" transform="translate(9.979 10.918)" fill="#f2cf67" stroke="#18104b" stroke-linecap="round" stroke-linejoin="round" stroke-width="2"/>
      </g>
      <line id="Línea_423" data-name="Línea 423" x1="8.934" transform="translate(406.648 169.627)" fill="none" stroke="#18104b" stroke-linecap="round" stroke-linejoin="round" stroke-width="1"/>
      <line id="Línea_424" data-name="Línea 424" x1="8.934" transform="translate(406.648 174.937)" fill="none" stroke="#18104b" stroke-linecap="round" stroke-linejoin="round" stroke-width="1"/>
      <path id="Trazado_102316" data-name="Trazado 102316" d="M962.392-306.242H942.061a2.589,2.589,0,0,1-2.336-1.966c-.639-1.975,0-11.746,0-11.746" transform="translate(-538.015 487.094)" fill="none" stroke="#18104b" stroke-linecap="round" stroke-linejoin="round" stroke-width="1"/>
      <path id="Trazado_102317" data-name="Trazado 102317" d="M975.151-319.954s.389-2.336-2.336-2.336H947.932" transform="translate(-538.015 487.363)" fill="none" stroke="#18104b" stroke-linecap="round" stroke-linejoin="round" stroke-width="1"/>
      <path id="Trazado_102318" data-name="Trazado 102318" d="M892.612-315.882c-.076,2.437-5.158,11.7-5.158,11.7s-1.637-2.043-5.284-6.418-9.586-6.278-9.586-6.278,3.959-9.325,7.728-14.483" transform="translate(-535.061 487.221)" fill="none" stroke="#18104b" stroke-linecap="round" stroke-linejoin="round" stroke-width="1"/>
      <path id="Trazado_102319" data-name="Trazado 102319" d="M863.384-291.639c-18.592,1.673-40.327-18.5-40.327-18.5" transform="translate(-533.917 486.686)" fill="none" stroke="#18104b" stroke-linecap="round" stroke-linejoin="round" stroke-width="1"/>
      <path id="Trazado_102320" data-name="Trazado 102320" d="M868.4-292.569s9.567-2.056,16.682-13.485" transform="translate(-534.84 486.654)" fill="none" stroke="#18104b" stroke-linecap="round" stroke-linejoin="round" stroke-width="1"/>
      <path id="Trazado_102321" data-name="Trazado 102321" d="M858.292-335.72c-.794,2.381-.794,4.761,2.182,4.761s13.688-3.967,15.275-6.15" transform="translate(-534.527 487.761)" fill="none" stroke="#18104b" stroke-linecap="round" stroke-linejoin="round" stroke-width="1"/>
      <path id="Trazado_102322" data-name="Trazado 102322" d="M857.421-273.139s7.459,18.5,12.232,25.06" transform="translate(-534.376 485.329)" fill="none" stroke="#f2cf67" stroke-linecap="round" stroke-linejoin="round" stroke-width="1"/>
      <circle id="Elipse_4039" data-name="Elipse 4039" cx="1.58" cy="1.58" r="1.58" transform="translate(128.643 56.564)" fill="#dbf6e9"/>
      <circle id="Elipse_4040" data-name="Elipse 4040" cx="1.58" cy="1.58" r="1.58" transform="translate(18.699 96.4)" fill="#dbf6e9"/>
      <circle id="Elipse_4041" data-name="Elipse 4041" cx="1.58" cy="1.58" r="1.58" transform="translate(305.515 58.71)" fill="#dbf6e9"/>
      <circle id="Elipse_4042" data-name="Elipse 4042" cx="1.58" cy="1.58" r="1.58" transform="translate(427.855 278.531)" fill="#dbf6e9"/>
      <circle id="Elipse_4043" data-name="Elipse 4043" cx="1.58" cy="1.58" r="1.58" transform="translate(387.634 145)" fill="#dbf6e9"/>
      <circle id="Elipse_4044" data-name="Elipse 4044" cx="1.58" cy="1.58" r="1.58" transform="translate(147.275 292.051)" fill="#dbf6e9"/>
      <circle id="Elipse_4045" data-name="Elipse 4045" cx="1.58" cy="1.58" r="1.58" transform="translate(8.612 203.872)" fill="#dbf6e9"/>
      <line id="Línea_425" data-name="Línea 425" x2="3.504" transform="translate(280.052 41.121)" fill="none" stroke="#fff" stroke-miterlimit="10" stroke-width="1"/>
      <line id="Línea_426" data-name="Línea 426" x2="6.773" transform="translate(36.501 243.652)" fill="none" stroke="#fff" stroke-miterlimit="10" stroke-width="1"/>
      <line id="Línea_427" data-name="Línea 427" x2="6.773" transform="translate(341.722 263.173)" fill="none" stroke="#fff" stroke-miterlimit="10" stroke-width="1"/>
      <line id="Línea_428" data-name="Línea 428" x2="6.773" transform="translate(71.857 127.017)" fill="none" stroke="#fff" stroke-miterlimit="10" stroke-width="1"/>
      <line id="Línea_429" data-name="Línea 429" x2="6.773" transform="translate(102.358 26.591)" fill="none" stroke="#fff" stroke-miterlimit="10" stroke-width="1"/>
      <line id="Línea_430" data-name="Línea 430" x2="6.773" transform="translate(427.899 32.981)" fill="none" stroke="#fff" stroke-miterlimit="10" stroke-width="1"/>
      <line id="Línea_431" data-name="Línea 431" x2="6.773" transform="translate(30.168 63.048)" fill="none" stroke="#fff" stroke-miterlimit="10" stroke-width="1"/>
      <g id="Grupo_55748" data-name="Grupo 55748" transform="translate(292.582 85.819)">
        <path id="Trazado_102323" data-name="Trazado 102323" d="M826.874-375.881v-25.113a2.82,2.82,0,0,1,2.82-2.821h44.327a2.821,2.821,0,0,1,2.821,2.821V-382.9a2.821,2.821,0,0,1-2.821,2.821H832.962Z" transform="translate(-826.874 403.815)" fill="#f7e1a0"/>
        <path id="Trazado_102324" data-name="Trazado 102324" d="M826.874-400.994v25.113c.324-.672,6.088-4.2,6.088-4.2h41.059s2.821-.274,2.821-2.821" transform="translate(-826.874 403.815)" fill="none" stroke="#18104b" stroke-linecap="round" stroke-linejoin="round" stroke-width="1"/>
        <line id="Línea_432" data-name="Línea 432" x2="37.48" transform="translate(6.804 5.344)" fill="none" stroke="#18104b" stroke-linecap="round" stroke-linejoin="round" stroke-width="1"/>
        <line id="Línea_433" data-name="Línea 433" x2="37.48" transform="translate(6.804 10.77)" fill="none" stroke="#18104b" stroke-linecap="round" stroke-linejoin="round" stroke-width="1"/>
        <line id="Línea_434" data-name="Línea 434" x2="37.48" transform="translate(6.804 16.005)" fill="none" stroke="#18104b" stroke-linecap="round" stroke-linejoin="round" stroke-width="1"/>
      </g>
      <g id="Grupo_55752" data-name="Grupo 55752" transform="translate(135.475 19.099)">
        <g id="Grupo_55749" data-name="Grupo 55749">
          <rect id="Rectángulo_5398" data-name="Rectángulo 5398" width="12.635" height="16.424" rx="0.745" fill="#f7e1a0" stroke="#f7e1a0" stroke-linecap="round" stroke-linejoin="round" stroke-width="1"/>
          <line id="Línea_435" data-name="Línea 435" x2="7.697" transform="translate(2.398 3.257)" fill="none" stroke="#f2cf67" stroke-linecap="round" stroke-linejoin="round" stroke-width="1"/>
          <line id="Línea_436" data-name="Línea 436" x2="7.697" transform="translate(2.398 6.056)" fill="none" stroke="#f2cf67" stroke-linecap="round" stroke-linejoin="round" stroke-width="1"/>
          <line id="Línea_437" data-name="Línea 437" x2="7.697" transform="translate(2.398 8.715)" fill="none" stroke="#f2cf67" stroke-linecap="round" stroke-linejoin="round" stroke-width="1"/>
          <line id="Línea_438" data-name="Línea 438" x2="7.697" transform="translate(2.398 11.094)" fill="none" stroke="#f2cf67" stroke-linecap="round" stroke-linejoin="round" stroke-width="1"/>
          <line id="Línea_439" data-name="Línea 439" x2="7.697" transform="translate(2.398 13.753)" fill="none" stroke="#f2cf67" stroke-linecap="round" stroke-linejoin="round" stroke-width="1"/>
        </g>
        <g id="Grupo_55750" data-name="Grupo 55750" transform="translate(5.849 7.048)">
          <rect id="Rectángulo_5399" data-name="Rectángulo 5399" width="15.885" height="20.648" rx="0.936" fill="#f2cf67" stroke="#f7e1a0" stroke-linecap="round" stroke-linejoin="round" stroke-width="1"/>
          <line id="Línea_440" data-name="Línea 440" x2="9.677" transform="translate(3.014 4.095)" fill="none" stroke="#f7e1a0" stroke-linecap="round" stroke-linejoin="round" stroke-width="1"/>
          <line id="Línea_441" data-name="Línea 441" x2="9.677" transform="translate(3.014 7.613)" fill="none" stroke="#f7e1a0" stroke-linecap="round" stroke-linejoin="round" stroke-width="1"/>
          <line id="Línea_442" data-name="Línea 442" x2="9.677" transform="translate(3.014 10.956)" fill="none" stroke="#f7e1a0" stroke-linecap="round" stroke-linejoin="round" stroke-width="1"/>
          <line id="Línea_443" data-name="Línea 443" x2="9.677" transform="translate(3.014 13.947)" fill="none" stroke="#f7e1a0" stroke-linecap="round" stroke-linejoin="round" stroke-width="1"/>
          <line id="Línea_444" data-name="Línea 444" x2="9.677" transform="translate(3.014 17.29)" fill="none" stroke="#f7e1a0" stroke-linecap="round" stroke-linejoin="round" stroke-width="1"/>
        </g>
        <g id="Grupo_55751" data-name="Grupo 55751" transform="translate(12.254 13.831)">
          <rect id="Rectángulo_5400" data-name="Rectángulo 5400" width="19.381" height="25.193" rx="1.142" fill="#f7e1a0" stroke="#f7e1a0" stroke-linecap="round" stroke-linejoin="round" stroke-width="1"/>
          <line id="Línea_445" data-name="Línea 445" x2="11.807" transform="translate(3.678 4.996)" fill="none" stroke="#f2cf67" stroke-linecap="round" stroke-linejoin="round" stroke-width="1"/>
          <line id="Línea_446" data-name="Línea 446" x2="11.807" transform="translate(3.678 9.289)" fill="none" stroke="#f2cf67" stroke-linecap="round" stroke-linejoin="round" stroke-width="1"/>
          <line id="Línea_447" data-name="Línea 447" x2="11.807" transform="translate(3.678 13.368)" fill="none" stroke="#f2cf67" stroke-linecap="round" stroke-linejoin="round" stroke-width="1"/>
          <line id="Línea_448" data-name="Línea 448" x2="11.807" transform="translate(3.678 17.017)" fill="none" stroke="#f2cf67" stroke-linecap="round" stroke-linejoin="round" stroke-width="1"/>
          <line id="Línea_449" data-name="Línea 449" x2="11.807" transform="translate(3.678 21.096)" fill="none" stroke="#f2cf67" stroke-linecap="round" stroke-linejoin="round" stroke-width="1"/>
        </g>
      </g>
      <g id="Grupo_55755" data-name="Grupo 55755" transform="translate(392.485 207.416)">
        <g id="Grupo_55753" data-name="Grupo 55753">
          <rect id="Rectángulo_5401" data-name="Rectángulo 5401" width="12.635" height="16.424" rx="0.745" fill="#f7e1a0" stroke="#f7e1a0" stroke-linecap="round" stroke-linejoin="round" stroke-width="1"/>
          <line id="Línea_450" data-name="Línea 450" x2="7.697" transform="translate(2.398 3.257)" fill="none" stroke="#f2cf67" stroke-linecap="round" stroke-linejoin="round" stroke-width="1"/>
          <line id="Línea_451" data-name="Línea 451" x2="7.697" transform="translate(2.398 6.056)" fill="none" stroke="#f2cf67" stroke-linecap="round" stroke-linejoin="round" stroke-width="1"/>
          <line id="Línea_452" data-name="Línea 452" x2="7.697" transform="translate(2.398 8.715)" fill="none" stroke="#f2cf67" stroke-linecap="round" stroke-linejoin="round" stroke-width="1"/>
          <line id="Línea_453" data-name="Línea 453" x2="7.697" transform="translate(2.398 11.094)" fill="none" stroke="#f2cf67" stroke-linecap="round" stroke-linejoin="round" stroke-width="1"/>
          <line id="Línea_454" data-name="Línea 454" x2="7.697" transform="translate(2.398 13.753)" fill="none" stroke="#f2cf67" stroke-linecap="round" stroke-linejoin="round" stroke-width="1"/>
        </g>
        <g id="Grupo_55754" data-name="Grupo 55754" transform="translate(5.849 7.048)">
          <rect id="Rectángulo_5402" data-name="Rectángulo 5402" width="15.885" height="20.648" rx="0.936" fill="#f2cf67" stroke="#f7e1a0" stroke-linecap="round" stroke-linejoin="round" stroke-width="1"/>
          <line id="Línea_455" data-name="Línea 455" x2="9.677" transform="translate(3.014 4.095)" fill="none" stroke="#f7e1a0" stroke-linecap="round" stroke-linejoin="round" stroke-width="1"/>
          <line id="Línea_456" data-name="Línea 456" x2="9.677" transform="translate(3.014 7.613)" fill="none" stroke="#f7e1a0" stroke-linecap="round" stroke-linejoin="round" stroke-width="1"/>
          <line id="Línea_457" data-name="Línea 457" x2="9.677" transform="translate(3.014 10.956)" fill="none" stroke="#f7e1a0" stroke-linecap="round" stroke-linejoin="round" stroke-width="1"/>
          <line id="Línea_458" data-name="Línea 458" x2="9.677" transform="translate(3.014 13.947)" fill="none" stroke="#f7e1a0" stroke-linecap="round" stroke-linejoin="round" stroke-width="1"/>
          <line id="Línea_459" data-name="Línea 459" x2="9.677" transform="translate(3.014 17.29)" fill="none" stroke="#f7e1a0" stroke-linecap="round" stroke-linejoin="round" stroke-width="1"/>
        </g>
      </g>
    </g>
  </g>
</svg>
