<svg xmlns="http://www.w3.org/2000/svg" width="106.5" height="78.122" viewBox="0 0 106.5 78.122">
  <g id="rompecabezas" transform="translate(-10.75 -24.938)">
    <path id="Trazado_101890" data-name="Trazado 101890" d="M48.757,67.687a7.8,7.8,0,0,1,3.51.829,17.541,17.541,0,0,0,7.888,1.68H64V49.807H43.611V45.961a17.54,17.54,0,0,1,1.68-7.888,7.872,7.872,0,1,0-14.1-.045,18.317,18.317,0,0,1,1.7,8.134v3.645H12.5v51.5H64V80.917H60.357a18.317,18.317,0,0,0-8.134,1.7,7.869,7.869,0,1,1-3.465-14.932Z" fill="#cc3d60"/>
    <path id="Trazado_101891" data-name="Trazado 101891" d="M81.882,86.063a7.8,7.8,0,0,0,.829,3.51,17.541,17.541,0,0,1,1.68,7.888v3.846H64V80.917H60.155a17.54,17.54,0,0,0-7.888,1.68,7.872,7.872,0,1,1-.045-14.1,18.317,18.317,0,0,0,8.134,1.7H64V49.807h51.5v51.5H95.111V97.662a18.317,18.317,0,0,1,1.7-8.134,7.869,7.869,0,1,0-14.932-3.465Z" fill="#deaf35" style="mix-blend-mode: multiply;isolation: isolate"/>
    <path id="Trazado_101892" data-name="Trazado 101892" d="M64,80.917h-.08c.4,6.062-1.307,13.052-5.919,20.39h6Z" fill="#f54570"/>
    <path id="Trazado_101893" data-name="Trazado 101893" d="M43.611,45.961a17.541,17.541,0,0,1,1.68-7.888A7.856,7.856,0,0,0,38.283,26.7c.475.154,6.518,2.3,1.551,10.63-5.167,8.667-5.333,20,8.5,23.833A20.93,20.93,0,0,1,60.516,70.2H64V49.807H43.611Z" fill="#f54570"/>
    <path id="Trazado_101894" data-name="Trazado 101894" d="M64,70.2H60.516a22.77,22.77,0,0,1,3.4,10.72H64v20.39H84.39V97.461a17.541,17.541,0,0,0-1.68-7.888,7.872,7.872,0,1,1,14.1-.045,18.318,18.318,0,0,0-1.7,8.134v3.645H115.5v-51.5H64Z" fill="#ffc93c"/>
    <path id="Trazado_101895" data-name="Trazado 101895" d="M75.5,99.557H65.75V80.917A1.75,1.75,0,0,0,64,79.167H60.355a19.981,19.981,0,0,0-8.909,1.883,6.12,6.12,0,1,1,.034-10.97,19.179,19.179,0,0,0,8.674,1.866H64a1.75,1.75,0,0,0,1.75-1.75V49.807A1.75,1.75,0,0,0,64,48.057H45.36v-2.1a15.742,15.742,0,0,1,1.495-7.1,9.489,9.489,0,0,0,1.015-4.295,9.627,9.627,0,0,0-11.525-9.435,1.75,1.75,0,1,0,.665,3.436,6.128,6.128,0,0,1,7.36,6,6.022,6.022,0,0,1-.643,2.725,19.185,19.185,0,0,0-1.867,8.674v3.846a1.75,1.75,0,0,0,1.75,1.75H62.25v16.89h-2.1a15.75,15.75,0,0,1-7.1-1.493,9.482,9.482,0,0,0-4.3-1.016A9.62,9.62,0,1,0,53,84.188a16.523,16.523,0,0,1,7.358-1.521H62.25v16.89h-48v-48H32.89a1.75,1.75,0,0,0,1.75-1.75V46.162a19.966,19.966,0,0,0-1.884-8.909,6.144,6.144,0,0,1-.521-3.843,5.9,5.9,0,0,1,.59-1.7,1.752,1.752,0,0,0-3.1-1.633,9.425,9.425,0,0,0-.938,2.713,9.62,9.62,0,0,0,.828,6.017,16.52,16.52,0,0,1,1.521,7.358V48.06H12.5a1.75,1.75,0,0,0-1.75,1.75v51.5a1.75,1.75,0,0,0,1.75,1.75h63a1.75,1.75,0,1,0,0-3.5Z"/>
    <path id="Trazado_101896" data-name="Trazado 101896" d="M115.5,48.057H81a1.75,1.75,0,0,0,0,3.5h32.75v48H96.86V97.662A16.523,16.523,0,0,1,98.382,90.3a9.618,9.618,0,1,0-18.251-4.241,9.492,9.492,0,0,0,1.015,4.295,15.743,15.743,0,0,1,1.494,7.1V101.3a1.75,1.75,0,1,0,3.5,0V97.461a19.183,19.183,0,0,0-1.866-8.674,6.016,6.016,0,0,1-.643-2.725,6.121,6.121,0,1,1,11.612,2.69,19.982,19.982,0,0,0-1.883,8.909v3.645a1.75,1.75,0,0,0,1.75,1.75H115.5a1.75,1.75,0,0,0,1.75-1.75v-51.5A1.75,1.75,0,0,0,115.5,48.057Z"/>
    <path id="Trazado_101897" data-name="Trazado 101897" d="M72.667,51.557H74a1.75,1.75,0,1,0,0-3.5H72.667a1.75,1.75,0,0,0,0,3.5Z"/>
  </g>
</svg>
