<svg xmlns="http://www.w3.org/2000/svg" width="109.469" height="90" viewBox="0 0 109.469 90">
  <g id="estante-para-libros" transform="translate(0 -45.53)">
    <g id="Grupo_55620" data-name="Grupo 55620" transform="translate(1.603 47.134)">
      <path id="Trazado_101898" data-name="Trazado 101898" d="M372.922,86.442H385.5a1.863,1.863,0,0,1,1.864,1.864V140.89H371.058V88.306A1.863,1.863,0,0,1,372.922,86.442Z" transform="translate(-293.327 -79.298)" fill="#d2e1f1"/>
      <path id="Trazado_101899" data-name="Trazado 101899" d="M69.119,416.582a4.266,4.266,0,0,1-4.267-4.267v-7.261h8.533v7.261A4.266,4.266,0,0,1,69.119,416.582Z" transform="translate(-52.59 -329.789)" fill="#7c4b37"/>
      <path id="Trazado_101900" data-name="Trazado 101900" d="M412.824,416.582a4.266,4.266,0,0,1-4.267-4.267v-7.261h8.533v7.261A4.266,4.266,0,0,1,412.824,416.582Z" transform="translate(-322.808 -329.789)" fill="#7c4b37"/>
      <path id="Trazado_101901" data-name="Trazado 101901" d="M234.832,114.621H218.526V54.894a1.863,1.863,0,0,1,1.864-1.864h12.579a1.863,1.863,0,0,1,1.864,1.864Z" transform="translate(-173.407 -53.03)" fill="#cc3d60"/>
      <path id="Trazado_101902" data-name="Trazado 101902" d="M158.567,114.621H142.261V54.894a1.863,1.863,0,0,1,1.864-1.864H156.7a1.863,1.863,0,0,1,1.864,1.864Z" transform="translate(-113.448 -53.03)" fill="#9ddfd3"/>
      <path id="Trazado_101903" data-name="Trazado 101903" d="M142.261,109.085h16.306v7.97H142.261Z" transform="translate(-113.448 -97.1)" fill="#7bacdf"/>
      <path id="Trazado_101904" data-name="Trazado 101904" d="M82.3,114.621H66V54.894a1.863,1.863,0,0,1,1.864-1.864H80.438A1.863,1.863,0,0,1,82.3,54.894Z" transform="translate(-53.488 -53.03)" fill="#ffc93c"/>
      <path id="Trazado_101905" data-name="Trazado 101905" d="M296.656,86.442h12.579a1.863,1.863,0,0,1,1.864,1.864V140.89H294.792V88.306A1.864,1.864,0,0,1,296.656,86.442Z" transform="translate(-233.367 -79.298)" fill="#31326f"/>
      <path id="Trazado_101906" data-name="Trazado 101906" d="M111.838,356.326H9.424A1.924,1.924,0,0,1,7.5,354.4V343.022A1.924,1.924,0,0,1,9.424,341.1H111.838a1.924,1.924,0,0,1,1.924,1.924V354.4A1.924,1.924,0,0,1,111.838,356.326Z" transform="translate(-7.5 -279.507)" fill="#aa6a51"/>
      <path id="Trazado_101907" data-name="Trazado 101907" d="M464.3,341.1h-8.485a1.924,1.924,0,0,1,1.924,1.924V354.4a1.924,1.924,0,0,1-1.924,1.924H464.3a1.924,1.924,0,0,0,1.924-1.924V343.022A1.924,1.924,0,0,0,464.3,341.1Z" transform="translate(-359.962 -279.507)" fill="#935b44"/>
      <path id="Trazado_101908" data-name="Trazado 101908" d="M106.8,53.03H99.529a1.863,1.863,0,0,1,1.864,1.864v59.728h7.273V54.894A1.863,1.863,0,0,0,106.8,53.03Z" transform="translate(-79.853 -53.03)" fill="#ffc93c" style="mix-blend-mode: multiply;isolation: isolate"/>
      <path id="Trazado_101909" data-name="Trazado 101909" d="M335.6,86.442h-7.273a1.863,1.863,0,0,1,1.864,1.864v52.584h7.273V88.306A1.863,1.863,0,0,0,335.6,86.442Z" transform="translate(-259.731 -79.298)" fill="#31326f" style="mix-blend-mode: multiply;isolation: isolate"/>
      <path id="Trazado_101910" data-name="Trazado 101910" d="M411.865,86.442h-7.273a1.863,1.863,0,0,1,1.864,1.864v52.584h7.273V88.306A1.864,1.864,0,0,0,411.865,86.442Z" transform="translate(-319.691 -79.298)" fill="#dee4f0" style="mix-blend-mode: multiply;isolation: isolate"/>
      <path id="Trazado_101911" data-name="Trazado 101911" d="M259.333,53.03H252.06a1.863,1.863,0,0,1,1.864,1.864v59.728H261.2V54.894A1.863,1.863,0,0,0,259.333,53.03Z" transform="translate(-199.771 -53.03)" fill="#cc3d60" style="mix-blend-mode: multiply;isolation: isolate"/>
      <path id="Trazado_101912" data-name="Trazado 101912" d="M218.527,109.085h16.306v7.97H218.527Z" transform="translate(-173.408 -97.1)" fill="#fee8c7"/>
      <path id="Trazado_101913" data-name="Trazado 101913" d="M260.777,109.085h7.273v7.97h-7.273Z" transform="translate(-206.625 -97.1)" fill="#fedba6"/>
      <path id="Trazado_101914" data-name="Trazado 101914" d="M0,0H16.306V7.046H0Z" transform="translate(77.732 50.996) rotate(180)" fill="#7bacdf"/>
      <path id="Trazado_101915" data-name="Trazado 101915" d="M337.042,258.592h7.273v7.046h-7.273Z" transform="translate(-266.583 -214.641)" fill="#5f99d7"/>
      <path id="Trazado_101916" data-name="Trazado 101916" d="M0,0H16.306V7.046H0Z" transform="translate(94.038 50.996) rotate(180)" fill="#0ab69f"/>
      <path id="Trazado_101917" data-name="Trazado 101917" d="M413.308,258.592h7.273v7.046h-7.273Z" transform="translate(-326.543 -214.641)" fill="#01998d"/>
      <path id="Trazado_101918" data-name="Trazado 101918" d="M183.068,53.03H175.8a1.863,1.863,0,0,1,1.864,1.864v59.728h7.273V54.894A1.864,1.864,0,0,0,183.068,53.03Z" transform="translate(-139.812 -53.03)" fill="#9ddfd3" style="mix-blend-mode: multiply;isolation: isolate"/>
      <path id="Trazado_101919" data-name="Trazado 101919" d="M184.511,109.085h7.273v7.97h-7.273Z" transform="translate(-146.665 -97.1)" fill="#5f99d7"/>
      <path id="Trazado_101920" data-name="Trazado 101920" d="M66,109.085H82.3v7.97H66Z" transform="translate(-53.488 -97.1)" fill="#fee8c7"/>
      <path id="Trazado_101921" data-name="Trazado 101921" d="M108.245,109.085h7.273v7.97h-7.273Z" transform="translate(-86.705 -97.1)" fill="#fedba6"/>
    </g>
    <path id="Trazado_101922" data-name="Trazado 101922" d="M105.942,107.121h-8.7V56.141a3.471,3.471,0,0,0-3.467-3.467H81.2a3.444,3.444,0,0,0-1.864.548,3.442,3.442,0,0,0-1.864-.548H64.892c-.088,0-.174.007-.26.013V49a3.471,3.471,0,0,0-3.467-3.467H48.586a3.443,3.443,0,0,0-1.864.548,3.443,3.443,0,0,0-1.864-.548H32.28a3.443,3.443,0,0,0-1.864.548,3.443,3.443,0,0,0-1.864-.548H15.974A3.471,3.471,0,0,0,12.507,49V82.483a1.6,1.6,0,1,0,3.207,0V68.692h13.1v38.429h-13.1V89.966a1.6,1.6,0,0,0-3.207,0v17.155H3.528A3.532,3.532,0,0,0,0,110.649v11.379a3.532,3.532,0,0,0,3.528,3.528h8.735v4.1a5.87,5.87,0,0,0,11.74,0v-4.1H70.663a1.6,1.6,0,0,0,0-3.207H3.528a.321.321,0,0,1-.321-.321V110.649a.321.321,0,0,1,.321-.321H105.942a.321.321,0,0,1,.321.321v11.379a.321.321,0,0,1-.321.321H78.147a1.6,1.6,0,1,0,0,3.207h7.6v4.1a5.87,5.87,0,0,0,11.74,0v-4.1h8.452a3.532,3.532,0,0,0,3.528-3.528V110.649a3.532,3.532,0,0,0-3.528-3.528ZM20.8,125.556v4.1a2.663,2.663,0,0,1-5.326,0v-4.1ZM32.02,60.722h13.1v4.763H32.02Zm16.306,0h13.1v4.763h-13.1ZM64.632,92.688h13.1v3.838h-13.1Zm16.306,0h13.1v3.838h-13.1Zm.26-36.807H93.777a.261.261,0,0,1,.26.26v33.34h-13.1V56.141A.261.261,0,0,1,81.2,55.881Zm-16.306,0H77.471a.26.26,0,0,1,.26.26v33.34h-13.1V56.141a.261.261,0,0,1,.26-.26ZM48.586,48.737H61.165a.26.26,0,0,1,.26.26v8.518h-13.1V49a.26.26,0,0,1,.26-.26Zm-16.306,0H44.859a.26.26,0,0,1,.26.26v8.518H32.02V49a.26.26,0,0,1,.26-.26Zm-16.306,0H28.553a.26.26,0,0,1,.26.26v8.518h-13.1V49a.26.26,0,0,1,.26-.26Zm-.26,11.985h13.1v4.763h-13.1Zm16.306,7.97h13.1v38.429H32.02Zm16.306,0h13.1v38.429h-13.1ZM64.632,99.733h13.1v7.388h-13.1Zm16.306,7.388V99.733h13.1v7.388ZM94.282,129.66a2.663,2.663,0,0,1-5.326,0v-4.1h5.326Z" transform="translate(0)"/>
  </g>
</svg>
