<svg xmlns="http://www.w3.org/2000/svg" width="124.661" height="112" viewBox="0 0 124.661 112">
  <g id="diagrama-2" transform="translate(0 -26)">
    <g id="Grupo_55622" data-name="Grupo 55622" transform="translate(2.435 28.435)">
      <path id="Trazado_101923" data-name="Trazado 101923" d="M92.94,401.118v9.242l15.354,5.118V396Z" transform="translate(-72.746 -308.348)" fill="#fce8d0"/>
      <path id="Trazado_101924" data-name="Trazado 101924" d="M410.609,396v19.478H396V396Z" transform="translate(-302.017 -308.348)" fill="#cc3d60"/>
      <path id="Trazado_101925" data-name="Trazado 101925" d="M49.864,417.02a14.7,14.7,0,0,1,0,9.242L36,421.641Z" transform="translate(-29.67 -324.25)" fill="#8690a6"/>
      <g id="Grupo_55621" data-name="Grupo 55621" transform="translate(0 29.217)">
        <path id="Trazado_101926" data-name="Trazado 101926" d="M149.73,396a6.885,6.885,0,0,0,0,9.739,6.885,6.885,0,0,0,0,9.739h58.435V396Z" transform="translate(-114.182 -337.565)" fill="#ffc93c"/>
        <path id="Trazado_101927" data-name="Trazado 101927" d="M401.478,156a9.739,9.739,0,0,1,0,19.478h-9.739a9.739,9.739,0,0,1,0-19.478Z" transform="translate(-291.426 -156)" fill="#ffc93c"/>
        <path id="Trazado_101928" data-name="Trazado 101928" d="M39.217,175.478H10V156H39.217Z" transform="translate(-10 -156)" fill="#ffc93c"/>
      </g>
      <path id="Trazado_101929" data-name="Trazado 101929" d="M225.217,55.478H196V36h29.217Z" transform="translate(-150.713 -36)" fill="#9ddfd3"/>
      <path id="Trazado_101930" data-name="Trazado 101930" d="M215.478,276a9.739,9.739,0,1,1,0,19.478h-9.739a9.739,9.739,0,0,1,0-19.478Z" transform="translate(-150.713 -217.565)" fill="#d2e1f1"/>
      <path id="Trazado_101931" data-name="Trazado 101931" d="M214.957,165.739l-19.478,9.739L176,165.739,195.478,156Z" transform="translate(-135.583 -126.783)" fill="#cc3d60"/>
    </g>
    <g id="Grupo_55623" data-name="Grupo 55623" transform="translate(0 26)">
      <path id="Trazado_101932" data-name="Trazado 101932" d="M57.653,386h-.009a2.6,2.6,0,0,0-.762.125l-29.217,9.739a2.435,2.435,0,0,0,0,4.62l29.217,9.739a2.6,2.6,0,0,0,.77.125H130.7a2.435,2.435,0,0,0,2.435-2.435V388.435A2.435,2.435,0,0,0,130.7,386Zm56,9.739H97.826a2.435,2.435,0,1,0,0,4.87h15.826v4.87H58.8a4.463,4.463,0,0,1,0-4.87H75.913a2.435,2.435,0,1,0,0-4.87H58.8a4.464,4.464,0,0,1,0-4.87h54.857Zm-59.079,2.432a9.258,9.258,0,0,0-1.374,4.873c0,.28.014.557.038.831L45.207,401.2a16.978,16.978,0,0,0,0-6.048l8.036-2.679A9.336,9.336,0,0,0,54.573,398.171Zm-14.052-1.459a12.31,12.31,0,0,1,0,2.925l-4.387-1.462Zm87.739,8.767h-9.739V390.87h9.739Z" transform="translate(-19.67 -298.348)"/>
      <path id="Trazado_101933" data-name="Trazado 101933" d="M2.435,79.565H14.609V96.609a2.435,2.435,0,0,0,2.435,2.435H45.532a12.194,12.194,0,0,0,11.929,9.739H67.2a12.2,12.2,0,0,0,11.929-9.739h28.488a2.435,2.435,0,0,0,2.435-2.435V79.565h2.435a12.174,12.174,0,1,0,0-24.348h-2.435V38.174a2.435,2.435,0,0,0-2.435-2.435H79.374v-7.3A2.435,2.435,0,0,0,76.939,26H47.722a2.435,2.435,0,0,0-2.435,2.435v7.3H17.043a2.435,2.435,0,0,0-2.435,2.435V55.217H2.435A2.435,2.435,0,0,0,0,57.652V77.13A2.435,2.435,0,0,0,2.435,79.565Zm17.043,0H31.652a2.435,2.435,0,0,0,2.435-2.435v-7.3h8.19L59.9,78.635v5.8H57.461a12.2,12.2,0,0,0-11.929,9.739H19.478ZM62.331,60.374l14.034,7.017L62.331,74.408,48.3,67.391Zm4.87,43.539H57.461a7.3,7.3,0,1,1,0-14.609H67.2a7.3,7.3,0,1,1,0,14.609Zm37.983-9.739H79.129A12.194,12.194,0,0,0,67.2,84.435H64.765v-5.8l17.618-8.809h8.435a12.194,12.194,0,0,0,11.929,9.739h2.435Zm14.609-26.783a7.313,7.313,0,0,1-7.3,7.3h-9.739a7.3,7.3,0,0,1,0-14.609h9.739A7.313,7.313,0,0,1,119.791,67.391ZM105.183,40.609V55.217h-2.435a12.2,12.2,0,0,0-11.929,9.739H82.384L64.765,56.148v-5.8H76.939a2.435,2.435,0,0,0,2.435-2.435v-7.3ZM50.157,30.87H74.5V45.478H50.157ZM19.478,40.609H45.287v7.3a2.435,2.435,0,0,0,2.435,2.435H59.9v5.8L42.277,64.957h-8.19v-7.3a2.435,2.435,0,0,0-2.435-2.435H19.478ZM4.87,60.087H29.217V74.7H4.87Z" transform="translate(0 -26)"/>
      <ellipse id="Elipse_3991" data-name="Elipse 3991" cx="2.795" cy="2.096" rx="2.795" ry="2.096" transform="translate(64.285 98.025)"/>
    </g>
  </g>
</svg>
