<svg xmlns="http://www.w3.org/2000/svg" width="105.242" height="83.165" viewBox="0 0 105.242 83.165">
  <g id="plan" transform="translate(0 -53.704)">
    <g id="Grupo_55624" data-name="Grupo 55624" transform="translate(1.544 55.249)">
      <path id="Trazado_101934" data-name="Trazado 101934" d="M7.511,156.773H106.28a4.2,4.2,0,0,1,3.391,3.391v53.658a4.2,4.2,0,0,1-3.391,3.391H17.329a9.82,9.82,0,0,1-9.818-9.824V156.773Z" transform="translate(-7.511 -137.132)" fill="#f3f9ff" fill-rule="evenodd"/>
      <path id="Trazado_101935" data-name="Trazado 101935" d="M17.329,61.218a9.815,9.815,0,0,0-9.818,9.818v60.44a9.815,9.815,0,0,1,9.818-9.818,9.173,9.173,0,0,1,4.871,1.288.682.682,0,0,0,1.049-.641V64.452a2.388,2.388,0,0,0-1.194-2.028A9.715,9.715,0,0,0,17.329,61.218Z" transform="translate(-7.511 -61.218)" fill="#dee4f0" fill-rule="evenodd"/>
      <path id="Trazado_101936" data-name="Trazado 101936" d="M125.509,195.041H140.18a1.5,1.5,0,0,1,1.5,1.5V211.2a1.5,1.5,0,0,1-1.5,1.5H125.509a1.5,1.5,0,0,1-1.492-1.5V196.538A1.5,1.5,0,0,1,125.509,195.041Z" transform="translate(-100.069 -167.533)" fill="#cc3d60" fill-rule="evenodd"/>
      <path id="Trazado_101937" data-name="Trazado 101937" d="M413.545,107.927l-6.881-2.092-6.293,2.092v49.107L407,158.759l6.549-1.725Z" transform="translate(-319.618 -96.664)" fill="#ffc93c" fill-rule="evenodd"/>
      <path id="Trazado_101938" data-name="Trazado 101938" d="M407.788,366.248l2.465-4.848,3.292-6.485H400.371l3.292,6.485,2.465,4.848A.9.9,0,0,0,407.788,366.248Z" transform="translate(-319.618 -294.545)" fill="#ffcbbe" fill-rule="evenodd"/>
      <path id="Trazado_101939" data-name="Trazado 101939" d="M413.545,72.481V65.244a4.039,4.039,0,0,0-4.026-4.026H404.4a4.039,4.039,0,0,0-4.032,4.026v7.237Z" transform="translate(-319.618 -61.218)" fill="#cc3d60" fill-rule="evenodd"/>
      <path id="Trazado_101940" data-name="Trazado 101940" d="M118.235,380.541H128.28l1.649-5.453-1.649-4.242H118.235a3.124,3.124,0,0,0-2.523,2.529v4.644A3.124,3.124,0,0,0,118.235,380.541Z" transform="translate(-93.471 -307.201)" fill="#ffc93c" fill-rule="evenodd" opacity="0.538"/>
      <path id="Trazado_101941" data-name="Trazado 101941" d="M176.856,340.636H189.43l1.719-6.2L189.43,324.9v-1.754a3.124,3.124,0,0,0-2.529-2.529h-7.516a3.124,3.124,0,0,0-2.529,2.529v17.491Z" transform="translate(-142.047 -267.296)" fill="#9ddfd3" fill-rule="evenodd"/>
      <path id="Trazado_101942" data-name="Trazado 101942" d="M238.028,357.189H250.6l1.27-4.178-1.27-5.518v-3.519a3.124,3.124,0,0,0-2.529-2.523h-10.04Z" transform="translate(-190.645 -283.849)" fill="#ffc93c" fill-rule="evenodd" opacity="0.538"/>
      <path id="Trazado_101943" data-name="Trazado 101943" d="M299.172,380.541h10.046a3.125,3.125,0,0,0,2.523-2.523v-4.644a3.124,3.124,0,0,0-2.523-2.529H299.172Z" transform="translate(-239.221 -307.201)" fill="#9ddfd3" fill-rule="evenodd"/>
      <path id="Trazado_101944" data-name="Trazado 101944" d="M104.558,212.225H15.607a9.774,9.774,0,0,1-3.985-.845,9.814,9.814,0,0,0,8.973,5.832h88.951a4.2,4.2,0,0,0,3.391-3.391V160.164a4.2,4.2,0,0,0-3.391-3.391h-1.6v52.061a4.2,4.2,0,0,1-3.391,3.391Z" transform="translate(-10.777 -137.132)" fill="#dee4f0" fill-rule="evenodd"/>
      <path id="Trazado_101945" data-name="Trazado 101945" d="M46.592,80.859v40.833a8.886,8.886,0,0,1,3.939,1.253.682.682,0,0,0,1.049-.641V64.451a2.388,2.388,0,0,0-1.194-2.028,9.717,9.717,0,0,0-4.725-1.206,10,10,0,0,0-2.488.314,9.994,9.994,0,0,1,2.226.891,2.389,2.389,0,0,1,1.194,2.028V80.859Z" transform="translate(-35.842 -61.218)" fill="#d2e1f1" fill-rule="evenodd"/>
      <path id="Trazado_101946" data-name="Trazado 101946" d="M440.2,116.011v49.107h4.988V116.011Z" transform="translate(-351.258 -104.748)" fill="#ffc93c" fill-rule="evenodd" style="mix-blend-mode: multiply;isolation: isolate"/>
      <path id="Trazado_101947" data-name="Trazado 101947" d="M424.613,65.244v7.237H429.6V65.244a4.039,4.039,0,0,0-4.026-4.026h-4.994A4.04,4.04,0,0,1,424.613,65.244Z" transform="translate(-335.674 -61.218)" fill="#cc3d60" fill-rule="evenodd" style="mix-blend-mode: multiply;isolation: isolate"/>
    </g>
    <path id="Trazado_101948" data-name="Trazado 101948" d="M93.933,64.973v-5.7a2.507,2.507,0,0,0-2.488-2.488H86.329a2.5,2.5,0,0,0-2.488,2.488v5.7H93.933ZM29.489,92.679A1.541,1.541,0,0,1,31.668,90.5l1.4,1.4,3.9-3.9a1.543,1.543,0,0,1,2.179,2.185l-4.988,4.988a1.544,1.544,0,0,1-2.179,0ZM87.343,74.89a1.541,1.541,0,1,1,3.082,0v32.355a1.541,1.541,0,1,1-3.082,0Zm-24.3,52.16h9.486v-6.613H63.039Zm11.024,3.082H23.785a1.547,1.547,0,0,1-1.544-1.544v-9.7a1.542,1.542,0,0,1,1.544-1.538h11.03v-8.787a1.537,1.537,0,0,1,1.538-1.538H48.927a1.537,1.537,0,0,1,1.538,1.538v2.739H61.5a1.547,1.547,0,0,1,1.544,1.544v4.5H74.063a1.542,1.542,0,0,1,1.544,1.538v9.7A1.547,1.547,0,0,1,74.063,130.133Zm-23.6-3.082h9.486V114.395H50.465Zm-12.568,0h9.486V110.112H37.9Zm-12.574,0h9.492v-6.613H25.323Zm-6.5-53.7H80.753V59.275a5.59,5.59,0,0,1,5.576-5.57h5.116a5.59,5.59,0,0,1,5.57,5.57V73.346H103.7a1.542,1.542,0,0,1,1.538,1.544v60.44a1.537,1.537,0,0,1-1.538,1.538H61.023a1.541,1.541,0,0,1,0-3.082H102.16V76.428H97.015V87.575a1.541,1.541,0,1,1-3.082,0V68.056H83.841V114.08H93.933V94.561a1.541,1.541,0,1,1,3.082,0v21.058a1.636,1.636,0,0,1-.262.874l-6.491,12.784a1.567,1.567,0,0,1-.688.688,1.535,1.535,0,0,1-2.062-.682L81,116.463a1.64,1.64,0,0,1-.245-.845V76.428H18.82V88.093a1.541,1.541,0,1,1-3.082,0V58.034a8.177,8.177,0,0,0-4.376-1.247,8.276,8.276,0,0,0-8.28,8.28v52.661c.082-.088.163-.175.245-.256a11.331,11.331,0,0,1,8.035-3.327,11.505,11.505,0,0,1,3.613.589c.257.087.513.186.763.291V95.08a1.541,1.541,0,1,1,3.082,0v22.59a1.542,1.542,0,0,1-2.471,1.224A8.072,8.072,0,0,0,14,117.652a8.282,8.282,0,1,0-2.634,16.134H54.043a1.541,1.541,0,0,1,0,3.082H11.362A11.359,11.359,0,0,1,0,125.506V65.066a11.362,11.362,0,0,1,18.133-9.125,1.553,1.553,0,0,1,.688,1.288V73.346Zm74.145,43.816H84.8l4.085,8.035Zm-20.6-34.476a1.541,1.541,0,0,1,0,3.082H51.5a1.541,1.541,0,0,1,0-3.082ZM63.686,97.4a1.541,1.541,0,1,1,0,3.082H51.5a1.541,1.541,0,0,1,0-3.082Zm8.676-7.359a1.541,1.541,0,0,1,0,3.082H51.5a1.541,1.541,0,0,1,0-3.082Zm-46.87-8.833H43.153a1.542,1.542,0,0,1,1.538,1.544v17.661a1.542,1.542,0,0,1-1.538,1.544H25.492a1.543,1.543,0,0,1-1.544-1.544V82.756a1.543,1.543,0,0,1,1.544-1.544ZM41.609,84.3H27.03V98.878H41.609Z" transform="translate(0 0)"/>
  </g>
</svg>
