<svg xmlns="http://www.w3.org/2000/svg" width="128.054" height="128.156" viewBox="0 0 128.054 128.156">
  <g id="conocimiento" transform="translate(-0.203)">
    <g id="Flat_4_" transform="translate(2.082 1.981)">
      <path id="Trazado_101872" data-name="Trazado 101872" d="M15.221,390.195a8.771,8.771,0,0,1,8.771-8.771H132v-7.518H23.992a16.289,16.289,0,1,0,0,32.577H132v-7.518H23.992a8.771,8.771,0,0,1-8.771-8.771Z" transform="translate(-7.703 -282.188)" fill="#ffc93c"/>
      <path id="Trazado_101873" data-name="Trazado 101873" d="M150.471,403.906h-104a8.771,8.771,0,0,0,0,17.542h104Z" transform="translate(-30.185 -304.67)" fill="#fff"/>
      <path id="Trazado_101874" data-name="Trazado 101874" d="M38.548,423.906a8.773,8.773,0,0,0,7.926,12.53h104v-7.518h-104A8.771,8.771,0,0,1,38.548,423.906Z" transform="translate(-30.185 -319.658)" fill="#e4e8ed"/>
      <path id="Trazado_101875" data-name="Trazado 101875" d="M63.221,286.436a5.012,5.012,0,0,1,5.012-5.012h87.708v-7.518H68.233a12.53,12.53,0,1,0,0,25.06h87.708v-7.518H68.233A5.012,5.012,0,0,1,63.221,286.436Z" transform="translate(-43.674 -207.248)" fill="#cc3d60"/>
      <path id="Trazado_101876" data-name="Trazado 101876" d="M174.414,303.906h-83.7a5.012,5.012,0,0,0,0,10.024h83.7Z" transform="translate(-66.157 -229.73)" fill="#fff"/>
      <path id="Trazado_101877" data-name="Trazado 101877" d="M200.834,68.906V106.5s-7.518,5.012-27.565,5.012S145.7,106.5,145.7,106.5V68.906Z" transform="translate(-111.121 -53.62)" fill="#616161"/>
      <path id="Trazado_101878" data-name="Trazado 101878" d="M145.7,188.906v7.518s7.518,5.012,27.566,5.012,27.565-5.012,27.565-5.012v-7.518s-7.518,5.012-27.565,5.012S145.7,188.906,145.7,188.906Z" transform="translate(-111.121 -143.548)" fill="#424242"/>
      <path id="Trazado_101879" data-name="Trazado 101879" d="M415.727,171.436H405.7v-7.518a5.012,5.012,0,1,1,10.024,0Z" transform="translate(-305.966 -121.066)" fill="#616161"/>
      <path id="Trazado_101880" data-name="Trazado 101880" d="M165.917,22.942,120.81,37.977,75.7,22.942,120.81,7.906Z" transform="translate(-58.663 -7.906)" fill="#616161"/>
      <path id="Trazado_101881" data-name="Trazado 101881" d="M153.889,51.906,120.81,62.932,87.732,51.906,75.7,55.916,120.81,70.951l45.107-15.036Z" transform="translate(-58.663 -40.88)" fill="#424242"/>
    </g>
    <g id="Grupo_55617" data-name="Grupo 55617" transform="translate(22.13 47.715)">
      <path id="Trazado_101882" data-name="Trazado 101882" d="M87.7,436.406h3.759v3.759H87.7Z" transform="translate(-87.703 -374.76)" fill="#fff"/>
      <path id="Trazado_101883" data-name="Trazado 101883" d="M295.7,190.406h3.759v3.759H295.7Z" transform="translate(-243.579 -190.406)" fill="#fff"/>
    </g>
    <g id="Outline_4_" transform="translate(0.203 0)">
      <path id="Trazado_101884" data-name="Trazado 101884" d="M128.257,302.742V291.466H116.229v-7.518h-4.01v-6.265h4.01V266.406H86.247v3.759H112.47v3.759H34.7v3.759H108.46v6.265H26.641a3.132,3.132,0,0,1,0-6.265h4.3v-3.759h-4.3a6.891,6.891,0,1,0,0,13.783H112.47v3.759H47.691v3.759H124.5v3.759H18.371a10.65,10.65,0,0,0,0,21.3H106.9v-3.759H18.371a6.891,6.891,0,0,1,0-13.783H120.489v6.265H37.166v3.759h83.323v3.759h-9.827v3.759H124.5v3.759H18.371a14.409,14.409,0,1,1,0-28.818H43.932v-3.759H26.641a10.65,10.65,0,0,1,0-21.3H82.488v-3.759H26.641a14.4,14.4,0,0,0-9.631,25.116,18.165,18.165,0,0,0,1.362,36.28H128.257V316.525h-4.01V302.742Z" transform="translate(-0.203 -199.646)"/>
      <path id="Trazado_101885" data-name="Trazado 101885" d="M117.7,436.406h3.759v3.759H117.7Z" transform="translate(-88.258 -327.045)"/>
      <path id="Trazado_101886" data-name="Trazado 101886" d="M73.592,55.863l.837.558c.326.218,8.226,5.328,28.608,5.328s28.282-5.11,28.608-5.328l.837-.558V24.219l11.277-3.759V38.2a6.9,6.9,0,0,0-5.012,6.629v9.4h13.783v-9.4a6.9,6.9,0,0,0-5.012-6.629v-19l6.57-2.19-19.738-6.58L133.16,14l9.04,3.013L103.037,30.071,63.873,17.017,103.037,3.962l26.557,8.853,1.189-3.566L103.037,0,51.986,17.017l21.606,7.2ZM148.77,44.833v5.638h-6.265V44.833a3.132,3.132,0,1,1,6.265,0ZM77.351,25.472l25.686,8.562,25.686-8.562V40.2h-4.636v3.759h4.636v3.759h-8.144v3.759h8.144V53.74c-2.422,1.18-10.216,4.25-25.686,4.25s-23.276-3.075-25.686-4.249Z" transform="translate(-39.009 0)"/>
    </g>
  </g>
</svg>
