<svg xmlns="http://www.w3.org/2000/svg" width="40.895" height="52.017" viewBox="0 0 40.895 52.017">
  <g id="idea" transform="translate(0)">
    <g id="Grupo_55609" data-name="Grupo 55609" transform="translate(7.166 7.167)">
      <path id="Trazado_101834" data-name="Trazado 101834" d="M217.179,455.68l3.765-1.024,3.765,1.024v.314a3.765,3.765,0,1,1-7.53,0Z" transform="translate(-207.676 -415.286)" fill="#afafaf"/>
      <path id="Trazado_101835" data-name="Trazado 101835" d="M211.668,365.54H205.1a1.342,1.342,0,0,1-1.342-1.342v-8.936l5.139-1.024,4.116,1.024V364.2A1.342,1.342,0,0,1,211.668,365.54Z" transform="translate(-195.626 -325.146)" fill="#e8e8e8"/>
      <path id="Trazado_101836" data-name="Trazado 101836" d="M265.4,360.01v9.369a1.342,1.342,0,0,1-1.342,1.342h2.764a1.342,1.342,0,0,0,1.342-1.342v-8.936Z" transform="translate(-249.759 -330.327)" fill="#afafaf"/>
      <path id="Trazado_101837" data-name="Trazado 101837" d="M149.871,83.3c0-7.279-4.832-13.19-12.089-13.281A13.281,13.281,0,0,0,128.749,93.2a11.656,11.656,0,0,1,3.682,6.766l.03.177H142.74l.025-.15c.443-2.649.771-5.049,2.758-6.856a13.245,13.245,0,0,0,4.348-9.828Z" transform="translate(-124.332 -70.023)" fill="#ffc93c"/>
      <path id="Trazado_101838" data-name="Trazado 101838" d="M242.257,70.024a13.091,13.091,0,0,0-1.537.072,13.281,13.281,0,0,1,7.538,23.036,11.949,11.949,0,0,0-3.782,6.856l-.025.15h2.764l.025-.15a11.949,11.949,0,0,1,3.782-6.856,13.281,13.281,0,0,0-8.764-23.108Z" transform="translate(-228.807 -70.023)" fill="#ffc93c" style="mix-blend-mode: multiply;isolation: isolate"/>
      <path id="Trazado_101839" data-name="Trazado 101839" d="M184.385,122.217v-2.229a.512.512,0,0,0-.512-.512h-2.1a6.521,6.521,0,0,0-.712-1.718l1.488-1.488a.512.512,0,0,0,0-.724l-1.576-1.576a.512.512,0,0,0-.724,0l-1.488,1.488a6.524,6.524,0,0,0-1.718-.713v-2.1a.512.512,0,0,0-.512-.512H174.3a.512.512,0,0,0-.512.512v2.1a6.52,6.52,0,0,0-1.718.712l-1.488-1.488a.512.512,0,0,0-.724,0l-1.576,1.576a.512.512,0,0,0,0,.724l1.488,1.488a6.521,6.521,0,0,0-.712,1.718h-2.1a.512.512,0,0,0-.512.512v2.229a.512.512,0,0,0,.512.512h2.1a6.522,6.522,0,0,0,.712,1.718l-1.488,1.488a.512.512,0,0,0,0,.724l1.576,1.576a.512.512,0,0,0,.724,0l1.488-1.488a6.52,6.52,0,0,0,1.718.712v2.1a.512.512,0,0,0,.512.512h2.229a.512.512,0,0,0,.512-.512v-2.1a6.52,6.52,0,0,0,1.718-.712l1.488,1.488a.512.512,0,0,0,.724,0l1.576-1.576a.512.512,0,0,0,0-.724l-1.488-1.488a6.525,6.525,0,0,0,.712-1.718h2.1A.512.512,0,0,0,184.385,122.217Zm-8.971,2.055a3.17,3.17,0,1,1,3.17-3.17A3.17,3.17,0,0,1,175.413,124.273Z" transform="translate(-162.132 -107.821)" fill="#9ddfd3"/>
    </g>
    <g id="_x31_3_idea_1_" transform="translate(0 0)">
      <path id="Trazado_101840" data-name="Trazado 101840" d="M247.358,4.981a.768.768,0,0,0,.768-.768V.768a.768.768,0,1,0-1.535,0V4.213A.768.768,0,0,0,247.358,4.981Z" transform="translate(-226.91)"/>
      <path id="Trazado_101841" data-name="Trazado 101841" d="M361.4,56.54l-2.436,2.436a.768.768,0,0,0,1.086,1.086l2.436-2.436A.768.768,0,0,0,361.4,56.54Z" transform="translate(-327.582 -50.551)"/>
      <path id="Trazado_101842" data-name="Trazado 101842" d="M113.3,304.646l-2.436,2.436a.768.768,0,1,0,1.086,1.086l2.436-2.436a.768.768,0,1,0-1.086-1.086Z" transform="translate(-104.87 -273.261)"/>
      <path id="Trazado_101843" data-name="Trazado 101843" d="M113.3,60.061a.768.768,0,1,0,1.086-1.086l-2.436-2.436a.768.768,0,0,0-1.086,1.086Z" transform="translate(-104.87 -50.55)"/>
      <path id="Trazado_101844" data-name="Trazado 101844" d="M360.053,304.646a.768.768,0,1,0-1.086,1.086l2.436,2.436a.768.768,0,0,0,1.086-1.086Z" transform="translate(-327.583 -273.261)"/>
      <path id="Trazado_101845" data-name="Trazado 101845" d="M58.533,192.269H55.088a.768.768,0,0,0,0,1.535h3.446a.768.768,0,0,0,0-1.535Z" transform="translate(-54.32 -172.589)"/>
      <path id="Trazado_101846" data-name="Trazado 101846" d="M409.41,192.269h-3.446a.768.768,0,0,0,0,1.535h3.446a.768.768,0,0,0,0-1.535Z" transform="translate(-369.283 -172.589)"/>
      <path id="Trazado_101847" data-name="Trazado 101847" d="M137.743,226.809a.768.768,0,0,0,0-1.535h-.277v-2.595l.015-.087a10.882,10.882,0,0,1,.836-2.726.768.768,0,1,0-1.4-.638,12.446,12.446,0,0,0-.86,2.62h-9a12.44,12.44,0,0,0-3.839-6.747,12.48,12.48,0,0,1-4.088-7.949.768.768,0,1,0-1.526.166,14.013,14.013,0,0,0,4.59,8.926,10.921,10.921,0,0,1,3.438,6.321l.019.115v2.595H125.4a.768.768,0,0,0,0,1.535h.252V228.7H125.4a.768.768,0,0,0,0,1.535h.252v1.316a2.112,2.112,0,0,0,1.385,1.979,4.507,4.507,0,0,0,2.507,3.739.768.768,0,0,0,.683-1.375,2.981,2.981,0,0,1-1.631-2.233h5.926a2.98,2.98,0,0,1-1.631,2.233.768.768,0,1,0,.683,1.375,4.507,4.507,0,0,0,2.507-3.739,2.111,2.111,0,0,0,1.385-1.979v-1.316h.277a.768.768,0,1,0,0-1.535h-.277v-1.891Zm-10.556-3.426h8.743v1.891h-8.743Zm8.743,8.169a.575.575,0,0,1-.575.575h-7.594a.575.575,0,0,1-.575-.575v-1.316h8.743Zm0-2.852h-8.743v-1.891h8.743Z" transform="translate(-111.124 -185.333)"/>
      <path id="Trazado_101848" data-name="Trazado 101848" d="M219.559,169.175a3.938,3.938,0,1,0-3.938-3.938A3.942,3.942,0,0,0,219.559,169.175Zm0-6.34a2.4,2.4,0,1,1-2.4,2.4A2.4,2.4,0,0,1,219.559,162.835Z" transform="translate(-199.111 -144.79)"/>
      <path id="Trazado_101849" data-name="Trazado 101849" d="M160.22,111.966a1.281,1.281,0,0,0-1.279,1.279v2.229a1.281,1.281,0,0,0,1.279,1.279h1.532a7.29,7.29,0,0,0,.336.811l-1.084,1.084a1.281,1.281,0,0,0,0,1.809l1.576,1.576a1.281,1.281,0,0,0,1.809,0l1.084-1.084a7.292,7.292,0,0,0,.811.336v1.532a1.281,1.281,0,0,0,1.279,1.279h2.229a1.281,1.281,0,0,0,1.279-1.279v-1.532a7.291,7.291,0,0,0,.811-.336l1.084,1.084a1.279,1.279,0,0,0,1.81,0l1.576-1.576a1.281,1.281,0,0,0,0-1.809l-1.084-1.084a7.249,7.249,0,0,0,.336-.811h1.532a1.281,1.281,0,0,0,1.279-1.279v-2.229a1.281,1.281,0,0,0-1.279-1.279h-1.532a7.274,7.274,0,0,0-.336-.811l1.084-1.084a1.281,1.281,0,0,0,0-1.809l-1.576-1.576a1.28,1.28,0,0,0-1.809,0l-1.084,1.084a7.272,7.272,0,0,0-.811-.336V105.9a1.281,1.281,0,0,0-1.279-1.279h-2.229a1.281,1.281,0,0,0-1.279,1.279v1.532a7.274,7.274,0,0,0-.811.336l-1.084-1.084a1.281,1.281,0,0,0-1.809,0l-1.576,1.576a1.281,1.281,0,0,0,0,1.809l1.084,1.084a7.293,7.293,0,0,0-.337.811H160.22Zm3.358-1.493-1.307-1.307,1.214-1.214,1.307,1.307a.768.768,0,0,0,.935.117,5.753,5.753,0,0,1,1.516-.629.768.768,0,0,0,.578-.744v-1.847h1.717V108a.768.768,0,0,0,.578.744,5.752,5.752,0,0,1,1.516.629.768.768,0,0,0,.935-.117l1.307-1.307,1.214,1.214-1.307,1.307a.768.768,0,0,0-.117.935,5.752,5.752,0,0,1,.629,1.516.768.768,0,0,0,.744.578h1.847v1.718h-1.847a.768.768,0,0,0-.744.578,5.751,5.751,0,0,1-.629,1.516.768.768,0,0,0,.117.935l1.307,1.307-1.214,1.214-1.307-1.307a.767.767,0,0,0-.935-.117,5.754,5.754,0,0,1-1.516.629.768.768,0,0,0-.578.744v1.847h-1.717v-1.847a.768.768,0,0,0-.578-.744,5.759,5.759,0,0,1-1.516-.629.768.768,0,0,0-.935.117l-1.307,1.307-1.214-1.214,1.307-1.307a.768.768,0,0,0,.117-.935,5.756,5.756,0,0,1-.629-1.516.768.768,0,0,0-.744-.578h-1.847V113.5h1.847a.768.768,0,0,0,.744-.578,5.755,5.755,0,0,1,.629-1.516A.768.768,0,0,0,163.579,110.473Z" transform="translate(-148.232 -93.912)"/>
      <path id="Trazado_101850" data-name="Trazado 101850" d="M141.814,66.687a14.083,14.083,0,0,0-23.928,8.1.768.768,0,1,0,1.523.2,12.513,12.513,0,1,1,20.83,10.834,13.222,13.222,0,0,0-1.133,1.166.768.768,0,1,0,1.165,1,11.682,11.682,0,0,1,1-1.03,14.049,14.049,0,0,0,.543-20.271Z" transform="translate(-111.374 -56.114)"/>
    </g>
  </g>
</svg>
