<svg xmlns="http://www.w3.org/2000/svg" xmlns:xlink="http://www.w3.org/1999/xlink" width="37" height="37" viewBox="0 0 37 37">
  <defs>
    <clipPath id="clip-path">
      <rect id="Rectángulo_5276" data-name="Rectángulo 5276" width="37" height="37" transform="translate(899.57 1142)" fill="#cc3d60" stroke="#707070" stroke-width="1"/>
    </clipPath>
  </defs>
  <g id="Enmascarar_grupo_8" data-name="Enmascarar grupo 8" transform="translate(-899.57 -1142)" clip-path="url(#clip-path)">
    <g id="lista-de-verificacion" transform="translate(899.501 1142)">
      <path id="Trazado_101559" data-name="Trazado 101559" d="M17.6,39.727a.724.724,0,1,0,.512.212A.73.73,0,0,0,17.6,39.727Zm0,0" transform="translate(-2.974 -7)" fill="#cc3d60" stroke="#ca3f61" stroke-width="0.5"/>
      <path id="Trazado_101560" data-name="Trazado 101560" d="M36.3,9.87a2.642,2.642,0,0,0-3.732,0l-3.315,3.315V2.462A2.465,2.465,0,0,0,26.789,0H2.462A2.465,2.465,0,0,0,0,2.462V34.609A2.465,2.465,0,0,0,2.462,37.07H26.789a2.465,2.465,0,0,0,2.462-2.462V20.649L36.3,13.6A2.642,2.642,0,0,0,36.3,9.87ZM27.8,2.462V14.633l-1.448,1.448V3.62a.724.724,0,0,0-.724-.724H20.792V1.448h6A1.015,1.015,0,0,1,27.8,2.462ZM23.849,22.318l.977-2.2,1.218,1.218ZM19.344,1.448V4.4a.815.815,0,0,1-.815.815H10.722A.815.815,0,0,1,9.907,4.4V1.448Zm7.445,34.174H2.462a1.015,1.015,0,0,1-1.014-1.014V2.462A1.015,1.015,0,0,1,2.462,1.448h6V2.9H3.62A.724.724,0,0,0,2.9,3.62V33.45a.724.724,0,0,0,.724.724h8.109a.724.724,0,0,0,0-1.448H4.344V4.344H8.459V4.4a2.265,2.265,0,0,0,2.263,2.263h7.808A2.265,2.265,0,0,0,20.792,4.4V4.344h4.115V17.529l-.825.824a.733.733,0,0,0-.149.217l-2.173,4.881a.724.724,0,0,0,.956.956l2.191-.976v9.294H17.522a.724.724,0,1,0,0,1.448h8.109a.724.724,0,0,0,.724-.724V22.788l1.242-.553A.722.722,0,0,0,27.8,22.1V34.609A1.015,1.015,0,0,1,26.789,35.622Zm5.786-20.346L27.3,20.549l-1.684-1.684,6.528-6.528,1.684,1.684Zm2.7-2.7L34.854,13,33.17,11.313l.419-.419a1.191,1.191,0,0,1,1.684,1.684Zm0,0" fill="#cc3d60" stroke="#ca3f61" stroke-width="0.5"/>
      <path id="Trazado_101561" data-name="Trazado 101561" d="M13.092,10.547H8.458a.724.724,0,0,0-.724.724V15.9a.724.724,0,0,0,.724.724h4.634a.724.724,0,0,0,.724-.724V11.271A.724.724,0,0,0,13.092,10.547Zm-.724,4.634H9.182V11.995h3.186Zm0,0" transform="translate(-1.363 -1.859)" fill="#cc3d60" stroke="#ca3f61" stroke-width="0.5"/>
      <path id="Trazado_101562" data-name="Trazado 101562" d="M13.092,20.215H8.458a.724.724,0,0,0-.724.724v4.634a.724.724,0,0,0,.724.724h4.634a.724.724,0,0,0,.724-.724V20.939A.724.724,0,0,0,13.092,20.215Zm-.724,4.634H9.182V21.663h3.186Zm0,0" transform="translate(-1.363 -3.562)" fill="#cc3d60" stroke="#ca3f61" stroke-width="0.5"/>
      <path id="Trazado_101563" data-name="Trazado 101563" d="M13.092,29.883H8.458a.724.724,0,0,0-.724.724v4.634a.724.724,0,0,0,.724.724h4.634a.724.724,0,0,0,.724-.724V30.607A.724.724,0,0,0,13.092,29.883Zm-.724,4.634H9.182V31.331h3.186Zm0,0" transform="translate(-1.363 -5.266)" fill="#cc3d60" stroke="#ca3f61" stroke-width="0.5"/>
      <path id="Trazado_101564" data-name="Trazado 101564" d="M20.139,15.88a.724.724,0,0,0,1.024,0l3.269-3.269a.724.724,0,0,0-1.024-1.024l-2.757,2.757-1.1-1.1a.724.724,0,1,0-1.024,1.024Zm0,0" transform="translate(-3.228 -2.005)" fill="#cc3d60" stroke="#ca3f61" stroke-width="0.5"/>
      <path id="Trazado_101565" data-name="Trazado 101565" d="M20.139,25.548a.724.724,0,0,0,1.024,0l3.269-3.269a.724.724,0,0,0-1.024-1.024l-2.757,2.757-1.1-1.1a.724.724,0,1,0-1.024,1.024Zm0,0" transform="translate(-3.228 -3.708)" fill="#cc3d60" stroke="#ca3f61" stroke-width="0.5"/>
      <path id="Trazado_101566" data-name="Trazado 101566" d="M21.653,34.094l1.123,1.122A.724.724,0,0,0,23.8,34.192L22.677,33.07,23.8,31.947a.724.724,0,1,0-1.024-1.024l-1.123,1.122L20.53,30.923a.724.724,0,0,0-1.024,1.024l1.123,1.123-1.123,1.123a.724.724,0,0,0,1.024,1.024Zm0,0" transform="translate(-3.4 -5.412)" fill="#cc3d60" stroke="#ca3f61" stroke-width="0.5"/>
    </g>
  </g>
</svg>
