<svg xmlns="http://www.w3.org/2000/svg" width="37" height="37" viewBox="0 0 37 37">
  <g id="Grupo_55505" data-name="Grupo 55505" transform="translate(-804.5 -1139)">
    <g id="amor" transform="translate(806.144 1140.644)">
      <path id="Trazado_101535" data-name="Trazado 101535" d="M19.356,28.361C18.5,27.725,11,22.008,11,17.16a5.183,5.183,0,0,1,8.973-3.512,5.183,5.183,0,0,1,8.973,3.512c0,4.848-7.5,10.565-8.356,11.2a1.035,1.035,0,0,1-1.234,0Z" transform="translate(4.185 4.563)" fill="#cc3d60"/>
      <path id="Trazado_101536" data-name="Trazado 101536" d="M23.87.151A12.067,12.067,0,0,0,14.234,2.76,12.067,12.067,0,0,0,4.6.151,2.432,2.432,0,0,0,2.5,2.539V17.683a2.424,2.424,0,0,0,2.706,2.388A10.173,10.173,0,0,1,11.487,21.4a7.326,7.326,0,0,1,.387-2.126,11.872,11.872,0,0,0-5.494-1.339,12.22,12.22,0,0,0-1.408.083.358.358,0,0,1-.29-.1.3.3,0,0,1-.11-.235V2.539a.367.367,0,0,1,.318-.345A10.076,10.076,0,0,1,13.2,4.6c.124.083.235.193.359.29a1.013,1.013,0,0,0,1.353,0c.124-.1.235-.207.359-.29a10.123,10.123,0,0,1,8.31-2.4.367.367,0,0,1,.318.345v11.9a8.22,8.22,0,0,1,2.071-.566V2.539A2.432,2.432,0,0,0,23.87.151Z" transform="translate(0.951 -0.002)" fill="#cc3d60"/>
      <path id="Trazado_101537" data-name="Trazado 101537" d="M12.424,20.968a7.487,7.487,0,0,0,.207,1.739H2.416A2.427,2.427,0,0,1,0,20.291V4.416A2.425,2.425,0,0,1,2.4,2H4.141a1.035,1.035,0,1,1,0,2.071H2.416a.351.351,0,0,0-.345.345V20.291a.342.342,0,0,0,.345.345H12.438A2.66,2.66,0,0,0,12.424,20.968Z" transform="translate(0 0.758)" fill="#cc3d60"/>
      <path id="Trazado_101538" data-name="Trazado 101538" d="M23.427,4.416v9a7.939,7.939,0,0,0-2.071-.359V4.416a.342.342,0,0,0-.345-.345H19.285a1.035,1.035,0,0,1,0-2.071h1.726A2.427,2.427,0,0,1,23.427,4.416Z" transform="translate(6.944 0.758)" fill="#cc3d60"/>
      <path id="Trazado_101539" data-name="Trazado 101539" d="M12.321,3.285V14.122a7.537,7.537,0,0,0-2.071,1.836V3.285a1.035,1.035,0,1,1,2.071,0Z" transform="translate(3.9 0.853)" fill="#cc3d60"/>
    </g>
    <rect id="Rectángulo_5275" data-name="Rectángulo 5275" width="37" height="37" transform="translate(804.5 1139)" fill="none"/>
  </g>
</svg>
