<svg xmlns="http://www.w3.org/2000/svg" width="37.904" height="37" viewBox="0 0 37.904 37">
  <g id="Grupo_55504" data-name="Grupo 55504" transform="translate(-731.999 -1142)">
    <g id="intelectual" transform="translate(732.5 1143.64)">
      <g id="Grupo_55467" data-name="Grupo 55467" transform="translate(22.687 10.831)">
        <g id="Grupo_55466" data-name="Grupo 55466">
          <path id="Trazado_101540" data-name="Trazado 101540" d="M318.243,206.563l-.009-11.788a2.749,2.749,0,0,0-5.456-.475l-1.524,8.639a2.467,2.467,0,0,0-1.749.432l-5.2,3.658a.645.645,0,0,0-.274.528v7.085a.646.646,0,0,0,.646.646h6.461a.646.646,0,0,0,.646-.646v-.817l4.253-2.708A5.466,5.466,0,0,0,318.243,206.563Zm-2.915,3.471h0l-4.539,2.89a.647.647,0,0,0-.3.545V214h-5.168v-6.1l4.926-3.465a1.187,1.187,0,0,1,1.395,1.921l-3.478,2.608.775,1.033,3.478-2.608a2.479,2.479,0,0,0,.265-3.736,2.579,2.579,0,0,0-.209-.187l1.576-8.933a1.457,1.457,0,0,1,2.891.252l.009,11.787A4.164,4.164,0,0,1,315.329,210.034Z" transform="translate(-304.03 -192.029)" fill="#cc3d60" stroke="#ca3f61" stroke-linecap="round" stroke-linejoin="round" stroke-width="1"/>
        </g>
      </g>
      <g id="Grupo_55469" data-name="Grupo 55469" transform="translate(0 10.83)">
        <g id="Grupo_55468" data-name="Grupo 55468">
          <path id="Trazado_101541" data-name="Trazado 101541" d="M13.941,207.021l-5.2-3.658a2.468,2.468,0,0,0-1.749-.432l-1.524-8.639a2.749,2.749,0,0,0-5.456.475L0,206.557a5.469,5.469,0,0,0,2.221,4.56l4.24,2.7v.817a.646.646,0,0,0,.646.646H13.57a.646.646,0,0,0,.646-.646V207.55A.645.645,0,0,0,13.941,207.021Zm-1.018,6.967H7.755v-.526a.647.647,0,0,0-.3-.545L2.93,210.036a4.167,4.167,0,0,1-1.636-3.478L1.3,194.77a1.457,1.457,0,0,1,2.891-.252l1.576,8.933a2.582,2.582,0,0,0-.209.187,2.479,2.479,0,0,0,.265,3.736l3.478,2.608.775-1.033L6.6,206.341A1.187,1.187,0,0,1,8,204.42l4.926,3.465v6.1Z" transform="translate(0 -192.022)" fill="#cc3d60" stroke="#ca3f61" stroke-linecap="round" stroke-linejoin="round" stroke-width="1"/>
        </g>
      </g>
      <g id="Grupo_55503" data-name="Grupo 55503" transform="translate(8.962 0)">
        <g id="Grupo_55502" data-name="Grupo 55502">
          <path id="Trazado_101558" data-name="Trazado 101558" d="M139,40.253c0-1.942-1.207-4.025-3.2-4.376a4.223,4.223,0,0,0-4.154-3.847,4.157,4.157,0,0,0-2.138.59,4.157,4.157,0,0,0-2.138-.59A4.354,4.354,0,0,0,123.1,36.01a4.394,4.394,0,0,0-3.076,4.243,4.507,4.507,0,0,0,.775,2.53,4.507,4.507,0,0,0-.775,2.53c0,1.942,1.207,4.025,3.2,4.376a4.223,4.223,0,0,0,4.154,3.847,4.157,4.157,0,0,0,2.138-.59,4.157,4.157,0,0,0,2.138.59,4.354,4.354,0,0,0,4.276-3.981A4.394,4.394,0,0,0,139,45.314a4.507,4.507,0,0,0-.775-2.53A4.507,4.507,0,0,0,139,40.253Zm-10.122-2.53a1.265,1.265,0,1,1-2.53,0h-1.265a2.533,2.533,0,0,0,2.53,2.53,2.5,2.5,0,0,0,1.265-.352V51.842a2.9,2.9,0,0,1-1.505.431,2.959,2.959,0,0,1-2.875-2.635,2.524,2.524,0,0,0-.68-4.956v1.265a1.265,1.265,0,1,1,0,2.53c-1.514,0-2.53-1.636-2.53-3.163a3.233,3.233,0,0,1,.784-2.117.632.632,0,0,0,0-.828,3.233,3.233,0,0,1-.784-2.117,3.113,3.113,0,0,1,2.532-3.116.693.693,0,0,0,.522-.68,3.1,3.1,0,0,1,3.032-3.163,2.9,2.9,0,0,1,1.505.431Zm8.072,5.475a3.233,3.233,0,0,1,.784,2.117,3.113,3.113,0,0,1-2.532,3.116.693.693,0,0,0-.522.68,3.1,3.1,0,0,1-3.032,3.163,2.9,2.9,0,0,1-1.505-.431V44.681a1.265,1.265,0,1,1,2.53,0h1.265a2.533,2.533,0,0,0-2.53-2.53,2.5,2.5,0,0,0-1.265.352V33.725a2.9,2.9,0,0,1,1.505-.431,2.959,2.959,0,0,1,2.875,2.635,2.524,2.524,0,0,0,.68,4.956V39.62a1.265,1.265,0,1,1,0-2.53c1.514,0,2.53,1.636,2.53,3.163a3.233,3.233,0,0,1-.784,2.117A.632.632,0,0,0,136.954,43.2Z" transform="translate(-120.025 -32.029)" fill="#cc3d60" stroke="#ca3f61" stroke-linecap="round" stroke-linejoin="round" stroke-width="1"/>
        </g>
      </g>
    </g>
    <rect id="Rectángulo_5274" data-name="Rectángulo 5274" width="37" height="37" transform="translate(732.402 1142)" fill="none"/>
  </g>
</svg>
